<svg width="38" height="38" viewBox="0 0 38 38" fill="none" xmlns="http://www.w3.org/2000/svg">
<path fill-rule="evenodd" clip-rule="evenodd" d="M17.3447 0.353516L12.1782 11.1631L15.1669 33.0989L20.5376 37.6704L20.917 10.7306L17.3447 0.353516ZM12.7317 31.026L7.06286 16.3522L7.48511 11.7475L7.44176 11.6916L0.242371 20.3951L12.7317 31.026ZM25.4196 31.4175L29.4426 15.2711L34.0975 14.0393L34.7711 17.8657L25.4196 31.4175Z" fill="white"/>
<path d="M20.5402 37.6705L20.6423 37.7574L22.9938 34.9145L26.6743 11.8118L23.6904 6.62269L17.4006 0.242188L17.3473 0.35362L20.9196 10.7307L20.5402 37.6705Z" fill="#139FE4"/>
<path d="M10.0494 15.055L13.0965 31.3345L12.7343 31.0261L7.06543 16.3523L7.48768 11.7476L10.0494 15.055Z" fill="#139FE4"/>
<path d="M37.7576 17.066L25.2221 32.2206L25.4222 31.4176L34.7737 17.8658L34.1001 14.0394L34.1778 14.0188L37.7576 17.066Z" fill="#139FE4"/>
</svg>
