<svg width="104" height="41" viewBox="0 0 104 41" fill="none" xmlns="http://www.w3.org/2000/svg">
<path d="M12.6891 27.6557V3.44141L2.4856 21.158L12.6891 27.6557Z" fill="#FFE94D"/>
<path d="M12.6891 3.44141L22.8926 21.158L12.6891 27.6557V3.44141Z" fill="#FF9C92"/>
<path d="M2.4856 23.2563L12.706 29.771V38.164" fill="#53D3E0"/>
<path d="M22.8926 23.2563L12.6891 29.771V38.164" fill="#5A9DED"/>
<path opacity="0.75" d="M12.6889 15.354L2.46844 21.158L12.6889 27.6558V15.354Z" fill="#88D848"/>
<path opacity="0.75" d="M12.6891 15.354L22.8926 21.158L12.6891 27.6558V15.354Z" fill="#CC71C3"/>
<path d="M32.2583 16.2998C32.2898 17.4296 33.1403 17.9639 34.1011 17.9639C34.7154 17.9639 35.3297 17.7196 35.5817 17.17H37.1883C36.826 18.6357 35.4557 19.3991 34.0224 19.3991C32.3055 19.3991 30.5887 18.2693 30.5887 15.8112C30.5887 13.4295 32.211 12.2081 34.0381 12.2081C35.7707 12.2081 37.2513 13.3226 37.2513 15.6127V16.2998H32.2583ZM32.3055 15.0631H35.5502C35.5502 14.1471 34.8887 13.628 34.0066 13.628C33.2191 13.6432 32.4473 14.0555 32.3055 15.0631ZM42.7011 19.2464H41.567C40.2124 19.2464 39.3777 18.8342 39.3777 16.9868V13.8264H38.0861V12.3302H39.3934V10.773L41.1102 10.3149V12.3302H42.5278V13.8264H41.1102V16.941C41.1102 17.4143 41.252 17.7654 41.9608 17.7654H42.6853L42.7011 19.2464ZM50.6395 14.7883V19.2464H48.9226V14.9257C48.9226 14.1471 48.4344 13.689 47.5838 13.689C46.56 13.689 46.0087 14.3761 46.0087 15.5059V19.2464H44.2919V9.68896H46.0245V13.3532C46.4183 12.6967 46.9853 12.2081 48.1981 12.2081C49.8047 12.1928 50.6395 13.1394 50.6395 14.7883ZM53.9629 16.2998C53.9944 17.4296 54.8449 17.9639 55.8057 17.9639C56.42 17.9639 57.0343 17.7196 57.2863 17.17H58.8929C58.5306 18.6357 57.1603 19.3991 55.727 19.3991C54.0101 19.3991 52.2933 18.2693 52.2933 15.8112C52.2933 13.4295 53.9156 12.2081 55.7427 12.2081C57.4753 12.2081 58.9559 13.3226 58.9559 15.6127V16.2998H53.9629ZM54.0102 15.0631H57.2548C57.2548 14.1471 56.5933 13.628 55.7112 13.628C54.9237 13.6432 54.1677 14.0555 54.0102 15.0631ZM64.7365 13.8722H64.2797C63.0826 13.8722 62.4211 14.5135 62.4211 15.8723V19.2464H60.7042V12.3302H62.4211V13.3532C62.7833 12.5898 63.4449 12.2539 64.2797 12.2539H64.7522L64.7365 13.8722ZM67.2251 16.2998C67.2566 17.4296 68.1071 17.9639 69.0679 17.9639C69.6822 17.9639 70.2965 17.7196 70.5485 17.17H72.1551C71.7928 18.6357 70.4225 19.3991 68.9892 19.3991C67.2723 19.3991 65.5555 18.2693 65.5555 15.8112C65.5555 13.4295 67.1778 12.2081 69.0049 12.2081C70.7375 12.2081 72.2181 13.3226 72.2181 15.6127V16.2998H67.2251ZM67.2723 15.0631H70.517C70.517 14.1471 69.8555 13.628 68.9734 13.628C68.1859 13.6432 67.4141 14.0555 67.2723 15.0631ZM80.1092 19.2464H78.4239V18.254C77.9986 18.8952 77.4158 19.3075 76.4393 19.3075C74.943 19.3075 73.8719 18.3761 73.8719 16.6051V12.315H75.5888V16.4982C75.5888 17.4296 76.0928 17.8418 76.8331 17.8418C77.6364 17.8418 78.3766 17.2616 78.3766 15.6738V12.315H80.0935L80.1092 19.2464ZM92.5209 14.5898V19.2617H90.804V14.9104C90.804 14.086 90.4103 13.7043 89.67 13.7043C88.8509 13.7043 88.2996 14.1776 88.2996 15.3685V19.2617H86.5828V14.9104C86.5828 14.086 86.1418 13.7043 85.433 13.7043C84.6297 13.7043 84.0627 14.1929 84.0627 15.3532V19.2617H82.3458V12.3302H84.0469V13.3532C84.2674 12.8035 84.8345 12.2081 85.9213 12.2081C86.8821 12.2081 87.5751 12.6356 87.9216 13.3532C88.1894 12.8646 88.7407 12.2081 90.0322 12.2081C91.5443 12.1928 92.5209 13.0936 92.5209 14.5898ZM33.7546 24.1472C33.1403 24.1472 33.0301 24.4526 33.0301 24.8495V25.3076H34.3374V26.8038H33.0301V32.2237H31.3132V26.8038H30.2422V25.3076H31.3132V24.9411C31.3132 23.0785 32.1638 22.6816 33.4869 22.6816H34.5264V24.1625L33.7546 24.1472ZM42.4018 28.7733C42.4018 31.0329 40.937 32.3764 38.8421 32.3764C36.763 32.3764 35.2982 31.0329 35.2982 28.7733C35.2982 26.529 36.763 25.1854 38.8421 25.1854C40.937 25.1702 42.4018 26.5137 42.4018 28.7733ZM37.0623 28.7733C37.0623 30.1626 37.8341 30.8344 38.8736 30.8344C39.9919 30.8344 40.6377 30.071 40.6377 28.7733C40.6377 27.3992 39.8659 26.7274 38.8264 26.7274C37.7081 26.7274 37.0623 27.4755 37.0623 28.7733ZM50.293 32.2237H48.6234V31.2313C48.1981 31.8726 47.6153 32.2848 46.6388 32.2848C45.1424 32.2848 44.0714 31.3535 44.0714 29.5825V25.2923H45.7882V29.4756C45.7882 30.4069 46.2923 30.8191 47.0325 30.8191C47.8358 30.8191 48.5761 30.239 48.5761 28.6511V25.2923H50.293V32.2237ZM58.8614 27.7504V32.2237H57.1446V27.903C57.1446 27.1244 56.6563 26.6664 55.8057 26.6664C54.7819 26.6664 54.2307 27.3534 54.2307 28.4832V32.2237H52.5138V25.3228H54.2307V26.3305C54.6244 25.6893 55.223 25.2007 56.4043 25.2007C58.0266 25.1702 58.8614 26.1167 58.8614 27.7504ZM67.6976 32.2237H65.9965V31.1703C65.6185 31.9642 64.7207 32.3764 63.7284 32.3764C61.9801 32.3764 60.5152 31.1855 60.5152 28.758C60.5152 26.361 61.9801 25.1854 63.7284 25.1854C64.6577 25.1854 65.5397 25.5518 65.965 26.2236V22.6663H67.6818L67.6976 32.2237ZM66.0123 28.758C66.0123 27.3229 65.0672 26.6511 64.1379 26.6511C63.1299 26.6511 62.2793 27.3381 62.2793 28.758C62.2793 30.1473 63.1299 30.8497 64.1379 30.8497C65.0672 30.8497 66.0123 30.1779 66.0123 28.758ZM75.6518 27.5824V32.239H73.9664V31.2313C73.4151 32.1169 72.4858 32.3917 71.7298 32.3917C70.5957 32.3917 69.4302 31.7962 69.4302 30.3306C69.4302 28.6053 71.0525 28.3 71.7141 28.2084L73.1946 28.0099C73.5096 27.9794 74.0452 27.8267 74.0452 27.2618C74.0452 26.7122 73.5411 26.4984 72.8796 26.4984C71.9188 26.4984 71.462 26.9259 71.3833 27.5214H69.7295C69.9185 25.9183 71.336 25.1854 72.9584 25.1854C74.628 25.1702 75.6518 25.9488 75.6518 27.5824ZM73.9822 29.3229V28.9565C73.7617 29.0481 73.5254 29.0939 73.1316 29.155L72.2811 29.2618C71.8401 29.3076 71.1313 29.5061 71.1313 30.1932C71.1313 30.7275 71.5565 30.9871 72.1708 30.9871C73.1789 30.9871 73.9822 30.2848 73.9822 29.3229ZM81.4638 32.2237H80.3297C78.9752 32.2237 78.1404 31.8115 78.1404 29.9641V26.8038H76.8331V25.3076H78.1404V23.7503L79.8572 23.2923V25.3076H81.2748V26.8038H79.8572V29.9183C79.8572 30.3916 79.999 30.7428 80.7078 30.7428H81.4323L81.4638 32.2237ZM82.9601 22.4831H84.7872V24.3763H82.9601V22.4831ZM83.0074 32.2237H84.7242V25.3076H83.0074V32.2237ZM93.5132 28.7733C93.5132 31.0329 92.0483 32.3764 89.9535 32.3764C87.8744 32.3764 86.4095 31.0329 86.4095 28.7733C86.4095 26.529 87.8744 25.1854 89.9535 25.1854C92.0641 25.1702 93.5132 26.5137 93.5132 28.7733ZM88.1894 28.7733C88.1894 30.1626 88.9612 30.8344 90.0007 30.8344C91.119 30.8344 91.7648 30.071 91.7648 28.7733C91.7648 27.3992 90.993 26.7274 89.9535 26.7274C88.8352 26.7274 88.1894 27.4755 88.1894 28.7733ZM101.593 27.7504V32.2237H99.8765V27.903C99.8765 27.1244 99.3882 26.6664 98.5377 26.6664C97.5139 26.6664 96.9626 27.3534 96.9626 28.4832V32.2237H95.2458V25.3228H96.9626V26.3305C97.3564 25.6893 97.9549 25.2007 99.1362 25.2007C100.759 25.1702 101.609 26.1167 101.593 27.7504Z" fill="#22222D"/>
</svg>
