<svg width="104" height="41" viewBox="0 0 104 41" fill="none" xmlns="http://www.w3.org/2000/svg">
<path d="M12.1894 27.6557V3.44141L1.98584 21.158L12.1894 27.6557Z" fill="#FFE94D"/>
<path d="M12.1892 3.44141L22.3927 21.158L12.1892 27.6557V3.44141Z" fill="#FF9C92"/>
<path d="M1.98584 23.2563L12.2063 29.771V38.164" fill="#53D3E0"/>
<path d="M22.3927 23.2563L12.1892 29.771V38.164" fill="#5A9DED"/>
<path opacity="0.75" d="M12.189 15.354L1.96851 21.158L12.189 27.6558V15.354Z" fill="#88D848"/>
<path opacity="0.75" d="M12.1892 15.354L22.3927 21.158L12.1892 27.6558V15.354Z" fill="#CC71C3"/>
<path d="M31.7583 16.2998C31.7898 17.4296 32.6403 17.9639 33.6011 17.9639C34.2154 17.9639 34.8297 17.7196 35.0817 17.17H36.6883C36.326 18.6357 34.9557 19.3991 33.5224 19.3991C31.8055 19.3991 30.0887 18.2693 30.0887 15.8112C30.0887 13.4295 31.711 12.2081 33.5381 12.2081C35.2707 12.2081 36.7513 13.3226 36.7513 15.6127V16.2998H31.7583ZM31.8055 15.0631H35.0502C35.0502 14.1471 34.3887 13.628 33.5066 13.628C32.7191 13.6432 31.9473 14.0555 31.8055 15.0631ZM42.2011 19.2464H41.067C39.7124 19.2464 38.8777 18.8342 38.8777 16.9868V13.8264H37.5861V12.3302H38.8934V10.773L40.6102 10.3149V12.3302H42.0278V13.8264H40.6102V16.941C40.6102 17.4143 40.752 17.7654 41.4608 17.7654H42.1853L42.2011 19.2464ZM50.1395 14.7883V19.2464H48.4226V14.9257C48.4226 14.1471 47.9344 13.689 47.0838 13.689C46.06 13.689 45.5087 14.3761 45.5087 15.5059V19.2464H43.7919V9.68896H45.5245V13.3532C45.9183 12.6967 46.4853 12.2081 47.6981 12.2081C49.3047 12.1928 50.1395 13.1394 50.1395 14.7883ZM53.4629 16.2998C53.4944 17.4296 54.3449 17.9639 55.3057 17.9639C55.92 17.9639 56.5343 17.7196 56.7863 17.17H58.3929C58.0306 18.6357 56.6603 19.3991 55.227 19.3991C53.5101 19.3991 51.7933 18.2693 51.7933 15.8112C51.7933 13.4295 53.4156 12.2081 55.2427 12.2081C56.9753 12.2081 58.4559 13.3226 58.4559 15.6127V16.2998H53.4629ZM53.5102 15.0631H56.7548C56.7548 14.1471 56.0933 13.628 55.2112 13.628C54.4237 13.6432 53.6677 14.0555 53.5102 15.0631ZM64.2365 13.8722H63.7797C62.5826 13.8722 61.9211 14.5135 61.9211 15.8723V19.2464H60.2042V12.3302H61.9211V13.3532C62.2833 12.5898 62.9449 12.2539 63.7797 12.2539H64.2522L64.2365 13.8722ZM66.7251 16.2998C66.7566 17.4296 67.6071 17.9639 68.5679 17.9639C69.1822 17.9639 69.7965 17.7196 70.0485 17.17H71.6551C71.2928 18.6357 69.9225 19.3991 68.4892 19.3991C66.7723 19.3991 65.0555 18.2693 65.0555 15.8112C65.0555 13.4295 66.6778 12.2081 68.5049 12.2081C70.2375 12.2081 71.7181 13.3226 71.7181 15.6127V16.2998H66.7251ZM66.7723 15.0631H70.017C70.017 14.1471 69.3555 13.628 68.4734 13.628C67.6859 13.6432 66.9141 14.0555 66.7723 15.0631ZM79.6092 19.2464H77.9239V18.254C77.4986 18.8952 76.9158 19.3075 75.9393 19.3075C74.443 19.3075 73.3719 18.3761 73.3719 16.6051V12.315H75.0888V16.4982C75.0888 17.4296 75.5928 17.8418 76.3331 17.8418C77.1364 17.8418 77.8766 17.2616 77.8766 15.6738V12.315H79.5935L79.6092 19.2464ZM92.0209 14.5898V19.2617H90.304V14.9104C90.304 14.086 89.9103 13.7043 89.17 13.7043C88.3509 13.7043 87.7996 14.1776 87.7996 15.3685V19.2617H86.0828V14.9104C86.0828 14.086 85.6418 13.7043 84.933 13.7043C84.1297 13.7043 83.5627 14.1929 83.5627 15.3532V19.2617H81.8458V12.3302H83.5469V13.3532C83.7674 12.8035 84.3345 12.2081 85.4213 12.2081C86.3821 12.2081 87.0751 12.6356 87.4216 13.3532C87.6894 12.8646 88.2407 12.2081 89.5322 12.2081C91.0443 12.1928 92.0209 13.0936 92.0209 14.5898ZM33.2546 24.1472C32.6403 24.1472 32.5301 24.4526 32.5301 24.8495V25.3076H33.8374V26.8038H32.5301V32.2237H30.8132V26.8038H29.7422V25.3076H30.8132V24.9411C30.8132 23.0785 31.6638 22.6816 32.9869 22.6816H34.0264V24.1625L33.2546 24.1472ZM41.9018 28.7733C41.9018 31.0329 40.437 32.3764 38.3421 32.3764C36.263 32.3764 34.7982 31.0329 34.7982 28.7733C34.7982 26.529 36.263 25.1854 38.3421 25.1854C40.437 25.1702 41.9018 26.5137 41.9018 28.7733ZM36.5623 28.7733C36.5623 30.1626 37.3341 30.8344 38.3736 30.8344C39.4919 30.8344 40.1377 30.071 40.1377 28.7733C40.1377 27.3992 39.3659 26.7274 38.3264 26.7274C37.2081 26.7274 36.5623 27.4755 36.5623 28.7733ZM49.793 32.2237H48.1234V31.2313C47.6981 31.8726 47.1153 32.2848 46.1388 32.2848C44.6424 32.2848 43.5714 31.3535 43.5714 29.5825V25.2923H45.2882V29.4756C45.2882 30.4069 45.7923 30.8191 46.5325 30.8191C47.3358 30.8191 48.0761 30.239 48.0761 28.6511V25.2923H49.793V32.2237ZM58.3614 27.7504V32.2237H56.6446V27.903C56.6446 27.1244 56.1563 26.6664 55.3057 26.6664C54.2819 26.6664 53.7307 27.3534 53.7307 28.4832V32.2237H52.0138V25.3228H53.7307V26.3305C54.1244 25.6893 54.723 25.2007 55.9043 25.2007C57.5266 25.1702 58.3614 26.1167 58.3614 27.7504ZM67.1976 32.2237H65.4965V31.1703C65.1185 31.9642 64.2207 32.3764 63.2284 32.3764C61.4801 32.3764 60.0152 31.1855 60.0152 28.758C60.0152 26.361 61.4801 25.1854 63.2284 25.1854C64.1577 25.1854 65.0397 25.5518 65.465 26.2236V22.6663H67.1818L67.1976 32.2237ZM65.5123 28.758C65.5123 27.3229 64.5672 26.6511 63.6379 26.6511C62.6299 26.6511 61.7793 27.3381 61.7793 28.758C61.7793 30.1473 62.6299 30.8497 63.6379 30.8497C64.5672 30.8497 65.5123 30.1779 65.5123 28.758ZM75.1518 27.5824V32.239H73.4664V31.2313C72.9151 32.1169 71.9858 32.3917 71.2298 32.3917C70.0957 32.3917 68.9302 31.7962 68.9302 30.3306C68.9302 28.6053 70.5525 28.3 71.2141 28.2084L72.6946 28.0099C73.0096 27.9794 73.5452 27.8267 73.5452 27.2618C73.5452 26.7122 73.0411 26.4984 72.3796 26.4984C71.4188 26.4984 70.962 26.9259 70.8833 27.5214H69.2295C69.4185 25.9183 70.836 25.1854 72.4584 25.1854C74.128 25.1702 75.1518 25.9488 75.1518 27.5824ZM73.4822 29.3229V28.9565C73.2617 29.0481 73.0254 29.0939 72.6316 29.155L71.7811 29.2618C71.3401 29.3076 70.6313 29.5061 70.6313 30.1932C70.6313 30.7275 71.0565 30.9871 71.6708 30.9871C72.6789 30.9871 73.4822 30.2848 73.4822 29.3229ZM80.9638 32.2237H79.8297C78.4752 32.2237 77.6404 31.8115 77.6404 29.9641V26.8038H76.3331V25.3076H77.6404V23.7503L79.3572 23.2923V25.3076H80.7748V26.8038H79.3572V29.9183C79.3572 30.3916 79.499 30.7428 80.2078 30.7428H80.9323L80.9638 32.2237ZM82.4601 22.4831H84.2872V24.3763H82.4601V22.4831ZM82.5074 32.2237H84.2242V25.3076H82.5074V32.2237ZM93.0132 28.7733C93.0132 31.0329 91.5483 32.3764 89.4535 32.3764C87.3744 32.3764 85.9095 31.0329 85.9095 28.7733C85.9095 26.529 87.3744 25.1854 89.4535 25.1854C91.5641 25.1702 93.0132 26.5137 93.0132 28.7733ZM87.6894 28.7733C87.6894 30.1626 88.4612 30.8344 89.5007 30.8344C90.619 30.8344 91.2648 30.071 91.2648 28.7733C91.2648 27.3992 90.493 26.7274 89.4535 26.7274C88.3352 26.7274 87.6894 27.4755 87.6894 28.7733ZM101.093 27.7504V32.2237H99.3765V27.903C99.3765 27.1244 98.8882 26.6664 98.0377 26.6664C97.0139 26.6664 96.4626 27.3534 96.4626 28.4832V32.2237H94.7458V25.3228H96.4626V26.3305C96.8564 25.6893 97.4549 25.2007 98.6362 25.2007C100.259 25.1702 101.109 26.1167 101.093 27.7504Z" fill="white"/>
</svg>
