<svg width="88" height="24" viewBox="0 0 88 24" fill="none" xmlns="http://www.w3.org/2000/svg">
<g clip-path="url(#clip0_1711_17017)">
<path d="M33.4943 6.62879C31.8667 6.62879 30.5942 7.57577 30.5942 8.93705C30.5942 10.2983 31.6595 10.7422 32.9912 11.0086L34.678 11.2749C36.8975 11.63 38.4363 12.6658 38.4363 15.0924C38.4363 17.6374 36.3648 19.1171 33.7014 19.1171C31.3044 19.1171 29.0553 17.6966 28.7298 14.9444C28.7002 14.7077 28.8778 14.5006 29.1145 14.5006H30.1207C30.2982 14.5006 30.4758 14.6485 30.5054 14.8261C30.7125 16.7792 32.2218 17.5486 33.7014 17.5486C35.3291 17.5486 36.6016 16.7496 36.6016 15.122C36.6016 13.6719 35.5658 13.1689 34.2045 12.9025L32.5473 12.6066C30.239 12.2219 28.789 11.0973 28.789 8.99624C28.789 6.54001 30.9197 5.03076 33.4943 5.03076C35.5362 5.03076 37.8149 6.18489 38.2588 8.93705C38.2884 9.1738 38.1108 9.38095 37.8741 9.38095H36.8087C36.6311 9.38095 36.4536 9.23298 36.424 9.05542C36.1281 7.30943 34.7964 6.62879 33.4943 6.62879Z" fill="#F9FAFB"/>
<path d="M45.0651 8.13818C47.5509 8.13818 49.2969 9.46987 49.9184 11.6302C49.9776 11.8669 49.8 12.1333 49.5337 12.1333H48.3796C48.202 12.1333 48.0836 12.0149 48.0244 11.8669C47.5805 10.624 46.604 9.94336 45.0651 9.94336C42.9936 9.94336 41.8395 11.6302 41.8395 13.6721C41.8395 15.6844 42.9936 17.4008 45.0651 17.4008C46.5744 17.4008 47.5805 16.6906 48.0244 15.4773C48.0836 15.3293 48.2316 15.2109 48.3796 15.2109H49.5337C49.8 15.2109 49.9776 15.4477 49.8888 15.714C49.2378 17.9631 47.5214 19.206 45.0355 19.206C41.8395 19.206 39.8271 16.7498 39.8271 13.7017C39.8567 10.624 41.8987 8.13818 45.0651 8.13818Z" fill="#F9FAFB"/>
<path d="M51.8124 17.3712H54.2983V10.4168H52.0788C51.8716 10.4168 51.6941 10.2393 51.6941 10.0321V9.05554C51.6941 8.84839 51.8716 8.67083 52.0788 8.67083H55.0973C55.7187 8.67083 56.2514 9.2035 56.2514 9.82496V10.0913C56.8137 8.75961 57.9974 8.43408 59.8322 8.43408C60.5424 8.43408 61.0159 8.55245 61.2822 8.64123C61.4302 8.70042 61.519 8.84839 61.519 8.99635V10.0617C61.519 10.328 61.2822 10.5056 61.0159 10.4168C60.6904 10.2984 60.2169 10.2097 59.625 10.2097C57.6719 10.2097 56.281 11.5414 56.281 13.8792V17.3712H59.4771C59.6842 17.3712 59.8618 17.5488 59.8618 17.7559V18.7325C59.8618 18.9396 59.6842 19.1172 59.4771 19.1172H51.8124C51.6053 19.1172 51.4277 18.9396 51.4277 18.7325V17.7559C51.4277 17.5488 51.6053 17.3712 51.8124 17.3712Z" fill="#F9FAFB"/>
<path d="M62.998 13.6127C62.998 10.5942 65.0104 8.1084 68.2656 8.1084C71.5209 8.1084 73.5332 10.5646 73.5332 13.6127C73.5332 16.6312 71.5209 19.117 68.2656 19.117C64.9808 19.117 62.998 16.6608 62.998 13.6127ZM68.236 17.3414C70.3371 17.3414 71.5209 15.6546 71.5209 13.6127C71.5209 11.6004 70.3075 9.88398 68.236 9.88398C66.1349 9.88398 64.9512 11.5708 64.9512 13.6127C64.9512 15.6546 66.1645 17.3414 68.236 17.3414Z" fill="#F9FAFB"/>
<path d="M77.854 17.4598H80.8725C81.0797 17.4598 81.2572 17.6374 81.2572 17.8446V18.7619C81.2572 18.9691 81.0797 19.1467 80.8725 19.1467H76.3744C76.1672 19.1467 75.9897 18.9691 75.9897 18.7619V6.86552H74.4804C74.2733 6.86552 74.0957 6.68796 74.0957 6.48081V5.56342C74.0957 5.35627 74.2733 5.17871 74.4804 5.17871H76.6999C77.3213 5.17871 77.854 5.71139 77.854 6.33284V17.4598Z" fill="#F9FAFB"/>
<path d="M84.5127 17.4598H87.5312C87.7384 17.4598 87.9159 17.6374 87.9159 17.8446V18.7619C87.9159 18.9691 87.7384 19.1467 87.5312 19.1467H83.0331C82.8259 19.1467 82.6484 18.9691 82.6484 18.7619V6.86552H81.1391C80.9319 6.86552 80.7544 6.68796 80.7544 6.48081V5.56342C80.7544 5.35627 80.9319 5.17871 81.1391 5.17871H83.3586C83.98 5.17871 84.5127 5.71139 84.5127 6.33284V17.4598Z" fill="#F9FAFB"/>
<path d="M3.16137 9.26264C2.21439 8.37485 1.56334 7.22072 1.56334 5.85943V5.71147C1.65212 3.40321 3.54608 1.50925 5.85434 1.45006H20.6213C21.006 1.47965 21.3019 1.74599 21.3019 2.1307V14.6486C21.6275 14.7078 21.805 14.767 22.1305 14.8557C22.3969 14.9445 22.752 15.1517 22.752 15.1517V2.1307C22.7224 0.946979 21.7754 0 20.5917 0H5.85434C2.65829 0.0591862 0.113281 2.66338 0.113281 5.85943C0.113281 7.7238 0.971481 9.32183 2.33276 10.4168C2.42154 10.5055 2.51032 10.5943 2.77666 10.5943C3.22056 10.5943 3.51649 10.2392 3.48689 9.88409C3.48689 9.55857 3.36852 9.4402 3.16137 9.26264Z" fill="#F9FAFB"/>
<path d="M20.2368 15.4774H8.66589C7.89647 15.4774 7.27501 16.0988 7.27501 16.8979V18.5551C7.30461 19.3245 7.95565 19.9755 8.72507 19.9755H9.58327V18.5551H8.72507V16.9274C8.72507 16.9274 8.93223 16.9274 9.19856 16.9274C10.6486 16.9274 11.7436 18.2887 11.7436 19.7388C11.7436 21.0409 10.5598 22.6685 8.6067 22.5501C6.86071 22.4318 5.91373 20.8929 5.91373 19.7388V5.62288C5.91373 5.00143 5.38105 4.46875 4.7596 4.46875H3.60547V5.91881H4.46367V19.7684C4.40448 22.5797 6.476 24.0002 8.6067 24.0002L20.2664 24.0298C22.6042 24.0298 24.5278 22.1358 24.5278 19.7684C24.4982 17.3713 22.6042 15.4774 20.2368 15.4774ZM23.0481 19.8276C22.9889 21.3368 21.746 22.5501 20.2368 22.5501L12.1283 22.5205C12.7793 21.7807 13.164 20.8041 13.164 19.7388C13.164 18.0816 12.1875 16.9274 12.1875 16.9274H20.2664C21.8052 16.9274 23.0777 18.1999 23.0777 19.7388L23.0481 19.8276Z" fill="#F9FAFB"/>
<path d="M17.1294 6.15514H8.39941V4.70508H17.1294C17.5141 4.70508 17.8396 5.0306 17.8396 5.41531C17.8396 5.82962 17.5437 6.15514 17.1294 6.15514Z" fill="#F9FAFB"/>
<path d="M17.1294 12.9618H8.39941V11.5117H17.1294C17.5141 11.5117 17.8396 11.8372 17.8396 12.222C17.8396 12.6363 17.5437 12.9618 17.1294 12.9618Z" fill="#F9FAFB"/>
<path d="M18.6682 9.55846H8.39941V8.1084H18.6682C19.0529 8.1084 19.3785 8.43392 19.3785 8.81863C19.3785 9.23294 19.0529 9.55846 18.6682 9.55846Z" fill="#F9FAFB"/>
</g>
<defs>
<clipPath id="clip0_1711_17017">
<rect width="87.7731" height="24" fill="white" transform="translate(0.113281)"/>
</clipPath>
</defs>
</svg>
