<svg width="152" height="33" viewBox="0 0 152 33" fill="none" xmlns="http://www.w3.org/2000/svg">
<mask id="mask0_8_17700" style="mask-type:luminance" maskUnits="userSpaceOnUse" x="2" y="2" width="149" height="30">
<path d="M150.651 2.13135H2.38428V31.0882H150.651V2.13135Z" fill="white"/>
</mask>
<g mask="url(#mask0_8_17700)">
<path d="M42.4783 10.1313C42.4783 9.91165 42.5724 9.69204 42.7293 9.53518C42.8862 9.37832 43.1058 9.2842 43.3254 9.2842H50.9803C51.1058 9.2842 51.2313 9.22146 51.3254 9.15871C51.4195 9.06459 51.4509 8.9391 51.4509 8.81361V8.49989C51.4509 8.37439 51.3881 8.2489 51.3254 8.15479C51.2313 8.06067 51.1058 8.0293 50.9803 8.0293H42.1018C41.4744 8.0293 40.8783 8.28028 40.4391 8.71949C39.9999 9.15871 39.7489 9.75479 39.7489 10.3822V14.8058C39.7489 15.4332 39.9999 16.0293 40.4391 16.4685C40.8783 16.9077 41.4744 17.1587 42.1018 17.1587H48.2509C48.4705 17.1587 48.6901 17.2528 48.8469 17.4411C49.0038 17.5979 49.0979 17.8175 49.0979 18.0371V22.8685C49.0979 23.0881 49.0038 23.3077 48.8469 23.4646C48.6901 23.6215 48.4705 23.7156 48.2509 23.7156H40.9411C40.8156 23.7156 40.6901 23.7783 40.596 23.8411C40.5018 23.9352 40.4705 24.0607 40.4705 24.1862V24.4999C40.4705 24.6254 40.5332 24.7509 40.596 24.845C40.6901 24.9391 40.8156 24.9705 40.9411 24.9705H49.443C49.7567 24.9705 50.0391 24.9077 50.3528 24.7822C50.6352 24.6567 50.8862 24.4999 51.1058 24.2803C51.3254 24.0607 51.4822 23.8097 51.6077 23.5273C51.7332 23.245 51.796 22.9313 51.796 22.6175V18.2254C51.796 17.5979 51.545 17.0018 51.1058 16.5626C50.6665 16.1234 50.0705 15.8724 49.443 15.8724H43.294C43.0744 15.8724 42.8548 15.7783 42.6979 15.6215C42.5411 15.4646 42.4469 15.245 42.4469 15.0254V10.1313H42.4783Z" fill="#010202"/>
<path d="M127.623 10.1313C127.623 9.91165 127.718 9.69204 127.874 9.53518C128.031 9.37832 128.251 9.2842 128.471 9.2842H136.125C136.251 9.2842 136.376 9.22146 136.471 9.15871C136.565 9.06459 136.596 8.9391 136.596 8.81361V8.49989C136.596 8.37439 136.533 8.2489 136.471 8.15479C136.376 8.06067 136.251 8.0293 136.125 8.0293H127.216C126.588 8.0293 125.992 8.28028 125.553 8.71949C125.114 9.15871 124.863 9.75479 124.863 10.3822V14.8058C124.863 15.4332 125.114 16.0293 125.553 16.4685C125.992 16.9077 126.588 17.1587 127.216 17.1587H133.365C133.584 17.1587 133.804 17.2528 133.961 17.4411C134.118 17.5979 134.212 17.8175 134.212 18.0371V22.8685C134.212 23.0881 134.118 23.3077 133.961 23.4646C133.804 23.6215 133.584 23.7156 133.365 23.7156H126.055C125.929 23.7156 125.804 23.7783 125.71 23.8411C125.616 23.9352 125.584 24.0607 125.584 24.1862V24.4999C125.584 24.6254 125.647 24.7509 125.71 24.845C125.804 24.9391 125.929 24.9705 126.055 24.9705H134.588C134.902 24.9705 135.184 24.9077 135.498 24.7822C135.78 24.6567 136.031 24.4999 136.251 24.2803C136.471 24.0607 136.627 23.8097 136.753 23.5273C136.878 23.245 136.941 22.9313 136.941 22.6175V18.2254C136.941 17.5979 136.69 17.0018 136.251 16.5626C135.812 16.1234 135.216 15.8724 134.588 15.8724H128.439C128.22 15.8724 128 15.7783 127.843 15.6215C127.686 15.4646 127.592 15.245 127.592 15.0254V10.1313H127.623Z" fill="#010202"/>
<path d="M62.5881 23.653H58.7607C58.5411 23.653 58.3215 23.5588 58.1646 23.3706C58.0077 23.2137 57.9136 22.9941 57.9136 22.7745V8.46864C57.9136 8.34314 57.8509 8.21766 57.7881 8.12354C57.694 8.02942 57.5685 7.99805 57.443 7.99805H55.6862C55.5607 7.99805 55.4352 8.06079 55.3411 8.12354C55.2469 8.21766 55.2156 8.34314 55.2156 8.46864V22.5549C55.2156 23.1824 55.4666 23.7784 55.9058 24.2177C56.345 24.6569 56.9411 24.9079 57.5685 24.9079H62.5881C62.7136 24.9079 62.8391 24.8451 62.9332 24.7824C63.0273 24.6882 63.0587 24.5628 63.0587 24.4373V24.1235C63.0587 24.0608 63.0587 23.998 63.0273 23.9353C62.996 23.8726 62.9646 23.8098 62.9332 23.7784C62.9019 23.7471 62.8391 23.6843 62.7764 23.6843C62.7136 23.6843 62.6509 23.653 62.5881 23.653Z" fill="#010202"/>
<path d="M90.6979 23.653H92.0155C92.2351 23.653 92.4547 23.5588 92.6116 23.3706C92.7685 23.2137 92.8626 22.9941 92.8626 22.7745V8.46864C92.8626 8.34314 92.9253 8.21766 92.9881 8.12354C93.0822 8.02942 93.2077 7.99805 93.3332 7.99805H95.1214C95.2469 7.99805 95.3724 8.06079 95.4665 8.12354C95.5606 8.21766 95.592 8.34314 95.592 8.46864V22.5549C95.592 23.1824 95.341 23.7784 94.9018 24.2177C94.4626 24.6569 93.8665 24.9079 93.2391 24.9079H90.7293C90.6038 24.9079 90.4783 24.8451 90.3842 24.7824C90.29 24.6882 90.2587 24.5628 90.2587 24.4373V24.1235C90.2587 24.0608 90.2587 23.998 90.29 23.9353C90.3214 23.8726 90.3528 23.8098 90.3842 23.7784C90.4155 23.7471 90.4783 23.6843 90.541 23.6843C90.5724 23.6843 90.6351 23.653 90.6979 23.653Z" fill="#010202"/>
<path d="M85.1136 23.653H83.796C83.5763 23.653 83.3567 23.5588 83.1999 23.3706C83.043 23.2137 82.9489 22.9941 82.9489 22.7745V8.46864C82.9489 8.34314 82.8861 8.21766 82.8234 8.12354C82.7293 8.02942 82.6038 7.99805 82.4783 7.99805H80.6901C80.5646 7.99805 80.4391 8.06079 80.345 8.12354C80.2509 8.21766 80.2195 8.34314 80.2195 8.46864V22.5549C80.2195 23.1824 80.4705 23.7784 80.9097 24.2177C81.3489 24.6569 81.945 24.9079 82.5724 24.9079H85.0822C85.2077 24.9079 85.3332 24.8451 85.4273 24.7824C85.5214 24.6882 85.5528 24.5628 85.5528 24.4373V24.1235C85.5528 24.0608 85.5528 23.998 85.5214 23.9353C85.4901 23.8726 85.4587 23.8098 85.4273 23.7784C85.3959 23.7471 85.3332 23.6843 85.2705 23.6843C85.2391 23.6843 85.1763 23.653 85.1136 23.653Z" fill="#010202"/>
<path d="M72.4391 23.653H68.7371C68.5175 23.653 68.2979 23.5588 68.141 23.3706C67.9842 23.2137 67.8901 22.9941 67.8901 22.7745V8.46864C67.8901 8.34314 67.8273 8.21766 67.7646 8.12354C67.7018 8.02942 67.545 7.99805 67.4195 7.99805H65.6312C65.5057 7.99805 65.3803 8.06079 65.2861 8.12354C65.192 8.18629 65.1606 8.34314 65.1606 8.46864V22.5549C65.1606 23.1824 65.4116 23.7784 65.8508 24.2177C66.2901 24.6569 66.8861 24.9079 67.5136 24.9079H72.4077C72.5332 24.9079 72.6587 24.8451 72.7528 24.7824C72.8469 24.6882 72.8783 24.5628 72.8783 24.4373V24.1235C72.8783 24.0608 72.8783 23.998 72.8469 23.9353C72.8155 23.8726 72.7842 23.8098 72.7528 23.7784C72.7214 23.7471 72.6587 23.6843 72.5959 23.6843C72.5646 23.6843 72.5018 23.653 72.4391 23.653Z" fill="#010202"/>
<path d="M120.753 8.0293H118.965C118.839 8.0293 118.714 8.09204 118.62 8.15479C118.525 8.2489 118.494 8.37439 118.494 8.49989V24.4371C118.494 24.5626 118.557 24.6881 118.62 24.7822C118.714 24.8764 118.839 24.9077 118.965 24.9077H120.753C120.878 24.9077 121.004 24.845 121.098 24.7822C121.192 24.6881 121.223 24.5626 121.223 24.4371V8.49989C121.223 8.43714 121.223 8.37439 121.192 8.31165C121.161 8.2489 121.129 8.18616 121.098 8.15479C121.067 8.12341 121.004 8.06067 120.941 8.06067C120.878 8.0293 120.816 8.0293 120.753 8.0293Z" fill="#010202"/>
<path d="M88.8156 8.0293H87.0274C86.9019 8.0293 86.7764 8.09204 86.6823 8.15479C86.5881 8.2489 86.5568 8.37439 86.5568 8.49989V24.4371C86.5568 24.5626 86.6195 24.6881 86.6823 24.7822C86.7764 24.8764 86.9019 24.9077 87.0274 24.9077H88.8156C88.9411 24.9077 89.0666 24.845 89.1607 24.7822C89.2548 24.6881 89.2862 24.5626 89.2862 24.4371V8.49989C89.2862 8.43714 89.2862 8.37439 89.2548 8.31165C89.2234 8.2489 89.1921 8.18616 89.1607 8.15479C89.1293 8.12341 89.0666 8.06067 89.0038 8.06067C88.9411 8.06067 88.8783 8.0293 88.8156 8.0293Z" fill="#010202"/>
<path d="M104.22 9.25295H102.902C102.682 9.25295 102.463 9.34707 102.306 9.50393C102.149 9.66079 102.055 9.8804 102.055 10.1V24.4373C102.055 24.5628 101.992 24.6882 101.929 24.7824C101.835 24.8765 101.71 24.9079 101.584 24.9079H99.796C99.6705 24.9079 99.545 24.8451 99.4509 24.7824C99.3568 24.6882 99.3254 24.5628 99.3254 24.4373V10.351C99.3254 9.72354 99.5764 9.12746 100.016 8.68825C100.455 8.24903 101.051 7.99805 101.678 7.99805H104.188C104.314 7.99805 104.439 8.06079 104.533 8.12354C104.627 8.21766 104.659 8.34314 104.659 8.46864V8.78236C104.659 8.90785 104.627 9.03334 104.533 9.12746C104.471 9.22158 104.345 9.25295 104.22 9.25295Z" fill="#010202"/>
<path d="M109.804 9.25295H111.121C111.341 9.25295 111.561 9.34707 111.718 9.50393C111.874 9.66079 111.969 9.8804 111.969 10.1V24.4373C111.969 24.5628 112.031 24.6882 112.094 24.7824C112.188 24.8765 112.314 24.9079 112.439 24.9079H114.196C114.321 24.9079 114.447 24.8451 114.541 24.7824C114.635 24.6882 114.667 24.5628 114.667 24.4373V10.351C114.667 9.72354 114.416 9.12746 113.976 8.68825C113.537 8.24903 112.941 7.99805 112.314 7.99805H109.804C109.678 7.99805 109.553 8.06079 109.459 8.12354C109.365 8.21766 109.333 8.34314 109.333 8.46864V8.78236C109.333 8.84511 109.333 8.90785 109.365 8.9706C109.396 9.03334 109.427 9.09609 109.459 9.12746C109.49 9.15883 109.553 9.22158 109.616 9.22158C109.678 9.25295 109.741 9.25295 109.804 9.25295Z" fill="#010202"/>
<path d="M69.2392 9.25295H72.9411C73.1607 9.25295 73.3803 9.34707 73.5372 9.50393C73.694 9.66079 73.7882 9.8804 73.7882 10.1V24.4373C73.7882 24.5628 73.8509 24.6882 73.9137 24.7824C74.0078 24.8765 74.1333 24.9079 74.2588 24.9079H76.047C76.1725 24.9079 76.298 24.8451 76.3921 24.7824C76.4862 24.6882 76.5176 24.5628 76.5176 24.4373V10.351C76.5176 9.72354 76.2666 9.12746 75.8274 8.68825C75.3882 8.24903 74.7921 7.99805 74.1646 7.99805H69.2705C69.145 7.99805 69.0195 8.06079 68.9254 8.12354C68.8313 8.21766 68.7999 8.34314 68.7999 8.46864V8.78236C68.7999 8.90785 68.8313 9.03334 68.9254 9.09609C68.9882 9.22158 69.1137 9.25295 69.2392 9.25295Z" fill="#010202"/>
<path d="M139.545 9.25295H142.337C142.557 9.25295 142.776 9.34707 142.933 9.50393C143.09 9.66079 143.184 9.8804 143.184 10.1V24.4373C143.184 24.5628 143.247 24.6882 143.31 24.7824C143.404 24.8765 143.529 24.9079 143.655 24.9079H145.443C145.569 24.9079 145.694 24.8451 145.788 24.7824C145.882 24.6882 145.914 24.5628 145.914 24.4373V10.351C145.914 9.72354 145.663 9.12746 145.223 8.68825C144.784 8.24903 144.188 7.99805 143.561 7.99805H139.545C139.42 7.99805 139.294 8.06079 139.2 8.12354C139.106 8.21766 139.074 8.34314 139.074 8.46864V8.78236C139.074 8.90785 139.106 9.03334 139.2 9.09609C139.325 9.1902 139.42 9.25295 139.545 9.25295Z" fill="#010202"/>
<path d="M106.102 24.939H107.89C108.016 24.939 108.141 24.8762 108.235 24.8135C108.329 24.7194 108.361 24.5939 108.361 24.4684V8.53114C108.361 8.40564 108.298 8.28015 108.235 8.18604C108.141 8.09192 108.016 8.06055 107.89 8.06055H106.102C105.976 8.06055 105.851 8.12329 105.757 8.18604C105.663 8.28015 105.631 8.40564 105.631 8.53114V24.4684C105.631 24.5311 105.631 24.5939 105.663 24.6566C105.694 24.7194 105.725 24.7507 105.757 24.8135C105.788 24.8449 105.851 24.9076 105.914 24.9076C106.008 24.9076 106.07 24.939 106.102 24.939Z" fill="#010202"/>
<path d="M150.18 7.99805H148.392C148.267 7.99805 148.141 8.06079 148.047 8.12354C147.953 8.21766 147.922 8.34314 147.922 8.46864V10.1C147.922 10.2255 147.984 10.351 148.047 10.4451C148.141 10.5392 148.267 10.5706 148.392 10.5706H150.212C150.337 10.5706 150.463 10.5079 150.557 10.4451C150.651 10.351 150.682 10.2255 150.682 10.1V8.46864C150.682 8.40589 150.682 8.34315 150.651 8.2804C150.62 8.21766 150.588 8.15491 150.525 8.12354C150.494 8.09217 150.431 8.06079 150.369 8.02942C150.306 7.99805 150.243 7.99805 150.18 7.99805Z" fill="#010202"/>
<path d="M20.894 24.4685C19.3568 26.2881 17.5372 27.8253 15.498 29.0175C15.498 29.0175 4.23521 23.1508 4.23521 8.15475C10.3215 7.8724 14.6195 5.14299 15.498 4.26456C16.0313 4.79789 17.7568 5.95867 20.3921 6.89985V5.17436C18.5725 4.54691 16.9097 3.51162 15.5293 2.1626C14.6509 3.04103 11.2627 6.30377 2.47834 6.74299C1.59991 24.4371 15.5293 31.1195 15.5293 31.1195C18.5411 29.4881 21.1764 27.2293 23.247 24.4999H20.894V24.4685Z" fill="#010202"/>
<path d="M24.2509 14.8687H20.1725V18.5706H24.2509V14.8687Z" fill="#010202"/>
<path d="M19.8902 18.9468H18.698V19.9821H19.8902V18.9468Z" fill="#010202"/>
<path d="M22.5568 20.7666H20.7686V22.398H22.5568V20.7666Z" fill="#010202"/>
<path d="M26.9489 21.0176H24.2822V23.3705H26.9489V21.0176Z" fill="#010202"/>
<path d="M33.7881 13.2373H30.5881V16.1236H33.7881V13.2373Z" fill="#010202"/>
<path d="M33.5058 7.77832H32.0312V9.09597H33.5058V7.77832Z" fill="#010202"/>
<path d="M30.6195 8.59375H29.145V9.9114H30.6195V8.59375Z" fill="#010202"/>
<path d="M30.6195 16.4058H28.7372V18.1313H30.6195V16.4058Z" fill="#010202"/>
<path d="M29.2704 19.4805H27.2626V21.2687H29.2704V19.4805Z" fill="#010202"/>
<path d="M27.6077 5.58203H25.3802V7.5585H27.6077V5.58203Z" fill="#010202"/>
<path d="M23.3411 3.8252H21.3646V5.58206H23.3411V3.8252Z" fill="#010202"/>
<path d="M21.1451 7.27637H18.6039V9.53519H21.1451V7.27637Z" fill="#010202"/>
<path d="M18.7921 8.43701H18.6039V10.6958H18.7921V8.43701Z" fill="#010202"/>
<path d="M22.5881 5.48828H22.3685V7.74711H22.5881V5.48828Z" fill="#010202"/>
<path d="M26.9175 7.27637H26.7292V12.2646H26.9175V7.27637Z" fill="#010202"/>
<path d="M32.6273 8.81348H32.4391V13.8017H32.6273V8.81348Z" fill="#010202"/>
<path d="M32.5332 8.90771H30.1489V9.12732H32.5332V8.90771Z" fill="#010202"/>
<path d="M30.7137 13.896H28.298V14.0842H30.7137V13.896Z" fill="#010202"/>
<path d="M29.0823 16.5625H26.6666V16.7507H29.0823V16.5625Z" fill="#010202"/>
<path d="M26.0391 17.2842H23.6234V17.4724H26.0391V17.2842Z" fill="#010202"/>
<path d="M28.1724 21.0176H25.7881V21.2372H28.1724V21.0176Z" fill="#010202"/>
<path d="M30.3372 16.8447L30.1489 16.7193L30.8077 15.7153L30.9646 15.8408L30.3372 16.8447Z" fill="#010202"/>
<path d="M19.7019 19.3233L19.545 19.1664L20.3921 18.3193L20.549 18.4762L19.7019 19.3233Z" fill="#010202"/>
<path d="M25.7254 12.6099H23.3411V12.7981H25.7254V12.6099Z" fill="#010202"/>
<path d="M21.8039 10.5391H19.3882V10.7273H21.8039V10.5391Z" fill="#010202"/>
<path d="M23.4352 8.62549H23.2156V13.6137H23.4352V8.62549Z" fill="#010202"/>
<path d="M22.5568 17.0332H22.3372V22.0214H22.5568V17.0332Z" fill="#010202"/>
<path d="M29.2705 16.5312H29.0509V20.296H29.2705V16.5312Z" fill="#010202"/>
<path d="M25.4431 7.55859H21.7097V10.9468H25.4431V7.55859Z" fill="#010202"/>
<path d="M23.7489 13.3628H22.7764V14.2412H23.7489V13.3628Z" fill="#010202"/>
<path d="M28.392 11.7314H25.5685V14.2099H28.392V11.7314Z" fill="#010202"/>
<path d="M19.6077 10.5391H16.6901V13.2057H19.6077V10.5391Z" fill="#010202"/>
<path d="M27.1686 16.0605H25.6V17.5037H27.1686V16.0605Z" fill="#010202"/>
<g opacity="0.8">
<path opacity="0.8" d="M15.4979 29.0176V4.26465C14.6195 5.14308 10.2901 7.87249 4.23517 8.15484C4.2038 23.1509 15.4979 29.0176 15.4979 29.0176Z" fill="#010202"/>
</g>
</g>
</svg>
