<svg width="152" height="33" viewBox="0 0 152 33" fill="none" xmlns="http://www.w3.org/2000/svg">
<mask id="mask0_8_24280" style="mask-type:luminance" maskUnits="userSpaceOnUse" x="1" y="2" width="150" height="30">
<path d="M150.151 2.13135H1.88428V31.0882H150.151V2.13135Z" fill="white"/>
</mask>
<g mask="url(#mask0_8_24280)">
<path d="M41.9784 10.1313C41.9784 9.91165 42.0726 9.69204 42.2294 9.53518C42.3863 9.37832 42.6059 9.2842 42.8255 9.2842H50.4804C50.6059 9.2842 50.7314 9.22146 50.8255 9.15871C50.9196 9.06459 50.951 8.9391 50.951 8.81361V8.49989C50.951 8.37439 50.8882 8.2489 50.8255 8.15479C50.7314 8.06067 50.6059 8.0293 50.4804 8.0293H41.602C40.9745 8.0293 40.3784 8.28028 39.9392 8.71949C39.5 9.15871 39.249 9.75479 39.249 10.3822V14.8058C39.249 15.4332 39.5 16.0293 39.9392 16.4685C40.3784 16.9077 40.9745 17.1587 41.602 17.1587H47.751C47.9706 17.1587 48.1902 17.2528 48.3471 17.4411C48.5039 17.5979 48.598 17.8175 48.598 18.0371V22.8685C48.598 23.0881 48.5039 23.3077 48.3471 23.4646C48.1902 23.6215 47.9706 23.7156 47.751 23.7156H40.4412C40.3157 23.7156 40.1902 23.7783 40.0961 23.8411C40.002 23.9352 39.9706 24.0607 39.9706 24.1862V24.4999C39.9706 24.6254 40.0333 24.7509 40.0961 24.845C40.1902 24.9391 40.3157 24.9705 40.4412 24.9705H48.9431C49.2569 24.9705 49.5392 24.9077 49.8529 24.7822C50.1353 24.6567 50.3863 24.4999 50.6059 24.2803C50.8255 24.0607 50.9824 23.8097 51.1078 23.5273C51.2333 23.245 51.2961 22.9313 51.2961 22.6175V18.2254C51.2961 17.5979 51.0451 17.0018 50.6059 16.5626C50.1667 16.1234 49.5706 15.8724 48.9431 15.8724H42.7941C42.5745 15.8724 42.3549 15.7783 42.198 15.6215C42.0412 15.4646 41.9471 15.245 41.9471 15.0254V10.1313H41.9784Z" fill="white"/>
<path d="M127.123 10.1313C127.123 9.91165 127.217 9.69204 127.374 9.53518C127.531 9.37832 127.751 9.2842 127.97 9.2842H135.625C135.751 9.2842 135.876 9.22146 135.97 9.15871C136.065 9.06459 136.096 8.9391 136.096 8.81361V8.49989C136.096 8.37439 136.033 8.2489 135.97 8.15479C135.876 8.06067 135.751 8.0293 135.625 8.0293H126.715C126.088 8.0293 125.492 8.28028 125.053 8.71949C124.614 9.15871 124.363 9.75479 124.363 10.3822V14.8058C124.363 15.4332 124.614 16.0293 125.053 16.4685C125.492 16.9077 126.088 17.1587 126.715 17.1587H132.865C133.084 17.1587 133.304 17.2528 133.461 17.4411C133.617 17.5979 133.712 17.8175 133.712 18.0371V22.8685C133.712 23.0881 133.617 23.3077 133.461 23.4646C133.304 23.6215 133.084 23.7156 132.865 23.7156H125.555C125.429 23.7156 125.304 23.7783 125.21 23.8411C125.115 23.9352 125.084 24.0607 125.084 24.1862V24.4999C125.084 24.6254 125.147 24.7509 125.21 24.845C125.304 24.9391 125.429 24.9705 125.555 24.9705H134.088C134.402 24.9705 134.684 24.9077 134.998 24.7822C135.28 24.6567 135.531 24.4999 135.751 24.2803C135.97 24.0607 136.127 23.8097 136.253 23.5273C136.378 23.245 136.441 22.9313 136.441 22.6175V18.2254C136.441 17.5979 136.19 17.0018 135.751 16.5626C135.312 16.1234 134.715 15.8724 134.088 15.8724H127.939C127.719 15.8724 127.5 15.7783 127.343 15.6215C127.186 15.4646 127.092 15.245 127.092 15.0254V10.1313H127.123Z" fill="white"/>
<path d="M62.0881 23.653H58.2607C58.0411 23.653 57.8215 23.5588 57.6646 23.3706C57.5077 23.2137 57.4136 22.9941 57.4136 22.7745V8.46864C57.4136 8.34314 57.3509 8.21766 57.2881 8.12354C57.194 8.02942 57.0685 7.99805 56.943 7.99805H55.1862C55.0607 7.99805 54.9352 8.06079 54.8411 8.12354C54.7469 8.21766 54.7156 8.34314 54.7156 8.46864V22.5549C54.7156 23.1824 54.9666 23.7784 55.4058 24.2177C55.845 24.6569 56.4411 24.9079 57.0685 24.9079H62.0881C62.2136 24.9079 62.3391 24.8451 62.4332 24.7824C62.5273 24.6882 62.5587 24.5628 62.5587 24.4373V24.1235C62.5587 24.0608 62.5587 23.998 62.5273 23.9353C62.496 23.8726 62.4646 23.8098 62.4332 23.7784C62.4019 23.7471 62.3391 23.6843 62.2764 23.6843C62.2136 23.6843 62.1509 23.653 62.0881 23.653Z" fill="white"/>
<path d="M90.198 23.653H91.5156C91.7353 23.653 91.9549 23.5588 92.1117 23.3706C92.2686 23.2137 92.3627 22.9941 92.3627 22.7745V8.46864C92.3627 8.34314 92.4255 8.21766 92.4882 8.12354C92.5823 8.02942 92.7078 7.99805 92.8333 7.99805H94.6215C94.747 7.99805 94.8725 8.06079 94.9666 8.12354C95.0607 8.21766 95.0921 8.34314 95.0921 8.46864V22.5549C95.0921 23.1824 94.8411 23.7784 94.4019 24.2177C93.9627 24.6569 93.3666 24.9079 92.7392 24.9079H90.2294C90.1039 24.9079 89.9784 24.8451 89.8843 24.7824C89.7902 24.6882 89.7588 24.5628 89.7588 24.4373V24.1235C89.7588 24.0608 89.7588 23.998 89.7902 23.9353C89.8215 23.8726 89.8529 23.8098 89.8843 23.7784C89.9156 23.7471 89.9784 23.6843 90.0411 23.6843C90.0725 23.6843 90.1353 23.653 90.198 23.653Z" fill="white"/>
<path d="M84.6136 23.653H83.296C83.0763 23.653 82.8567 23.5588 82.6999 23.3706C82.543 23.2137 82.4489 22.9941 82.4489 22.7745V8.46864C82.4489 8.34314 82.3861 8.21766 82.3234 8.12354C82.2293 8.02942 82.1038 7.99805 81.9783 7.99805H80.1901C80.0646 7.99805 79.9391 8.06079 79.845 8.12354C79.7509 8.21766 79.7195 8.34314 79.7195 8.46864V22.5549C79.7195 23.1824 79.9705 23.7784 80.4097 24.2177C80.8489 24.6569 81.445 24.9079 82.0724 24.9079H84.5822C84.7077 24.9079 84.8332 24.8451 84.9273 24.7824C85.0214 24.6882 85.0528 24.5628 85.0528 24.4373V24.1235C85.0528 24.0608 85.0528 23.998 85.0214 23.9353C84.9901 23.8726 84.9587 23.8098 84.9273 23.7784C84.8959 23.7471 84.8332 23.6843 84.7705 23.6843C84.7391 23.6843 84.6763 23.653 84.6136 23.653Z" fill="white"/>
<path d="M71.9391 23.653H68.2371C68.0175 23.653 67.7979 23.5588 67.641 23.3706C67.4842 23.2137 67.3901 22.9941 67.3901 22.7745V8.46864C67.3901 8.34314 67.3273 8.21766 67.2646 8.12354C67.2018 8.02942 67.045 7.99805 66.9195 7.99805H65.1312C65.0057 7.99805 64.8803 8.06079 64.7861 8.12354C64.692 8.18629 64.6606 8.34314 64.6606 8.46864V22.5549C64.6606 23.1824 64.9116 23.7784 65.3508 24.2177C65.7901 24.6569 66.3861 24.9079 67.0136 24.9079H71.9077C72.0332 24.9079 72.1587 24.8451 72.2528 24.7824C72.3469 24.6882 72.3783 24.5628 72.3783 24.4373V24.1235C72.3783 24.0608 72.3783 23.998 72.3469 23.9353C72.3155 23.8726 72.2842 23.8098 72.2528 23.7784C72.2214 23.7471 72.1587 23.6843 72.0959 23.6843C72.0646 23.6843 72.0018 23.653 71.9391 23.653Z" fill="white"/>
<path d="M120.253 8.0293H118.464C118.339 8.0293 118.214 8.09204 118.119 8.15479C118.025 8.2489 117.994 8.37439 117.994 8.49989V24.4371C117.994 24.5626 118.057 24.6881 118.119 24.7822C118.214 24.8764 118.339 24.9077 118.464 24.9077H120.253C120.378 24.9077 120.504 24.845 120.598 24.7822C120.692 24.6881 120.723 24.5626 120.723 24.4371V8.49989C120.723 8.43714 120.723 8.37439 120.692 8.31165C120.661 8.2489 120.629 8.18616 120.598 8.15479C120.566 8.12341 120.504 8.06067 120.441 8.06067C120.378 8.0293 120.315 8.0293 120.253 8.0293Z" fill="white"/>
<path d="M88.3155 8.0293H86.5272C86.4017 8.0293 86.2762 8.09204 86.1821 8.15479C86.088 8.2489 86.0566 8.37439 86.0566 8.49989V24.4371C86.0566 24.5626 86.1194 24.6881 86.1821 24.7822C86.2762 24.8764 86.4017 24.9077 86.5272 24.9077H88.3155C88.441 24.9077 88.5665 24.845 88.6606 24.7822C88.7547 24.6881 88.7861 24.5626 88.7861 24.4371V8.49989C88.7861 8.43714 88.7861 8.37439 88.7547 8.31165C88.7233 8.2489 88.6919 8.18616 88.6606 8.15479C88.6292 8.12341 88.5665 8.06067 88.5037 8.06067C88.441 8.06067 88.3782 8.0293 88.3155 8.0293Z" fill="white"/>
<path d="M103.72 9.25295H102.402C102.182 9.25295 101.963 9.34707 101.806 9.50393C101.649 9.66079 101.555 9.8804 101.555 10.1V24.4373C101.555 24.5628 101.492 24.6882 101.429 24.7824C101.335 24.8765 101.21 24.9079 101.084 24.9079H99.296C99.1705 24.9079 99.045 24.8451 98.9509 24.7824C98.8568 24.6882 98.8254 24.5628 98.8254 24.4373V10.351C98.8254 9.72354 99.0764 9.12746 99.5156 8.68825C99.9548 8.24903 100.551 7.99805 101.178 7.99805H103.688C103.814 7.99805 103.939 8.06079 104.033 8.12354C104.127 8.21766 104.159 8.34314 104.159 8.46864V8.78236C104.159 8.90785 104.127 9.03334 104.033 9.12746C103.971 9.22158 103.845 9.25295 103.72 9.25295Z" fill="white"/>
<path d="M109.304 9.25295H110.621C110.841 9.25295 111.061 9.34707 111.218 9.50393C111.374 9.66079 111.469 9.8804 111.469 10.1V24.4373C111.469 24.5628 111.531 24.6882 111.594 24.7824C111.688 24.8765 111.814 24.9079 111.939 24.9079H113.696C113.821 24.9079 113.947 24.8451 114.041 24.7824C114.135 24.6882 114.167 24.5628 114.167 24.4373V10.351C114.167 9.72354 113.916 9.12746 113.476 8.68825C113.037 8.24903 112.441 7.99805 111.814 7.99805H109.304C109.178 7.99805 109.053 8.06079 108.959 8.12354C108.865 8.21766 108.833 8.34314 108.833 8.46864V8.78236C108.833 8.84511 108.833 8.90785 108.865 8.9706C108.896 9.03334 108.927 9.09609 108.959 9.12746C108.99 9.15883 109.053 9.22158 109.116 9.22158C109.178 9.25295 109.241 9.25295 109.304 9.25295Z" fill="white"/>
<path d="M68.739 9.25295H72.441C72.6606 9.25295 72.8802 9.34707 73.0371 9.50393C73.1939 9.66079 73.288 9.8804 73.288 10.1V24.4373C73.288 24.5628 73.3508 24.6882 73.4135 24.7824C73.5077 24.8765 73.6331 24.9079 73.7586 24.9079H75.5469C75.6724 24.9079 75.7978 24.8451 75.892 24.7824C75.9861 24.6882 76.0175 24.5628 76.0175 24.4373V10.351C76.0175 9.72354 75.7665 9.12746 75.3273 8.68825C74.888 8.24903 74.292 7.99805 73.6645 7.99805H68.7704C68.6449 7.99805 68.5194 8.06079 68.4253 8.12354C68.3312 8.21766 68.2998 8.34314 68.2998 8.46864V8.78236C68.2998 8.90785 68.3312 9.03334 68.4253 9.09609C68.488 9.22158 68.6135 9.25295 68.739 9.25295Z" fill="white"/>
<path d="M139.045 9.25295H141.837C142.057 9.25295 142.276 9.34707 142.433 9.50393C142.59 9.66079 142.684 9.8804 142.684 10.1V24.4373C142.684 24.5628 142.747 24.6882 142.81 24.7824C142.904 24.8765 143.029 24.9079 143.155 24.9079H144.943C145.069 24.9079 145.194 24.8451 145.288 24.7824C145.382 24.6882 145.414 24.5628 145.414 24.4373V10.351C145.414 9.72354 145.163 9.12746 144.723 8.68825C144.284 8.24903 143.688 7.99805 143.061 7.99805H139.045C138.92 7.99805 138.794 8.06079 138.7 8.12354C138.606 8.21766 138.574 8.34314 138.574 8.46864V8.78236C138.574 8.90785 138.606 9.03334 138.7 9.09609C138.825 9.1902 138.92 9.25295 139.045 9.25295Z" fill="white"/>
<path d="M105.602 24.939H107.39C107.516 24.939 107.641 24.8762 107.735 24.8135C107.829 24.7194 107.861 24.5939 107.861 24.4684V8.53114C107.861 8.40564 107.798 8.28015 107.735 8.18604C107.641 8.09192 107.516 8.06055 107.39 8.06055H105.602C105.476 8.06055 105.351 8.12329 105.257 8.18604C105.163 8.28015 105.131 8.40564 105.131 8.53114V24.4684C105.131 24.5311 105.131 24.5939 105.163 24.6566C105.194 24.7194 105.225 24.7507 105.257 24.8135C105.288 24.8449 105.351 24.9076 105.414 24.9076C105.508 24.9076 105.571 24.939 105.602 24.939Z" fill="white"/>
<path d="M149.68 7.99805H147.892C147.766 7.99805 147.641 8.06079 147.547 8.12354C147.453 8.21766 147.421 8.34314 147.421 8.46864V10.1C147.421 10.2255 147.484 10.351 147.547 10.4451C147.641 10.5392 147.766 10.5706 147.892 10.5706H149.712C149.837 10.5706 149.963 10.5079 150.057 10.4451C150.151 10.351 150.182 10.2255 150.182 10.1V8.46864C150.182 8.40589 150.182 8.34315 150.151 8.2804C150.119 8.21766 150.088 8.15491 150.025 8.12354C149.994 8.09217 149.931 8.06079 149.868 8.02942C149.806 7.99805 149.743 7.99805 149.68 7.99805Z" fill="white"/>
<path d="M20.394 24.4685C18.8568 26.2881 17.0372 27.8253 14.998 29.0175C14.998 29.0175 3.73521 23.1508 3.73521 8.15475C9.82148 7.8724 14.1195 5.14299 14.998 4.26456C15.5313 4.79789 17.2568 5.95867 19.8921 6.89985V5.17436C18.0725 4.54691 16.4097 3.51162 15.0293 2.1626C14.1509 3.04103 10.7627 6.30377 1.97834 6.74299C1.09991 24.4371 15.0293 31.1195 15.0293 31.1195C18.0411 29.4881 20.6764 27.2293 22.747 24.4999H20.394V24.4685Z" fill="white"/>
<path d="M23.7508 14.8687H19.6724V18.5706H23.7508V14.8687Z" fill="white"/>
<path d="M19.3902 18.9468H18.198V19.9821H19.3902V18.9468Z" fill="white"/>
<path d="M22.0568 20.7666H20.2686V22.398H22.0568V20.7666Z" fill="white"/>
<path d="M26.4489 21.0176H23.7822V23.3705H26.4489V21.0176Z" fill="white"/>
<path d="M33.2881 13.2373H30.0881V16.1236H33.2881V13.2373Z" fill="white"/>
<path d="M33.0058 7.77832H31.5312V9.09597H33.0058V7.77832Z" fill="white"/>
<path d="M30.1195 8.59375H28.645V9.9114H30.1195V8.59375Z" fill="white"/>
<path d="M30.1197 16.4058H28.2373V18.1313H30.1197V16.4058Z" fill="white"/>
<path d="M28.7705 19.4805H26.7627V21.2687H28.7705V19.4805Z" fill="white"/>
<path d="M27.1078 5.58203H24.8804V7.5585H27.1078V5.58203Z" fill="white"/>
<path d="M22.8412 3.8252H20.8647V5.58206H22.8412V3.8252Z" fill="white"/>
<path d="M20.6449 7.27637H18.1038V9.53519H20.6449V7.27637Z" fill="white"/>
<path d="M18.292 8.43701H18.1038V10.6958H18.292V8.43701Z" fill="white"/>
<path d="M22.0883 5.48828H21.8687V7.74711H22.0883V5.48828Z" fill="white"/>
<path d="M26.4175 7.27637H26.2292V12.2646H26.4175V7.27637Z" fill="white"/>
<path d="M32.1274 8.81348H31.9392V13.8017H32.1274V8.81348Z" fill="white"/>
<path d="M32.0332 8.90771H29.6489V9.12732H32.0332V8.90771Z" fill="white"/>
<path d="M30.2135 13.896H27.7979V14.0842H30.2135V13.896Z" fill="white"/>
<path d="M28.5822 16.5625H26.1665V16.7507H28.5822V16.5625Z" fill="white"/>
<path d="M25.5392 17.2842H23.1235V17.4724H25.5392V17.2842Z" fill="white"/>
<path d="M27.6724 21.0176H25.2881V21.2372H27.6724V21.0176Z" fill="white"/>
<path d="M29.8372 16.8447L29.6489 16.7193L30.3077 15.7153L30.4646 15.8408L29.8372 16.8447Z" fill="white"/>
<path d="M19.2018 19.3233L19.0449 19.1664L19.892 18.3193L20.0488 18.4762L19.2018 19.3233Z" fill="white"/>
<path d="M25.2254 12.6099H22.8411V12.7981H25.2254V12.6099Z" fill="white"/>
<path d="M21.3039 10.5391H18.8882V10.7273H21.3039V10.5391Z" fill="white"/>
<path d="M22.9352 8.62549H22.7156V13.6137H22.9352V8.62549Z" fill="white"/>
<path d="M22.0568 17.0332H21.8372V22.0214H22.0568V17.0332Z" fill="white"/>
<path d="M28.7706 16.5312H28.551V20.296H28.7706V16.5312Z" fill="white"/>
<path d="M24.9431 7.55859H21.2097V10.9468H24.9431V7.55859Z" fill="white"/>
<path d="M23.2489 13.3628H22.2764V14.2412H23.2489V13.3628Z" fill="white"/>
<path d="M27.8921 11.7314H25.0686V14.2099H27.8921V11.7314Z" fill="white"/>
<path d="M19.1078 10.5391H16.1902V13.2057H19.1078V10.5391Z" fill="white"/>
<path d="M26.6685 16.0605H25.0999V17.5037H26.6685V16.0605Z" fill="white"/>
<g opacity="0.8">
<path opacity="0.8" d="M14.9979 29.0176V4.26465C14.1195 5.14308 9.79007 7.87249 3.73517 8.15484C3.7038 23.1509 14.9979 29.0176 14.9979 29.0176Z" fill="white"/>
</g>
</g>
</svg>
