<svg width="158" height="33" viewBox="0 0 158 33" fill="none" xmlns="http://www.w3.org/2000/svg">
<path fill-rule="evenodd" clip-rule="evenodd" d="M47.0495 20.3081C47.0495 22.4824 45.8056 23.7306 43.36 23.7306H37.511V21.1536H42.667C43.4215 21.1536 43.7881 20.8908 43.7881 20.2275C43.7881 19.6829 43.3812 19.3417 42.4826 18.7165L39.4246 16.3812C37.8755 15.2135 37.2228 14.1263 37.2228 12.8379C37.2228 10.6424 38.5282 9.63574 41.0946 9.63574H46.8016V12.2127H41.6646C40.8699 12.2127 40.4821 12.4755 40.4821 13.16C40.4821 13.6834 40.889 14.0267 41.8066 14.6307L44.8434 16.7245C46.3968 17.7714 47.0495 19.0387 47.0495 20.3081Z" fill="#2B2D6C"/>
<path fill-rule="evenodd" clip-rule="evenodd" d="M59.0082 12.2127H55.3123V23.7306H52.0276V12.2127H48.3317V9.63574H59.0082V12.2127Z" fill="#2B2D6C"/>
<path fill-rule="evenodd" clip-rule="evenodd" d="M67.8241 18.6572L65.8639 13.0795L63.8845 18.6572H67.8241ZM68.6633 21.0116H63.022L62.062 23.7306H58.5823L64.1621 9.63574H67.5232L73.1031 23.7306H69.6233L68.6633 21.0116Z" fill="#2B2D6C"/>
<path fill-rule="evenodd" clip-rule="evenodd" d="M78.6447 16.2816C80.4375 16.2816 80.9673 15.6564 80.9673 14.1666C80.9673 12.6768 80.4375 12.0516 78.6447 12.0516H77.2184V16.2795H78.6447V16.2816ZM84.6357 23.7306H81.3551L80.7236 21.0328C80.3167 19.1595 79.9501 18.6572 78.5218 18.636H77.2184V23.7306H73.9591V9.63574H79.8081C82.8449 9.63574 84.2309 10.9645 84.2309 13.8636C84.2309 15.8175 83.4574 17.0042 81.887 17.4874C83.0081 18.0108 83.557 19.0577 84.0063 21.0307L84.6357 23.7306Z" fill="#2B2D6C"/>
<path fill-rule="evenodd" clip-rule="evenodd" d="M89.9464 16.4617L95.0071 9.63574H98.7983L93.4791 16.4617L99.1565 23.7306H95.3652L89.9464 16.4617ZM86.7719 23.7306H89.9485V9.63574H86.7719V23.7306Z" fill="#2B2D6C"/>
<path fill-rule="evenodd" clip-rule="evenodd" d="M120.086 9.63574L115.824 23.7306H113.832L110.467 12.4543L107.099 23.7306H105.088L100.867 9.63574H102.818L106.144 21.5351L109.67 9.63574H111.264L114.788 21.5351L118.134 9.63574H120.086Z" fill="#2B2D6C"/>
<path fill-rule="evenodd" clip-rule="evenodd" d="M128.531 18.7165L125.863 11.649L123.173 18.7165H128.531ZM129.037 20.0665H122.669L121.275 23.7306H119.234L124.873 9.63574H126.833L132.473 23.7306H130.432L129.037 20.0665Z" fill="#2B2D6C"/>
<path fill-rule="evenodd" clip-rule="evenodd" d="M138.603 16.5422C140.846 16.5422 141.68 15.6755 141.68 13.783C141.68 11.9308 140.846 11.045 138.603 11.045H136.056V16.5422H138.603ZM144.005 23.7306H142.111L141.602 21.3147C141.093 18.7971 140.46 17.9515 138.544 17.9112H136.058V23.7306H134.183V9.63574H139.237C142.234 9.63574 143.558 10.9454 143.558 13.622C143.558 15.6352 142.723 16.8644 140.971 17.267C142.357 17.7904 142.988 18.9793 143.478 21.3147L144.005 23.7306Z" fill="#2B2D6C"/>
<path fill-rule="evenodd" clip-rule="evenodd" d="M148.858 11.1255V15.4148H155.135V16.805H148.858V19.8249C148.858 21.4969 149.587 22.2408 151.247 22.2408H155.964V23.7306H150.963C148.006 23.7306 146.993 22.7642 146.993 19.9859V9.63574H155.962V11.1255H148.858Z" fill="#2B2D6C"/>
<path fill-rule="evenodd" clip-rule="evenodd" d="M15.8506 18.2779L13.4347 20.7679C13.4325 20.77 13.4325 20.77 13.4304 20.7722C13.4241 20.7764 13.4177 20.7785 13.4092 20.7785C13.388 20.7785 13.3711 20.7616 13.3711 20.7382C13.3711 20.734 13.3711 20.7298 13.3732 20.7255L14.2929 17.1907C14.3714 16.9364 14.3141 16.6482 14.117 16.4469L11.7012 13.9568C11.699 13.9547 11.699 13.9547 11.6969 13.9526C11.6927 13.9462 11.6906 13.9398 11.6906 13.9314C11.6906 13.9102 11.7075 13.8911 11.7287 13.8911C11.7329 13.8911 11.7372 13.8911 11.7414 13.8932L15.1703 14.8405C15.4161 14.921 15.6959 14.8617 15.8908 14.6604L18.3067 12.1703C18.3088 12.1682 18.3088 12.1682 18.311 12.1661C18.3173 12.1618 18.3237 12.1597 18.3321 12.1597C18.3533 12.1597 18.3703 12.1767 18.3703 12.2C18.3703 12.2042 18.3703 12.2084 18.3682 12.2127L17.4484 15.7475C17.37 16.0018 17.4272 16.29 17.6222 16.4914L20.0381 18.9814C20.0402 18.9835 20.0402 18.9835 20.0423 18.9857C20.0466 18.992 20.0487 18.9984 20.0487 19.0069C20.0487 19.028 20.0318 19.045 20.0106 19.045C20.0063 19.045 20.0021 19.045 19.9978 19.0429L16.569 18.0956C16.3253 18.0172 16.0455 18.0765 15.8506 18.2779ZM29.4347 16.2095L23.6662 10.2588C23.4712 10.0574 23.1915 9.99812 22.9457 10.0786L19.1523 11.1276C19.1523 11.1276 19.1523 11.1276 19.1502 11.1276C19.1459 11.1298 19.1438 11.1298 19.1396 11.1298C19.1184 11.1298 19.1014 11.1128 19.1014 11.0895C19.1014 11.0747 19.1078 11.0641 19.1184 11.0556C19.5316 10.7716 20.161 10.2567 21.6614 8.70964C21.8013 8.56553 21.8013 8.33454 21.6614 8.19043L16.1239 2.47917C15.9841 2.33507 15.7594 2.33507 15.6196 2.47917L9.85109 8.42991C9.65612 8.63123 9.5989 8.91944 9.67731 9.17374L10.6945 13.0858C10.6945 13.0858 10.6945 13.0858 10.6945 13.0879C10.6966 13.0922 10.6967 13.0964 10.6967 13.0985C10.6967 13.1197 10.6797 13.1388 10.6585 13.1388C10.6458 13.1388 10.6331 13.1324 10.6267 13.1197C10.3512 12.6916 9.85321 12.0453 8.35281 10.4961C8.21294 10.352 7.98831 10.352 7.84844 10.4961L2.31096 16.2074C2.17109 16.3515 2.17109 16.5825 2.31096 16.7266L8.07943 22.6773C8.2744 22.8786 8.55413 22.938 8.79996 22.8575L12.5933 21.8084C12.5933 21.8084 12.5933 21.8084 12.5955 21.8084C12.5997 21.8063 12.6018 21.8063 12.6061 21.8063C12.6272 21.8063 12.6442 21.8233 12.6442 21.8466C12.6442 21.8614 12.6378 21.872 12.6272 21.8805C12.214 22.1645 11.5846 22.6794 10.0842 24.2265C9.94433 24.3706 9.94433 24.6016 10.0842 24.7457L15.6217 30.4569C15.7616 30.601 15.9862 30.601 16.1261 30.4569L21.8945 24.5062C22.0895 24.3049 22.1467 24.0167 22.0704 23.7624L21.0532 19.8503C21.0532 19.8503 21.0532 19.8503 21.0532 19.8482C21.0511 19.8439 21.0511 19.8397 21.0511 19.8355C21.0511 19.8143 21.068 19.7952 21.0892 19.7952C21.1019 19.7952 21.1147 19.8016 21.121 19.8143C21.3965 20.2424 21.8945 20.8887 23.3949 22.4378C23.5348 22.582 23.7594 22.582 23.8993 22.4378L29.4368 16.7266C29.5724 16.5867 29.5724 16.3536 29.4347 16.2095Z" fill="#2B2D6C"/>
</svg>
