<svg width="106" height="24" viewBox="0 0 106 24" fill="none" xmlns="http://www.w3.org/2000/svg">
<g clip-path="url(#clip0_1700_16030)">
<path d="M0.496094 11.9638C0.496094 18.3827 5.69958 23.5862 12.1186 23.5862C18.5376 23.5862 23.7414 18.3827 23.7414 11.9638C23.7414 5.54481 18.5376 0.341309 12.1186 0.341309C5.69958 0.341309 0.496094 5.54479 0.496094 11.9638Z" fill="#0C0C4F" stroke="url(#paint0_linear_1700_16030)" stroke-width="0.603774"/>
<path fill-rule="evenodd" clip-rule="evenodd" d="M6.8591 9.15436L7.15346 8.24496C7.21329 8.05999 7.35927 7.91607 7.54491 7.85931L8.45877 7.57829C8.58526 7.53965 8.58629 7.36119 8.46082 7.32051L7.55107 7.02614C7.36645 6.96632 7.22251 6.82033 7.16543 6.6347L6.88473 5.72084C6.84611 5.59468 6.66765 5.59331 6.62695 5.71913L6.3326 6.62854C6.27276 6.81316 6.12679 6.95708 5.94114 7.01418L5.02728 7.29486C4.90079 7.33384 4.89942 7.51196 5.02523 7.55264L5.93498 7.847C6.1196 7.90683 6.26354 8.05316 6.32063 8.2388L6.60132 9.15231C6.63995 9.27882 6.81841 9.28017 6.8591 9.15436Z" fill="#FAFAFA"/>
<path fill-rule="evenodd" clip-rule="evenodd" d="M21.3035 8.62552C20.9269 8.20424 20.3388 7.96703 19.7672 7.86976C19.1911 7.77635 18.5868 7.78501 18.0181 7.88607C16.8671 8.08075 15.8215 8.55731 14.9096 9.14522C14.436 9.43375 14.0321 9.76762 13.6137 10.1076C13.4121 10.2796 13.2283 10.4627 13.0369 10.6432L12.5138 11.1636C11.9455 11.7577 11.3853 12.2988 10.8433 12.7473C10.2991 13.1937 9.79032 13.5328 9.28891 13.7696C8.78783 14.0076 8.25166 14.1475 7.55281 14.17C6.8601 14.1944 6.04053 14.0694 5.16389 13.863C4.28253 13.6576 3.357 13.3647 2.32275 13.1127C2.68363 14.1139 3.22706 14.9986 3.92476 15.8073C4.63065 16.602 5.5121 17.3264 6.64441 17.8028C7.76038 18.2897 9.1628 18.4645 10.4741 18.2008C11.7889 17.9477 12.9427 17.3392 13.8753 16.6357C14.8103 15.9249 15.5668 15.1152 16.2045 14.2734C16.3805 14.0408 16.4736 13.9106 16.601 13.7288L16.9532 13.2073C17.1978 12.8846 17.4206 12.5173 17.6629 12.1976C18.1378 11.5282 18.6058 10.8595 19.1498 10.2434C19.4237 9.93096 19.7124 9.63207 20.0532 9.34484C20.2234 9.20465 20.4069 9.06744 20.6104 8.94385C20.8169 8.81054 21.035 8.70619 21.3035 8.62552Z" fill="url(#paint1_linear_1700_16030)"/>
<path fill-rule="evenodd" clip-rule="evenodd" d="M21.3035 8.6254C20.8988 7.60413 20.1464 6.74444 19.1366 6.11007C18.1326 5.48265 16.7385 5.16247 15.3571 5.43541C14.6745 5.56741 14.0133 5.82154 13.433 6.15995C12.8554 6.49704 12.3378 6.90279 11.8897 7.3381C11.666 7.55648 11.4629 7.78428 11.2612 8.01339L10.7384 8.67998L9.93083 9.75301C8.90135 11.1336 7.79275 12.7516 5.97346 13.231C4.18745 13.7016 3.41282 13.2848 2.32275 13.1126C2.52207 13.6272 2.76896 14.1269 3.10367 14.5665C3.43214 15.0151 3.82011 15.4363 4.30247 15.7974C4.54623 15.9708 4.80358 16.142 5.08943 16.2872C5.37395 16.4274 5.68079 16.5509 6.00831 16.6439C6.65978 16.8225 7.39323 16.8849 8.10337 16.7889C8.81385 16.6942 9.49294 16.4689 10.0865 16.1699C10.6845 15.8738 11.2054 15.513 11.6706 15.1323C12.5952 14.3645 13.3143 13.5161 13.9218 12.6585C14.2274 12.2297 14.5048 11.7929 14.7613 11.3559L15.0633 10.8356C15.1556 10.6836 15.2489 10.5305 15.3438 10.3881C15.7263 9.81553 16.1005 9.35647 16.555 9.01189C17.0031 8.65843 17.6273 8.39725 18.4612 8.33659C19.2917 8.27518 20.2505 8.3886 21.3035 8.6254Z" fill="#FAFAFA"/>
<path fill-rule="evenodd" clip-rule="evenodd" d="M16.8105 17.1109C16.8105 17.861 17.419 18.4694 18.169 18.4694C18.9192 18.4694 19.5268 17.861 19.5268 17.1109C19.5268 16.3609 18.9192 15.7524 18.169 15.7524C17.419 15.7524 16.8105 16.3609 16.8105 17.1109Z" fill="url(#paint2_linear_1700_16030)"/>
<path d="M104.411 8.62935V7.25766C104.411 7.20327 104.367 7.15918 104.313 7.15918H96.4968C96.4425 7.15918 96.3984 7.20327 96.3984 7.25766V8.62935H99.5749V17.5034H101.235V8.62935H104.411Z" fill="#121212"/>
<path d="M88.2294 7.15918C88.1749 7.15918 88.1309 7.20326 88.1309 7.25766V17.4048C88.1309 17.4591 88.1749 17.5034 88.2294 17.5034H94.8066C94.861 17.5034 94.905 17.4591 94.905 17.4048V16.0477H89.7905V12.7968H94.0161V11.3703H89.7905V8.61479H94.5408V7.25766C94.5408 7.20327 94.4967 7.15918 94.4423 7.15918H88.2294Z" fill="#121212"/>
<path d="M84.4153 17.4431L84.4511 17.5034H85.7259C85.7804 17.5034 85.8245 17.4591 85.8245 17.4048V7.25766C85.8245 7.20327 85.7804 7.15918 85.7259 7.15918H84.194V14.3231C83.928 13.8996 83.6192 13.4335 83.2675 12.9247C82.8197 12.2627 82.3378 11.591 81.8221 10.9099C81.3161 10.219 80.8003 9.55236 80.2747 8.90994C79.7584 8.25732 79.2707 7.68655 78.8113 7.19796L78.775 7.15918H77.5751C77.5206 7.15918 77.4766 7.20326 77.4766 7.25766V17.4048C77.4766 17.4591 77.5206 17.5034 77.5751 17.5034H79.1071V9.82892C79.3166 10.0763 79.5395 10.3505 79.776 10.6515C80.0956 11.0582 80.4249 11.4941 80.7643 11.9593L80.7646 11.9598L80.765 11.9603C81.1039 12.4156 81.443 12.8903 81.7822 13.3845L81.7827 13.3851L81.7831 13.3858C82.1321 13.8802 82.4664 14.3697 82.7863 14.8543L82.7866 14.8548L82.7871 14.8553C83.1066 15.3298 83.4018 15.7897 83.6728 16.2348L83.6732 16.2356L83.6738 16.2365C83.9551 16.6825 84.2023 17.0848 84.4153 17.4431Z" fill="#121212"/>
<path d="M75.4723 7.3652L75.5098 7.32399C75.5675 7.26078 75.5227 7.15918 75.4371 7.15918H73.62L73.5832 7.2019C73.342 7.48167 73.0424 7.81044 72.6837 8.1884C72.3344 8.55705 71.9609 8.94523 71.563 9.35284C71.1652 9.76031 70.7625 10.1678 70.3551 10.5753C70.0292 10.8934 69.7251 11.1867 69.4427 11.455V7.15918H67.8816C67.8273 7.15918 67.7832 7.20326 67.7832 7.25766V17.4048C67.7832 17.4591 67.8273 17.5034 67.8816 17.5034H69.4427V12.8106C69.7853 13.035 70.1357 13.2975 70.4935 13.5985L70.4942 13.5989L70.4946 13.5993C70.9281 13.9558 71.3523 14.3461 71.7671 14.7705L71.768 14.7716L71.769 14.7726C72.193 15.187 72.593 15.6255 72.969 16.0881L72.9693 16.0886L72.9698 16.0892C73.3456 16.5422 73.6777 16.9945 73.9661 17.4465L74.0024 17.5034H75.7735C75.8493 17.5034 75.8967 17.4214 75.859 17.3558L75.8378 17.3189C75.572 16.8563 75.2383 16.3707 74.8374 15.862C74.4466 15.3541 74.0267 14.8561 73.5776 14.368C73.1286 13.8799 72.6695 13.4208 72.2006 12.9909C71.7758 12.6016 71.3699 12.2672 70.9831 11.9884C71.3121 11.6673 71.6609 11.3224 72.0295 10.9539C72.4378 10.5455 72.8461 10.1323 73.2545 9.71429C73.6726 9.2865 74.0712 8.87325 74.4505 8.47453L74.451 8.47399L74.4516 8.47344C74.8306 8.06525 75.1708 7.69581 75.4723 7.3652Z" fill="#121212"/>
<path fill-rule="evenodd" clip-rule="evenodd" d="M58.3621 7.08177C58.3077 7.08178 58.2637 7.12587 58.2637 7.18024V17.4111C58.2637 17.4656 58.3077 17.5097 58.3621 17.5097H59.7684V13.7481H61.8228C62.0539 14.0248 62.2792 14.3143 62.4991 14.6167L62.4999 14.6178L62.5008 14.6189C62.8604 15.0904 63.1926 15.5821 63.4976 16.0944L63.4979 16.0949L63.4982 16.0955C63.7745 16.5488 64.0155 16.9965 64.2216 17.4386L64.2546 17.5097H65.9188C65.9902 17.5097 66.0377 17.4362 66.0081 17.3713C65.8167 16.952 65.6093 16.5412 65.379 16.1412C65.0659 15.5821 64.7225 15.0285 64.349 14.4806C64.1354 14.1674 63.9173 13.8632 63.6946 13.5679C64.3153 13.3781 64.8065 13.0349 65.1616 12.5368L65.1619 12.5365C65.5884 11.9336 65.7997 11.2247 65.7997 10.4149C65.7997 9.85843 65.7029 9.34927 65.5071 8.88921C65.3106 8.42245 65.0149 8.03535 64.621 7.72996C64.2297 7.42294 63.7477 7.22759 63.1801 7.13999C63.0477 7.11558 62.9109 7.10097 62.7699 7.096C62.6323 7.08654 62.5121 7.08171 62.4099 7.08171C61.9785 7.08171 61.547 7.08166 61.1156 7.08162C60.1977 7.08153 59.28 7.08147 58.3621 7.08177ZM64.2667 10.4149C64.2667 10.6836 64.222 10.9481 64.1321 11.2088C64.0442 11.4591 63.9038 11.6786 63.7099 11.8682C63.526 12.0478 63.2836 12.1751 62.9764 12.2464C62.8791 12.2685 62.7743 12.2842 62.6617 12.2932L62.6616 12.2932L62.6614 12.2932C62.5508 12.3024 62.453 12.3069 62.3675 12.3069H59.7684V8.52284H62.3675C62.453 8.52284 62.5508 8.52734 62.6614 8.53656L62.664 8.53677L62.6667 8.53688C62.7761 8.54125 62.8776 8.55653 62.9716 8.58214L62.9746 8.58299L62.9778 8.58367C63.2838 8.65019 63.5254 8.77707 63.7088 8.96051L63.7093 8.96103L63.7099 8.96151C63.9035 9.15085 64.0439 9.37251 64.1321 9.62774V9.62806L64.1322 9.62838C64.2219 9.88405 64.2667 10.146 64.2667 10.4149Z" fill="#121212"/>
<path fill-rule="evenodd" clip-rule="evenodd" d="M54.5713 16.1376L54.5715 16.1381L54.5716 16.1385C54.7176 16.5573 54.8734 16.9856 55.0389 17.4237L55.069 17.5034H56.7337C56.8021 17.5034 56.8497 17.4354 56.8263 17.3711C56.4626 16.3721 56.0955 15.3742 55.7211 14.3791C55.3808 13.4653 55.0454 12.5999 54.7147 11.783C54.3938 10.966 54.0728 10.1878 53.7517 9.44828C53.4296 8.69669 53.0906 7.95255 52.7375 7.21504C52.7211 7.18089 52.6866 7.15918 52.6488 7.15918H51.3209C51.283 7.15918 51.2485 7.18089 51.2321 7.21504C50.8789 7.95257 50.5401 8.69673 50.218 9.44834C49.8969 10.1876 49.5712 10.9656 49.2406 11.7823L49.2403 11.7829L49.2401 11.7835C48.9192 12.6002 48.5887 13.4654 48.2486 14.3791C47.874 15.3742 47.5069 16.3721 47.1432 17.3711C47.1198 17.4354 47.1674 17.5034 47.2358 17.5034H48.8294L48.8296 17.5032H48.8607L48.8972 17.464C49.2817 17.0513 49.7114 16.6462 50.1866 16.2489L50.187 16.2486L50.1875 16.2481C50.6644 15.8409 51.1618 15.4632 51.6794 15.115L51.6806 15.1142L51.6817 15.1133C52.1915 14.7531 52.7048 14.4298 53.2211 14.1434L53.2217 14.1431L53.2223 14.1427C53.4083 14.0369 53.5914 13.9383 53.7716 13.8469L54.12 14.842L54.1203 14.8428C54.2755 15.2793 54.4258 15.7109 54.5713 16.1376ZM52.7804 11.2309L52.7807 11.2318L52.781 11.2326C52.9212 11.5876 53.0614 11.9485 53.2017 12.3154C53.1912 12.32 53.1805 12.3248 53.1697 12.3297C52.6762 12.5545 52.1458 12.845 51.5787 13.2007C51.0358 13.5413 50.4971 13.9113 49.9627 14.3106L50.189 13.6645C50.4883 12.8247 50.7876 12.0138 51.0869 11.2318C51.3621 10.5265 51.6488 9.84816 51.9467 9.1967C52.2359 9.8479 52.5138 10.526 52.7804 11.2309Z" fill="#121212"/>
<path d="M47.5498 8.62935V7.25766C47.5498 7.20327 47.5057 7.15918 47.4512 7.15918H39.6355C39.5812 7.15918 39.5371 7.20327 39.5371 7.25766V8.62935H42.7136V17.4048C42.7136 17.4591 42.7576 17.5034 42.8121 17.5034H44.2748C44.3291 17.5034 44.3732 17.4591 44.3732 17.4048V8.62935H47.5498Z" fill="#121212"/>
<path d="M32.3658 17.3775L32.3653 17.3773C31.7634 17.1207 31.2627 16.7544 30.8657 16.278L30.8653 16.2774L30.8648 16.2769C30.4719 15.7945 30.2167 15.2258 30.0982 14.5737C30.0923 14.5411 30.0997 14.5074 30.1188 14.4804C30.138 14.4534 30.1673 14.4352 30.2001 14.4301L31.524 14.2214C31.5866 14.2115 31.6465 14.2509 31.6622 14.3123C31.8231 14.9374 32.1543 15.4226 32.6564 15.7743C33.1659 16.123 33.7668 16.2991 34.4642 16.2991C34.9166 16.2991 35.3208 16.2292 35.6787 16.0917C36.0407 15.9495 36.3217 15.7501 36.5268 15.496C36.7287 15.246 36.8305 14.95 36.8305 14.602C36.8305 14.386 36.7922 14.2092 36.7211 14.0671C36.7205 14.0658 36.7199 14.0645 36.7193 14.0632C36.6502 13.9118 36.5536 13.7854 36.429 13.6824C36.4278 13.6814 36.4266 13.6804 36.4256 13.6794C36.3006 13.5678 36.157 13.4735 35.9945 13.3967C35.8281 13.3181 35.6547 13.2533 35.474 13.2024L35.4724 13.2019L32.8316 12.4176C32.5376 12.3294 32.2533 12.2191 31.9789 12.0868L31.9782 12.0864L31.9773 12.086C31.6986 11.9467 31.449 11.7745 31.2289 11.5695L31.2283 11.5689L31.2278 11.5685C31.0047 11.3556 30.8278 11.1024 30.697 10.8103L30.6967 10.8096C30.5635 10.5077 30.4991 10.1567 30.4991 9.75991C30.4991 9.12377 30.6634 8.57446 30.9978 8.11866L30.9979 8.11846C31.3336 7.66245 31.7863 7.31593 32.3514 7.07793C32.916 6.84029 33.5492 6.72524 34.2493 6.73013C34.9587 6.73502 35.5969 6.86228 36.1614 7.11472C36.7303 7.36213 37.2022 7.71935 37.5747 8.18627C37.953 8.65419 38.2052 9.21256 38.3333 9.85827C38.3398 9.89076 38.3329 9.9245 38.3142 9.95183C38.2954 9.97916 38.2665 9.99778 38.2339 10.0035L36.874 10.2409C36.8417 10.2465 36.8087 10.2391 36.7819 10.2202C36.7551 10.2013 36.737 10.1726 36.7315 10.1403C36.6628 9.73742 36.5104 9.39568 36.2758 9.11159L36.2745 9.10995C36.0426 8.81897 35.7519 8.59605 35.4002 8.44076L35.399 8.44021C35.0465 8.28002 34.6583 8.19685 34.2327 8.19223H34.2325C33.8245 8.18759 33.4598 8.25251 33.1365 8.38454C32.8123 8.51697 32.5593 8.6997 32.3727 8.93072L32.372 8.93162C32.1889 9.15387 32.0979 9.4091 32.0979 9.70236C32.0979 9.99356 32.1809 10.2182 32.338 10.388C32.5075 10.5664 32.716 10.7104 32.9653 10.8193C33.2296 10.9278 33.4861 11.0172 33.735 11.0876L33.7356 11.0878L35.7063 11.656C35.9361 11.7196 36.1984 11.8071 36.493 11.9182C36.8014 12.0326 37.0988 12.1938 37.385 12.401C37.6796 12.6095 37.9216 12.8877 38.1116 13.2328C38.3069 13.5824 38.4005 14.0171 38.4005 14.5301C38.4005 15.0456 38.2964 15.5091 38.0847 15.9172C37.8794 16.3228 37.5911 16.6635 37.2213 16.9384L37.2204 16.939C36.8527 17.2074 36.4269 17.4099 35.9448 17.5477C35.4624 17.6904 34.9471 17.7613 34.3994 17.7613C33.6515 17.7613 32.9729 17.6342 32.3658 17.3775Z" fill="#121212"/>
</g>
<defs>
<linearGradient id="paint0_linear_1700_16030" x1="22.7602" y1="6.15263" x2="1.11621" y2="10.1688" gradientUnits="userSpaceOnUse">
<stop stop-color="#EC796B"/>
<stop offset="1" stop-color="#E175B1"/>
</linearGradient>
<linearGradient id="paint1_linear_1700_16030" x1="21.2021" y1="8.26717" x2="4.49628" y2="17.5495" gradientUnits="userSpaceOnUse">
<stop stop-color="#EC796B"/>
<stop offset="1" stop-color="#E175B1"/>
</linearGradient>
<linearGradient id="paint2_linear_1700_16030" x1="19.5259" y1="16.1579" x2="16.8087" y2="16.4454" gradientUnits="userSpaceOnUse">
<stop stop-color="#EC796B"/>
<stop offset="1" stop-color="#E175B1"/>
</linearGradient>
<clipPath id="clip0_1700_16030">
<rect width="105.66" height="24" fill="white" transform="translate(0.169922)"/>
</clipPath>
</defs>
</svg>
