<svg width="158" height="33" viewBox="0 0 158 33" fill="none" xmlns="http://www.w3.org/2000/svg">
<path fill-rule="evenodd" clip-rule="evenodd" d="M46.5494 20.3081C46.5494 22.4824 45.3054 23.7306 42.8599 23.7306H37.0109V21.1536H42.1669C42.9213 21.1536 43.288 20.8908 43.288 20.2275C43.288 19.6829 42.8811 19.3417 41.9825 18.7165L38.9245 16.3812C37.3754 15.2135 36.7227 14.1263 36.7227 12.8379C36.7227 10.6424 38.0281 9.63574 40.5944 9.63574H46.3015V12.2127H41.1645C40.3698 12.2127 39.982 12.4755 39.982 13.16C39.982 13.6834 40.3889 14.0267 41.3065 14.6307L44.3433 16.7245C45.8967 17.7714 46.5494 19.0387 46.5494 20.3081Z" fill="white"/>
<path fill-rule="evenodd" clip-rule="evenodd" d="M58.5081 12.2127H54.8122V23.7306H51.5274V12.2127H47.8315V9.63574H58.5081V12.2127Z" fill="white"/>
<path fill-rule="evenodd" clip-rule="evenodd" d="M67.3241 18.6572L65.3639 13.0795L63.3845 18.6572H67.3241ZM68.1633 21.0116H62.522L61.562 23.7306H58.0823L63.6621 9.63574H67.0232L72.6031 23.7306H69.1233L68.1633 21.0116Z" fill="white"/>
<path fill-rule="evenodd" clip-rule="evenodd" d="M78.1448 16.2816C79.9376 16.2816 80.4674 15.6564 80.4674 14.1666C80.4674 12.6768 79.9376 12.0516 78.1448 12.0516H76.7186V16.2795H78.1448V16.2816ZM84.1358 23.7306H80.8553L80.2237 21.0328C79.8168 19.1595 79.4502 18.6572 78.0219 18.636H76.7186V23.7306H73.4592V9.63574H79.3082C82.3451 9.63574 83.731 10.9645 83.731 13.8636C83.731 15.8175 82.9575 17.0042 81.3872 17.4874C82.5082 18.0108 83.0571 19.0577 83.5064 21.0307L84.1358 23.7306Z" fill="white"/>
<path fill-rule="evenodd" clip-rule="evenodd" d="M89.4465 16.4617L94.5072 9.63574H98.2985L92.9793 16.4617L98.6566 23.7306H94.8653L89.4465 16.4617ZM86.272 23.7306H89.4487V9.63574H86.272V23.7306Z" fill="white"/>
<path fill-rule="evenodd" clip-rule="evenodd" d="M119.586 9.63574L115.324 23.7306H113.332L109.967 12.4543L106.599 23.7306H104.588L100.367 9.63574H102.318L105.644 21.5351L109.17 9.63574H110.764L114.288 21.5351L117.634 9.63574H119.586Z" fill="white"/>
<path fill-rule="evenodd" clip-rule="evenodd" d="M128.031 18.7165L125.363 11.649L122.673 18.7165H128.031ZM128.537 20.0665H122.169L120.775 23.7306H118.734L124.373 9.63574H126.333L131.973 23.7306H129.932L128.537 20.0665Z" fill="white"/>
<path fill-rule="evenodd" clip-rule="evenodd" d="M138.103 16.5422C140.345 16.5422 141.18 15.6755 141.18 13.783C141.18 11.9308 140.345 11.045 138.103 11.045H135.556V16.5422H138.103ZM143.505 23.7306H141.611L141.102 21.3147C140.593 18.7971 139.96 17.9515 138.044 17.9112H135.558V23.7306H133.683V9.63574H138.737C141.733 9.63574 143.058 10.9454 143.058 13.622C143.058 15.6352 142.223 16.8644 140.47 17.267C141.856 17.7904 142.488 18.9793 142.977 21.3147L143.505 23.7306Z" fill="white"/>
<path fill-rule="evenodd" clip-rule="evenodd" d="M148.358 11.1255V15.4148H154.635V16.805H148.358V19.8249C148.358 21.4969 149.087 22.2408 150.747 22.2408H155.464V23.7306H150.463C147.506 23.7306 146.493 22.7642 146.493 19.9859V9.63574H155.462V11.1255H148.358Z" fill="white"/>
<path fill-rule="evenodd" clip-rule="evenodd" d="M15.3506 18.2779L12.9347 20.7679C12.9325 20.77 12.9325 20.77 12.9304 20.7722C12.9241 20.7764 12.9177 20.7785 12.9092 20.7785C12.888 20.7785 12.8711 20.7616 12.8711 20.7382C12.8711 20.734 12.8711 20.7298 12.8732 20.7255L13.7929 17.1907C13.8714 16.9364 13.8141 16.6482 13.617 16.4469L11.2012 13.9568C11.199 13.9547 11.199 13.9547 11.1969 13.9526C11.1927 13.9462 11.1906 13.9398 11.1906 13.9314C11.1906 13.9102 11.2075 13.8911 11.2287 13.8911C11.2329 13.8911 11.2372 13.8911 11.2414 13.8932L14.6703 14.8405C14.9161 14.921 15.1959 14.8617 15.3908 14.6604L17.8067 12.1703C17.8088 12.1682 17.8088 12.1682 17.811 12.1661C17.8173 12.1618 17.8237 12.1597 17.8321 12.1597C17.8533 12.1597 17.8703 12.1767 17.8703 12.2C17.8703 12.2042 17.8703 12.2084 17.8682 12.2127L16.9484 15.7475C16.87 16.0018 16.9272 16.29 17.1222 16.4914L19.5381 18.9814C19.5402 18.9835 19.5402 18.9835 19.5423 18.9857C19.5466 18.992 19.5487 18.9984 19.5487 19.0069C19.5487 19.028 19.5318 19.045 19.5106 19.045C19.5063 19.045 19.5021 19.045 19.4978 19.0429L16.069 18.0956C15.8253 18.0172 15.5455 18.0765 15.3506 18.2779ZM28.9347 16.2095L23.1662 10.2588C22.9712 10.0574 22.6915 9.99812 22.4457 10.0786L18.6523 11.1276C18.6523 11.1276 18.6523 11.1276 18.6502 11.1276C18.6459 11.1298 18.6438 11.1298 18.6396 11.1298C18.6184 11.1298 18.6014 11.1128 18.6014 11.0895C18.6014 11.0747 18.6078 11.0641 18.6184 11.0556C19.0316 10.7716 19.661 10.2567 21.1614 8.70964C21.3013 8.56553 21.3013 8.33454 21.1614 8.19043L15.6239 2.47917C15.4841 2.33507 15.2594 2.33507 15.1196 2.47917L9.35109 8.42991C9.15612 8.63123 9.0989 8.91944 9.17731 9.17374L10.1945 13.0858C10.1945 13.0858 10.1945 13.0858 10.1945 13.0879C10.1966 13.0922 10.1967 13.0964 10.1967 13.0985C10.1967 13.1197 10.1797 13.1388 10.1585 13.1388C10.1458 13.1388 10.1331 13.1324 10.1267 13.1197C9.85122 12.6916 9.35321 12.0453 7.85281 10.4961C7.71294 10.352 7.48831 10.352 7.34844 10.4961L1.81096 16.2074C1.67109 16.3515 1.67109 16.5825 1.81096 16.7266L7.57943 22.6773C7.7744 22.8786 8.05413 22.938 8.29996 22.8575L12.0933 21.8084C12.0933 21.8084 12.0933 21.8084 12.0955 21.8084C12.0997 21.8063 12.1018 21.8063 12.1061 21.8063C12.1272 21.8063 12.1442 21.8233 12.1442 21.8466C12.1442 21.8614 12.1378 21.872 12.1272 21.8805C11.714 22.1645 11.0846 22.6794 9.5842 24.2265C9.44433 24.3706 9.44433 24.6016 9.5842 24.7457L15.1217 30.4569C15.2616 30.601 15.4862 30.601 15.6261 30.4569L21.3945 24.5062C21.5895 24.3049 21.6467 24.0167 21.5704 23.7624L20.5532 19.8503C20.5532 19.8503 20.5532 19.8503 20.5532 19.8482C20.5511 19.8439 20.5511 19.8397 20.5511 19.8355C20.5511 19.8143 20.568 19.7952 20.5892 19.7952C20.6019 19.7952 20.6147 19.8016 20.621 19.8143C20.8965 20.2424 21.3945 20.8887 22.8949 22.4378C23.0348 22.582 23.2594 22.582 23.3993 22.4378L28.9368 16.7266C29.0724 16.5867 29.0724 16.3536 28.9347 16.2095Z" fill="white"/>
</svg>
