<svg width="122" height="25" viewBox="0 0 122 25" fill="none" xmlns="http://www.w3.org/2000/svg">
<g clip-path="url(#clip0_1639_1498)">
<path d="M27.6864 0.500007C27.7829 0.499554 27.8753 0.5381 27.9415 0.606462L36.1985 8.98752L39.3977 5.73917C39.4637 5.67203 39.5552 5.63426 39.6507 5.6347H45.9943C46.138 5.62983 46.2703 5.71039 46.3286 5.83827C46.3869 5.96615 46.3596 6.1157 46.2596 6.21617L28.3424 24.3935C28.2762 24.4619 28.1838 24.5004 28.0873 24.5H18.7734C18.6775 24.5006 18.5856 24.462 18.5203 24.3935L10.6723 16.4323L7.53396 19.6196C7.46837 19.6895 7.37611 19.7301 7.27883 19.7319H0.935252C0.794319 19.7319 0.666946 19.6501 0.611429 19.524C0.555913 19.3979 0.582937 19.2518 0.680132 19.1524L7.01359 12.7208L0.599141 6.21617C0.500792 6.11723 0.472751 5.97063 0.527929 5.84386C0.583107 5.71709 0.710808 5.63473 0.852237 5.6347H7.19784C7.29326 5.63472 7.38459 5.67242 7.45094 5.73917L10.8586 9.19842C10.888 9.21397 10.9146 9.23393 10.9376 9.25756L14.1104 12.4763C14.134 12.4998 14.1532 12.5272 14.1671 12.5572L23.4263 21.9533L32.5378 12.701L23.4466 3.47439L16.1736 10.8561L12.5128 7.14061L18.9536 0.606462C19.0189 0.538002 19.1108 0.499383 19.2067 0.500007H27.6864ZM41.6877 14.5598L46.213 19.1445C46.3102 19.2439 46.3372 19.39 46.2817 19.5162C46.2262 19.6423 46.0988 19.724 45.9579 19.724H39.6143C39.5188 19.7245 39.4273 19.6867 39.3612 19.6196L38.0269 18.2733L41.6877 14.5598ZM71.2877 2.21881H53.8605C53.7206 2.21881 53.5864 2.27307 53.4876 2.36961C53.3888 2.46614 53.3336 2.597 53.3341 2.73326V6.83312C53.3336 6.96938 53.3888 7.10024 53.4876 7.19677C53.5864 7.29331 53.7206 7.34757 53.8605 7.34757H63.1137C63.2181 7.34559 63.3138 7.40387 63.3577 7.49611C63.4016 7.58836 63.3853 7.69712 63.3162 7.77333L54.4335 17.6485L53.4637 18.7267C53.3796 18.8206 53.3335 18.9411 53.3341 19.0657V22.2628C53.3336 22.3989 53.3888 22.5295 53.4877 22.6257C53.5865 22.722 53.7208 22.7758 53.8605 22.7753H71.2877C71.4276 22.7758 71.5621 22.722 71.6612 22.6259C71.7604 22.5297 71.8161 22.399 71.8161 22.2628V18.159C71.8139 17.8764 71.578 17.6485 71.2877 17.6485H62.0365C61.9321 17.6494 61.8369 17.5906 61.7932 17.4983C61.7495 17.406 61.7655 17.2974 61.8341 17.2207L70.7106 7.35152L71.6805 6.27136C71.7658 6.17802 71.8127 6.05728 71.8121 5.93233V2.73326C71.8121 2.45067 71.5779 2.22097 71.2877 2.21881ZM121.457 2.20698H117.246C117.106 2.20646 116.971 2.26022 116.872 2.35639C116.773 2.45255 116.717 2.5832 116.717 2.71947V12.2832C116.718 12.3902 116.65 12.4863 116.547 12.5241C116.444 12.5619 116.328 12.5334 116.256 12.4527L108.764 4.10317L107.213 2.3765C107.112 2.2619 106.963 2.19693 106.808 2.199H104.03C103.738 2.199 103.502 2.42943 103.502 2.71355V22.2391C103.502 22.5233 103.738 22.7537 104.03 22.7537H108.242C108.533 22.7537 108.77 22.5233 108.77 22.2391V12.6084C108.77 12.5013 108.838 12.4053 108.94 12.3675C109.043 12.3297 109.159 12.3582 109.232 12.4389L116.723 20.7884L118.329 22.5762C118.43 22.6908 118.579 22.7557 118.734 22.7537H121.471C121.612 22.7537 121.746 22.6994 121.845 22.6029C121.944 22.5064 122 22.3756 122 22.2391V2.72538C122.002 2.58566 121.945 2.45131 121.842 2.35345C121.74 2.25558 121.601 2.20267 121.457 2.20698ZM90.7578 2.52236C90.6712 2.34171 90.4847 2.22638 90.28 2.22668H87.6478H85.0783C84.8739 2.22553 84.6873 2.34017 84.6005 2.52039L75.1205 22.044C75.0426 22.2029 75.054 22.3896 75.1506 22.5385C75.2472 22.6873 75.4155 22.7775 75.5964 22.7772H80.2756C80.4798 22.7772 80.6658 22.6631 80.7534 22.4835L81.7132 20.5125C81.7998 20.3318 81.9862 20.2165 82.191 20.2168H93.1328C93.3371 20.2168 93.5227 20.3321 93.6087 20.5125L94.5684 22.4835C94.6587 22.6648 94.8495 22.7781 95.0564 22.7733H99.7133C99.8941 22.7731 100.062 22.683 100.159 22.5344C100.256 22.3858 100.268 22.1993 100.191 22.04C97.0487 15.5342 93.9043 9.02825 90.7578 2.52236ZM90.5553 15.0801H84.7564C84.668 15.0763 84.5874 15.0298 84.5415 14.9563C84.4956 14.8827 84.4904 14.7916 84.5276 14.7135L87.419 8.73916C87.462 8.64849 87.5553 8.59045 87.6579 8.59045C87.7605 8.59045 87.8538 8.64849 87.8968 8.73916L90.8044 14.7135C90.8469 14.7946 90.842 14.8915 90.7916 14.9682C90.7412 15.0448 90.6528 15.0897 90.5594 15.0861L90.5553 15.0801Z" fill="#F9FAFB"/>
</g>
<defs>
<clipPath id="clip0_1639_1498">
<rect width="121.5" height="24" fill="white" transform="translate(0.5 0.5)"/>
</clipPath>
</defs>
</svg>
