<svg width="126" height="24" viewBox="0 0 126 24" fill="none" xmlns="http://www.w3.org/2000/svg">
<path fill-rule="evenodd" clip-rule="evenodd" d="M44.82 12.0021L32.9921 0.933594V9.03762L21.249 17.1512L32.9921 17.1604V23.0659L44.82 12.0021Z" fill="#121212"/>
<path fill-rule="evenodd" clip-rule="evenodd" d="M3.11816 11.9971L14.9461 23.0611V15.0227L26.6888 6.84356L14.9461 6.83429V0.933594L3.11816 11.9971Z" fill="#121212"/>
<path d="M62.444 17.5269H53.3892V15.0885L58.5698 9.66688H53.5192V7.26611H62.349V9.58219L57.013 15.1071H62.439V17.5266L62.444 17.5269Z" fill="#121212"/>
<path d="M74.7973 7.26636L70.4175 11.5838L74.8873 17.5269H71.2632L68.37 13.604L67.1487 14.8114V17.5221H64.1904V2.42725H67.1487V11.081L70.9279 7.2661H74.7973V7.26636Z" fill="#121212"/>
<path d="M87.6667 6.26541L84.9086 7.0594C84.8035 6.53325 84.5232 6.04943 84.0627 5.62175C83.6022 5.18955 82.9266 4.97332 82.0406 4.97332C81.3147 4.97332 80.7192 5.16124 80.2587 5.53706C79.7982 5.89885 79.5678 6.33581 79.5678 6.85244C79.5678 7.75442 80.1386 8.31365 81.2798 8.52035L83.4821 8.91497C84.8785 9.16401 85.9599 9.68541 86.7306 10.4794C87.5015 11.2734 87.887 12.2034 87.887 13.2748C87.887 14.4962 87.3664 15.5676 86.3301 16.4883C85.3091 17.3903 83.9276 17.8461 82.1906 17.8461C81.1943 17.8461 80.2985 17.7052 79.4976 17.4279C78.6968 17.1508 78.051 16.7797 77.5606 16.3237C77.07 15.8492 76.6845 15.3558 76.4042 14.844C76.1389 14.3178 75.9739 13.7729 75.9136 13.2184L78.7616 12.5091C78.8367 13.3031 79.1621 13.9608 79.7427 14.4917C80.3334 15.0179 81.1594 15.2857 82.2103 15.2857C83.0112 15.2857 83.6318 15.1166 84.0774 14.7831C84.5379 14.4496 84.7682 14.0126 84.7682 13.4677C84.7682 13.0355 84.5979 12.669 84.2576 12.3635C83.9321 12.0441 83.4618 11.8281 82.8561 11.7154L80.6535 11.2972C79.3772 11.0481 78.3711 10.5548 77.6303 9.81745C76.8895 9.07983 76.519 8.16382 76.519 7.06441C76.519 5.75829 77.0545 4.65913 78.1207 3.77119C79.2018 2.88324 80.5035 2.43701 82.0149 2.43701C82.9209 2.43701 83.7269 2.55452 84.4375 2.78929C85.1484 3.0243 85.7188 3.34375 86.1494 3.74764C86.5797 4.13749 86.9153 4.54163 87.1505 4.95503C87.3856 5.3732 87.561 5.81016 87.6611 6.27042L87.6667 6.26541Z" fill="#121212"/>
<path d="M92.8717 21.572H89.7332L92.3111 16.235L87.6611 7.2666H90.9748L93.888 13.2755L96.5809 7.2666H99.7389L92.8669 21.5722L92.8717 21.572Z" fill="#121212"/>
<path d="M103.828 11.6214V17.5221H100.87V7.26637H103.737V8.53942C104.048 8.03681 104.494 7.65623 105.074 7.39315C105.655 7.13008 106.26 6.99854 106.897 6.99854C108.188 6.99854 109.164 7.37912 109.835 8.1448C110.515 8.89645 110.856 9.86908 110.856 11.067V17.5314H107.897V11.546C107.897 10.9352 107.727 10.4418 107.387 10.0663C107.062 9.69044 106.556 9.50253 105.875 9.50253C105.254 9.50253 104.754 9.70447 104.383 10.1086C104.013 10.5127 103.828 11.0201 103.828 11.6307V11.6214H103.828Z" fill="#121212"/>
<path d="M118.109 9.51653C117.322 9.51653 116.662 9.77484 116.127 10.287C115.591 10.7991 115.325 11.5036 115.325 12.3916C115.325 13.2795 115.591 13.9888 116.127 14.5198C116.676 15.0366 117.342 15.2902 118.129 15.2902C118.825 15.2902 119.38 15.1211 119.795 14.7876C120.211 14.4398 120.491 14.0312 120.641 13.5569L123.244 14.3697C122.979 15.314 122.399 16.1268 121.508 16.808C120.616 17.4893 119.49 17.8323 118.124 17.8323C116.492 17.8323 115.12 17.3201 114.009 16.2866C112.913 15.2436 112.362 13.9422 112.362 12.3873C112.362 10.8322 112.902 9.51678 113.983 8.48802C115.08 7.45926 116.431 6.94238 118.033 6.94238C119.43 6.94238 120.571 7.28538 121.457 7.96663C122.349 8.63384 122.918 9.44662 123.169 10.405L120.52 11.2413C120.166 10.0855 119.355 9.51252 118.099 9.51252L118.109 9.51653Z" fill="#121212"/>
</svg>
