<svg width="208" height="120" viewBox="0 0 208 120" fill="none" xmlns="http://www.w3.org/2000/svg">
<path d="M57.6772 72.5H41.688V56.5274H9.60001V40.4453H17.5946V24.4726H25.5892V16.4863H33.5839V8.5H57.6772V48.541H65.6719V56.5274H57.6772V72.5ZM41.688 48.541V24.4726H33.5839V40.4453H25.5892V48.541H41.688ZM49.6826 24.4726V16.4863H41.688V24.4726H49.6826Z" fill="#9CA3AF"/>
<path fill-rule="evenodd" clip-rule="evenodd" d="M72.0719 72.5H136.072V16.5H128.113V8.5L80.0304 8.50001V16.5H72.0719V72.5ZM123.802 20.5V28.5H115.844V36.5H107.885V28.5H115.844V20.5H123.802ZM99.9268 28.5V36.5H91.9682V28.5H99.9268ZM91.9682 20.5L91.9682 28.5H84.0097V20.5H91.9682ZM91.9682 36.5V44.5H84.0097V36.5H91.9682ZM123.802 44.5V36.5H115.844V44.5H123.802ZM87.9889 56.5V64.5H80.0303V56.5H87.9889ZM95.9475 52.5H87.989V60.5H95.9475H103.906H111.865H119.823V52.5H111.865H103.906H95.9475ZM127.782 64.5V56.5H119.823V64.5H127.782Z" fill="#9CA3AF"/>
<path d="M190.549 72.5H174.56V56.5274H142.472V40.4453H150.466V24.4726H158.461V16.4863H166.456V8.5H190.549V48.541H198.544V56.5274H190.549V72.5ZM174.56 48.541V24.4726H166.456V40.4453H158.461V48.541H174.56ZM182.554 24.4726V16.4863H174.56V24.4726H182.554Z" fill="#9CA3AF"/>
<path d="M46.7784 115.5V103.864H50.9261C51.8314 103.864 52.5814 104.028 53.1761 104.358C53.7708 104.687 54.2159 105.138 54.5114 105.71C54.8068 106.278 54.9545 106.919 54.9545 107.631C54.9545 108.347 54.8049 108.991 54.5057 109.562C54.2102 110.131 53.7633 110.581 53.1648 110.915C52.5701 111.244 51.822 111.409 50.9205 111.409H48.0682V109.92H50.7614C51.3333 109.92 51.7973 109.822 52.1534 109.625C52.5095 109.424 52.7708 109.152 52.9375 108.807C53.1042 108.462 53.1875 108.07 53.1875 107.631C53.1875 107.191 53.1042 106.801 52.9375 106.46C52.7708 106.119 52.5076 105.852 52.1477 105.659C51.7917 105.466 51.322 105.369 50.7386 105.369H48.5341V115.5H46.7784ZM59.3381 115.693C58.785 115.693 58.285 115.591 57.8381 115.386C57.3911 115.178 57.0369 114.877 56.7756 114.483C56.518 114.089 56.3892 113.606 56.3892 113.034C56.3892 112.542 56.4839 112.136 56.6733 111.818C56.8627 111.5 57.1184 111.248 57.4403 111.062C57.7623 110.877 58.1222 110.737 58.5199 110.642C58.9176 110.547 59.3229 110.475 59.7358 110.426C60.2585 110.366 60.6828 110.316 61.0085 110.278C61.3343 110.237 61.571 110.17 61.7188 110.08C61.8665 109.989 61.9403 109.841 61.9403 109.636V109.597C61.9403 109.1 61.8002 108.716 61.5199 108.443C61.2434 108.17 60.8305 108.034 60.2812 108.034C59.7093 108.034 59.2585 108.161 58.929 108.415C58.6032 108.665 58.3778 108.943 58.2528 109.25L56.6562 108.886C56.8456 108.356 57.1222 107.928 57.4858 107.602C57.8532 107.273 58.2756 107.034 58.7528 106.886C59.2301 106.735 59.732 106.659 60.2585 106.659C60.607 106.659 60.9763 106.701 61.3665 106.784C61.7604 106.864 62.1278 107.011 62.4688 107.227C62.8134 107.443 63.0956 107.752 63.3153 108.153C63.535 108.551 63.6449 109.068 63.6449 109.705V115.5H61.9858V114.307H61.9176C61.8078 114.527 61.643 114.742 61.4233 114.955C61.2036 115.167 60.9214 115.343 60.5767 115.483C60.232 115.623 59.8191 115.693 59.3381 115.693ZM59.7074 114.33C60.1771 114.33 60.5786 114.237 60.9119 114.051C61.2491 113.866 61.5047 113.623 61.679 113.324C61.857 113.021 61.946 112.697 61.946 112.352V111.227C61.8854 111.288 61.768 111.345 61.5938 111.398C61.4233 111.447 61.2282 111.491 61.0085 111.528C60.7888 111.562 60.5748 111.595 60.3665 111.625C60.1581 111.652 59.9839 111.674 59.8438 111.693C59.5142 111.735 59.2131 111.805 58.9403 111.903C58.6714 112.002 58.4555 112.144 58.2926 112.33C58.1335 112.511 58.054 112.754 58.054 113.057C58.054 113.477 58.2093 113.795 58.5199 114.011C58.8305 114.223 59.2263 114.33 59.7074 114.33ZM69.5668 118.955C68.8736 118.955 68.277 118.864 67.777 118.682C67.2808 118.5 66.8755 118.259 66.5611 117.96C66.2467 117.661 66.0118 117.333 65.8565 116.977L67.3168 116.375C67.419 116.542 67.5554 116.718 67.7259 116.903C67.9001 117.093 68.1349 117.254 68.4304 117.386C68.7296 117.519 69.1141 117.585 69.5838 117.585C70.2277 117.585 70.7599 117.428 71.1804 117.114C71.6009 116.803 71.8111 116.307 71.8111 115.625V113.909H71.7031C71.6009 114.095 71.4531 114.301 71.2599 114.528C71.0705 114.756 70.8092 114.953 70.4759 115.119C70.1425 115.286 69.7088 115.369 69.1747 115.369C68.4853 115.369 67.8641 115.208 67.3111 114.886C66.7618 114.561 66.3262 114.081 66.0043 113.449C65.6861 112.812 65.527 112.03 65.527 111.102C65.527 110.174 65.6842 109.379 65.9986 108.716C66.3168 108.053 66.7524 107.545 67.3054 107.193C67.8584 106.837 68.4853 106.659 69.1861 106.659C69.7277 106.659 70.1652 106.75 70.4986 106.932C70.8319 107.11 71.0914 107.318 71.277 107.557C71.4664 107.795 71.6122 108.006 71.7145 108.188H71.8395V106.773H73.5043V115.693C73.5043 116.443 73.33 117.059 72.9815 117.54C72.633 118.021 72.1615 118.377 71.5668 118.608C70.9759 118.839 70.3092 118.955 69.5668 118.955ZM69.5497 113.96C70.0384 113.96 70.4512 113.847 70.7884 113.619C71.1293 113.388 71.3868 113.059 71.5611 112.631C71.7391 112.199 71.8281 111.682 71.8281 111.08C71.8281 110.492 71.741 109.975 71.5668 109.528C71.3925 109.081 71.1368 108.733 70.7997 108.483C70.4626 108.229 70.0459 108.102 69.5497 108.102C69.0384 108.102 68.6122 108.235 68.2713 108.5C67.9304 108.761 67.6728 109.117 67.4986 109.568C67.3281 110.019 67.2429 110.523 67.2429 111.08C67.2429 111.652 67.33 112.153 67.5043 112.585C67.6785 113.017 67.9361 113.354 68.277 113.597C68.6217 113.839 69.0459 113.96 69.5497 113.96ZM79.544 115.676C78.6842 115.676 77.9437 115.492 77.3224 115.125C76.705 114.754 76.2277 114.233 75.8906 113.562C75.5573 112.888 75.3906 112.098 75.3906 111.193C75.3906 110.299 75.5573 109.511 75.8906 108.83C76.2277 108.148 76.6974 107.616 77.2997 107.233C77.9058 106.85 78.6141 106.659 79.4247 106.659C79.9171 106.659 80.3944 106.741 80.8565 106.903C81.3187 107.066 81.7334 107.322 82.1009 107.67C82.4683 108.019 82.758 108.472 82.9702 109.028C83.1823 109.581 83.2884 110.254 83.2884 111.045V111.648H76.3509V110.375H81.6236C81.6236 109.928 81.5327 109.532 81.3509 109.188C81.169 108.839 80.9134 108.564 80.5838 108.364C80.258 108.163 79.8755 108.062 79.4361 108.062C78.9588 108.062 78.5421 108.18 78.1861 108.415C77.8338 108.646 77.5611 108.949 77.3679 109.324C77.1785 109.695 77.0838 110.098 77.0838 110.534V111.528C77.0838 112.112 77.1861 112.608 77.3906 113.017C77.599 113.426 77.8887 113.739 78.2599 113.955C78.6312 114.167 79.0649 114.273 79.5611 114.273C79.883 114.273 80.1766 114.227 80.4418 114.136C80.7069 114.042 80.9361 113.902 81.1293 113.716C81.3224 113.53 81.4702 113.301 81.5724 113.028L83.1804 113.318C83.0516 113.792 82.8205 114.206 82.4872 114.562C82.1577 114.915 81.7429 115.189 81.2429 115.386C80.7467 115.58 80.1804 115.676 79.544 115.676ZM91.1065 110.318V115.5H89.4077V106.773H91.0384V108.193H91.1463C91.3471 107.731 91.6615 107.36 92.0895 107.08C92.5213 106.799 93.0649 106.659 93.7202 106.659C94.3149 106.659 94.8357 106.784 95.2827 107.034C95.7296 107.28 96.0762 107.648 96.3224 108.136C96.5687 108.625 96.6918 109.229 96.6918 109.949V115.5H94.9929V110.153C94.9929 109.521 94.8281 109.027 94.4986 108.67C94.169 108.311 93.7164 108.131 93.1406 108.131C92.7467 108.131 92.3963 108.216 92.0895 108.386C91.7865 108.557 91.5459 108.807 91.3679 109.136C91.1937 109.462 91.1065 109.856 91.1065 110.318ZM102.646 115.676C101.828 115.676 101.114 115.489 100.504 115.114C99.8944 114.739 99.4209 114.214 99.0838 113.54C98.7467 112.866 98.5781 112.078 98.5781 111.176C98.5781 110.271 98.7467 109.479 99.0838 108.801C99.4209 108.123 99.8944 107.597 100.504 107.222C101.114 106.847 101.828 106.659 102.646 106.659C103.464 106.659 104.179 106.847 104.788 107.222C105.398 107.597 105.872 108.123 106.209 108.801C106.546 109.479 106.714 110.271 106.714 111.176C106.714 112.078 106.546 112.866 106.209 113.54C105.872 114.214 105.398 114.739 104.788 115.114C104.179 115.489 103.464 115.676 102.646 115.676ZM102.652 114.25C103.182 114.25 103.622 114.11 103.97 113.83C104.319 113.549 104.576 113.176 104.743 112.71C104.913 112.244 104.999 111.731 104.999 111.17C104.999 110.614 104.913 110.102 104.743 109.636C104.576 109.167 104.319 108.79 103.97 108.506C103.622 108.222 103.182 108.08 102.652 108.08C102.118 108.08 101.675 108.222 101.322 108.506C100.974 108.79 100.714 109.167 100.544 109.636C100.377 110.102 100.294 110.614 100.294 111.17C100.294 111.731 100.377 112.244 100.544 112.71C100.714 113.176 100.974 113.549 101.322 113.83C101.675 114.11 102.118 114.25 102.652 114.25ZM112.685 106.773V108.136H107.918V106.773H112.685ZM109.196 104.682H110.895V112.938C110.895 113.267 110.944 113.515 111.043 113.682C111.141 113.845 111.268 113.956 111.423 114.017C111.582 114.074 111.755 114.102 111.94 114.102C112.077 114.102 112.196 114.093 112.298 114.074C112.401 114.055 112.48 114.04 112.537 114.028L112.844 115.432C112.745 115.47 112.605 115.508 112.423 115.545C112.241 115.587 112.014 115.61 111.741 115.614C111.295 115.621 110.878 115.542 110.491 115.375C110.105 115.208 109.793 114.951 109.554 114.602C109.315 114.254 109.196 113.816 109.196 113.29V104.682ZM122.952 106.773V108.136H118.02V106.773H122.952ZM119.372 115.5V105.761C119.372 105.216 119.491 104.763 119.73 104.403C119.969 104.04 120.285 103.769 120.679 103.591C121.073 103.409 121.501 103.318 121.963 103.318C122.304 103.318 122.596 103.347 122.838 103.403C123.08 103.456 123.26 103.506 123.378 103.551L122.98 104.926C122.901 104.903 122.798 104.877 122.673 104.847C122.548 104.812 122.397 104.795 122.219 104.795C121.806 104.795 121.51 104.898 121.332 105.102C121.158 105.307 121.071 105.602 121.071 105.989V115.5H119.372ZM128.037 115.676C127.219 115.676 126.505 115.489 125.895 115.114C125.285 114.739 124.812 114.214 124.474 113.54C124.137 112.866 123.969 112.078 123.969 111.176C123.969 110.271 124.137 109.479 124.474 108.801C124.812 108.123 125.285 107.597 125.895 107.222C126.505 106.847 127.219 106.659 128.037 106.659C128.855 106.659 129.569 106.847 130.179 107.222C130.789 107.597 131.262 108.123 131.599 108.801C131.937 109.479 132.105 110.271 132.105 111.176C132.105 112.078 131.937 112.866 131.599 113.54C131.262 114.214 130.789 114.739 130.179 115.114C129.569 115.489 128.855 115.676 128.037 115.676ZM128.043 114.25C128.573 114.25 129.012 114.11 129.361 113.83C129.709 113.549 129.967 113.176 130.134 112.71C130.304 112.244 130.389 111.731 130.389 111.17C130.389 110.614 130.304 110.102 130.134 109.636C129.967 109.167 129.709 108.79 129.361 108.506C129.012 108.222 128.573 108.08 128.043 108.08C127.509 108.08 127.065 108.222 126.713 108.506C126.365 108.79 126.105 109.167 125.935 109.636C125.768 110.102 125.685 110.614 125.685 111.17C125.685 111.731 125.768 112.244 125.935 112.71C126.105 113.176 126.365 113.549 126.713 113.83C127.065 114.11 127.509 114.25 128.043 114.25ZM139.53 111.881V106.773H141.234V115.5H139.564V113.989H139.473C139.272 114.455 138.95 114.843 138.507 115.153C138.068 115.46 137.52 115.614 136.865 115.614C136.304 115.614 135.808 115.491 135.376 115.244C134.948 114.994 134.611 114.625 134.365 114.136C134.123 113.648 134.001 113.044 134.001 112.324V106.773H135.7V112.119C135.7 112.714 135.865 113.187 136.195 113.54C136.524 113.892 136.952 114.068 137.479 114.068C137.797 114.068 138.113 113.989 138.428 113.83C138.746 113.67 139.009 113.43 139.217 113.108C139.429 112.786 139.534 112.377 139.53 111.881ZM145.216 110.318V115.5H143.517V106.773H145.148V108.193H145.256C145.456 107.731 145.771 107.36 146.199 107.08C146.631 106.799 147.174 106.659 147.83 106.659C148.424 106.659 148.945 106.784 149.392 107.034C149.839 107.28 150.186 107.648 150.432 108.136C150.678 108.625 150.801 109.229 150.801 109.949V115.5H149.102V110.153C149.102 109.521 148.938 109.027 148.608 108.67C148.278 108.311 147.826 108.131 147.25 108.131C146.856 108.131 146.506 108.216 146.199 108.386C145.896 108.557 145.655 108.807 145.477 109.136C145.303 109.462 145.216 109.856 145.216 110.318ZM156.347 115.67C155.642 115.67 155.013 115.491 154.46 115.131C153.911 114.767 153.479 114.25 153.165 113.58C152.854 112.905 152.699 112.097 152.699 111.153C152.699 110.21 152.856 109.403 153.17 108.733C153.489 108.062 153.924 107.549 154.477 107.193C155.03 106.837 155.657 106.659 156.358 106.659C156.9 106.659 157.335 106.75 157.665 106.932C157.998 107.11 158.256 107.318 158.438 107.557C158.623 107.795 158.767 108.006 158.869 108.188H158.972V103.864H160.67V115.5H159.011V114.142H158.869C158.767 114.328 158.619 114.54 158.426 114.778C158.237 115.017 157.975 115.225 157.642 115.403C157.309 115.581 156.877 115.67 156.347 115.67ZM156.722 114.222C157.21 114.222 157.623 114.093 157.96 113.835C158.301 113.574 158.559 113.212 158.733 112.75C158.911 112.288 159 111.75 159 111.136C159 110.53 158.913 110 158.739 109.545C158.564 109.091 158.309 108.737 157.972 108.483C157.634 108.229 157.218 108.102 156.722 108.102C156.21 108.102 155.784 108.235 155.443 108.5C155.102 108.765 154.845 109.127 154.67 109.585C154.5 110.044 154.415 110.561 154.415 111.136C154.415 111.72 154.502 112.244 154.676 112.71C154.85 113.176 155.108 113.545 155.449 113.818C155.794 114.087 156.218 114.222 156.722 114.222Z" fill="#6B7280"/>
</svg>
