<svg width="100" height="100" viewBox="0 0 100 100" fill="none" xmlns="http://www.w3.org/2000/svg">
<path d="M25.1808 65.1978C25.1901 65.3835 25.1615 65.569 25.0966 65.7433C25.0317 65.9175 24.9319 66.0768 24.8034 66.2113C24.6748 66.3459 24.5202 66.453 24.3488 66.5262C24.1774 66.5993 23.9929 66.6368 23.8065 66.6366H8.64815C8.02778 66.6375 7.42534 66.4292 6.93879 66.0455C6.45224 65.6617 6.1102 65.1251 5.96829 64.523C5.87993 64.1108 5.884 63.6843 5.98022 63.2739C6.07644 62.8635 6.26242 62.4794 6.52488 62.149C7.17023 61.2956 7.87171 60.4906 8.6234 59.7385C10.6962 57.6645 13.1509 55.993 15.8631 54.8215C14.2405 53.3464 12.9961 51.5051 12.2339 49.4519C11.4718 47.3986 11.2142 45.1932 11.4827 43.0202C11.7511 40.8473 12.5379 38.7702 13.7771 36.9627C14.2548 36.266 14.7944 35.6172 15.3878 35.0234C16.3339 34.0768 17.417 33.2701 18.6049 32.632C20.5381 31.5937 22.6926 31.0324 24.8881 30.9951C27.0836 30.9578 29.256 31.4455 31.2236 32.4175C33.1911 33.3895 34.8964 34.8174 36.1966 36.5816C37.4969 38.3459 38.3542 40.3951 38.6969 42.5576C38.7411 42.8484 38.6889 43.1457 38.5481 43.4042C38.486 43.5182 38.4081 43.622 38.3174 43.7128C38.2025 43.8277 38.0671 43.9217 37.917 43.9895C35.5444 45.0832 33.3979 46.5837 31.5693 48.4113C30.4597 49.5203 29.4671 50.7498 28.6121 52.0819C26.3481 55.6091 25.1432 59.7084 25.1396 63.8961C25.1396 64.3346 25.1396 64.7662 25.1808 65.1978ZM87.7107 62.1456C85.2914 58.9428 82.0813 56.4195 78.3931 54.8215C80.0157 53.3464 81.2602 51.5051 82.0223 49.4519C82.7845 47.3986 83.0421 45.1932 82.7736 43.0202C82.5051 40.8473 81.7183 38.7702 80.4791 36.9627C79.2399 35.1553 77.5844 33.6703 75.6513 32.632C73.7181 31.5937 71.5636 31.0324 69.3681 30.9951C67.1727 30.9578 65.0002 31.4455 63.0327 32.4175C61.6861 33.0827 60.4624 33.9615 59.4072 35.0155C58.9207 35.5015 58.4699 36.0248 58.0596 36.5816C56.7593 38.3459 55.902 40.3951 55.5593 42.5576C55.5151 42.8484 55.5673 43.1457 55.7081 43.4042C55.8489 43.6626 56.0705 43.8682 56.3392 43.9895C60.1515 45.7468 63.3802 48.5547 65.6442 52.0819C67.9082 55.6091 69.1131 59.7084 69.1167 63.8961C69.1167 64.3346 69.1167 64.7662 69.0754 65.1978C69.0661 65.3835 69.0948 65.569 69.1596 65.7433C69.2245 65.9175 69.3243 66.0768 69.4528 66.2113C69.5814 66.3459 69.7361 66.453 69.9074 66.5262C70.0788 66.5993 70.2633 66.6368 70.4497 66.6366H85.6081C86.2284 66.6375 86.8309 66.4292 87.3174 66.0455C87.4021 65.9786 87.4825 65.9072 87.5581 65.8316C87.917 65.4729 88.1707 65.0203 88.2879 64.523C88.3768 64.1101 88.3727 63.6826 88.2759 63.2715C88.179 62.8604 87.9919 62.4758 87.7279 62.1456H87.7107ZM57.1329 76.9376C57.7161 76.4923 58.2663 76.0105 58.7808 75.4963C60.681 73.5972 62.0945 71.2548 62.8837 68.6672C63.8867 65.3789 63.831 61.8599 62.7245 58.6048C61.618 55.3496 59.5163 52.5221 56.7148 50.5194C53.9133 48.5168 50.5529 47.4398 47.1058 47.4398C43.6587 47.4398 40.2983 48.5168 37.4968 50.5194C36.7576 51.0478 36.0671 51.6336 35.4308 52.2696C33.6555 54.0439 32.3016 56.2085 31.4871 58.6048C30.3806 61.8599 30.3249 65.3789 31.3278 68.6672C32.3308 71.9555 34.3419 74.8478 37.0787 76.9376C34.1893 78.1858 31.5835 79.9633 29.3865 82.1593C27.8908 83.6541 26.5846 85.3429 25.5072 87.1906C25.2659 87.6073 25.1389 88.0799 25.1389 88.561C25.139 89.0421 25.266 89.5148 25.5073 89.9314C25.7486 90.348 26.0957 90.694 26.5136 90.9345C26.9315 91.175 27.4056 91.3015 27.8881 91.3014H66.3681C66.8506 91.3015 67.3247 91.175 67.7426 90.9345C67.9526 90.8136 68.1447 90.6661 68.3145 90.4964C68.4826 90.3284 68.6288 90.1387 68.7489 89.9314C68.9902 89.5148 69.1172 89.0421 69.1173 88.561C69.1173 88.0799 68.9903 87.6073 68.749 87.1906C66.0832 82.6256 62.0206 79.0323 57.1569 76.9376H57.1329Z" fill="#1C2028"/>
<path d="M47.1282 35.5733C47.1282 35.5733 47.272 35.4166 47.5191 35.1474C47.9 34.7323 48.5264 34.0496 49.2493 33.2618C50.1862 32.2408 51.2851 31.0432 52.2219 30.0222C52.9449 29.2344 53.5713 28.5517 53.9522 28.1366C54.1992 27.8674 54.343 27.7107 54.343 27.7107C55.1002 26.8971 55.5256 25.7938 55.5256 24.6433C55.5256 23.4928 55.1002 22.3895 54.343 21.576C53.5859 20.7624 52.5589 20.3054 51.4881 20.3054C50.4173 20.3054 49.3904 20.7624 48.6332 21.576C48.6332 21.576 48.2494 21.96 47.8694 22.3402C47.497 22.7129 47.1282 23.0819 47.1282 23.0819L45.6233 21.576C44.8661 20.7624 43.8391 20.3054 42.7683 20.3054C41.6975 20.3054 40.6706 20.7624 39.9134 21.576C39.1562 22.3895 38.7309 23.4928 38.7309 24.6433C38.7309 25.7938 39.1562 26.8971 39.9134 27.7107L47.1282 35.5733Z" fill="#1C2028"/>
<path d="M81.2993 26.9836C83.2324 28.0219 84.8879 29.507 86.1271 31.3144L80.4788 36.9627C79.2396 35.1552 77.5842 33.6702 75.651 32.6319L81.2993 26.9836Z" fill="#1C2028"/>
<path d="M86.1272 31.3145C87.3663 33.1219 88.1531 35.199 88.4216 37.3719L82.7733 43.0202C82.5048 40.8473 81.7181 38.7701 80.4789 36.9627L86.1272 31.3145Z" fill="#1C2028"/>
<path d="M75.0163 25.3467C77.2118 25.384 79.3663 25.9453 81.2995 26.9836L75.6512 32.6319C73.718 31.5936 71.5635 31.0323 69.368 30.995L75.0163 25.3467Z" fill="#1C2028"/>
<path d="M88.4218 37.3718C88.6903 39.5448 88.4326 41.7502 87.6705 43.8035L82.0222 49.4517C82.7844 47.3985 83.042 45.193 82.7735 43.0201L88.4218 37.3718Z" fill="#1C2028"/>
<path d="M68.6808 26.7694C70.6483 25.7974 72.8208 25.3096 75.0162 25.347L69.3679 30.9952C67.1725 30.9579 65 31.4457 63.0325 32.4176L68.6808 26.7694Z" fill="#1C2028"/>
<path d="M57.1363 14.6572C58.2071 14.6572 59.2341 15.1143 59.9912 15.9278L54.343 21.576C53.5858 20.7625 52.5588 20.3055 51.488 20.3055L57.1363 14.6572Z" fill="#1C2028"/>
<path d="M59.9911 15.9277C60.7482 16.7412 61.1736 17.8446 61.1736 18.9951L55.5253 24.6434C55.5253 23.4929 55.0999 22.3895 54.3428 21.576L59.9911 15.9277Z" fill="#1C2028"/>
<path d="M54.2815 15.9278C55.0386 15.1143 56.0656 14.6572 57.1364 14.6572L51.4881 20.3055C50.5142 20.3055 49.5766 20.6835 48.8452 21.364L48.6332 21.576C48.7017 21.5024 48.7724 21.4317 48.8452 21.364L54.2815 15.9278Z" fill="#1C2028"/>
<path d="M61.1736 18.9951C61.1736 20.1456 60.7482 21.249 59.9911 22.0625L54.3428 27.7107C55.0999 26.8972 55.5253 25.7939 55.5253 24.6434L61.1736 18.9951Z" fill="#1C2028"/>
<path d="M87.6706 43.8035C86.9084 45.8567 85.6639 47.698 84.0413 49.1731L79.3164 53.8981C79.0241 54.2195 78.7161 54.5277 78.3931 54.8214L79.3164 53.8981C80.492 52.6048 81.4119 51.0962 82.0223 49.4517L87.6706 43.8035Z" fill="#1C2028"/>
<path d="M65.0553 29.367C66.1104 28.313 67.3341 27.4343 68.6807 26.769L63.0324 32.4173C61.6859 33.0825 60.4621 33.9613 59.407 35.0153L65.0553 29.367Z" fill="#1C2028"/>
<path d="M53.5177 16.692L54.2814 15.9277L48.6332 21.576L47.8694 22.3403L53.5177 16.692Z" fill="#1C2028"/>
<path d="M59.9911 22.0623L59.6003 22.4882L53.952 28.1365L54.3429 27.7105L59.9911 22.0623Z" fill="#1C2028"/>
<path d="M93.3587 56.4973H93.3759L87.7276 62.1456H87.7104L93.3587 56.4973Z" fill="#1C2028"/>
<path d="M93.3758 56.4973C93.6398 56.8276 93.827 57.2121 93.9238 57.6233L88.2755 63.2715C88.1787 62.8604 87.9915 62.4759 87.7275 62.1456L93.3758 56.4973Z" fill="#1C2028"/>
<path d="M52.7765 17.4338L53.5176 16.6921L47.8694 22.3404L47.1282 23.0821L52.7765 17.4338Z" fill="#1C2028"/>
<path d="M84.0413 49.1731C87.7295 50.7711 90.9397 53.2944 93.359 56.4972L87.7107 62.1454C85.2914 58.9427 82.0812 56.4194 78.3931 54.8214L84.0413 49.1731Z" fill="#1C2028"/>
<path d="M93.9239 57.6233C94.0208 58.0344 94.0249 58.4618 93.936 58.8748L88.2877 64.523C88.3766 64.1101 88.3725 63.6827 88.2756 63.2716L93.9239 57.6233Z" fill="#1C2028"/>
<path d="M51.2715 15.9277L52.7764 17.4337L47.1281 23.0819L45.6232 21.576L51.2715 15.9277Z" fill="#1C2028"/>
<path d="M59.6005 22.4883L57.8702 24.3739L52.2219 30.0222L53.9522 28.1366L59.6005 22.4883Z" fill="#1C2028"/>
<path d="M48.4165 14.6572C49.4873 14.6572 50.5142 15.1143 51.2714 15.9278L45.6231 21.576C44.8659 20.7625 43.839 20.3055 42.7682 20.3055L48.4165 14.6572Z" fill="#1C2028"/>
<path d="M63.7077 30.9333C64.1151 30.3806 64.5623 29.8608 65.0448 29.3778L59.4071 35.0155C58.9205 35.5015 58.4698 36.0248 58.0594 36.5816L63.7077 30.9333Z" fill="#1C2028"/>
<path d="M93.9361 58.8748C93.8189 59.3721 93.5652 59.8247 93.2063 60.1834L87.559 65.8306C87.9174 65.4721 88.1707 65.0199 88.2878 64.523L93.9361 58.8748Z" fill="#1C2028"/>
<path d="M93.2063 60.1833C93.1307 60.259 93.0504 60.3304 92.9657 60.3972L87.3174 66.0455C87.4021 65.9787 87.4824 65.9072 87.5581 65.8316L93.2063 60.1833Z" fill="#1C2028"/>
<path d="M45.5616 15.9278C46.3188 15.1143 47.3457 14.6572 48.4165 14.6572L42.7682 20.3055C41.7944 20.3055 40.8568 20.6835 40.1254 21.364L39.9133 21.576C39.9819 21.5024 40.0526 21.4317 40.1254 21.364L45.5616 15.9278Z" fill="#1C2028"/>
<path d="M92.9654 60.3972C92.4789 60.781 91.8764 60.9893 91.2561 60.9884L85.6078 66.6367C86.2282 66.6376 86.8306 66.4292 87.3171 66.0455L92.9654 60.3972Z" fill="#1C2028"/>
<path d="M57.87 24.374L54.8974 27.6136L49.2491 33.2619L52.2218 30.0223L57.87 24.374Z" fill="#1C2028"/>
<path d="M61.2075 36.9093C61.5501 34.7468 62.4075 32.6976 63.7077 30.9333L58.0594 36.5816C56.7592 38.3459 55.9018 40.3951 55.5592 42.5576L61.2075 36.9093Z" fill="#1C2028"/>
<path d="M44.3791 18.9951C44.3791 17.8446 44.8045 16.7412 45.5617 15.9277L39.9134 21.576C39.1562 22.3895 38.7308 23.4929 38.7308 24.6434L44.3791 18.9951Z" fill="#1C2028"/>
<path d="M54.8976 27.6135L53.1673 29.4992L47.519 35.1475L49.2493 33.2618L54.8976 27.6135Z" fill="#1C2028"/>
<path d="M45.5617 22.0625C44.8045 21.249 44.3791 20.1456 44.3791 18.9951L38.7308 24.6434C38.7308 25.7939 39.1562 26.8972 39.9134 27.7107L45.5617 22.0625Z" fill="#1C2028"/>
<path d="M71.2924 46.4339C69.0284 42.9067 65.7998 40.0988 61.9875 38.3416L56.3392 43.9898C60.1515 45.7471 63.3802 48.555 65.6442 52.0822L71.2924 46.4339Z" fill="#1C2028"/>
<path d="M61.3562 37.7557C61.2154 37.4972 61.1632 37.2 61.2074 36.9092L55.5591 42.5575C55.5149 42.8483 55.5671 43.1455 55.7079 43.404L61.3562 37.7557Z" fill="#1C2028"/>
<path d="M61.9873 38.3412C61.7186 38.2199 61.497 38.0143 61.3562 37.7559L55.7079 43.4041C55.8487 43.6626 56.0703 43.8682 56.339 43.9895L61.9873 38.3412Z" fill="#1C2028"/>
<path d="M53.1673 29.499L52.7765 29.9249L47.1282 35.5732L47.519 35.1473L53.1673 29.499Z" fill="#1C2028"/>
<path d="M52.7764 29.9249L45.5616 22.0623L39.9133 27.7105L47.1281 35.5732L52.7764 29.9249Z" fill="#1C2028"/>
<path d="M91.2563 60.9885H76.098L70.4497 66.6368H85.6081L91.2563 60.9885Z" fill="#1C2028"/>
<path d="M74.7648 58.248C74.7612 54.0603 73.5563 49.961 71.2923 46.4338L65.644 52.0821C67.908 55.6093 69.1129 59.7086 69.1165 63.8963L74.7648 58.248Z" fill="#1C2028"/>
<path d="M62.3629 44.8711C65.1644 46.8737 67.2661 49.7013 68.3726 52.9564L62.7243 58.6047C61.6178 55.3496 59.5161 52.522 56.7146 50.5194L62.3629 44.8711Z" fill="#1C2028"/>
<path d="M74.7236 59.5496C74.7648 59.1179 74.7648 58.6863 74.7648 58.2478L69.1166 63.8961C69.1166 64.3346 69.1165 64.7662 69.0753 65.1978L74.7236 59.5496Z" fill="#1C2028"/>
<path d="M74.8078 60.095C74.7429 59.9208 74.7143 59.7352 74.7236 59.5496L69.0753 65.1978C69.066 65.3835 69.0947 65.569 69.1595 65.7433L74.8078 60.095Z" fill="#1C2028"/>
<path d="M76.0978 60.9881C75.9114 60.9884 75.7269 60.9508 75.5555 60.8777L69.9072 66.526C70.0786 66.5991 70.2631 66.6367 70.4495 66.6364L76.0978 60.9881Z" fill="#1C2028"/>
<path d="M75.101 60.563C74.9725 60.4285 74.8727 60.2692 74.8078 60.095L69.1595 65.7433C69.2244 65.9175 69.3242 66.0767 69.4527 66.2113L75.101 60.563Z" fill="#1C2028"/>
<path d="M75.5556 60.8778C75.3843 60.8047 75.2296 60.6976 75.101 60.563L69.4528 66.2113C69.5813 66.3459 69.736 66.453 69.9074 66.5261L75.5556 60.8778Z" fill="#1C2028"/>
<path d="M52.754 41.7915C56.2011 41.7915 59.5615 42.8685 62.363 44.8711L56.7147 50.5194C53.9132 48.5168 50.5528 47.4398 47.1057 47.4398L52.754 41.7915Z" fill="#1C2028"/>
<path d="M41.8449 30.9332C40.5446 29.1689 38.8393 27.741 36.8718 26.769L31.2235 32.4173C33.191 33.3893 34.8963 34.8172 36.1966 36.5814L41.8449 30.9332Z" fill="#1C2028"/>
<path d="M68.3728 52.9565C69.4793 56.2117 69.535 59.7307 68.532 63.019L62.8837 68.6673C63.8867 65.379 63.831 61.8599 62.7245 58.6048L68.3728 52.9565Z" fill="#1C2028"/>
<path d="M44.3449 36.9093C44.0023 34.7468 43.1449 32.6976 41.8447 30.9333L36.1964 36.5816C37.4967 38.3459 38.354 40.3951 38.6966 42.5576L44.3449 36.9093Z" fill="#1C2028"/>
<path d="M36.8717 26.7694C34.9042 25.7974 32.7317 25.3096 30.5362 25.347L24.8879 30.9952C27.0834 30.9579 29.2559 31.4457 31.2234 32.4176L36.8717 26.7694Z" fill="#1C2028"/>
<path d="M44.1964 37.7557C44.3372 37.4972 44.3894 37.2 44.3452 36.9092L38.6969 42.5575C38.7411 42.8483 38.6889 43.1455 38.5481 43.404L44.1964 37.7557Z" fill="#1C2028"/>
<path d="M43.9654 38.0645C44.0561 37.9737 44.134 37.8699 44.1962 37.7559L38.5479 43.4041C38.4857 43.5182 38.4079 43.622 38.3171 43.7128L43.9654 38.0645Z" fill="#1C2028"/>
<path d="M43.565 38.3415C43.7149 38.2738 43.8502 38.1799 43.9649 38.0652L38.3171 43.713C38.2023 43.8279 38.0669 43.9219 37.9167 43.9897L43.565 38.3415Z" fill="#1C2028"/>
<path d="M43.145 44.8711C45.9465 42.8685 49.3069 41.7915 52.754 41.7915L47.1057 47.4398C43.6586 47.4398 40.2982 48.5168 37.4967 50.5194L43.145 44.8711Z" fill="#1C2028"/>
<path d="M30.5364 25.3467C28.341 25.384 26.1864 25.9453 24.2533 26.9836L18.605 32.6319C20.5381 31.5936 22.6927 31.0323 24.8881 30.995L30.5364 25.3467Z" fill="#1C2028"/>
<path d="M68.5317 63.0188C67.7425 65.6064 66.3289 67.9488 64.4288 69.8479L58.7869 75.4897C60.6838 73.5918 62.0951 71.2518 62.8834 68.6671L68.5317 63.0188Z" fill="#1C2028"/>
<path d="M37.2175 42.7633C39.0461 40.9357 41.1926 39.4352 43.5651 38.3416L37.9168 43.9898C35.5443 45.0835 33.3978 46.584 31.5692 48.4116L37.2175 42.7633Z" fill="#1C2028"/>
<path d="M41.0789 46.6213C41.7153 45.9853 42.4057 45.3995 43.1449 44.8711L37.4966 50.5194C36.7574 51.0478 36.067 51.6336 35.4307 52.2696L41.0789 46.6213Z" fill="#1C2028"/>
<path d="M24.2529 26.9836C23.065 27.6217 21.9819 28.4284 21.0359 29.375L15.3928 35.018C16.3377 34.0737 17.4189 33.2688 18.6047 32.6319L24.2529 26.9836Z" fill="#1C2028"/>
<path d="M64.429 69.8479C63.9145 70.3622 63.3643 70.8439 62.7811 71.2892L57.1328 76.9375C57.716 76.4922 58.2662 76.0104 58.7807 75.4962L64.429 69.8479Z" fill="#1C2028"/>
<path d="M74.3971 81.5425C74.6383 81.9591 74.7653 82.4318 74.7653 82.9129L69.117 88.5612C69.117 88.0801 68.99 87.6074 68.7488 87.1908L74.3971 81.5425Z" fill="#1C2028"/>
<path d="M62.8051 71.2893C67.6688 73.384 71.7314 76.9773 74.3972 81.5423L68.7489 87.1906C66.0831 82.6256 62.0205 79.0323 57.1569 76.9376L62.8051 71.2893Z" fill="#1C2028"/>
<path d="M62.7811 71.2893H62.8051L57.1569 76.9376H57.1328L62.7811 71.2893Z" fill="#1C2028"/>
<path d="M34.2601 46.4335C35.1129 45.1049 36.1026 43.8783 37.2088 42.7715L31.5691 48.4112C30.4594 49.5203 29.4668 50.7498 28.6118 52.0818L34.2601 46.4335Z" fill="#1C2028"/>
<path d="M74.7652 82.9128C74.7652 83.394 74.6381 83.8666 74.3968 84.2832L68.7485 89.9315C68.9898 89.5149 69.1169 89.0422 69.1169 88.5611L74.7652 82.9128Z" fill="#1C2028"/>
<path d="M21.0361 29.375C20.4426 29.9688 19.9031 30.6176 19.4254 31.3144L13.7771 36.9627C14.2548 36.2659 14.7944 35.6171 15.3878 35.0233L21.0361 29.375Z" fill="#1C2028"/>
<path d="M74.3968 84.283C74.2768 84.4902 74.1306 84.68 73.9625 84.848L68.3153 90.4952C68.4829 90.3274 68.6288 90.138 68.7486 89.9312L74.3968 84.283Z" fill="#1C2028"/>
<path d="M37.1351 52.9565C37.9487 50.5632 39.3002 48.401 41.0723 46.6278L35.4306 52.2696C33.6552 54.044 32.3014 56.2085 31.4868 58.6048L37.1351 52.9565Z" fill="#1C2028"/>
<path d="M73.9625 84.8481C73.7927 85.0178 73.6006 85.1653 73.3906 85.2862L67.7423 90.9345C67.9523 90.8136 68.1444 90.6661 68.3143 90.4964L73.9625 84.8481Z" fill="#1C2028"/>
<path d="M73.3907 85.2864C72.9728 85.5269 72.4987 85.6534 72.0162 85.6533L66.3679 91.3016C66.8504 91.3017 67.3245 91.1751 67.7424 90.9347L73.3907 85.2864Z" fill="#1C2028"/>
<path d="M19.4253 31.3145C18.1861 33.1219 17.3993 35.199 17.1308 37.3719L11.4825 43.0202C11.751 40.8473 12.5378 38.7701 13.777 36.9627L19.4253 31.3145Z" fill="#1C2028"/>
<path d="M30.7877 58.248C30.7913 54.0603 31.9962 49.961 34.2602 46.4338L28.6119 52.0821C26.3479 55.6093 25.143 59.7086 25.1394 63.8963L30.7877 58.248Z" fill="#1C2028"/>
<path d="M36.9759 63.019C35.9729 59.7307 36.0286 56.2117 37.1351 52.9565L31.4869 58.6048C30.3804 61.8599 30.3247 65.379 31.3276 68.6673L36.9759 63.019Z" fill="#1C2028"/>
<path d="M17.1309 37.3718C16.8624 39.5448 17.12 41.7502 17.8822 43.8035L12.2339 49.4517C11.4718 47.3985 11.2142 45.193 11.4826 43.0201L17.1309 37.3718Z" fill="#1C2028"/>
<path d="M17.882 43.8035C18.6442 45.8567 19.8887 47.698 21.5113 49.1731L15.863 54.8214C14.2404 53.3463 12.9959 51.505 12.2338 49.4517L17.882 43.8035Z" fill="#1C2028"/>
<path d="M42.7267 71.2892C39.99 69.1994 37.9789 66.3071 36.9759 63.0188L31.3276 68.6671C32.3306 71.9554 34.3417 74.8477 37.0785 76.9375L42.7267 71.2892Z" fill="#1C2028"/>
<path d="M30.8289 59.5496C30.7877 59.1179 30.7877 58.6863 30.7877 58.2478L25.1394 63.8961C25.1394 64.3346 25.1394 64.7662 25.1806 65.1978L30.8289 59.5496Z" fill="#1C2028"/>
<path d="M30.7447 60.095C30.8096 59.9208 30.8382 59.7352 30.8289 59.5496L25.1806 65.1978C25.19 65.3835 25.1613 65.569 25.0964 65.7433L30.7447 60.095Z" fill="#1C2028"/>
<path d="M30.4515 60.563C30.5801 60.4285 30.6798 60.2692 30.7447 60.095L25.0964 65.7433C25.0315 65.9175 24.9318 66.0767 24.8032 66.2113L30.4515 60.563Z" fill="#1C2028"/>
<path d="M30.4516 60.563C30.4371 60.5782 30.4223 60.593 30.4072 60.6075L24.8034 66.2113C24.6748 66.3459 24.5201 66.453 24.3488 66.5261L29.997 60.8778C30.1491 60.8129 30.288 60.7213 30.4072 60.6075L30.4516 60.563Z" fill="#1C2028"/>
<path d="M29.4546 60.9881C29.641 60.9884 29.8255 60.9508 29.9968 60.8777L24.3486 66.526C24.1772 66.5991 23.9927 66.6367 23.8063 66.6364L29.4546 60.9881Z" fill="#1C2028"/>
<path d="M72.0163 85.6533H33.5363L27.8881 91.3016H66.368L72.0163 85.6533Z" fill="#1C2028"/>
<path d="M21.5113 49.1731C18.7991 50.3446 16.3444 52.0161 14.2716 54.0901L8.63259 59.7291C10.7035 57.6594 13.1548 55.9911 15.863 54.8214L21.5113 49.1731Z" fill="#1C2028"/>
<path d="M35.0348 76.511C37.2318 74.3151 39.8376 72.5376 42.7269 71.2893L37.0787 76.9376C34.1893 78.1858 31.5835 79.9633 29.3865 82.1593L35.0348 76.511Z" fill="#1C2028"/>
<path d="M14.2964 60.9885H29.4547L23.8064 66.6368H8.64807L14.2964 60.9885Z" fill="#1C2028"/>
<path d="M14.2716 54.0903C13.5199 54.8424 12.8184 55.6475 12.1731 56.5008L6.52478 62.1491C7.17013 61.2958 7.87161 60.4907 8.6233 59.7386L14.2716 54.0903Z" fill="#1C2028"/>
<path d="M12.1729 56.5007C11.9105 56.8311 11.7245 57.2152 11.6283 57.6256L5.97998 63.2739C6.0762 62.8635 6.26219 62.4794 6.52464 62.149L12.1729 56.5007Z" fill="#1C2028"/>
<path d="M31.1554 81.5423C32.2306 79.6983 33.5338 78.0126 35.0256 76.52L29.3864 82.1593C27.8907 83.6541 26.5845 85.3429 25.5071 87.1906L31.1554 81.5423Z" fill="#1C2028"/>
<path d="M11.6285 57.6255C11.5323 58.0359 11.5282 58.4624 11.6166 58.8746L5.96829 64.5229C5.87993 64.1107 5.884 63.6842 5.98022 63.2738L11.6285 57.6255Z" fill="#1C2028"/>
<path d="M12.5869 60.3972C13.0734 60.781 13.6759 60.9893 14.2962 60.9884L8.64796 66.6367C8.02759 66.6376 7.42515 66.4292 6.9386 66.0455L12.5869 60.3972Z" fill="#1C2028"/>
<path d="M11.6164 58.8748C11.7583 59.4769 12.1004 60.0135 12.5869 60.3972L6.93864 66.0455C6.45209 65.6618 6.11005 65.1252 5.96814 64.523L11.6164 58.8748Z" fill="#1C2028"/>
<path d="M30.7873 82.9129C30.7873 82.4318 30.9143 81.9591 31.1556 81.5425L25.5073 87.1908C25.266 87.6074 25.139 88.0801 25.139 88.5612L30.7873 82.9129Z" fill="#1C2028"/>
<path d="M33.5365 85.6533C33.0539 85.6534 32.5799 85.5269 32.162 85.2864L26.5137 90.9347C26.9316 91.1751 27.4056 91.3017 27.8882 91.3016L33.5365 85.6533Z" fill="#1C2028"/>
<path d="M31.1557 84.2832C30.9144 83.8666 30.7873 83.394 30.7873 82.9128L25.139 88.5611C25.1391 89.0422 25.2661 89.5149 25.5074 89.9315L31.1557 84.2832Z" fill="#1C2028"/>
<path d="M32.1619 85.286C31.744 85.0455 31.3969 84.6996 31.1556 84.283L25.5073 89.9312C25.7486 90.3479 26.0957 90.6938 26.5136 90.9343L32.1619 85.286Z" fill="#1C2028"/>
<path d="M29.4552 60.4885H29.4546H14.2962H14.2955C13.7876 60.4892 13.2945 60.3187 12.8965 60.0047C12.4998 59.6919 12.2208 59.2551 12.1042 58.7651C12.0324 58.4267 12.0361 58.0767 12.1151 57.7399C12.1944 57.4014 12.3479 57.0845 12.5645 56.8119L12.5646 56.8119L12.5717 56.8024C14.9445 53.665 18.0928 51.1945 21.7095 49.6324L22.4212 49.3249L21.8475 48.8034C20.284 47.382 19.085 45.6079 18.3507 43.6298C17.6165 41.6516 17.3683 39.5268 17.627 37.4334C17.8856 35.34 18.6436 33.3388 19.8376 31.5974C21.0315 29.8559 22.6267 28.4249 24.4896 27.4244C26.3525 26.4238 28.4288 25.8829 30.5447 25.8469C32.6605 25.8109 34.7541 26.281 36.6502 27.2177C38.5462 28.1543 40.1894 29.5303 41.4422 31.2301C42.6947 32.9295 43.5205 34.9032 43.8508 36.9859C43.8783 37.1683 43.8454 37.3546 43.7571 37.5169C43.6685 37.6795 43.5289 37.8091 43.3593 37.8857L43.3593 37.8857L43.3557 37.8873C39.457 39.6845 36.1549 42.5561 33.8393 46.1637C31.5237 49.7713 30.2913 53.9641 30.2876 58.2475V58.2479V58.259C30.2876 58.6861 30.2876 59.1334 30.3299 59.5846C30.3344 59.699 30.3161 59.8132 30.2761 59.9207C30.2349 60.0312 30.1716 60.1323 30.0899 60.2179C30.0082 60.3034 29.9098 60.3716 29.8007 60.4181C29.6915 60.4647 29.574 60.4886 29.4552 60.4885ZM92.9598 56.7988L93.1099 56.9974H93.1209C93.268 57.2239 93.3752 57.4744 93.4373 57.738C93.5167 58.0753 93.5204 58.4259 93.4482 58.7648C93.3316 59.2549 93.0526 59.6918 92.6559 60.0047C92.2578 60.3187 91.7648 60.4892 91.2569 60.4885H91.2561H76.0978H76.0972C75.9784 60.4886 75.8608 60.4647 75.7517 60.4181C75.6426 60.3716 75.5442 60.3034 75.4625 60.2179C75.3808 60.1323 75.3174 60.0312 75.2763 59.9207C75.2363 59.8132 75.218 59.699 75.2224 59.5846C75.2647 59.1334 75.2647 58.6861 75.2647 58.259V58.2479V58.2475C75.261 53.9641 74.0286 49.7713 71.713 46.1637C69.3974 42.5561 66.0954 39.6845 62.1966 37.8873L62.1931 37.8857C62.0235 37.8091 61.8839 37.6795 61.7953 37.5169C61.7069 37.3546 61.6741 37.1683 61.7015 36.9859C62.0318 34.9032 62.8577 32.9295 64.1101 31.2301C65.3629 29.5303 67.0061 28.1543 68.9022 27.2177C70.7982 26.281 72.8919 25.8109 75.0077 25.8469C77.1235 25.8829 79.1999 26.4238 81.0628 27.4244C82.9257 28.4249 84.5208 29.8559 85.7148 31.5973C86.9087 33.3388 87.6667 35.34 87.9254 37.4334C88.1841 39.5268 87.9359 41.6516 87.2016 43.6298C86.4674 45.6079 85.2683 47.382 83.7048 48.8034L83.1318 49.3243L83.8424 49.6321C87.4515 51.1959 90.5926 53.665 92.9598 56.7988ZM76.0978 60.9885H91.2561L75.5555 60.878C75.7269 60.9511 75.9114 60.9887 76.0978 60.9885ZM62.4775 70.8921L61.3023 71.7895H62.7014C67.4251 73.8475 71.3702 77.3511 73.9649 81.7938C74.1618 82.1342 74.2654 82.5201 74.2653 82.9129C74.2653 83.3059 74.1615 83.6921 73.9643 84.0327C73.767 84.3732 73.4832 84.6562 73.1413 84.853C72.7993 85.0497 72.4113 85.1534 72.0163 85.1533H72.0162H33.5362H33.5361C33.1411 85.1534 32.753 85.0497 32.4111 84.853C32.0691 84.6562 31.7853 84.3732 31.5881 84.0327C31.3908 83.6921 31.287 83.3059 31.287 82.9129C31.287 82.52 31.3906 82.134 31.5876 81.7936C34.1939 77.3243 38.1668 73.8041 42.925 71.7485L43.7085 71.41L43.0302 70.8921C40.3765 68.8657 38.4265 66.0613 37.4542 62.8732C36.4818 59.6851 36.5358 56.2734 37.6086 53.1175C38.6813 49.9616 40.7191 47.22 43.4356 45.278C46.1522 43.3361 49.4109 42.2917 52.7538 42.2917C56.0968 42.2917 59.3555 43.3361 62.0721 45.278C64.7886 47.22 66.8264 49.9616 67.8991 53.1175C68.9719 56.2735 69.0259 59.6851 68.0535 62.8732C67.0812 66.0613 65.1312 68.8657 62.4775 70.8921Z" fill="white" stroke="#1C2028"/>
<path d="M59.6228 21.7244L52.7764 29.1856L45.93 21.7244L45.93 21.7244L45.9276 21.7218C45.2598 21.0044 44.879 20.0241 44.879 18.9951C44.879 17.9661 45.2598 16.9859 45.9276 16.2684C46.5942 15.5522 47.4904 15.1572 48.4165 15.1572C49.3426 15.1572 50.2388 15.5522 50.9054 16.2684L50.9115 16.2749L50.9178 16.2812L52.4227 17.7871L52.7764 18.141L53.1301 17.7871L54.635 16.2812L54.6413 16.2749L54.6474 16.2684C55.314 15.5522 56.2101 15.1572 57.1363 15.1572C58.0624 15.1572 58.9586 15.5522 59.6252 16.2684C60.293 16.9859 60.6737 17.9661 60.6737 18.9951C60.6737 20.0241 60.293 21.0044 59.6252 21.7218L59.6228 21.7244Z" fill="white" stroke="#1C2028"/>
</svg>
