<svg width="120" height="167" viewBox="0 0 120 167" fill="none" xmlns="http://www.w3.org/2000/svg">
<path d="M19.4594 26.7027V33.1892H12.973V26.7027H19.4594Z" fill="#9CA3AF"/>
<path d="M38.9189 33.1892V39.6757H12.973V33.1892H38.9189Z" fill="#9CA3AF"/>
<path d="M12.973 33.1892V104.541H6.48651V33.1892H12.973Z" fill="#9CA3AF"/>
<path d="M25.946 20.2162V26.7027H19.4595V20.2162H25.946Z" fill="#9CA3AF"/>
<path d="M32.4324 13.7297V20.2162H25.9459V13.7297H32.4324Z" fill="#9CA3AF"/>
<path d="M38.9189 13.7297V33.1892H32.4324V13.7297H38.9189Z" fill="#9CA3AF"/>
<path fill-rule="evenodd" clip-rule="evenodd" d="M81.0811 42.9189H74.5946V36.4324H68.1081H61.6216H55.1352H48.6487V42.9189H42.1622V49.4054L35.6757 49.4054V55.8919H29.1892V62.3784V68.8649V75.3514V81.8378L35.6757 81.8378V88.3243H42.1622V94.8108H48.6487V101.297H55.1352H61.6216H68.1081H74.5946V94.8108V88.3243H81.0811H87.5676L87.5676 81.8378H94.0541V75.3514V68.8649V62.3784V55.8919H87.5676L87.5676 49.4054H81.0811L81.0811 42.9189ZM60 55.8919V62.3784H50.2703V55.8919H53.5135V52.6487H56.7568H63.2432H69.7297V55.8919H72.973V65.6216H69.7297V68.8649H66.4865V78.5946H56.7568V68.8649H60V65.6216H63.2432V55.8919H60ZM66.4865 81.8379V88.3243H56.7568V81.8379H66.4865Z" fill="#9CA3AF"/>
<path d="M81.0811 88.3243V94.8108H74.5946V88.3243H81.0811Z" fill="#9CA3AF"/>
<path d="M90.8108 91.5676V98.0541H84.3243V91.5676H90.8108Z" fill="#9CA3AF"/>
<path d="M90.8108 98.0541V104.541H84.3243V98.0541H90.8108Z" fill="#9CA3AF"/>
<path d="M97.2973 104.541V111.027H90.8108V104.541H97.2973Z" fill="#9CA3AF"/>
<path d="M103.784 111.027V117.514H97.2973V111.027H103.784Z" fill="#9CA3AF"/>
<path d="M110.27 117.514V124H103.784V117.514H110.27Z" fill="#9CA3AF"/>
<path d="M97.2973 91.5676V98.0541H90.8108V91.5676H97.2973Z" fill="#9CA3AF"/>
<path d="M103.784 98.0541V104.541H97.2973V98.0541H103.784Z" fill="#9CA3AF"/>
<path d="M110.27 104.541V111.027H103.784V104.541H110.27Z" fill="#9CA3AF"/>
<path d="M116.757 111.027V117.514H110.27V111.027H116.757Z" fill="#9CA3AF"/>
<path d="M97.2973 98.0541V104.541H90.8108V98.0541H97.2973Z" fill="#9CA3AF"/>
<path d="M103.784 104.541V111.027H97.2973V104.541H103.784Z" fill="#9CA3AF"/>
<path d="M110.27 111.027V117.514H103.784V111.027H110.27Z" fill="#9CA3AF"/>
<path d="M90.8108 13.7297V42.9189H84.3243V13.7297H90.8108Z" fill="#9CA3AF"/>
<path d="M32.4324 20.2162V26.7027H25.9459V20.2162H32.4324Z" fill="#9CA3AF"/>
<path d="M32.4324 26.7027V33.1892H25.9459V26.7027H32.4324Z" fill="#9CA3AF"/>
<path d="M25.946 26.7027V33.1892H19.4595V26.7027H25.946Z" fill="#9CA3AF"/>
<path d="M90.8108 7.24329V13.7298H32.4324V7.24329H90.8108Z" fill="#9CA3AF"/>
<path d="M77.8379 104.541V111.027H6.48651V104.541H77.8379Z" fill="#9CA3AF"/>
<path d="M32.1705 150.607V162.243H30.5568L24.642 153.709H24.5341V162.243H22.7784V150.607H24.4034L30.3239 159.152H30.4318V150.607H32.1705ZM38.2713 162.419C37.4531 162.419 36.7391 162.232 36.1293 161.857C35.5194 161.482 35.0459 160.957 34.7088 160.283C34.3717 159.609 34.2031 158.821 34.2031 157.919C34.2031 157.014 34.3717 156.222 34.7088 155.544C35.0459 154.866 35.5194 154.34 36.1293 153.965C36.7391 153.59 37.4531 153.402 38.2713 153.402C39.0895 153.402 39.8035 153.59 40.4134 153.965C41.0232 154.34 41.4967 154.866 41.8338 155.544C42.1709 156.222 42.3395 157.014 42.3395 157.919C42.3395 158.821 42.1709 159.609 41.8338 160.283C41.4967 160.957 41.0232 161.482 40.4134 161.857C39.8035 162.232 39.0895 162.419 38.2713 162.419ZM38.277 160.993C38.8073 160.993 39.2467 160.853 39.5952 160.573C39.9437 160.293 40.2012 159.919 40.3679 159.454C40.5384 158.988 40.6236 158.474 40.6236 157.914C40.6236 157.357 40.5384 156.846 40.3679 156.38C40.2012 155.91 39.9437 155.533 39.5952 155.249C39.2467 154.965 38.8073 154.823 38.277 154.823C37.7429 154.823 37.2997 154.965 36.9474 155.249C36.599 155.533 36.3395 155.91 36.169 156.38C36.0024 156.846 35.919 157.357 35.919 157.914C35.919 158.474 36.0024 158.988 36.169 159.454C36.3395 159.919 36.599 160.293 36.9474 160.573C37.2997 160.853 37.7429 160.993 38.277 160.993ZM48.3097 153.516V154.88H43.5426V153.516H48.3097ZM44.821 151.425H46.5199V159.681C46.5199 160.01 46.5691 160.258 46.6676 160.425C46.7661 160.588 46.893 160.7 47.0483 160.76C47.2074 160.817 47.3797 160.846 47.5653 160.846C47.7017 160.846 47.821 160.836 47.9233 160.817C48.0256 160.798 48.1051 160.783 48.1619 160.772L48.4688 162.175C48.3703 162.213 48.2301 162.251 48.0483 162.289C47.8665 162.33 47.6392 162.353 47.3665 162.357C46.9195 162.364 46.5028 162.285 46.1165 162.118C45.7301 161.952 45.4176 161.694 45.179 161.346C44.9403 160.997 44.821 160.56 44.821 160.033V151.425ZM58.5767 153.516V154.88H53.6449V153.516H58.5767ZM54.9972 162.243V152.505C54.9972 151.959 55.1165 151.507 55.3551 151.147C55.5938 150.783 55.91 150.512 56.304 150.334C56.6979 150.152 57.1259 150.061 57.5881 150.061C57.929 150.061 58.2206 150.09 58.4631 150.147C58.7055 150.2 58.8854 150.249 59.0028 150.294L58.6051 151.669C58.5256 151.647 58.4233 151.62 58.2983 151.59C58.1733 151.556 58.0218 151.539 57.8438 151.539C57.4309 151.539 57.1354 151.641 56.9574 151.846C56.7831 152.05 56.696 152.346 56.696 152.732V162.243H54.9972ZM63.6619 162.419C62.8438 162.419 62.1297 162.232 61.5199 161.857C60.91 161.482 60.4366 160.957 60.0994 160.283C59.7623 159.609 59.5938 158.821 59.5938 157.919C59.5938 157.014 59.7623 156.222 60.0994 155.544C60.4366 154.866 60.91 154.34 61.5199 153.965C62.1297 153.59 62.8438 153.402 63.6619 153.402C64.4801 153.402 65.1941 153.59 65.804 153.965C66.4138 154.34 66.8873 154.866 67.2244 155.544C67.5616 156.222 67.7301 157.014 67.7301 157.919C67.7301 158.821 67.5616 159.609 67.2244 160.283C66.8873 160.957 66.4138 161.482 65.804 161.857C65.1941 162.232 64.4801 162.419 63.6619 162.419ZM63.6676 160.993C64.1979 160.993 64.6373 160.853 64.9858 160.573C65.3343 160.293 65.5919 159.919 65.7585 159.454C65.929 158.988 66.0142 158.474 66.0142 157.914C66.0142 157.357 65.929 156.846 65.7585 156.38C65.5919 155.91 65.3343 155.533 64.9858 155.249C64.6373 154.965 64.1979 154.823 63.6676 154.823C63.1335 154.823 62.6903 154.965 62.3381 155.249C61.9896 155.533 61.7301 155.91 61.5597 156.38C61.393 156.846 61.3097 157.357 61.3097 157.914C61.3097 158.474 61.393 158.988 61.5597 159.454C61.7301 159.919 61.9896 160.293 62.3381 160.573C62.6903 160.853 63.1335 160.993 63.6676 160.993ZM75.1548 158.624V153.516H76.8594V162.243H75.1889V160.732H75.098C74.8973 161.198 74.5753 161.586 74.1321 161.897C73.6927 162.204 73.1454 162.357 72.4901 162.357C71.9295 162.357 71.4332 162.234 71.0014 161.988C70.5734 161.738 70.2363 161.368 69.9901 160.88C69.7476 160.391 69.6264 159.787 69.6264 159.067V153.516H71.3253V158.863C71.3253 159.457 71.4901 159.931 71.8196 160.283C72.1491 160.635 72.5772 160.811 73.1037 160.811C73.4219 160.811 73.7382 160.732 74.0526 160.573C74.3707 160.414 74.634 160.173 74.8423 159.851C75.0545 159.529 75.1586 159.12 75.1548 158.624ZM80.8409 157.061V162.243H79.142V153.516H80.7727V154.936H80.8807C81.0814 154.474 81.3958 154.103 81.8239 153.823C82.2557 153.543 82.7992 153.402 83.4545 153.402C84.0492 153.402 84.5701 153.527 85.017 153.777C85.464 154.024 85.8106 154.391 86.0568 154.88C86.303 155.368 86.4261 155.972 86.4261 156.692V162.243H84.7273V156.897C84.7273 156.264 84.5625 155.77 84.233 155.414C83.9034 155.054 83.4508 154.874 82.875 154.874C82.4811 154.874 82.1307 154.959 81.8239 155.13C81.5208 155.3 81.2803 155.55 81.1023 155.88C80.928 156.205 80.8409 156.599 80.8409 157.061ZM91.9716 162.414C91.267 162.414 90.6383 162.234 90.0852 161.874C89.536 161.51 89.1042 160.993 88.7898 160.323C88.4792 159.649 88.3239 158.84 88.3239 157.897C88.3239 156.954 88.4811 156.147 88.7955 155.476C89.1136 154.806 89.5492 154.293 90.1023 153.936C90.6553 153.58 91.2822 153.402 91.983 153.402C92.5246 153.402 92.9602 153.493 93.2898 153.675C93.6231 153.853 93.8807 154.061 94.0625 154.3C94.2481 154.539 94.392 154.749 94.4943 154.931H94.5966V150.607H96.2955V162.243H94.6364V160.885H94.4943C94.392 161.071 94.2443 161.283 94.0511 161.522C93.8617 161.76 93.6004 161.969 93.267 162.147C92.9337 162.325 92.5019 162.414 91.9716 162.414ZM92.3466 160.965C92.8352 160.965 93.2481 160.836 93.5852 160.579C93.9261 160.317 94.1837 159.955 94.358 159.493C94.536 159.031 94.625 158.493 94.625 157.88C94.625 157.274 94.5379 156.743 94.3636 156.289C94.1894 155.834 93.9337 155.48 93.5966 155.226C93.2595 154.972 92.8428 154.846 92.3466 154.846C91.8352 154.846 91.4091 154.978 91.0682 155.243C90.7273 155.508 90.4697 155.87 90.2955 156.329C90.125 156.787 90.0398 157.304 90.0398 157.88C90.0398 158.463 90.1269 158.988 90.3011 159.454C90.4754 159.919 90.733 160.289 91.0739 160.561C91.4186 160.83 91.8428 160.965 92.3466 160.965Z" fill="#6B7280"/>
</svg>
