<svg width="3000" height="4888" viewBox="0 0 3000 4888" fill="none" xmlns="http://www.w3.org/2000/svg">
<g clip-path="url(#clip0_387_1145)">
<rect width="3000" height="4888" fill="url(#paint0_linear_387_1145)"/>
<path d="M0 -479.375C91.6667 -386.936 341.667 -88.4904 550 75.2584C758.333 239.007 1033.33 402.756 1250 503.118C1466.67 603.48 1666.67 534.811 1850 677.431C2033.33 820.051 2158.33 1195.09 2350 1358.84C2541.67 1522.59 2891.67 1609.74 3000 1659.92V6136.6H0V-479.375Z" fill="url(#paint1_linear_387_1145)"/>
<path d="M0 854.361C79.7619 932.083 327.381 1186.37 478.571 1320.69C629.762 1455.01 780.952 1547.08 907.143 1660.27C1033.33 1773.46 1109.52 1928.91 1235.71 1999.85C1361.9 2070.79 1521.43 2014.98 1664.29 2085.93C1807.14 2156.87 1933.33 2312.31 2092.86 2425.51C2252.38 2538.7 2470.24 2630.77 2621.43 2765.09C2772.62 2899.4 2936.9 3153.69 3000 3231.42V5885.26H0V854.361Z" fill="url(#paint2_linear_387_1145)"/>
<path d="M0 1645.89C63.0952 1719.71 244.048 1997.3 378.571 2088.84C513.095 2180.39 647.619 2122.32 807.143 2195.16C966.667 2268 1176.19 2415.66 1335.71 2525.9C1495.24 2636.15 1638.1 2708.99 1764.29 2856.65C1890.48 3004.3 1950 3301.56 2092.86 3411.81C2235.71 3522.06 2470.24 3426.59 2621.43 3518.13C2772.62 3609.68 2936.9 3887.26 3000 3961.09V5398.79H0V1645.89Z" fill="url(#paint3_linear_387_1145)"/>
</g>
<defs>
<linearGradient id="paint0_linear_387_1145" x1="1500" y1="0" x2="1500" y2="3287.72" gradientUnits="userSpaceOnUse">
<stop stop-color="white"/>
<stop offset="1" stop-color="#DBDBDB"/>
</linearGradient>
<linearGradient id="paint1_linear_387_1145" x1="1500" y1="-479.375" x2="1500" y2="4840.59" gradientUnits="userSpaceOnUse">
<stop stop-color="white"/>
<stop offset="1" stop-color="#E6E6E6"/>
</linearGradient>
<linearGradient id="paint2_linear_387_1145" x1="1500" y1="854.361" x2="1500" y2="5885.26" gradientUnits="userSpaceOnUse">
<stop stop-color="white"/>
<stop offset="1" stop-color="#E6E6E6"/>
</linearGradient>
<linearGradient id="paint3_linear_387_1145" x1="1500" y1="1645.89" x2="1500" y2="5398.79" gradientUnits="userSpaceOnUse">
<stop stop-color="#F7F7F7"/>
<stop offset="1" stop-color="white"/>
</linearGradient>
<clipPath id="clip0_387_1145">
<rect width="3000" height="4888" fill="white"/>
</clipPath>
</defs>
</svg>
