<svg width="100" height="100" viewBox="0 0 100 100" fill="none" xmlns="http://www.w3.org/2000/svg">
<path d="M60.4091 39.5467V39.5468V52.8665V52.8674C60.4081 53.3335 60.2819 53.7908 60.0437 54.1916C59.9325 54.3787 59.7987 54.5504 59.6461 54.703C59.4719 54.877 59.2732 55.0262 59.0553 55.1454C59.0553 55.1454 59.0553 55.1455 59.0553 55.1455L46.7997 61.854C46.7995 61.8541 46.7993 61.8542 46.7991 61.8543C46.4162 62.0658 45.986 62.1767 45.5486 62.1767C45.1115 62.1767 44.6816 62.0659 44.2989 61.8547L60.4091 39.5467ZM60.4091 39.5467C60.4089 39.0797 60.2832 38.6214 60.045 38.2197C59.8068 37.818 59.465 37.4878 59.0553 37.2637L46.7997 30.5579C46.7995 30.5578 46.7994 30.5578 46.7992 30.5577C46.4163 30.3462 45.986 30.2353 45.5486 30.2353C45.1113 30.2353 44.681 30.3462 44.2982 30.5576C44.298 30.5577 44.2978 30.5578 44.2976 30.5579L32.042 37.2665C31.8241 37.3857 31.6253 37.535 31.4512 37.709C31.2985 37.8616 31.1648 38.0332 31.0535 38.2204C30.8154 38.6211 30.6892 39.0784 30.6881 39.5446V39.5454V52.8665L30.6881 52.8674C30.6892 53.3335 30.8154 53.7908 31.0535 54.1916C31.2917 54.5923 31.633 54.9217 32.0419 55.1454C32.0419 55.1454 32.0419 55.1455 32.042 55.1455L44.2976 61.854L60.4091 39.5467ZM51.0086 20.5555L51.21 20.8212L51.4975 20.6523L58.7393 16.3978L60.7296 24.3198L60.8126 24.65L61.1493 24.5992L69.5231 23.336L68.213 31.3733L68.1565 31.7194L68.4981 31.7989L76.7226 33.7112L72.3199 40.6467L72.1279 40.9491L72.4212 41.1547L79.2492 45.9425L72.4212 50.7303L72.1279 50.936L72.3199 51.2383L76.7226 58.1738L68.4981 60.0862L68.1565 60.1656L68.213 60.5118L69.5231 68.5491L62.9142 67.5521L62.4833 67.4871V67.9229L62.4834 93.1857L46.8503 79.8124L46.6066 79.6039L46.3628 79.8124L46.3627 79.8125L46.3624 79.8127L46.3612 79.8138L46.3553 79.8189L46.3226 79.8468L46.1209 80.0194L44.7455 81.196L42.7204 82.9283L42.7203 82.9284L42.7201 82.9286L42.7198 82.9288L42.7195 82.9291L42.7178 82.9305L42.7173 82.931L42.7093 82.9378L42.7087 82.9383L42.6253 83.0096L42.3991 83.2032L41.7785 83.7341L34.6953 89.7934L34.1424 90.2663L31.2582 92.7336L30.7298 93.1856L30.7297 67.7434V67.3075L30.2988 67.3725L22.4999 68.5491L23.81 60.5118L23.8664 60.1656L23.5248 60.0862L15.3004 58.1738L19.703 51.2383L19.895 50.936L19.6017 50.7303L12.7737 45.9425L19.6017 41.1547L19.895 40.9491L19.703 40.6467L15.3004 33.7112L23.5248 31.7989L23.8664 31.7194L23.81 31.3733L22.4999 23.336L30.8737 24.5992L31.2103 24.65L31.2933 24.3198L33.2837 16.3978L40.5255 20.6523L40.813 20.8212L41.0143 20.5555L46.0115 13.9601L51.0086 20.5555ZM45.5486 44.6656L35.1379 38.9646L45.5486 33.2637L55.9593 38.9646L45.5486 44.6656ZM47.0379 47.2416L57.4306 41.5542V52.6444L47.0379 58.3383V47.2416Z" fill="#1C2028" stroke="#1C2028" stroke-width="0.75"/>
<path d="M69.1404 30.346L70.3267 23.068L77.2979 16.0968L76.1115 23.3748L69.1404 30.346Z" fill="#1C2028" stroke="#1C2028" stroke-width="0.75" stroke-linejoin="round"/>
<path d="M62.1645 23.6875L69.1504 16.7017L76.7839 15.5501L69.7981 22.536L62.1645 23.6875Z" fill="#1C2028" stroke="#1C2028" stroke-width="0.75" stroke-linejoin="round"/>
<path d="M76.5801 23.9666L84.4591 25.7986L77.2048 33.053L69.3258 31.221L76.5801 23.9666Z" fill="#1C2028" stroke="#1C2028" stroke-width="0.75" stroke-linejoin="round"/>
<path d="M61.2962 23.4954L59.3968 15.9356L66.6578 8.67451L68.5572 16.2343L61.2962 23.4954Z" fill="#1C2028" stroke="#1C2028" stroke-width="0.75" stroke-linejoin="round"/>
<path d="M80.2212 32.7325L74.7747 38.179L77.6171 33.7014L83.0636 28.2549L80.2212 32.7325Z" fill="#1C2028" stroke="#1C2028" stroke-width="0.75" stroke-linejoin="round"/>
<path d="M53.6475 18.5192L59.4179 12.7488L64.5201 9.75129L58.7497 15.5217L53.6475 18.5192Z" fill="#1C2028" stroke="#1C2028" stroke-width="0.75" stroke-linejoin="round"/>
<path d="M73.2175 40.7969L80.5581 33.4563L87.2006 38.114L79.8599 45.4546L73.2175 40.7969Z" fill="#1C2028" stroke="#1C2028" stroke-width="0.75" stroke-linejoin="round"/>
<path d="M58.6904 12.4158L51.3466 19.7595L46.5078 13.3731L53.8515 6.02936L58.6904 12.4158Z" fill="#1C2028" stroke="#1C2028" stroke-width="0.75" stroke-linejoin="round"/>
<path d="M75.9442 48.2601L80.7577 43.4466L84.4739 40.8408L79.6604 45.6543L75.9442 48.2601Z" fill="#1C2028" stroke="#1C2028" stroke-width="0.75" stroke-linejoin="round"/>
<path d="M46.2949 13.586L50.291 9.58997L48.3112 12.2029L44.3152 16.1989L46.2949 13.586Z" fill="#1C2028" stroke="#1C2028" stroke-width="0.75" stroke-linejoin="round"/>
<path d="M59.4611 37.5378L66.8063 30.1926C66.9202 30.2791 67.0238 30.3785 67.1148 30.4889L59.7678 37.8359C59.6739 37.7283 59.5713 37.6286 59.4611 37.5378Z" fill="#1C2028" stroke="#1C2028" stroke-width="0.75" stroke-linejoin="round"/>
<path d="M60.1818 38.4823L67.4756 31.1886C67.5045 31.2963 67.5236 31.4067 67.5327 31.5183L60.2886 38.7625C60.2584 38.6673 60.2228 38.5737 60.1818 38.4823Z" fill="#1C2028" stroke="#1C2028" stroke-width="0.75" stroke-linejoin="round"/>
<path d="M84.7241 50.4874L77.3884 57.8231L73.1142 51.09L80.4498 43.7543L84.7241 50.4874Z" fill="#1C2028" stroke="#1C2028" stroke-width="0.75" stroke-linejoin="round"/>
<path d="M33.6506 15.743L40.9818 8.41188L47.9871 12.5275L40.656 19.8586L33.6506 15.743Z" fill="#1C2028" stroke="#1C2028" stroke-width="0.75" stroke-linejoin="round"/>
<path d="M47.238 30.7974L54.5645 23.4709L66.1359 29.8023L58.8094 37.1288L47.238 30.7974Z" fill="#1C2028" stroke="#1C2028" stroke-width="0.75" stroke-linejoin="round"/>
<path d="M46.3325 30.3569L53.577 23.1123C53.6605 23.1191 53.7432 23.1316 53.8246 23.1496L46.541 30.4332C46.4726 30.4047 46.403 30.3793 46.3325 30.3569Z" fill="#1C2028" stroke="#1C2028" stroke-width="0.75" stroke-linejoin="round"/>
<path d="M46.1676 32.7475L53.4942 25.4209L64.0003 31.1741L56.6737 38.5007L46.1676 32.7475Z" fill="#1C2028" stroke="#1C2028" stroke-width="0.75" stroke-linejoin="round"/>
<mask id="path-19-inside-1_8_17376" fill="white">
<path d="M52.3581 23.0071C52.6856 22.8261 53.0536 22.7312 53.4278 22.7312L45.5487 30.6103C45.1745 30.6103 44.8065 30.7052 44.479 30.8861L52.3581 23.0071Z"/>
</mask>
<path d="M52.3581 23.0071C52.6856 22.8261 53.0536 22.7312 53.4278 22.7312L45.5487 30.6103C45.1745 30.6103 44.8065 30.7052 44.479 30.8861L52.3581 23.0071Z" fill="#1C2028"/>
<path d="M53.4278 22.7312L53.9581 23.2615C54.1726 23.047 54.2368 22.7244 54.1207 22.4442C54.0046 22.1639 53.7311 21.9812 53.4278 21.9812V22.7312ZM52.3581 23.0071L51.9954 22.3506C51.9339 22.3846 51.8774 22.4271 51.8277 22.4767L52.3581 23.0071ZM44.479 30.8861L43.9487 30.3558C43.6844 30.6201 43.655 31.0385 43.8797 31.3371C44.1044 31.6357 44.5146 31.7233 44.8417 31.5426L44.479 30.8861ZM45.5487 30.6103V31.3603C45.7476 31.3603 45.9384 31.2813 46.079 31.1406L45.5487 30.6103ZM53.4278 21.9812C52.9267 21.9812 52.4339 22.1083 51.9954 22.3506L52.7208 23.6635C52.9372 23.5439 53.1805 23.4812 53.4278 23.4812V21.9812ZM51.8277 22.4767L43.9487 30.3558L45.0093 31.4165L52.8884 23.5374L51.8277 22.4767ZM44.8417 31.5426C45.0582 31.423 45.3014 31.3603 45.5487 31.3603V29.8603C45.0477 29.8603 44.5548 29.9874 44.1163 30.2297L44.8417 31.5426ZM46.079 31.1406L53.9581 23.2615L52.8974 22.2009L45.0184 30.0799L46.079 31.1406Z" fill="#1C2028" mask="url(#path-19-inside-1_8_17376)"/>
<path d="M60.4091 39.7021L67.5381 32.5731V44.8321L60.4091 51.9612V39.7021Z" fill="#1C2028" stroke="#1C2028" stroke-width="0.75" stroke-linejoin="round"/>
<path d="M69.7758 59.7892L76.6516 52.9134L84.0091 51.2026L77.1333 58.0784L69.7758 59.7892Z" fill="#1C2028" stroke="#1C2028" stroke-width="0.75" stroke-linejoin="round"/>
<path d="M33.3807 16.0126L40.227 9.16633L38.4706 16.1573L31.6243 23.0036L33.3807 16.0126Z" fill="#1C2028" stroke="#1C2028" stroke-width="0.75" stroke-linejoin="round"/>
<path d="M58.1807 51.9612V41.0769L65.3097 33.9478V44.8321L58.1807 51.9612Z" fill="#1C2028" stroke="#1C2028" stroke-width="0.75" stroke-linejoin="round"/>
<path d="M46.0137 45.1583L53.655 37.5171L62.5019 32.6725L56.4874 38.6869L46.8512 46.6681L46.0137 45.1583Z" fill="#1C2028" stroke="#1C2028" stroke-width="0.75" stroke-linejoin="round"/>
<path d="M48.7784 45.4342L54.7691 39.4435L63.5691 34.6277L57.5784 40.6184L48.7784 45.4342Z" fill="#1C2028" stroke="#1C2028" stroke-width="0.75" stroke-linejoin="round"/>
<mask id="path-27-inside-2_8_17376" fill="white">
<path d="M67.9136 44.9873C67.9127 45.3863 67.8047 45.7778 67.6008 46.1208L59.7217 53.9998C59.9256 53.6568 60.0336 53.2654 60.0345 52.8664L67.9136 44.9873Z"/>
</mask>
<path d="M67.9136 44.9873C67.9127 45.3863 67.8047 45.7778 67.6008 46.1208L59.7217 53.9998C59.9256 53.6568 60.0336 53.2654 60.0345 52.8664L67.9136 44.9873Z" fill="#1C2028"/>
<path d="M67.6008 46.1208L68.1311 46.6511C68.1753 46.607 68.2137 46.5575 68.2456 46.5039L67.6008 46.1208ZM67.9136 44.9873L68.6636 44.989C68.6643 44.6854 68.4818 44.4112 68.2014 44.2947C67.921 44.1782 67.598 44.2423 67.3832 44.457L67.9136 44.9873ZM60.0345 52.8664L59.5042 52.336C59.3639 52.4763 59.285 52.6664 59.2845 52.8647L60.0345 52.8664ZM59.7217 53.9998L59.077 53.6167C58.8838 53.9418 58.9629 54.3599 59.2614 54.592C59.56 54.8241 59.9847 54.7976 60.2521 54.5302L59.7217 53.9998ZM68.2456 46.5039C68.518 46.0455 68.6624 45.5223 68.6636 44.989L67.1636 44.9856C67.163 45.2503 67.0913 45.51 66.9561 45.7376L68.2456 46.5039ZM67.3832 44.457L59.5042 52.336L60.5648 53.3967L68.4439 45.5176L67.3832 44.457ZM59.2845 52.8647C59.2839 53.1294 59.2122 53.3891 59.077 53.6167L60.3665 54.383C60.6389 53.9246 60.7833 53.4014 60.7845 52.8681L59.2845 52.8647ZM60.2521 54.5302L68.1311 46.6511L67.0705 45.5904L59.1914 53.4695L60.2521 54.5302Z" fill="#1C2028" mask="url(#path-27-inside-2_8_17376)"/>
<mask id="path-29-inside-3_8_17376" fill="white">
<path d="M67.6006 46.1206C67.5053 46.2808 67.3908 46.4277 67.2602 46.5583L59.382 54.4365C59.5123 54.3062 59.6265 54.1595 59.7215 53.9997L67.6006 46.1206Z"/>
</mask>
<path d="M67.6006 46.1206C67.5053 46.2808 67.3908 46.4277 67.2602 46.5583L59.382 54.4365C59.5123 54.3062 59.6265 54.1595 59.7215 53.9997L67.6006 46.1206Z" fill="#1C2028"/>
<path d="M59.1167 54.1715C59.1167 54.1715 59.1167 54.1715 59.1166 54.1715C59.1166 54.1716 59.1166 54.1716 59.1165 54.1717C59.1164 54.1718 59.1161 54.1721 59.1159 54.1723L59.6463 54.7025C59.6464 54.7025 59.6464 54.7024 59.6466 54.7022C59.6467 54.7021 59.647 54.7018 59.6473 54.7016L59.1167 54.1715ZM67.2602 46.5583L66.73 46.0279L66.7298 46.028L67.2602 46.5583ZM67.6006 46.1206L68.2453 46.5038C68.4385 46.1787 68.3594 45.7606 68.0609 45.5285C67.7623 45.2964 67.3376 45.3229 67.0702 45.5903L67.6006 46.1206ZM59.7215 53.9997L59.1912 53.4694C59.1471 53.5135 59.1086 53.5629 59.0768 53.6165L59.7215 53.9997ZM59.382 54.4365L58.8515 53.9064C58.5587 54.1993 58.5588 54.6741 58.8517 54.9669C59.1446 55.2598 59.6195 55.2597 59.9123 54.9669L59.382 54.4365ZM67.7904 47.0888C67.965 46.9143 68.118 46.7179 68.2453 46.5038L66.9558 45.7374C66.8927 45.8438 66.8167 45.9412 66.73 46.0279L67.7904 47.0888ZM67.0702 45.5903L59.1912 53.4694L60.2518 54.53L68.1309 46.6509L67.0702 45.5903ZM59.0768 53.6165C59.0137 53.7226 58.938 53.8199 58.8515 53.9064L59.9125 54.9667C60.0866 54.7925 60.2393 54.5965 60.3662 54.3828L59.0768 53.6165ZM59.9123 54.9669L67.7905 47.0887L66.7298 46.028L58.8517 53.9062L59.9123 54.9669Z" fill="#1C2028" mask="url(#path-29-inside-3_8_17376)"/>
<path d="M70.2284 68.2141L68.9842 60.5809L76.2098 53.3552L77.4541 60.9884L70.2284 68.2141Z" fill="#1C2028" stroke="#1C2028" stroke-width="0.75" stroke-linejoin="round"/>
<mask id="path-32-inside-4_8_17376" fill="white">
<path d="M67.2606 46.5583C67.1116 46.7073 66.9415 46.8351 66.7549 46.9371L58.8759 54.8162C59.0624 54.7141 59.2325 54.5864 59.3815 54.4374L67.2606 46.5583Z"/>
</mask>
<path d="M67.2606 46.5583C67.1116 46.7073 66.9415 46.8351 66.7549 46.9371L58.8759 54.8162C59.0624 54.7141 59.2325 54.5864 59.3815 54.4374L67.2606 46.5583Z" fill="#1C2028"/>
<path d="M66.7549 46.9371L66.3949 46.2792C66.3324 46.3134 66.275 46.3564 66.2246 46.4068L66.7549 46.9371ZM67.2606 46.5583L67.7909 47.0887C68.0838 46.7958 68.0838 46.321 67.791 46.0281C67.4982 45.7352 67.0234 45.7351 66.7304 46.0279L67.2606 46.5583ZM59.3815 54.4374L59.9117 54.9679L59.9119 54.9678L59.3815 54.4374ZM58.8759 54.8162L58.3455 54.2859C58.0817 54.5497 58.0519 54.9673 58.2756 55.2659C58.4994 55.5645 58.9085 55.6532 59.2359 55.4742L58.8759 54.8162ZM67.1149 47.5951C67.3642 47.4587 67.5916 47.2879 67.7908 47.0888L66.7304 46.0279C66.6315 46.1267 66.5187 46.2115 66.3949 46.2792L67.1149 47.5951ZM66.7303 46.028L58.8512 53.9071L59.9119 54.9678L67.7909 47.0887L66.7303 46.028ZM58.8514 53.9069C58.7525 54.0058 58.6396 54.0905 58.5159 54.1583L59.2359 55.4742C59.4851 55.3378 59.7125 55.167 59.9117 54.9679L58.8514 53.9069ZM59.4062 55.3465L67.2853 47.4675L66.2246 46.4068L58.3455 54.2859L59.4062 55.3465Z" fill="#1C2028" mask="url(#path-32-inside-4_8_17376)"/>
<path d="M34.3383 36.0096L40.3284 30.0195L50.2419 24.593L44.2519 30.583L34.3383 36.0096Z" fill="#1C2028" stroke="#1C2028" stroke-width="0.75" stroke-linejoin="round"/>
<path d="M36.4749 37.3776L42.4638 31.3886L51.3107 26.544L45.3218 32.533L36.4749 37.3776Z" fill="#1C2028" stroke="#1C2028" stroke-width="0.75" stroke-linejoin="round"/>
<path d="M30.0576 15.4083L38.0186 16.6093L30.7986 23.8293L22.8376 22.6283L30.0576 15.4083Z" fill="#1C2028" stroke="#1C2028" stroke-width="0.75" stroke-linejoin="round"/>
<path d="M63.6488 67.6628L70.8688 60.4427L77.0649 61.3775L69.8449 68.5975L63.6488 67.6628Z" fill="#1C2028" stroke="#1C2028" stroke-width="0.75" stroke-linejoin="round"/>
<path d="M32.9772 37.7424L42.2561 31.5237L52.809 37.3025L45.483 44.6286L32.9772 37.7424Z" fill="#1C2028" stroke="#1C2028" stroke-width="0.75" stroke-linejoin="round"/>
<path d="M48.7816 57.3828L54.7692 51.3952L63.566 46.5757L57.5784 52.5633L48.7816 57.3828Z" fill="#1C2028" stroke="#1C2028" stroke-width="0.75" stroke-linejoin="round"/>
<path d="M22.4483 23.0177L29.6739 15.792L30.9182 23.4252L23.6925 30.6508L22.4483 23.0177Z" fill="#1C2028" stroke="#1C2028" stroke-width="0.75" stroke-linejoin="round"/>
<path d="M48.7351 59.9397L54.7252 53.9497L64.6387 48.5232L58.6487 54.5132L48.7351 59.9397Z" fill="#1C2028" stroke="#1C2028" stroke-width="0.75" stroke-linejoin="round"/>
<mask id="path-42-inside-5_8_17376" fill="white">
<path d="M39.5956 30.0951C39.7446 29.9461 39.9147 29.8184 40.1013 29.7163L32.2222 37.5954C32.0357 37.6974 31.8656 37.8252 31.7165 37.9742L39.5956 30.0951Z"/>
</mask>
<path d="M39.5956 30.0951C39.7446 29.9461 39.9147 29.8184 40.1013 29.7163L32.2222 37.5954C32.0357 37.6974 31.8656 37.8252 31.7165 37.9742L39.5956 30.0951Z" fill="#1C2028"/>
<path d="M40.1013 29.7163L40.6316 30.2466C40.8954 29.9828 40.9252 29.5652 40.7015 29.2666C40.4777 28.968 40.0686 28.8793 39.7413 29.0584L40.1013 29.7163ZM39.5956 30.0951L39.0654 29.5646L39.0652 29.5648L39.5956 30.0951ZM31.7165 37.9742L31.1862 37.4438C30.8933 37.7367 30.8933 38.2115 31.1861 38.5044C31.4789 38.7973 31.9537 38.7974 32.2467 38.5046L31.7165 37.9742ZM32.2222 37.5954L32.5822 38.2533C32.6447 38.2191 32.7021 38.1761 32.7525 38.1257L32.2222 37.5954ZM39.7413 29.0584C39.492 29.1948 39.2646 29.3655 39.0654 29.5646L40.1257 30.6256C40.2246 30.5267 40.3375 30.442 40.4612 30.3743L39.7413 29.0584ZM39.0652 29.5648L31.1862 37.4438L32.2468 38.5045L40.1259 30.6254L39.0652 29.5648ZM32.2467 38.5046C32.3456 38.4058 32.4584 38.321 32.5822 38.2533L31.8622 36.9374C31.6129 37.0738 31.3855 37.2446 31.1863 37.4437L32.2467 38.5046ZM32.7525 38.1257L40.6316 30.2466L39.5709 29.186L31.6918 37.0651L32.7525 38.1257Z" fill="#1C2028" mask="url(#path-42-inside-5_8_17376)"/>
<path d="M47.0379 47.1745L54.167 40.0455V50.9367L47.0379 58.0658V47.1745Z" fill="#1C2028" stroke="#1C2028" stroke-width="0.75" stroke-linejoin="round"/>
<mask id="path-45-inside-6_8_17376" fill="white">
<path d="M39.255 30.533C39.35 30.3731 39.4642 30.2265 39.5945 30.0961L31.7163 37.9743C31.5856 38.1049 31.4711 38.2518 31.3759 38.412L39.255 30.533Z"/>
</mask>
<path d="M39.255 30.533C39.35 30.3731 39.4642 30.2265 39.5945 30.0961L31.7163 37.9743C31.5856 38.1049 31.4711 38.2518 31.3759 38.412L39.255 30.533Z" fill="#1C2028"/>
<path d="M39.3301 29.8302C39.33 29.8302 39.33 29.8303 39.3298 29.8304C39.3297 29.8306 39.3294 29.8309 39.3291 29.8311L39.8599 30.3611C39.8599 30.3611 39.8599 30.361 39.8599 30.361C39.86 30.361 39.86 30.3609 39.8601 30.3609C39.8602 30.3608 39.8604 30.3605 39.8607 30.3602L39.3301 29.8302ZM39.5945 30.0961L40.125 30.6263C40.4178 30.3333 40.4177 29.8585 40.1248 29.5657C39.8319 29.2729 39.357 29.2729 39.0642 29.5658L39.5945 30.0961ZM39.255 30.533L39.7853 31.0633C39.8294 31.0192 39.8679 30.9697 39.8997 30.9161L39.255 30.533ZM31.3759 38.412L30.7312 38.0289C30.538 38.354 30.617 38.772 30.9156 39.0042C31.2142 39.2363 31.6388 39.2098 31.9062 38.9424L31.3759 38.412ZM31.7163 37.9743L32.2465 38.5048L32.2466 38.5046L31.7163 37.9743ZM39.064 29.5659C38.8899 29.7402 38.7372 29.9361 38.6103 30.1498L39.8997 30.9161C39.9628 30.81 40.0385 30.7128 40.125 30.6263L39.064 29.5659ZM38.7247 30.0026L30.8456 37.8817L31.9062 38.9424L39.7853 31.0633L38.7247 30.0026ZM32.0207 38.7952C32.0838 38.6889 32.1598 38.5914 32.2465 38.5048L31.1861 37.4438C31.0115 37.6184 30.8584 37.8147 30.7312 38.0289L32.0207 38.7952ZM32.2466 38.5046L40.1248 30.6264L39.0642 29.5658L31.186 37.444L32.2466 38.5046Z" fill="#1C2028" mask="url(#path-45-inside-6_8_17376)"/>
<mask id="path-47-inside-7_8_17376" fill="white">
<path d="M38.9421 31.6662C38.943 31.2672 39.051 30.8757 39.2549 30.5327L31.3758 38.4118C31.172 38.7548 31.064 39.1462 31.063 39.5452L38.9421 31.6662Z"/>
</mask>
<path d="M38.9421 31.6662C38.943 31.2672 39.051 30.8757 39.2549 30.5327L31.3758 38.4118C31.172 38.7548 31.064 39.1462 31.063 39.5452L38.9421 31.6662Z" fill="#1C2028"/>
<path d="M39.2549 30.5327L39.8996 30.9159C40.0928 30.5908 40.0138 30.1727 39.7152 29.9406C39.4166 29.7085 38.992 29.735 38.7246 30.0024L39.2549 30.5327ZM38.9421 31.6662L39.4725 32.1965C39.6127 32.0563 39.6917 31.8662 39.6921 31.6679L38.9421 31.6662ZM31.063 39.5452L30.3131 39.5435C30.3124 39.8472 30.4948 40.1213 30.7753 40.2378C31.0557 40.3544 31.3787 40.2903 31.5934 40.0756L31.063 39.5452ZM31.3758 38.4118L30.8455 37.8815C30.8014 37.9256 30.7629 37.975 30.7311 38.0286L31.3758 38.4118ZM38.6101 30.1496C38.3377 30.608 38.1933 31.1312 38.1921 31.6645L39.6921 31.6679C39.6927 31.4031 39.7644 31.1434 39.8996 30.9159L38.6101 30.1496ZM38.4118 31.1358L30.5327 39.0149L31.5934 40.0756L39.4725 32.1965L38.4118 31.1358ZM31.813 39.5469C31.8136 39.2822 31.8853 39.0225 32.0206 38.7949L30.7311 38.0286C30.4586 38.4871 30.3143 39.0103 30.3131 39.5435L31.813 39.5469ZM31.9061 38.9421L39.7852 31.063L38.7246 30.0024L30.8455 37.8815L31.9061 38.9421Z" fill="#1C2028" mask="url(#path-47-inside-7_8_17376)"/>
<path d="M15.8931 32.8031L22.7689 25.9273L30.1264 24.2165L23.2506 31.0923L15.8931 32.8031Z" fill="#1C2028" stroke="#1C2028" stroke-width="0.75" stroke-linejoin="round"/>
<path d="M31.438 51.9611V39.7007L38.5671 32.5716V44.832L31.438 51.9611Z" fill="#1C2028" stroke="#1C2028" stroke-width="0.75" stroke-linejoin="round"/>
<mask id="path-51-inside-8_8_17376" fill="white">
<path d="M54.4975 53.6467C54.17 53.8277 53.8019 53.9226 53.4278 53.9226L45.5487 61.8017C45.9229 61.8017 46.2909 61.7068 46.6184 61.5258L54.4975 53.6467Z"/>
</mask>
<path d="M54.4975 53.6467C54.17 53.8277 53.8019 53.9226 53.4278 53.9226L45.5487 61.8017C45.9229 61.8017 46.2909 61.7068 46.6184 61.5258L54.4975 53.6467Z" fill="#1C2028"/>
<path d="M53.4278 53.9226V53.1726C53.2289 53.1726 53.0381 53.2516 52.8975 53.3923L53.4278 53.9226ZM54.4975 53.6467L55.0278 54.1771C55.292 53.9128 55.3215 53.4944 55.0968 53.1958C54.8721 52.8972 54.4618 52.8095 54.1348 52.9903L54.4975 53.6467ZM46.6184 61.5258L46.9811 62.1823C47.0426 62.1483 47.099 62.1058 47.1487 62.0561L46.6184 61.5258ZM45.5487 61.8017L45.0184 61.2713C44.8039 61.4858 44.7397 61.8084 44.8558 62.0887C44.9719 62.3689 45.2454 62.5517 45.5487 62.5517V61.8017ZM53.4278 54.6726C53.9288 54.6726 54.4217 54.5455 54.8602 54.3032L54.1348 52.9903C53.9183 53.1099 53.6751 53.1726 53.4278 53.1726V54.6726ZM53.9671 53.1164L46.0881 60.9955L47.1487 62.0561L55.0278 54.1771L53.9671 53.1164ZM46.2557 60.8694C46.0392 60.9889 45.796 61.0517 45.5487 61.0517V62.5517C46.0497 62.5517 46.5426 62.4246 46.9811 62.1823L46.2557 60.8694ZM46.079 62.332L53.9581 54.4529L52.8975 53.3923L45.0184 61.2713L46.079 62.332Z" fill="#1C2028" mask="url(#path-51-inside-8_8_17376)"/>
<path d="M45.1518 61.3833L52.4354 54.0997C52.5039 54.1281 52.5735 54.1536 52.644 54.176L45.3994 61.4206C45.316 61.4138 45.2333 61.4013 45.1518 61.3833Z" fill="#1C2028" stroke="#1C2028" stroke-width="0.75" stroke-linejoin="round"/>
<path d="M63.2335 93.0945L63.2335 68.0781L70.3625 60.949L70.3626 85.9654L63.2335 93.0945Z" fill="#1C2028" stroke="#1C2028" stroke-width="0.75" stroke-linejoin="round"/>
<path d="M32.8411 54.7277L40.1676 47.4011L51.7391 53.7352L44.4126 61.0617L32.8411 54.7277Z" fill="#1C2028" stroke="#1C2028" stroke-width="0.75" stroke-linejoin="round"/>
<path d="M15.1781 33.5182L22.5137 26.1825L26.788 32.9157L19.4523 40.2513L15.1781 33.5182Z" fill="#1C2028" stroke="#1C2028" stroke-width="0.75" stroke-linejoin="round"/>
<path d="M38.7959 46.0494L31.5019 53.3435C31.473 53.2363 31.4537 53.1264 31.4445 53.0153L38.6893 45.7705C38.7194 45.8653 38.755 45.9584 38.7959 46.0494Z" fill="#1C2028" stroke="#1C2028" stroke-width="0.75" stroke-linejoin="round"/>
<path d="M31.8634 54.0425L39.2105 46.6955C39.304 46.8025 39.4061 46.9017 39.5159 46.992L32.1706 54.3372C32.0572 54.2511 31.9541 54.1522 31.8634 54.0425Z" fill="#1C2028" stroke="#1C2028" stroke-width="0.75" stroke-linejoin="round"/>
<path d="M15.4282 43.1651L20.2417 38.3516L23.9579 35.7458L19.1444 40.5593L15.4282 43.1651Z" fill="#1C2028" stroke="#1C2028" stroke-width="0.75" stroke-linejoin="round"/>
<path d="M47.1588 80.0756L54.5059 72.7285L70.1861 86.142L62.8389 93.4891L47.1588 80.0756Z" fill="#1C2028" stroke="#1C2028" stroke-width="0.75" stroke-linejoin="round"/>
<path d="M12.7015 45.8919L20.0421 38.5513L26.6846 43.209L19.3439 50.5496L12.7015 45.8919Z" fill="#1C2028" stroke="#1C2028" stroke-width="0.75" stroke-linejoin="round"/>
<path d="M19.681 51.2732L25.1275 45.8267L22.2851 50.3042L16.8386 55.7507L19.681 51.2732Z" fill="#1C2028" stroke="#1C2028" stroke-width="0.75" stroke-linejoin="round"/>
<path d="M15.4431 58.207L22.6974 50.9527L30.5764 52.7847L23.3221 60.0391L15.4431 58.207Z" fill="#1C2028" stroke="#1C2028" stroke-width="0.75" stroke-linejoin="round"/>
<path d="M23.7908 60.6313L30.762 53.6601L29.5757 60.938L22.6045 67.9092L23.7908 60.6313Z" fill="#1C2028" stroke="#1C2028" stroke-width="0.75" stroke-linejoin="round"/>
<path d="M23.1184 68.4555L30.1042 61.4697L37.1629 60.4048L30.1771 67.3907L23.1184 68.4555Z" fill="#1C2028" stroke="#1C2028" stroke-width="0.75" stroke-linejoin="round"/>
<path d="M42.0216 83.5258L43.073 82.4744L47.403 78.7703L46.3517 79.8216L42.0216 83.5258Z" fill="#1C2028" stroke="#1C2028" stroke-width="0.75" stroke-linejoin="round"/>
<mask id="path-67-inside-9_8_17376" fill="white">
<path d="M42.8181 82.1993C52.5208 73.8992 51.2978 74.9453 49.9013 76.14L42.0223 84.019C43.6368 82.6379 42.8608 83.3017 42.0222 84.019L42.0223 84.019C40.948 84.9379 38.8155 86.7622 34.939 90.0783L42.8181 82.1993Z"/>
</mask>
<path d="M42.8181 82.1993C52.5208 73.8992 51.2978 74.9453 49.9013 76.14L42.0223 84.019C43.6368 82.6379 42.8608 83.3017 42.0222 84.019L42.0223 84.019C40.948 84.9379 38.8155 86.7622 34.939 90.0783L42.8181 82.1993Z" fill="#1C2028"/>
<path d="M42.8181 82.1993L42.3306 81.6293C42.3158 81.642 42.3015 81.6552 42.2878 81.6689L42.8181 82.1993ZM49.9013 76.14L49.4138 75.57C49.399 75.5827 49.3847 75.5959 49.371 75.6096L49.9013 76.14ZM42.0222 84.019L41.4873 83.4933C41.2058 83.7798 41.1999 84.2371 41.4739 84.5307C41.7479 84.8244 42.2046 84.85 42.5098 84.5889L42.0222 84.019ZM34.939 90.0783L34.4087 89.548C34.1238 89.8329 34.1149 90.2919 34.3885 90.5876C34.6621 90.8834 35.1204 90.9101 35.4266 90.6483L34.939 90.0783ZM43.3056 82.7692C48.157 78.6191 50.2769 76.8056 51.0094 76.179C51.1926 76.0224 51.289 75.9399 51.3197 75.9136C51.3235 75.9103 51.3263 75.9079 51.3282 75.9064C51.3291 75.9056 51.3297 75.905 51.3302 75.9046C51.3304 75.9045 51.3305 75.9043 51.3306 75.9043C51.3306 75.9042 51.3306 75.9042 51.3306 75.9042C51.3302 75.9046 50.2729 75.8213 50.3555 74.7644C50.3555 74.7644 50.3553 74.7646 50.3548 74.7651C50.3543 74.7655 50.3535 74.7661 50.3525 74.767C50.3506 74.7686 50.3477 74.7711 50.344 74.7743C50.3291 74.787 50.3005 74.8115 50.2606 74.8456C50.1012 74.982 49.7629 75.2714 49.4138 75.57L50.3889 76.7099C50.738 76.4112 51.0762 76.1218 51.2357 75.9855C51.2755 75.9514 51.3042 75.9268 51.3191 75.9141C51.3265 75.9078 51.3306 75.9043 51.3308 75.904C51.4135 74.8471 50.3562 74.7639 50.3557 74.7642C50.3557 74.7643 50.3556 74.7643 50.3556 74.7644C50.3555 74.7645 50.3553 74.7646 50.3551 74.7648C50.3547 74.7651 50.354 74.7657 50.3531 74.7665C50.3513 74.7681 50.3485 74.7705 50.3446 74.7738C50.3139 74.8 50.2175 74.8825 50.0344 75.0392C49.3018 75.6658 47.1819 77.4793 42.3306 81.6293L43.3056 82.7692ZM49.371 75.6096L41.4919 83.4887L42.5526 84.5493L50.4317 76.6703L49.371 75.6096ZM41.4874 83.4933L41.4873 83.4933L42.5572 84.5447L42.5572 84.5447L41.4874 83.4933ZM42.5098 84.5889C42.929 84.2303 43.3327 83.885 43.4297 83.802C43.4418 83.7917 43.4491 83.7854 43.4511 83.7837C43.4514 83.7835 43.4516 83.7833 43.4517 83.7832C43.4517 83.7832 43.4517 83.7831 43.4518 83.7831C43.4519 83.783 43.5342 82.726 42.4773 82.6428C42.477 82.643 42.4767 82.6433 42.4767 82.6433C42.4766 82.6433 42.4766 82.6434 42.4766 82.6434C42.4764 82.6436 42.4758 82.6441 42.4749 82.6448C42.4732 82.6463 42.47 82.649 42.4653 82.653C42.4467 82.669 42.4044 82.7052 42.3338 82.7656C42.1926 82.8863 41.9384 83.1038 41.5347 83.4491L42.5098 84.5889C42.9134 84.2436 43.1676 84.0262 43.3088 83.9054C43.3794 83.845 43.4218 83.8088 43.4404 83.7929C43.445 83.7889 43.4482 83.7862 43.45 83.7847C43.4509 83.7839 43.4514 83.7835 43.4515 83.7833C43.4519 83.783 43.4514 83.7835 43.4509 83.7838C42.394 83.7007 42.4763 82.6436 42.4764 82.6435C42.4765 82.6435 42.4765 82.6435 42.4765 82.6435C42.4764 82.6435 42.4763 82.6436 42.476 82.6439C42.4741 82.6455 42.4667 82.6518 42.4546 82.6622C42.3576 82.7452 41.954 83.0904 41.5347 83.4491L42.5098 84.5889ZM41.5347 83.4491C40.4605 84.368 38.328 86.1923 34.4515 89.5084L35.4266 90.6483C39.3031 87.3321 41.4356 85.5079 42.5098 84.5889L41.5347 83.4491ZM35.4694 90.6087L43.3484 82.7296L42.2878 81.6689L34.4087 89.548L35.4694 90.6087Z" fill="#1C2028" mask="url(#path-67-inside-9_8_17376)"/>
<path d="M30.7297 67.8984L37.8588 60.7693L37.8588 85.9653L30.7297 93.0943L30.7297 67.8984Z" fill="#1C2028" stroke="#1C2028" stroke-width="0.75" stroke-linejoin="round"/>
<path d="M37.4378 87.4476L38.4892 86.3963L42.8192 82.6922L41.7679 83.7435L37.4378 87.4476Z" fill="#1C2028" stroke="#1C2028" stroke-width="0.75" stroke-linejoin="round"/>
<mask id="path-71-inside-10_8_17376" fill="white">
<path fill-rule="evenodd" clip-rule="evenodd" d="M59.1868 12.4498L53.8908 5.45996L48.5947 12.4498L40.9213 7.94175L38.8089 16.3493L29.9263 15.0093L31.3192 23.5545L22.5796 25.5866L27.2658 32.9685L19.9998 38.0634L27.2658 43.1582L22.5796 50.5402L31.3192 52.5723L29.9263 61.1175L38.234 59.8642V62.2877L38.2341 86.1208L54.4859 72.2183L70.7377 86.1208L70.7376 62.2877V60.0437L77.8553 61.1175L76.4624 52.5723L85.2019 50.5402L80.5158 43.1582L87.7817 38.0634L80.5158 32.9685L85.2019 25.5866L76.4624 23.5545L77.8553 15.0093L68.9726 16.3493L66.8603 7.94175L59.1868 12.4498ZM54.4977 23.0071L66.7546 29.7136C67.1053 29.9055 67.3979 30.1881 67.6018 30.5319C67.8056 30.8758 67.9133 31.2681 67.9135 31.6678V44.9875C67.9126 45.3865 67.8045 45.7779 67.6007 46.1209C67.3969 46.4639 67.1047 46.7459 66.7546 46.9375L54.4977 53.6468C54.1702 53.8277 53.8021 53.9226 53.428 53.9226C53.0538 53.9226 52.6858 53.8277 52.3583 53.6468L40.1013 46.9375C39.7513 46.7459 39.4591 46.4639 39.2552 46.1209C39.0514 45.7779 38.9434 45.3865 38.9425 44.9875V31.6664C38.9434 31.2674 39.0514 30.8759 39.2552 30.5329C39.4591 30.1899 39.7513 29.9079 40.1013 29.7164L52.3583 23.0071C52.6858 22.8262 53.0538 22.7313 53.428 22.7313C53.8021 22.7313 54.1702 22.8262 54.4977 23.0071ZM42.2365 31.0856L53.428 37.2141L64.6194 31.0856L53.428 24.9571L42.2365 31.0856ZM54.5422 39.1404V51.0923L65.6849 44.9875V33.0425L54.5422 39.1404Z"/>
</mask>
<path fill-rule="evenodd" clip-rule="evenodd" d="M59.1868 12.4498L53.8908 5.45996L48.5947 12.4498L40.9213 7.94175L38.8089 16.3493L29.9263 15.0093L31.3192 23.5545L22.5796 25.5866L27.2658 32.9685L19.9998 38.0634L27.2658 43.1582L22.5796 50.5402L31.3192 52.5723L29.9263 61.1175L38.234 59.8642V62.2877L38.2341 86.1208L54.4859 72.2183L70.7377 86.1208L70.7376 62.2877V60.0437L77.8553 61.1175L76.4624 52.5723L85.2019 50.5402L80.5158 43.1582L87.7817 38.0634L80.5158 32.9685L85.2019 25.5866L76.4624 23.5545L77.8553 15.0093L68.9726 16.3493L66.8603 7.94175L59.1868 12.4498ZM54.4977 23.0071L66.7546 29.7136C67.1053 29.9055 67.3979 30.1881 67.6018 30.5319C67.8056 30.8758 67.9133 31.2681 67.9135 31.6678V44.9875C67.9126 45.3865 67.8045 45.7779 67.6007 46.1209C67.3969 46.4639 67.1047 46.7459 66.7546 46.9375L54.4977 53.6468C54.1702 53.8277 53.8021 53.9226 53.428 53.9226C53.0538 53.9226 52.6858 53.8277 52.3583 53.6468L40.1013 46.9375C39.7513 46.7459 39.4591 46.4639 39.2552 46.1209C39.0514 45.7779 38.9434 45.3865 38.9425 44.9875V31.6664C38.9434 31.2674 39.0514 30.8759 39.2552 30.5329C39.4591 30.1899 39.7513 29.9079 40.1013 29.7164L52.3583 23.0071C52.6858 22.8262 53.0538 22.7313 53.428 22.7313C53.8021 22.7313 54.1702 22.8262 54.4977 23.0071ZM42.2365 31.0856L53.428 37.2141L64.6194 31.0856L53.428 24.9571L42.2365 31.0856ZM54.5422 39.1404V51.0923L65.6849 44.9875V33.0425L54.5422 39.1404Z" fill="white"/>
<path d="M53.8908 5.45996L54.6878 4.85605L53.8908 3.80408L53.0937 4.85605L53.8908 5.45996ZM59.1868 12.4498L58.3898 13.0537L58.9267 13.7624L59.6934 13.3121L59.1868 12.4498ZM48.5947 12.4498L48.0882 13.3121L48.8548 13.7624L49.3918 13.0537L48.5947 12.4498ZM40.9213 7.94175L41.4278 7.07953L40.2767 6.40328L39.9514 7.69807L40.9213 7.94175ZM38.8089 16.3493L38.6597 17.3381L39.5575 17.4735L39.7788 16.5929L38.8089 16.3493ZM29.9263 15.0093L30.0754 14.0205L28.7185 13.8158L28.9393 15.1702L29.9263 15.0093ZM31.3192 23.5545L31.5457 24.5285L32.4566 24.3167L32.3061 23.3936L31.3192 23.5545ZM22.5796 25.5866L22.3532 24.6126L20.9796 24.932L21.7354 26.1225L22.5796 25.5866ZM27.2658 32.9685L27.8399 33.7873L28.6219 33.2389L28.11 32.4326L27.2658 32.9685ZM19.9998 38.0634L19.4257 37.2446L18.2581 38.0634L19.4257 38.8821L19.9998 38.0634ZM27.2658 43.1582L28.11 43.6942L28.6219 42.8878L27.8399 42.3394L27.2658 43.1582ZM22.5796 50.5402L21.7354 50.0042L20.9796 51.1948L22.3532 51.5142L22.5796 50.5402ZM31.3192 52.5723L32.3061 52.7332L32.4566 51.8101L31.5457 51.5983L31.3192 52.5723ZM29.9263 61.1175L28.9393 60.9566L28.7185 62.311L30.0754 62.1063L29.9263 61.1175ZM38.234 59.8642H39.234V58.702L38.0849 58.8754L38.234 59.8642ZM38.234 62.2877H37.234V62.2877L38.234 62.2877ZM38.2341 86.1208H37.2341L37.2341 88.2922L38.8841 86.8807L38.2341 86.1208ZM54.4859 72.2183L55.1359 71.4584L54.4859 70.9023L53.8358 71.4584L54.4859 72.2183ZM70.7377 86.1208L70.0876 86.8807L71.7377 88.2922L71.7377 86.1208H70.7377ZM70.7376 62.2877H69.7376V62.2877L70.7376 62.2877ZM70.7376 60.0437L70.8868 59.0549L69.7376 58.8816V60.0437H70.7376ZM77.8553 61.1175L77.7061 62.1063L79.063 62.311L78.8423 60.9566L77.8553 61.1175ZM76.4624 52.5723L76.2359 51.5983L75.3249 51.8101L75.4754 52.7332L76.4624 52.5723ZM85.2019 50.5402L85.4284 51.5142L86.8019 51.1948L86.0462 50.0042L85.2019 50.5402ZM80.5158 43.1582L79.9417 42.3394L79.1597 42.8878L79.6715 43.6942L80.5158 43.1582ZM87.7817 38.0634L88.3558 38.8821L89.5235 38.0634L88.3558 37.2446L87.7817 38.0634ZM80.5158 32.9685L79.6715 32.4326L79.1597 33.2389L79.9417 33.7873L80.5158 32.9685ZM85.2019 25.5866L86.0462 26.1225L86.8019 24.932L85.4284 24.6126L85.2019 25.5866ZM76.4624 23.5545L75.4754 23.3936L75.3249 24.3167L76.2359 24.5285L76.4624 23.5545ZM77.8553 15.0093L78.8423 15.1702L79.063 13.8158L77.7061 14.0205L77.8553 15.0093ZM68.9726 16.3493L68.0028 16.5929L68.224 17.4735L69.1218 17.3381L68.9726 16.3493ZM66.8603 7.94175L67.8301 7.69807L67.5048 6.40328L66.3537 7.07953L66.8603 7.94175ZM66.7546 29.7136L66.2746 30.5909L66.2746 30.5909L66.7546 29.7136ZM54.4977 23.0071L54.014 23.8824L54.0177 23.8844L54.4977 23.0071ZM67.6018 30.5319L68.4619 30.0219L68.4619 30.0219L67.6018 30.5319ZM67.9135 31.6678H68.9135V31.6674L67.9135 31.6678ZM67.9135 44.9875L68.9135 44.9897V44.9875H67.9135ZM67.6007 46.1209L66.741 45.6101L66.741 45.6101L67.6007 46.1209ZM66.7546 46.9375L66.2746 46.0602L66.2745 46.0603L66.7546 46.9375ZM54.4977 53.6468L54.0175 52.7696L54.014 52.7715L54.4977 53.6468ZM52.3583 53.6468L52.8419 52.7715L52.8384 52.7696L52.3583 53.6468ZM40.1013 46.9375L40.5815 46.0603L40.5813 46.0602L40.1013 46.9375ZM39.2552 46.1209L38.3956 46.6318L38.3956 46.6318L39.2552 46.1209ZM38.9425 44.9875H37.9425L37.9425 44.9898L38.9425 44.9875ZM38.9425 31.6664L37.9425 31.6641V31.6664H38.9425ZM39.2552 30.5329L38.3956 30.0221V30.0221L39.2552 30.5329ZM40.1013 29.7164L40.5813 30.5937L40.5815 30.5936L40.1013 29.7164ZM52.3583 23.0071L52.8384 23.8843L52.8419 23.8824L52.3583 23.0071ZM53.428 37.2141L52.9477 38.0912L53.428 38.3542L53.9083 38.0912L53.428 37.2141ZM42.2365 31.0856L41.7562 30.2085L40.1545 31.0856L41.7562 31.9627L42.2365 31.0856ZM64.6194 31.0856L65.0997 31.9627L66.7014 31.0856L65.0997 30.2085L64.6194 31.0856ZM53.428 24.9571L53.9083 24.08L53.428 23.817L52.9477 24.08L53.428 24.9571ZM54.5422 51.0923H53.5422V52.7804L55.0227 51.9693L54.5422 51.0923ZM54.5422 39.1404L54.0622 38.2631L53.5422 38.5477V39.1404H54.5422ZM65.6849 44.9875L66.1654 45.8645L66.6849 45.5799V44.9875H65.6849ZM65.6849 33.0425H66.6849V31.3553L65.2049 32.1653L65.6849 33.0425ZM53.0937 6.06387L58.3898 13.0537L59.9839 11.8459L54.6878 4.85605L53.0937 6.06387ZM49.3918 13.0537L54.6878 6.06387L53.0937 4.85605L47.7977 11.8459L49.3918 13.0537ZM40.4147 8.80396L48.0882 13.3121L49.1013 11.5876L41.4278 7.07953L40.4147 8.80396ZM39.7788 16.5929L41.8911 8.18542L39.9514 7.69807L37.8391 16.1056L39.7788 16.5929ZM29.7771 15.9981L38.6597 17.3381L38.9581 15.3605L30.0754 14.0205L29.7771 15.9981ZM32.3061 23.3936L30.9132 14.8484L28.9393 15.1702L30.3322 23.7154L32.3061 23.3936ZM22.8061 26.5606L31.5457 24.5285L31.0927 22.5805L22.3532 24.6126L22.8061 26.5606ZM28.11 32.4326L23.4239 25.0506L21.7354 26.1225L26.4215 33.5045L28.11 32.4326ZM20.574 38.8821L27.8399 33.7873L26.6916 32.1498L19.4257 37.2446L20.574 38.8821ZM27.8399 42.3394L20.574 37.2446L19.4257 38.8821L26.6916 43.977L27.8399 42.3394ZM23.4239 51.0761L28.11 43.6942L26.4215 42.6223L21.7354 50.0042L23.4239 51.0761ZM31.5457 51.5983L22.8061 49.5661L22.3532 51.5142L31.0927 53.5463L31.5457 51.5983ZM30.9132 61.2784L32.3061 52.7332L30.3322 52.4114L28.9393 60.9566L30.9132 61.2784ZM38.0849 58.8754L29.7771 60.1287L30.0754 62.1063L38.3832 60.853L38.0849 58.8754ZM39.234 62.2877V59.8642H37.234V62.2877H39.234ZM39.2341 86.1208L39.234 62.2877L37.234 62.2877L37.2341 86.1208H39.2341ZM53.8358 71.4584L37.584 85.3609L38.8841 86.8807L55.1359 72.9781L53.8358 71.4584ZM71.3877 85.3609L55.1359 71.4584L53.8358 72.9781L70.0876 86.8807L71.3877 85.3609ZM69.7376 62.2877L69.7377 86.1208H71.7377L71.7376 62.2877L69.7376 62.2877ZM69.7376 60.0437V62.2877H71.7376V60.0437H69.7376ZM78.0044 60.1287L70.8868 59.0549L70.5884 61.0325L77.7061 62.1063L78.0044 60.1287ZM75.4754 52.7332L76.8683 61.2784L78.8423 60.9566L77.4493 52.4114L75.4754 52.7332ZM84.9754 49.5661L76.2359 51.5983L76.6889 53.5463L85.4284 51.5142L84.9754 49.5661ZM79.6715 43.6942L84.3577 51.0761L86.0462 50.0042L81.3601 42.6223L79.6715 43.6942ZM87.2076 37.2446L79.9417 42.3394L81.0899 43.977L88.3558 38.8821L87.2076 37.2446ZM79.9417 33.7873L87.2076 38.8821L88.3558 37.2446L81.0899 32.1498L79.9417 33.7873ZM84.3577 25.0506L79.6715 32.4326L81.3601 33.5045L86.0462 26.1225L84.3577 25.0506ZM76.2359 24.5285L84.9754 26.5606L85.4284 24.6126L76.6889 22.5805L76.2359 24.5285ZM76.8683 14.8484L75.4754 23.3936L77.4493 23.7154L78.8423 15.1702L76.8683 14.8484ZM69.1218 17.3381L78.0044 15.9981L77.7061 14.0205L68.8235 15.3605L69.1218 17.3381ZM65.8904 8.18542L68.0028 16.5929L69.9425 16.1056L67.8301 7.69807L65.8904 8.18542ZM59.6934 13.3121L67.3668 8.80396L66.3537 7.07953L58.6803 11.5876L59.6934 13.3121ZM67.2346 28.8364L54.9777 22.1299L54.0177 23.8844L66.2746 30.5909L67.2346 28.8364ZM68.4619 30.0219C68.1665 29.5238 67.7426 29.1143 67.2346 28.8364L66.2746 30.5909C66.4679 30.6967 66.6292 30.8525 66.7416 31.042L68.4619 30.0219ZM68.9135 31.6674C68.9132 31.0883 68.7573 30.52 68.4619 30.0219L66.7416 31.042C66.854 31.2316 66.9134 31.4478 66.9135 31.6682L68.9135 31.6674ZM68.9135 44.9875V31.6678H66.9135V44.9875H68.9135ZM68.4603 46.6318C68.7557 46.1349 68.9121 45.5678 68.9135 44.9897L66.9135 44.9852C66.913 45.2052 66.8534 45.421 66.741 45.6101L68.4603 46.6318ZM67.2346 47.8147C67.7417 47.5373 68.165 47.1287 68.4604 46.6318L66.741 45.6101C66.6287 45.7991 66.4676 45.9546 66.2746 46.0602L67.2346 47.8147ZM54.9778 54.5239L67.2348 47.8146L66.2745 46.0603L54.0175 52.7696L54.9778 54.5239ZM53.428 54.9226C53.9713 54.9226 54.5057 54.7848 54.9813 54.522L54.014 52.7715C53.8346 52.8706 53.633 52.9226 53.428 52.9226V54.9226ZM51.8746 54.522C52.3502 54.7848 52.8846 54.9226 53.428 54.9226V52.9226C53.223 52.9226 53.0213 52.8706 52.8419 52.7715L51.8746 54.522ZM39.6211 47.8146L51.8781 54.5239L52.8384 52.7696L40.5815 46.0603L39.6211 47.8146ZM38.3956 46.6318C38.6909 47.1287 39.1142 47.5373 39.6213 47.8147L40.5813 46.0602C40.3883 45.9546 40.2272 45.7992 40.1149 45.6101L38.3956 46.6318ZM37.9425 44.9898C37.9438 45.5678 38.1003 46.1349 38.3956 46.6318L40.1149 45.6101C40.0025 45.421 39.943 45.2052 39.9425 44.9852L37.9425 44.9898ZM37.9425 31.6664V44.9875H39.9425V31.6664H37.9425ZM38.3956 30.0221C38.1003 30.519 37.9438 31.0861 37.9425 31.6641L39.9425 31.6687C39.943 31.4487 40.0025 31.2329 40.1149 31.0438L38.3956 30.0221ZM39.6213 28.8391C39.1142 29.1166 38.6909 29.5251 38.3956 30.0221L40.1149 31.0438C40.2272 30.8547 40.3883 30.6993 40.5813 30.5937L39.6213 28.8391ZM51.8781 22.1299L39.6211 28.8392L40.5815 30.5936L52.8384 23.8843L51.8781 22.1299ZM53.428 21.7313C52.8846 21.7313 52.3502 21.8691 51.8746 22.1318L52.8419 23.8824C53.0213 23.7833 53.223 23.7313 53.428 23.7313V21.7313ZM54.9813 22.1319C54.5057 21.8691 53.9713 21.7313 53.428 21.7313V23.7313C53.633 23.7313 53.8346 23.7833 54.014 23.8824L54.9813 22.1319ZM53.9083 36.337L42.7168 30.2085L41.7562 31.9627L52.9477 38.0912L53.9083 36.337ZM64.1391 30.2085L52.9477 36.337L53.9083 38.0912L65.0997 31.9627L64.1391 30.2085ZM52.9477 25.8342L64.1391 31.9627L65.0997 30.2085L53.9083 24.08L52.9477 25.8342ZM42.7168 31.9627L53.9083 25.8342L52.9477 24.08L41.7562 30.2085L42.7168 31.9627ZM55.5422 51.0923V39.1404H53.5422V51.0923H55.5422ZM65.2044 44.1105L54.0617 50.2153L55.0227 51.9693L66.1654 45.8645L65.2044 44.1105ZM64.6849 33.0425V44.9875H66.6849V33.0425H64.6849ZM55.0223 40.0176L66.165 33.9197L65.2049 32.1653L54.0622 38.2631L55.0223 40.0176Z" fill="#1C2028" mask="url(#path-71-inside-10_8_17376)"/>
</svg>
