<svg width="100" height="100" viewBox="0 0 100 100" fill="none" xmlns="http://www.w3.org/2000/svg">
<path d="M27.415 44.0116H27.8317V43.5949V33.5304C27.8317 28.5684 29.8592 24.0721 33.1463 20.7992C36.4838 17.4762 41.1181 15.4167 46.2431 15.4167C56.4177 15.4167 64.6545 23.5327 64.6545 33.5304V35.0019H56.0751V33.5304C56.0751 28.1763 51.6669 23.8472 46.2431 23.8472C43.5111 23.8472 41.0377 24.9452 39.2555 26.7183C37.4981 28.4666 36.411 30.8733 36.411 33.5304V43.5949V44.0116H36.8277H73.5833V91.5833H18.4167V44.0116H27.415ZM53.0155 54.4174L53.0156 54.4174L53.0177 54.4097C53.1856 53.7869 53.0983 53.1244 52.7756 52.565C52.453 52.0058 51.9216 51.5954 51.2972 51.4196C50.6729 51.2438 50.0033 51.3159 49.4318 51.6211C49.2159 51.7364 49.0202 51.8816 48.8501 52.0509C48.5698 52.3297 48.3584 52.6739 48.2389 53.0569L48.2388 53.0568L48.2365 53.0648L39.9606 81.5727C39.9602 81.5741 39.9598 81.5755 39.9593 81.5768C39.8628 81.8881 39.83 82.2153 39.8629 82.5393C39.8959 82.8648 39.9946 83.1803 40.1528 83.4673C40.311 83.7542 40.5254 84.0068 40.7834 84.2105L41.0416 83.8835L40.7834 84.2105C41.0413 84.4142 41.3375 84.5649 41.6546 84.6541L41.7675 84.2531L41.6546 84.6542C41.9717 84.7434 42.3035 84.7696 42.6309 84.7311C42.9582 84.6926 43.2747 84.5902 43.5619 84.4297C43.7591 84.3195 43.9398 84.1834 44.0992 84.0254L43.8058 83.7295L44.0992 84.0253C44.172 83.9532 44.2403 83.8764 44.3037 83.7955L43.9757 83.5385L44.3037 83.7955C44.5051 83.5384 44.6529 83.2441 44.7383 82.9297C44.7387 82.9283 44.7391 82.9269 44.7394 82.9255L53.0155 54.4174ZM37.6282 72.1449L37.6282 72.1448L32.0109 67.999L37.6282 63.8532L37.6282 63.8532C37.7265 63.7807 37.8186 63.7015 37.9041 63.6164C38.2775 63.245 38.5239 62.7621 38.6002 62.2364C38.694 61.5902 38.5229 60.9345 38.1261 60.4138C37.7295 59.8934 37.1406 59.551 36.4897 59.4595C35.839 59.368 35.1773 59.5345 34.6499 59.9238L26.3716 66.0343L26.6191 66.3695L26.3716 66.0343C26.2737 66.1066 26.1815 66.1858 26.0958 66.271C25.9113 66.4546 25.7566 66.6665 25.6382 66.8994C25.4649 67.2405 25.3746 67.617 25.3746 67.999C25.3746 68.381 25.4649 68.7575 25.6382 69.0987C25.8115 69.4397 26.0628 69.7358 26.3716 69.9637L34.6499 76.0743C35.1773 76.4636 35.839 76.63 36.4897 76.5386C37.0283 76.4628 37.5243 76.2154 37.9041 75.8376C37.9834 75.7587 38.0576 75.6741 38.1261 75.5842C38.5229 75.0636 38.694 74.4079 38.6002 73.7617C38.5064 73.1155 38.1559 72.5343 37.6282 72.1449ZM60.9629 67.999L55.3455 72.1448L55.3455 72.1449C55.2469 72.2176 55.1545 72.2971 55.0688 72.3825C54.6958 72.7538 54.4498 73.2364 54.3736 73.7617C54.2798 74.4079 54.4509 75.0636 54.8476 75.5842C55.2442 76.1046 55.8332 76.4471 56.484 76.5386C57.1348 76.63 57.7965 76.4636 58.3239 76.0743L66.6022 69.9637C66.7007 69.891 66.7934 69.8113 66.8796 69.7255C67.0634 69.5422 67.2175 69.3309 67.3355 69.0987C67.5088 68.7575 67.5992 68.381 67.5992 67.999C67.5992 67.617 67.5088 67.2405 67.3355 66.8994C67.1622 66.5583 66.911 66.2623 66.6022 66.0343L58.3239 59.9238C58.0627 59.731 57.7658 59.5909 57.4502 59.5113C57.1347 59.4318 56.8064 59.4142 56.484 59.4595C56.1616 59.5048 55.8512 59.6122 55.5705 59.7758C55.3867 59.883 55.2179 60.0128 55.0681 60.1621C54.9891 60.2408 54.9154 60.3249 54.8477 60.4138C54.6513 60.6715 54.5081 60.9652 54.4267 61.278C54.3452 61.5909 54.3272 61.9166 54.3736 62.2364C54.42 62.5562 54.53 62.8636 54.6969 63.1411C54.8638 63.4185 55.0843 63.6604 55.3455 63.8532L55.593 63.518L55.3455 63.8532L60.9629 67.999Z" fill="#1C2028" stroke="#1C2028" stroke-width="0.833333"/>
<path d="M47.004 14.5148L52.2693 9.41738C62.3549 9.50312 70.4845 17.3057 70.5824 26.9174L65.2898 32.0413C64.7861 22.5688 56.8592 14.9989 47.004 14.5148Z" fill="#1C2028" stroke="#1C2028" stroke-width="0.833333" stroke-linejoin="round"/>
<path d="M70.5833 28.7323L65.4167 33.9826V33.2677L70.5833 28.0174V28.7323Z" fill="#1C2028" stroke="#1C2028" stroke-width="0.833333" stroke-linejoin="round"/>
<path d="M56.9924 34.5833L62.0608 29.4167H70.0076L64.9392 34.5833H56.9924Z" fill="#1C2028" stroke="#1C2028" stroke-width="0.833333" stroke-linejoin="round"/>
<path d="M47 23.5538L52.4413 18.418C57.4674 18.4986 61.4808 22.2731 61.5814 26.8974L56.0925 32.0782C55.6285 27.5579 51.7874 23.9937 47 23.5538Z" fill="#1C2028" stroke="#1C2028" stroke-width="0.833333" stroke-linejoin="round"/>
<path d="M45.8982 14.3439C42.7783 14.3704 39.8387 15.1279 37.2569 16.4475L39.2223 14.5391L39.2224 14.5391C42.2459 11.6022 46.3626 9.7011 50.9425 9.44603L45.8982 14.3439Z" fill="#1C2028" stroke="#1C2028" stroke-width="0.833333" stroke-linejoin="round"/>
<path d="M56.4167 33.2677L61.5833 28.0174V28.7323L56.4167 33.9826V33.2677Z" fill="#1C2028" stroke="#1C2028" stroke-width="0.833333" stroke-linejoin="round"/>
<path d="M42.9275 24.4425L46.0172 21.0951C47.3239 19.6798 49.0576 18.7294 50.9888 18.4812L46.1047 23.7728C44.985 23.7961 43.9148 24.0317 42.9275 24.4425Z" fill="#1C2028" stroke="#1C2028" stroke-width="0.833333" stroke-linejoin="round"/>
<path d="M38.0111 42.5833L43.2151 37.4167H78.9889L73.7849 42.5833H38.0111Z" fill="#1C2028" stroke="#1C2028" stroke-width="0.833333" stroke-linejoin="round"/>
<path d="M37.4831 31.9823C37.7323 30.0865 38.6693 28.3807 40.067 27.0823L40.0671 27.0822L43.4489 23.9395C43.0521 24.9052 42.8248 25.9488 42.8018 27.0396L37.4831 31.9823Z" fill="#1C2028" stroke="#1C2028" stroke-width="0.833333" stroke-linejoin="round"/>
<path d="M74.4167 43.2806L79.5833 38.019V85.7194L74.4167 90.981V43.2806Z" fill="#1C2028" stroke="#1C2028" stroke-width="0.833333" stroke-linejoin="round"/>
<path d="M32.9531 20.3274L35.2333 18.1583C33.7833 20.739 32.9492 23.6759 32.9184 26.7949L27.4456 32.001C27.7093 27.4623 29.759 23.3671 32.9531 20.3274Z" fill="#1C2028" stroke="#1C2028" stroke-width="0.833333" stroke-linejoin="round"/>
<path d="M66.6091 66.2422L72.3769 60.57C72.4093 60.6056 72.4401 60.6426 72.4693 60.6807L66.7043 66.3502C66.6736 66.3133 66.6419 66.2773 66.6091 66.2422Z" fill="#1C2028" stroke="#1C2028" stroke-width="0.833333" stroke-linejoin="round"/>
<path d="M51.7075 51.9136L56.9314 46.4867C57.1365 46.5845 57.3192 46.7273 57.4665 46.9056L52.2253 52.3504C52.0737 52.1808 51.8994 52.0337 51.7075 51.9136Z" fill="#1C2028" stroke="#1C2028" stroke-width="0.833333" stroke-linejoin="round"/>
<mask id="path-15-inside-1_8_17234" fill="white">
<path d="M73 61.9161C73 61.5981 72.9287 61.2844 72.7918 61L67 67.0839C67.1369 67.3684 67.2082 67.682 67.2082 68L73 61.9161Z"/>
</mask>
<path d="M73 61.9161C73 61.5981 72.9287 61.2844 72.7918 61L67 67.0839C67.1369 67.3684 67.2082 67.682 67.2082 68L73 61.9161Z" fill="#1C2028"/>
<path d="M72.7918 61L73.5427 60.6386C73.424 60.392 73.1917 60.2193 72.9214 60.1768C72.651 60.1342 72.377 60.2272 72.1883 60.4254L72.7918 61ZM73 61.9161L73.6036 62.4906C73.7511 62.3357 73.8333 62.13 73.8333 61.9161H73ZM67.2082 68H66.3748C66.3748 68.3408 66.5823 68.6472 66.8988 68.7738C67.2152 68.9003 67.5768 68.8214 67.8117 68.5746L67.2082 68ZM67 67.0839L66.3964 66.5094C66.1575 66.7604 66.0988 67.1331 66.2491 67.4454L67 67.0839ZM72.0409 61.3614C72.1232 61.5322 72.1667 61.7222 72.1667 61.9161H73.8333C73.8333 61.4739 73.7343 61.0366 73.5427 60.6386L72.0409 61.3614ZM72.3964 61.3415L66.6046 67.4254L67.8117 68.5746L73.6036 62.4906L72.3964 61.3415ZM68.0415 68C68.0415 67.5578 67.9425 67.1206 67.7509 66.7225L66.2491 67.4454C66.3313 67.6162 66.3748 67.8062 66.3748 68H68.0415ZM67.6036 67.6585L73.3954 61.5746L72.1883 60.4254L66.3964 66.5094L67.6036 67.6585Z" fill="#1C2028" mask="url(#path-15-inside-1_8_17234)"/>
<path d="M52.5123 52.4742L58.5474 46.7233C58.5947 46.944 58.5955 47.1723 58.5485 47.3952L52.6718 52.9951C52.6383 52.8172 52.5849 52.6425 52.5123 52.4742Z" fill="#1C2028" stroke="#1C2028" stroke-width="0.833333" stroke-linejoin="round"/>
<path d="M58.6336 59.9232L63.9682 54.5504L71.3664 60.0768L66.0318 65.4496L58.6336 59.9232Z" fill="#1C2028" stroke="#1C2028" stroke-width="0.833333" stroke-linejoin="round"/>
<mask id="path-19-inside-2_8_17234" fill="white">
<path d="M72.7918 62.9161C72.9287 62.6316 73 62.318 73 62L67.2082 68.0839C67.2082 68.4019 67.1369 68.7156 67 69L72.7918 62.9161Z"/>
</mask>
<path d="M72.7918 62.9161C72.9287 62.6316 73 62.318 73 62L67.2082 68.0839C67.2082 68.4019 67.1369 68.7156 67 69L72.7918 62.9161Z" fill="#1C2028"/>
<path d="M73 62H73.8333C73.8333 61.6592 73.6258 61.3528 73.3094 61.2262C72.993 61.0997 72.6314 61.1786 72.3964 61.4254L73 62ZM72.7918 62.9161L73.3954 63.4907C73.4553 63.4277 73.505 63.3558 73.5427 63.2775L72.7918 62.9161ZM67 69L66.2491 68.6386C66.0712 69.0082 66.1888 69.4523 66.5262 69.6856C66.8637 69.9188 67.3207 69.8717 67.6036 69.5746L67 69ZM67.2082 68.0839L66.6046 67.5093C66.4571 67.6643 66.3748 67.87 66.3748 68.0839H67.2082ZM72.1667 62C72.1667 62.1938 72.1232 62.3838 72.0409 62.5546L73.5427 63.2775C73.7343 62.8794 73.8333 62.4422 73.8333 62H72.1667ZM72.1883 62.3415L66.3964 68.4254L67.6036 69.5746L73.3954 63.4907L72.1883 62.3415ZM67.7509 69.3614C67.9425 68.9634 68.0415 68.5261 68.0415 68.0839H66.3748C66.3748 68.2778 66.3313 68.4678 66.2491 68.6386L67.7509 69.3614ZM67.8117 68.6585L73.6036 62.5746L72.3964 61.4254L66.6046 67.5093L67.8117 68.6585Z" fill="#1C2028" mask="url(#path-19-inside-2_8_17234)"/>
<path d="M51.1052 51.3192L55.8506 45.5924C55.9465 45.536 56.0458 45.4932 56.1468 45.464L51.2749 51.3436C51.2184 51.333 51.1618 51.3249 51.1052 51.3192Z" fill="#1C2028" stroke="#1C2028" stroke-width="0.833333" stroke-linejoin="round"/>
<path d="M37.4167 41.9933V33.1793L42.5833 28.0067V36.8207L37.4167 41.9933Z" fill="#1C2028" stroke="#1C2028" stroke-width="0.833333" stroke-linejoin="round"/>
<mask id="path-23-inside-3_8_17234" fill="white">
<path d="M64 54.3225C63.7764 54.1719 63.522 54.0623 63.2512 54L57 59.6775C57.2708 59.7398 57.5252 59.8494 57.7488 60L64 54.3225Z"/>
</mask>
<path d="M64 54.3225C63.7764 54.1719 63.522 54.0623 63.2512 54L57 59.6775C57.2708 59.7398 57.5252 59.8494 57.7488 60L64 54.3225Z" fill="#1C2028"/>
<path d="M63.2512 54L63.4381 53.1879C63.1721 53.1267 62.893 53.1996 62.6909 53.3831L63.2512 54ZM64 54.3225L64.5603 54.9394C64.7498 54.7673 64.8496 54.5176 64.8312 54.2623C64.8127 54.007 64.6779 53.7744 64.4656 53.6313L64 54.3225ZM57.7488 60L57.2832 60.6912C57.6015 60.9055 58.025 60.8749 58.3091 60.6169L57.7488 60ZM57 59.6775L56.4397 59.0606C56.2101 59.2692 56.1153 59.588 56.1937 59.8882C56.2722 60.1883 56.5108 60.42 56.8131 60.4896L57 59.6775ZM63.0643 54.8121C63.2387 54.8522 63.3981 54.9218 63.5344 55.0137L64.4656 53.6313C64.1547 53.4219 63.8053 53.2724 63.4381 53.1879L63.0643 54.8121ZM63.4397 53.7056L57.1885 59.3831L58.3091 60.6169L64.5603 54.9394L63.4397 53.7056ZM58.2144 59.3088C57.9035 59.0994 57.5541 58.9499 57.1869 58.8654L56.8131 60.4896C56.9874 60.5297 57.1469 60.5993 57.2832 60.6912L58.2144 59.3088ZM57.5603 60.2944L63.8115 54.6169L62.6909 53.3831L56.4397 59.0606L57.5603 60.2944Z" fill="#1C2028" mask="url(#path-23-inside-3_8_17234)"/>
<mask id="path-25-inside-4_8_17234" fill="white">
<path d="M72.6482 63.4752C72.7902 63.3361 72.9091 63.1759 73 63L67.3518 68.5248C67.2609 68.7006 67.142 68.8609 67 69L72.6482 63.4752Z"/>
</mask>
<path d="M72.6482 63.4752C72.7902 63.3361 72.9091 63.1759 73 63L67.3518 68.5248C67.2609 68.7006 67.142 68.8609 67 69L72.6482 63.4752Z" fill="#1C2028"/>
<path d="M73 63L73.7403 63.3827C73.9281 63.0193 73.8244 62.5732 73.4955 62.33C73.1666 62.0867 72.7097 62.1182 72.4173 62.4043L73 63ZM72.6482 63.4752L73.2309 64.071L73.2313 64.0706L72.6482 63.4752ZM67 69L66.4169 68.4046C66.0882 68.7266 66.0826 69.2541 66.4045 69.5829C66.7263 69.9117 67.2538 69.9175 67.5827 69.5957L67 69ZM67.3518 68.5248L66.7691 67.929C66.7055 67.9912 66.6523 68.0631 66.6115 68.1421L67.3518 68.5248ZM72.2597 62.6173C72.2101 62.7134 72.1446 62.802 72.0651 62.8799L73.2313 64.0706C73.4359 63.8702 73.6081 63.6384 73.7403 63.3827L72.2597 62.6173ZM72.0655 62.8795L66.4173 68.4043L67.5827 69.5957L73.2309 64.071L72.0655 62.8795ZM67.5831 69.5954C67.7876 69.395 67.9599 69.1631 68.0921 68.9074L66.6115 68.1421C66.5619 68.2381 66.4964 68.3268 66.4169 68.4046L67.5831 69.5954ZM67.9345 69.1205L73.5827 63.5957L72.4173 62.4043L66.7691 67.929L67.9345 69.1205Z" fill="#1C2028" mask="url(#path-25-inside-4_8_17234)"/>
<mask id="path-27-inside-5_8_17234" fill="white">
<path d="M55.4836 46.3349C55.6344 46.2032 55.8081 46.09 56 46L49.5164 51.6651C49.3245 51.755 49.1509 51.8682 49 52L55.4836 46.3349Z"/>
</mask>
<path d="M55.4836 46.3349C55.6344 46.2032 55.8081 46.09 56 46L49.5164 51.6651C49.3245 51.755 49.1509 51.8682 49 52L55.4836 46.3349Z" fill="#1C2028"/>
<path d="M56 46L56.5483 46.6275C56.8611 46.3542 56.9249 45.8924 56.6979 45.5445C56.4708 45.1967 56.0224 45.0692 55.6463 45.2455L56 46ZM55.4836 46.3349L54.9354 45.7073L54.9352 45.7074L55.4836 46.3349ZM49 52L48.4517 51.3725C48.1051 51.6753 48.0696 52.2016 48.3724 52.5482C48.6751 52.8948 49.2015 52.9304 49.5481 52.6277L49 52ZM49.5164 51.6651L49.8702 52.4196C49.9406 52.3866 50.0061 52.3438 50.0648 52.2926L49.5164 51.6651ZM55.6463 45.2455C55.3861 45.3674 55.1467 45.5228 54.9354 45.7073L56.0317 46.9626C56.1222 46.8836 56.23 46.8125 56.3537 46.7545L55.6463 45.2455ZM54.9352 45.7074L48.4517 51.3725L49.5483 52.6275L56.0319 46.9625L54.9352 45.7074ZM49.5481 52.6277C49.6387 52.5486 49.7464 52.4776 49.8702 52.4196L49.1627 50.9105C48.9026 51.0325 48.6631 51.1878 48.4519 51.3723L49.5481 52.6277ZM50.0648 52.2926L56.5483 46.6275L55.4517 45.3725L48.9681 51.0375L50.0648 52.2926Z" fill="#1C2028" mask="url(#path-27-inside-5_8_17234)"/>
<mask id="path-29-inside-6_8_17234" fill="white">
<path d="M63 54.0625C62.7323 53.9974 62.4538 53.983 62.1802 54.0201L56 59.9575C56.2735 59.9204 56.5521 59.9348 56.8198 60L63 54.0625Z"/>
</mask>
<path d="M63 54.0625C62.7323 53.9974 62.4538 53.983 62.1802 54.0201L56 59.9575C56.2735 59.9204 56.5521 59.9348 56.8198 60L63 54.0625Z" fill="#1C2028"/>
<path d="M62.1802 54.0201L62.0682 53.1943C61.8932 53.2181 61.7302 53.2968 61.6029 53.4192L62.1802 54.0201ZM63 54.0625L63.5773 54.6635C63.7967 54.4528 63.8838 54.1393 63.8046 53.8456C63.7255 53.552 63.4926 53.3248 63.1971 53.2528L63 54.0625ZM56.8198 60L56.6227 60.8097C56.8996 60.8771 57.1916 60.7983 57.3971 60.6009L56.8198 60ZM56 59.9575L55.4227 59.3566C55.1626 59.6065 55.0927 59.9954 55.2497 60.3201C55.4066 60.6449 55.7546 60.8318 56.1121 60.7833L56 59.9575ZM62.2923 54.8459C62.4629 54.8227 62.6366 54.8318 62.8029 54.8722L63.1971 53.2528C62.828 53.163 62.4446 53.1432 62.0682 53.1943L62.2923 54.8459ZM62.4227 53.4616L56.2424 59.3991L57.3971 60.6009L63.5773 54.6635L62.4227 53.4616ZM57.0169 59.1903C56.6478 59.1005 56.2644 59.0807 55.8879 59.1318L56.1121 60.7833C56.2827 60.7602 56.4564 60.7692 56.6227 60.8097L57.0169 59.1903ZM56.5773 60.5585L62.7576 54.621L61.6029 53.4192L55.4227 59.3566L56.5773 60.5585Z" fill="#1C2028" mask="url(#path-29-inside-6_8_17234)"/>
<mask id="path-31-inside-7_8_17234" fill="white">
<path d="M72.744 63.1903C72.8342 63.1327 72.9191 63.0696 72.998 63.0018L66.256 68.8097C66.1765 68.8782 66.091 68.9419 66 69L72.744 63.1903Z"/>
</mask>
<path d="M72.744 63.1903C72.8342 63.1327 72.9191 63.0696 72.998 63.0018L66.256 68.8097C66.1765 68.8782 66.091 68.9419 66 69L72.744 63.1903Z" fill="#1C2028"/>
<path d="M72.7279 62.6845C72.7273 62.685 72.7267 62.6855 72.7262 62.6859L73.2697 63.3176C73.2706 63.3169 73.2714 63.3162 73.2721 63.3155L72.7279 62.6845ZM72.998 63.0018L73.5419 63.6331C73.8905 63.3328 73.9297 62.8068 73.6295 62.4581C73.3293 62.1094 72.8033 62.07 72.4545 62.3701L72.998 63.0018ZM72.744 63.1903L72.2953 62.4881C72.2619 62.5094 72.2301 62.5331 72.2001 62.559L72.744 63.1903ZM66 69L65.4561 68.3686C65.1249 68.654 65.0705 69.1468 65.3315 69.4976C65.5925 69.8483 66.0803 69.9376 66.4487 69.7022L66 69ZM66.256 68.8097L65.7121 68.1783L65.7117 68.1786L66.256 68.8097ZM72.4545 62.3701C72.4061 62.4117 72.353 62.4513 72.2953 62.4881L73.1927 63.8926C73.3155 63.8141 73.4321 63.7276 73.5415 63.6335L72.4545 62.3701ZM72.2001 62.559L65.4561 68.3686L66.5439 69.6314L73.2879 63.8217L72.2001 62.559ZM66.4487 69.7022C66.5725 69.6231 66.6901 69.5357 66.8003 69.4407L65.7117 68.1786C65.663 68.2207 65.6095 68.2606 65.5513 68.2978L66.4487 69.7022ZM66.7999 69.441L73.5419 63.6331L72.4541 62.3704L65.7121 68.1783L66.7999 69.441Z" fill="#1C2028" mask="url(#path-31-inside-7_8_17234)"/>
<mask id="path-33-inside-8_8_17234" fill="white">
<path d="M54.5379 46.8487C54.628 46.5265 54.7873 46.2363 54.9993 46.0008L49.4621 52.1513C49.2498 52.387 49.0902 52.6774 49 53L54.5379 46.8487Z"/>
</mask>
<path d="M54.5379 46.8487C54.628 46.5265 54.7873 46.2363 54.9993 46.0008L49.4621 52.1513C49.2498 52.387 49.0902 52.6774 49 53L54.5379 46.8487Z" fill="#1C2028"/>
<path d="M54.6904 45.7211C54.6902 45.7214 54.69 45.7216 54.6899 45.7217C54.6897 45.7219 54.6897 45.7219 54.6896 45.722L55.3089 46.2796C55.3097 46.2788 55.3092 46.2793 55.3096 46.2789L54.6904 45.7211ZM54.9993 46.0008L55.6188 46.5582C55.9266 46.2161 55.8988 45.6893 55.5568 45.3814C55.2147 45.0735 54.6879 45.1012 54.3799 45.4432L54.9993 46.0008ZM54.5379 46.8487L55.1572 47.4063C55.2431 47.3108 55.3058 47.1968 55.3404 47.0731L54.5379 46.8487ZM49 53L48.1974 52.7756C48.0932 53.1483 48.2593 53.5437 48.5984 53.7302C48.9375 53.9167 49.3604 53.8452 49.6193 53.5576L49 53ZM49.4621 52.1513L50.0813 52.709L50.0815 52.7089L49.4621 52.1513ZM54.3798 45.4434C54.0795 45.7771 53.859 46.1821 53.7353 46.6243L55.3404 47.0731C55.397 46.8708 55.4952 46.6956 55.6188 46.5582L54.3798 45.4434ZM53.9185 46.2911L48.3807 52.4424L49.6193 53.5576L55.1572 47.4063L53.9185 46.2911ZM49.8026 53.2244C49.8592 53.0219 49.9575 52.8465 50.0813 52.709L48.843 51.5936C48.5422 51.9275 48.3212 52.3329 48.1974 52.7756L49.8026 53.2244ZM50.0815 52.7089L55.6186 46.5584L54.3799 45.4432L48.8428 51.5937L50.0815 52.7089Z" fill="#1C2028" mask="url(#path-33-inside-8_8_17234)"/>
<mask id="path-35-inside-9_8_17234" fill="white">
<path d="M63 54C62.7247 54.036 62.4598 54.1211 62.2205 54.2506L56 60C56.2393 59.8705 56.5042 59.7853 56.7795 59.7494L63 54Z"/>
</mask>
<path d="M63 54C62.7247 54.036 62.4598 54.1211 62.2205 54.2506L56 60C56.2393 59.8705 56.5042 59.7853 56.7795 59.7494L63 54Z" fill="#1C2028"/>
<path d="M62.2205 54.2506L61.8238 53.5177C61.7627 53.5508 61.7059 53.5915 61.6549 53.6387L62.2205 54.2506ZM63 54L63.5656 54.612C63.8321 54.3657 63.9086 53.9752 63.7547 53.6466C63.6008 53.318 63.2519 53.1267 62.8921 53.1737L63 54ZM56.7795 59.7494L56.8874 60.5757C57.0585 60.5533 57.2184 60.4785 57.3451 60.3613L56.7795 59.7494ZM56 60L55.4344 59.388C55.1259 59.6731 55.0778 60.1433 55.3223 60.4849C55.5667 60.8265 56.0272 60.9328 56.3966 60.7329L56 60ZM62.6171 54.9835C62.7649 54.9036 62.9316 54.8493 63.1079 54.8263L62.8921 53.1737C62.5177 53.2226 62.1547 53.3387 61.8238 53.5177L62.6171 54.9835ZM62.4344 53.388L56.2139 59.1374L57.3451 60.3613L63.5656 54.612L62.4344 53.388ZM56.6716 58.923C56.2972 58.9719 55.9342 59.088 55.6034 59.2671L56.3966 60.7329C56.5444 60.6529 56.7111 60.5987 56.8874 60.5757L56.6716 58.923ZM56.5656 60.612L62.7861 54.8626L61.6549 53.6387L55.4344 59.388L56.5656 60.612Z" fill="#1C2028" mask="url(#path-35-inside-9_8_17234)"/>
<mask id="path-37-inside-10_8_17234" fill="white">
<path d="M62 54C61.835 54.084 61.6837 54.1858 61.5495 54.3027L55.0021 59.9982C55.1357 59.8821 55.2863 59.7809 55.4505 59.6973L62 54Z"/>
</mask>
<path d="M62 54C61.835 54.084 61.6837 54.1858 61.5495 54.3027L55.0021 59.9982C55.1357 59.8821 55.2863 59.7809 55.4505 59.6973L62 54Z" fill="#1C2028"/>
<path d="M54.7289 59.6836C54.7279 59.6844 54.7271 59.6851 54.7263 59.6858L55.2737 60.3142C55.2743 60.3137 55.2748 60.3132 55.2753 60.3128L54.7289 59.6836ZM61.5495 54.3027L62.0965 54.9314L62.0969 54.9311L61.5495 54.3027ZM62 54L62.5469 54.6287C62.8645 54.3525 62.9262 53.8828 62.6908 53.5339C62.4554 53.185 61.9968 53.0664 61.6218 53.2574L62 54ZM55.4505 59.6973L55.8287 60.4399C55.8893 60.409 55.946 60.3708 55.9974 60.3261L55.4505 59.6973ZM55.0021 59.9982L54.4551 59.3695C54.108 59.6715 54.0713 60.1977 54.3731 60.5449C54.675 60.8922 55.2012 60.9291 55.5486 60.6273L55.0021 59.9982ZM62.0969 54.9311C62.1778 54.8606 62.272 54.7967 62.3782 54.7426L61.6218 53.2574C61.398 53.3714 61.1896 53.5111 61.0022 53.6743L62.0969 54.9311ZM61.4531 53.3713L54.9035 59.0686L55.9974 60.3261L62.5469 54.6287L61.4531 53.3713ZM55.0722 58.9548C54.8496 59.0681 54.6421 59.207 54.4555 59.3691L55.5486 60.6273C55.6292 60.5572 55.723 60.4937 55.8287 60.4399L55.0722 58.9548ZM55.549 60.6269L62.0965 54.9314L61.0026 53.6739L54.4551 59.3695L55.549 60.6269Z" fill="#1C2028" mask="url(#path-37-inside-10_8_17234)"/>
<mask id="path-39-inside-11_8_17234" fill="white">
<path d="M61 54C60.9371 54.0627 60.8785 54.1297 60.8245 54.2005L55 60C55.0539 59.9292 55.1126 59.8622 55.1755 59.7995L61 54Z"/>
</mask>
<path d="M61 54C60.9371 54.0627 60.8785 54.1297 60.8245 54.2005L55 60C55.0539 59.9292 55.1126 59.8622 55.1755 59.7995L61 54Z" fill="#1C2028"/>
<path d="M60.8245 54.2005L61.4125 54.791C61.4394 54.7642 61.4644 54.7356 61.4874 54.7055L60.8245 54.2005ZM61 54L61.5884 54.5901C61.9142 54.2653 61.9151 53.7378 61.5903 53.4118C61.2656 53.0859 60.7381 53.0848 60.412 53.4095L61 54ZM55.1755 59.7995L54.5875 59.209L54.5871 59.2094L55.1755 59.7995ZM55 60L54.3371 59.495C54.0716 59.8436 54.1214 60.3382 54.451 60.6269C54.7806 60.9156 55.2775 60.8997 55.588 60.5905L55 60ZM61.4874 54.7055C61.5184 54.6648 61.5521 54.6263 61.5884 54.5901L60.4116 53.4099C60.3221 53.4991 60.2385 53.5946 60.1616 53.6955L61.4874 54.7055ZM60.412 53.4095L54.5875 59.209L55.7635 60.39L61.588 54.5905L60.412 53.4095ZM54.5871 59.2094C54.4976 59.2986 54.414 59.3941 54.3371 59.495L55.6629 60.505C55.6939 60.4643 55.7276 60.4258 55.7639 60.3896L54.5871 59.2094ZM55.588 60.5905L61.4125 54.791L60.2365 53.61L54.412 59.4095L55.588 60.5905Z" fill="#1C2028" mask="url(#path-39-inside-11_8_17234)"/>
<mask id="path-41-inside-12_8_17234" fill="white">
<path d="M61 54C60.8478 54.2214 60.737 54.4733 60.6741 54.7414L55 61C55.063 60.7319 55.1737 60.48 55.3259 60.2586L61 54Z"/>
</mask>
<path d="M61 54C60.8478 54.2214 60.737 54.4733 60.6741 54.7414L55 61C55.063 60.7319 55.1737 60.48 55.3259 60.2586L61 54Z" fill="#1C2028"/>
<path d="M60.6741 54.7414L61.2915 55.3011C61.3863 55.1964 61.453 55.0694 61.4853 54.9319L60.6741 54.7414ZM61 54L61.6867 54.4721C61.9352 54.1108 61.861 53.6186 61.5171 53.3465C61.1732 53.0744 60.6772 53.1154 60.3826 53.4403L61 54ZM55.3259 60.2586L54.7085 59.6989C54.6835 59.7265 54.6604 59.7558 54.6392 59.7865L55.3259 60.2586ZM55 61L54.1887 60.8095C54.1019 61.1793 54.2762 61.5611 54.6125 61.7378C54.9489 61.9144 55.3622 61.8412 55.6174 61.5597L55 61ZM61.4853 54.9319C61.5252 54.7621 61.5946 54.6061 61.6867 54.4721L60.3133 53.5279C60.101 53.8367 59.9488 54.1845 59.8628 54.5508L61.4853 54.9319ZM60.3826 53.4403L54.7085 59.6989L55.9433 60.8184L61.6174 54.5597L60.3826 53.4403ZM54.6392 59.7865C54.4269 60.0953 54.2748 60.4432 54.1887 60.8095L55.8113 61.1905C55.8511 61.0207 55.9205 60.8647 56.0126 60.7308L54.6392 59.7865ZM55.6174 61.5597L61.2915 55.3011L60.0567 54.1816L54.3826 60.4403L55.6174 61.5597Z" fill="#1C2028" mask="url(#path-41-inside-12_8_17234)"/>
<mask id="path-43-inside-13_8_17234" fill="white">
<path d="M61 55C60.9341 55.265 60.9195 55.5409 60.9571 55.8117L55.0203 62C54.9828 61.7291 54.9974 61.4533 55.0632 61.1883L61 55Z"/>
</mask>
<path d="M61 55C60.9341 55.265 60.9195 55.5409 60.9571 55.8117L55.0203 62C54.9828 61.7291 54.9974 61.4533 55.0632 61.1883L61 55Z" fill="#1C2028"/>
<path d="M60.9571 55.8117L61.5584 56.3886C61.735 56.2046 61.8175 55.9499 61.7825 55.6973L60.9571 55.8117ZM61 55L61.8087 55.201C61.8998 54.8346 61.7331 54.4527 61.4025 54.2703C61.0719 54.088 60.66 54.1506 60.3987 54.4231L61 55ZM55.0632 61.1883L54.4619 60.6114C54.3611 60.7164 54.2896 60.846 54.2545 60.9873L55.0632 61.1883ZM55.0203 62L54.1949 62.1144C54.2387 62.4308 54.4595 62.6942 54.7633 62.7927C55.0672 62.8912 55.4006 62.8074 55.6217 62.5769L55.0203 62ZM61.7825 55.6973C61.7595 55.5316 61.7685 55.3628 61.8087 55.201L60.1913 54.799C60.0997 55.1673 60.0795 55.5502 60.1316 55.9261L61.7825 55.6973ZM60.3987 54.4231L54.4619 60.6114L55.6646 61.7652L61.6013 55.5769L60.3987 54.4231ZM54.2545 60.9873C54.163 61.3555 54.1428 61.7384 54.1949 62.1144L55.8458 61.8856C55.8228 61.7199 55.8317 61.5511 55.872 61.3893L54.2545 60.9873ZM55.6217 62.5769L61.5584 56.3886L60.3557 55.2348L54.419 61.4231L55.6217 62.5769Z" fill="#1C2028" mask="url(#path-43-inside-13_8_17234)"/>
<path d="M56.6183 63.2734L62.0451 57.5611L67.3817 61.7266L61.9549 67.4389L56.6183 63.2734Z" fill="#1C2028" stroke="#1C2028" stroke-width="0.833333" stroke-linejoin="round"/>
<mask id="path-46-inside-14_8_17234" fill="white">
<path d="M60.7467 56C60.783 56.2726 60.8691 56.5349 61 56.7718L55.2533 63C55.1224 62.763 55.0363 62.5008 55 62.2282L60.7467 56Z"/>
</mask>
<path d="M60.7467 56C60.783 56.2726 60.8691 56.5349 61 56.7718L55.2533 63C55.1224 62.763 55.0363 62.5008 55 62.2282L60.7467 56Z" fill="#1C2028"/>
<path d="M61 56.7718L61.6125 57.3369C61.8559 57.0731 61.903 56.6831 61.7294 56.3688L61 56.7718ZM60.7467 56L61.5727 55.8899C61.53 55.5696 61.306 55.3029 60.998 55.2055C60.6899 55.108 60.3533 55.1974 60.1342 55.4349L60.7467 56ZM55 62.2282L54.3875 61.6631C54.2195 61.8452 54.1412 62.0926 54.174 62.3383L55 62.2282ZM55.2533 63L54.5239 63.403C54.6534 63.6373 54.8876 63.7952 55.1534 63.8273C55.4192 63.8594 55.6842 63.7619 55.8658 63.5651L55.2533 63ZM61.7294 56.3688C61.6495 56.2241 61.5956 56.0614 61.5727 55.8899L59.9206 56.1101C59.9705 56.4838 60.0887 56.8456 60.2706 57.1748L61.7294 56.3688ZM60.1342 55.4349L54.3875 61.6631L55.6125 62.7933L61.3591 56.5651L60.1342 55.4349ZM54.174 62.3383C54.2238 62.712 54.342 63.0738 54.5239 63.403L55.9827 62.597C55.9028 62.4523 55.8489 62.2896 55.826 62.1181L54.174 62.3383ZM55.8658 63.5651L61.6125 57.3369L60.3875 56.2067L54.6409 62.4349L55.8658 63.5651Z" fill="#1C2028" mask="url(#path-46-inside-14_8_17234)"/>
<mask id="path-48-inside-15_8_17234" fill="white">
<path d="M61.4298 57C61.5763 57.2079 61.77 57.3896 62 57.5346L55.5702 63C55.3402 62.855 55.1465 62.6734 55 62.4654L61.4298 57Z"/>
</mask>
<path d="M61.4298 57C61.5763 57.2079 61.77 57.3896 62 57.5346L55.5702 63C55.3402 62.855 55.1465 62.6734 55 62.4654L61.4298 57Z" fill="#1C2028"/>
<path d="M62 57.5346L62.5397 58.1695C62.7418 57.9977 62.8501 57.74 62.8312 57.4754C62.8124 57.2109 62.6688 56.9711 62.4444 56.8296L62 57.5346ZM61.4298 57L62.1111 56.5201C61.9762 56.3287 61.7671 56.2028 61.5348 56.1733C61.3025 56.1438 61.0685 56.2134 60.8901 56.3651L61.4298 57ZM55 62.4654L54.4603 61.8305C54.1319 62.1096 54.0705 62.593 54.3187 62.9453L55 62.4654ZM55.5702 63L55.1258 63.7049C55.4339 63.8992 55.8324 63.8708 56.1099 63.6349L55.5702 63ZM62.4444 56.8296C62.301 56.7392 62.1899 56.6321 62.1111 56.5201L60.7485 57.4799C60.9626 57.7838 61.2391 58.04 61.5556 58.2395L62.4444 56.8296ZM60.8901 56.3651L54.4603 61.8305L55.5397 63.1004L61.9695 57.6349L60.8901 56.3651ZM54.3187 62.9453C54.5328 63.2492 54.8093 63.5054 55.1258 63.7049L56.0146 62.2951C55.8712 62.2046 55.7601 62.0975 55.6813 61.9855L54.3187 62.9453ZM56.1099 63.6349L62.5397 58.1695L61.4603 56.8996L55.0305 62.3651L56.1099 63.6349Z" fill="#1C2028" mask="url(#path-48-inside-15_8_17234)"/>
<path d="M62.0896 72.1545L64.2137 69.8369L67.9104 66.8455L65.7863 69.1631L62.0896 72.1545Z" fill="#1C2028" stroke="#1C2028" stroke-width="0.833333" stroke-linejoin="round"/>
<path d="M27.4167 33.1793L32.5833 28.0067V36.8207L27.4167 41.9933V33.1793Z" fill="#1C2028" stroke="#1C2028" stroke-width="0.833333" stroke-linejoin="round"/>
<path d="M60.398 68.3682L62.2695 66.5774L63.602 65.6318L61.7305 67.4226L60.398 68.3682Z" fill="#1C2028" stroke="#1C2028" stroke-width="0.833333" stroke-linejoin="round"/>
<mask id="path-53-inside-16_8_17234" fill="white">
<path d="M62 66C61.9089 66.0679 61.8236 66.142 61.7446 66.2215L55.0008 72.9992C55.0796 72.92 55.1647 72.8462 55.2554 72.7785L62 66Z"/>
</mask>
<path d="M62 66C61.9089 66.0679 61.8236 66.142 61.7446 66.2215L55.0008 72.9992C55.0796 72.92 55.1647 72.8462 55.2554 72.7785L62 66Z" fill="#1C2028"/>
<path d="M54.7055 72.7052C54.7053 72.7054 54.7051 72.7056 54.705 72.7058C54.7048 72.7059 54.7047 72.706 54.7047 72.7061L55.2953 73.2939C55.296 73.2932 55.2957 73.2935 55.2961 73.2932L54.7055 72.7052ZM61.7446 66.2215L62.3353 66.8092L62.3355 66.8091L61.7446 66.2215ZM62 66L62.5907 66.5878C62.8986 66.2784 62.9155 65.7839 62.6297 65.4541C62.3438 65.1244 61.8519 65.071 61.502 65.3319L62 66ZM55.2554 72.7785L55.7535 73.4467C55.7863 73.4222 55.8173 73.3953 55.8462 73.3663L55.2554 72.7785ZM55.0008 72.9992L54.4101 72.4114C54.0855 72.7376 54.0868 73.2652 54.413 73.5899C54.7391 73.9145 55.2667 73.9133 55.5914 73.5871L55.0008 72.9992ZM62.3355 66.8091C62.3857 66.7585 62.44 66.7114 62.498 66.6681L61.502 65.3319C61.3779 65.4244 61.2616 65.5254 61.1537 65.6338L62.3355 66.8091ZM61.4093 65.4122L54.6647 72.1908L55.8462 73.3663L62.5907 66.5878L61.4093 65.4122ZM54.7574 72.1104C54.6337 72.2026 54.5178 72.3032 54.4102 72.4113L55.5914 73.5871C55.6415 73.5368 55.6956 73.4898 55.7535 73.4467L54.7574 72.1104ZM55.5915 73.587L62.3353 66.8092L61.1539 65.6337L54.4101 72.4114L55.5915 73.587Z" fill="#1C2028" mask="url(#path-53-inside-16_8_17234)"/>
<mask id="path-55-inside-17_8_17234" fill="white">
<path d="M61 66C60.7205 66.3433 60.5369 66.7884 60.48 67.272L55 74C55.0569 73.5164 55.2406 73.0713 55.52 72.728L61 66Z"/>
</mask>
<path d="M61 66C60.7205 66.3433 60.5369 66.7884 60.48 67.272L55 74C55.0569 73.5164 55.2406 73.0713 55.52 72.728L61 66Z" fill="#1C2028"/>
<path d="M60.48 67.272L61.1261 67.7983C61.2261 67.6755 61.2891 67.5267 61.3076 67.3694L60.48 67.272ZM61 66L61.6463 66.5261C61.9368 66.1692 61.883 65.6444 61.5262 65.3538C61.1693 65.0632 60.6445 65.1169 60.3539 65.4737L61 66ZM55.52 72.728L54.8739 72.2017L54.8738 72.2019L55.52 72.728ZM55 74L54.1724 73.9026C54.1291 74.2706 54.334 74.623 54.6752 74.7674C55.0165 74.9119 55.4121 74.8136 55.6461 74.5263L55 74ZM61.3076 67.3694C61.3476 67.0298 61.4748 66.7367 61.6463 66.5261L60.3537 65.4739C59.9662 65.9499 59.7262 66.547 59.6524 67.1746L61.3076 67.3694ZM60.3539 65.4737L54.8739 72.2017L56.1661 73.2542L61.6461 66.5263L60.3539 65.4737ZM54.8738 72.2019C54.4863 72.6779 54.2462 73.275 54.1724 73.9026L55.8276 74.0974C55.8676 73.7578 55.9949 73.4647 56.1663 73.2541L54.8738 72.2019ZM55.6461 74.5263L61.1261 67.7983L59.8339 66.7458L54.3539 73.4737L55.6461 74.5263Z" fill="#1C2028" mask="url(#path-55-inside-17_8_17234)"/>
<mask id="path-57-inside-18_8_17234" fill="white">
<path d="M62.3876 70.3595C62.9586 70.4305 63.5386 70.3012 64 70L57.6124 75.6215C57.151 75.9226 56.571 76.052 56 75.981L62.3876 70.3595Z"/>
</mask>
<path d="M62.3876 70.3595C62.9586 70.4305 63.5386 70.3012 64 70L57.6124 75.6215C57.151 75.9226 56.571 76.052 56 75.981L62.3876 70.3595Z" fill="#1C2028"/>
<path d="M64 70L64.5505 70.6256C64.8787 70.3368 64.9279 69.8436 64.6634 69.4957C64.3989 69.1477 63.9105 69.0633 63.5445 69.3022L64 70ZM62.3876 70.3595L62.4904 69.5325C62.2538 69.5031 62.016 69.5764 61.837 69.7339L62.3876 70.3595ZM56 75.981L55.4495 75.3554C55.2032 75.5721 55.107 75.913 55.2036 76.2264C55.3003 76.5399 55.5717 76.7675 55.8972 76.8079L56 75.981ZM57.6124 75.6215L58.0679 76.3193C58.1013 76.2975 58.133 76.2734 58.163 76.247L57.6124 75.6215ZM63.5445 69.3022C63.2558 69.4906 62.8753 69.5804 62.4904 69.5325L62.2848 71.1865C63.0419 71.2806 63.8213 71.1118 64.4555 70.6978L63.5445 69.3022ZM61.837 69.7339L55.4495 75.3554L56.5505 76.6065L62.9381 70.9851L61.837 69.7339ZM55.8972 76.8079C56.6543 76.9021 57.4337 76.7332 58.0679 76.3193L57.1569 74.9236C56.8682 75.112 56.4877 75.2019 56.1028 75.154L55.8972 76.8079ZM58.163 76.247L64.5505 70.6256L63.4495 69.3744L57.0619 74.9959L58.163 76.247Z" fill="#1C2028" mask="url(#path-57-inside-18_8_17234)"/>
<path d="M55.4187 73.7917L60.2983 68.9259C60.3414 69.0684 60.3985 69.207 60.469 69.3394L55.4855 74.3089C55.4323 74.1426 55.4094 73.9675 55.4187 73.7917Z" fill="#1C2028" stroke="#1C2028" stroke-width="0.833333" stroke-linejoin="round"/>
<path d="M55.596 75.197L61.5217 69.5862C61.7197 69.7594 61.9437 69.902 62.1852 70.0101L56.332 75.5523C56.0578 75.4876 55.8064 75.365 55.596 75.197Z" fill="#1C2028" stroke="#1C2028" stroke-width="0.833333" stroke-linejoin="round"/>
<path d="M53.0169 54.3499L58.1444 49.4041L49.9831 76.6501L44.8556 81.5959L53.0169 54.3499Z" fill="#1C2028" stroke="#1C2028" stroke-width="0.833333" stroke-linejoin="round"/>
<path d="M18.9923 42.5833L24.0599 37.4167H32.0077L26.9401 42.5833H18.9923Z" fill="#1C2028" stroke="#1C2028" stroke-width="0.833333" stroke-linejoin="round"/>
<path d="M40.8556 80.5959L49.0169 53.3499L54.1444 48.4041L45.9831 75.6501L40.8556 80.5959Z" fill="#1C2028" stroke="#1C2028" stroke-width="0.833333" stroke-linejoin="round"/>
<path d="M36.8964 59.1128L42.6546 54.4394C42.9087 54.4875 43.1411 54.5765 43.3395 54.6958L37.4791 59.4521C37.3026 59.3163 37.1063 59.2026 36.8964 59.1128Z" fill="#1C2028" stroke="#1C2028" stroke-width="0.833333" stroke-linejoin="round"/>
<path d="M38.5098 60.4526L43.5095 54.7548C43.5696 54.9683 43.594 55.1955 43.5791 55.4241L38.7067 60.9769C38.659 60.7956 38.5932 60.6197 38.5098 60.4526Z" fill="#1C2028" stroke="#1C2028" stroke-width="0.833333" stroke-linejoin="round"/>
<mask id="path-66-inside-19_8_17234" fill="white">
<path d="M40.5891 54.3785C40.9929 54.0774 41.5004 53.948 42 54.019L36.4109 59.6405C35.9112 59.5695 35.4037 59.6988 35 60L40.5891 54.3785Z"/>
</mask>
<path d="M40.5891 54.3785C40.9929 54.0774 41.5004 53.948 42 54.019L36.4109 59.6405C35.9112 59.5695 35.4037 59.6988 35 60L40.5891 54.3785Z" fill="#1C2028"/>
<path d="M42 54.019L42.591 54.6066C42.8133 54.383 42.8903 54.053 42.7901 53.7541C42.6898 53.4551 42.4294 53.2383 42.1172 53.194L42 54.019ZM40.5891 54.3785L40.0909 53.7106C40.058 53.7351 40.0271 53.7619 39.9982 53.791L40.5891 54.3785ZM35 60L34.409 59.4124C34.1013 59.7219 34.0845 60.2164 34.3705 60.5461C34.6565 60.8758 35.1484 60.9289 35.4983 60.668L35 60ZM36.4109 59.6405L36.2936 60.4655C36.5539 60.5025 36.8164 60.4145 37.0018 60.228L36.4109 59.6405ZM42.1172 53.194C41.4002 53.0921 40.6714 53.2776 40.0909 53.7106L41.0874 55.0465C41.3144 54.8772 41.6006 54.804 41.8828 54.8441L42.1172 53.194ZM39.9982 53.791L34.409 59.4124L35.591 60.5876L41.1801 54.9661L39.9982 53.791ZM35.4983 60.668C35.7253 60.4986 36.0114 60.4254 36.2936 60.4655L36.5281 58.8154C35.8111 58.7136 35.0822 58.899 34.5017 59.332L35.4983 60.668ZM37.0018 60.228L42.591 54.6066L41.409 53.4315L35.8199 59.0529L37.0018 60.228Z" fill="#1C2028" mask="url(#path-66-inside-19_8_17234)"/>
<mask id="path-68-inside-20_8_17234" fill="white">
<path d="M44 56C43.9431 56.4234 43.7592 56.8132 43.4794 57.1136L38.0006 62.9993C38.2801 62.699 38.4637 62.3095 38.5206 61.8864L44 56Z"/>
</mask>
<path d="M44 56C43.9431 56.4234 43.7592 56.8132 43.4794 57.1136L38.0006 62.9993C38.2801 62.699 38.4637 62.3095 38.5206 61.8864L44 56Z" fill="#1C2028"/>
<path d="M37.6956 62.7155C37.6954 62.7157 37.6952 62.7159 37.695 62.7161L38.305 63.2839C38.3052 63.2837 38.3054 63.2834 38.3057 63.2831L37.6956 62.7155ZM43.4794 57.1136L42.8696 56.5457L42.8694 56.5458L43.4794 57.1136ZM44 56L44.8259 56.1111C44.8743 55.7514 44.6843 55.4017 44.3562 55.2466C44.0281 55.0915 43.6373 55.1666 43.39 55.4322L44 56ZM38.5206 61.8864L37.9107 61.3186C37.7931 61.4448 37.7177 61.6044 37.6947 61.7753L38.5206 61.8864ZM38.0006 62.9993L37.3905 62.4317C37.0771 62.7686 37.096 63.2958 37.4329 63.6093C37.7698 63.9229 38.2971 63.9039 38.6106 63.5671L38.0006 62.9993ZM44.0892 57.6815C44.4894 57.2519 44.7465 56.7014 44.8259 56.1111L43.1741 55.8889C43.1396 56.1455 43.029 56.3745 42.8696 56.5457L44.0892 57.6815ZM43.39 55.4322L37.9107 61.3186L39.1306 62.4542L44.61 56.5678L43.39 55.4322ZM37.6947 61.7753C37.6602 62.0317 37.5498 62.2605 37.3905 62.4317L38.6107 63.5669C39.0104 63.1374 39.2672 62.5873 39.3465 61.9975L37.6947 61.7753ZM38.6106 63.5671L44.0893 57.6814L42.8694 56.5458L37.3907 62.4315L38.6106 63.5671Z" fill="#1C2028" mask="url(#path-68-inside-20_8_17234)"/>
<mask id="path-70-inside-21_8_17234" fill="white">
<path d="M44 57C43.9212 57.0679 43.8361 57.1312 43.7454 57.1891L37 63C37.0908 62.942 37.1758 62.8787 37.2546 62.8109L44 57Z"/>
</mask>
<path d="M44 57C43.9212 57.0679 43.8361 57.1312 43.7454 57.1891L37 63C37.0908 62.942 37.1758 62.8787 37.2546 62.8109L44 57Z" fill="#1C2028"/>
<path d="M43.7454 57.1891L43.2967 56.4869C43.2633 56.5082 43.2315 56.5319 43.2015 56.5578L43.7454 57.1891ZM44 57L44.5439 57.6314C44.8926 57.331 44.9317 56.8049 44.6314 56.4562C44.3311 56.1075 43.805 56.0682 43.4563 56.3685L44 57ZM37.2546 62.8109L37.7984 63.4424L37.7985 63.4422L37.2546 62.8109ZM37 63L36.4561 62.3686C36.1249 62.654 36.0705 63.1468 36.3315 63.4975C36.5925 63.8483 37.0802 63.9376 37.4487 63.7022L37 63ZM44.194 57.8914C44.3175 57.8125 44.4344 57.7256 44.5437 57.6315L43.4563 56.3685C43.4079 56.4101 43.3547 56.4498 43.2967 56.4869L44.194 57.8914ZM43.4561 56.3686L36.7107 62.1795L37.7985 63.4422L44.5439 57.6314L43.4561 56.3686ZM36.7109 62.1794C36.6625 62.221 36.6093 62.2607 36.5513 62.2978L37.4487 63.7022C37.5722 63.6233 37.689 63.5365 37.7984 63.4424L36.7109 62.1794ZM37.5439 63.6314L44.2893 57.8205L43.2015 56.5578L36.4561 62.3686L37.5439 63.6314Z" fill="#1C2028" mask="url(#path-70-inside-21_8_17234)"/>
<path d="M35.167 64.2188L37.2842 61.9901L38.833 60.7812L36.7158 63.0099L35.167 64.2188Z" fill="#1C2028" stroke="#1C2028" stroke-width="0.833333" stroke-linejoin="round"/>
<path d="M31.2719 62.2889L33.2015 60.3454L36.7281 57.7111L34.7985 59.6546L31.2719 62.2889Z" fill="#1C2028" stroke="#1C2028" stroke-width="0.833333" stroke-linejoin="round"/>
<path d="M43.5517 67.3199L38.0146 73.1872C37.9056 72.9486 37.7621 72.7274 37.5882 72.5319L43.1926 66.5933C43.3625 66.8013 43.4863 67.0496 43.5517 67.3199Z" fill="#1C2028" stroke="#1C2028" stroke-width="0.833333" stroke-linejoin="round"/>
<path d="M31.6526 67.697L37.043 62.5389L42.3474 66.303L36.957 71.4611L31.6526 67.697Z" fill="#1C2028" stroke="#1C2028" stroke-width="0.833333" stroke-linejoin="round"/>
<mask id="path-76-inside-22_8_17234" fill="white">
<path d="M43.9808 68C44.0525 68.4952 43.9218 68.9982 43.6175 69.3983L38 75C38.3043 74.5998 38.435 74.0968 38.3633 73.6017L43.9808 68Z"/>
</mask>
<path d="M43.9808 68C44.0525 68.4952 43.9218 68.9982 43.6175 69.3983L38 75C38.3043 74.5998 38.435 74.0968 38.3633 73.6017L43.9808 68Z" fill="#1C2028"/>
<path d="M43.6175 69.3983L44.2059 69.9884C44.2328 69.9616 44.2578 69.933 44.2808 69.9028L43.6175 69.3983ZM43.9808 68L44.8055 67.8805C44.7603 67.5686 44.5431 67.3089 44.2441 67.2094C43.9451 67.1098 43.6155 67.1874 43.3923 67.4099L43.9808 68ZM38.3633 73.6017L37.7749 73.0116C37.5884 73.1975 37.5008 73.4606 37.5386 73.7212L38.3633 73.6017ZM38 75L37.3367 74.4955C37.0715 74.8443 37.1216 75.3389 37.4514 75.6273C37.7813 75.9158 38.2782 75.8995 38.5884 75.5901L38 75ZM44.2808 69.9028C44.7197 69.3257 44.9095 68.5981 44.8055 67.8805L43.156 68.1195C43.1956 68.3922 43.124 68.6706 42.9542 68.8939L44.2808 69.9028ZM43.3923 67.4099L37.7749 73.0116L38.9517 74.1918L44.5692 68.5901L43.3923 67.4099ZM37.5386 73.7212C37.5781 73.9939 37.5065 74.2723 37.3367 74.4955L38.6633 75.5045C39.1022 74.9274 39.292 74.1998 39.188 73.4822L37.5386 73.7212ZM38.5884 75.5901L44.2059 69.9884L43.0291 68.8082L37.4116 74.4099L38.5884 75.5901Z" fill="#1C2028" mask="url(#path-76-inside-22_8_17234)"/>
<mask id="path-78-inside-23_8_17234" fill="white">
<path d="M44 69C43.9455 69.0715 43.8864 69.1389 43.8233 69.2017L38.0007 74.9993C38.0636 74.9367 38.1224 74.8695 38.1767 74.7983L44 69Z"/>
</mask>
<path d="M44 69C43.9455 69.0715 43.8864 69.1389 43.8233 69.2017L38.0007 74.9993C38.0636 74.9367 38.1224 74.8695 38.1767 74.7983L44 69Z" fill="#1C2028"/>
<path d="M37.7066 74.7042L37.706 74.7048L38.294 75.2952C38.2941 75.2952 38.2941 75.2952 38.2942 75.295C38.2943 75.2949 38.2945 75.2947 38.2948 75.2945L37.7066 74.7042ZM43.8233 69.2017L43.2354 68.6111L43.2353 68.6112L43.8233 69.2017ZM44 69L44.6629 69.5049C44.9284 69.1564 44.8786 68.6618 44.549 68.3731C44.2194 68.0844 43.7225 68.1003 43.412 68.4095L44 69ZM38.1767 74.7983L37.5887 74.2077C37.5618 74.2345 37.5368 74.2631 37.5138 74.2933L38.1767 74.7983ZM38.0007 74.9993L37.4125 74.409C37.0865 74.7337 37.0855 75.2613 37.4102 75.5874C37.735 75.9135 38.2625 75.9146 38.5887 75.5899L38.0007 74.9993ZM44.4111 69.7924C44.501 69.7029 44.5852 69.6069 44.6629 69.5049L43.3371 68.4951C43.3058 68.5361 43.2718 68.5749 43.2354 68.6111L44.4111 69.7924ZM43.412 68.4095L37.5887 74.2077L38.7647 75.3888L44.588 69.5905L43.412 68.4095ZM37.5138 74.2933C37.4826 74.3342 37.4488 74.3728 37.4125 74.409L38.5888 75.5897C38.6784 75.5005 38.7622 75.4049 38.8397 75.3032L37.5138 74.2933ZM38.5887 75.5899L44.4113 69.7923L43.2353 68.6112L37.4127 74.4088L38.5887 75.5899Z" fill="#1C2028" mask="url(#path-78-inside-23_8_17234)"/>
<mask id="path-80-inside-24_8_17234" fill="white">
<path d="M44 69C43.6519 69.3315 43.1964 69.5494 42.7009 69.6161L36 76C36.4955 75.9333 36.951 75.7154 37.2991 75.3839L44 69Z"/>
</mask>
<path d="M44 69C43.6519 69.3315 43.1964 69.5494 42.7009 69.6161L36 76C36.4955 75.9333 36.951 75.7154 37.2991 75.3839L44 69Z" fill="#1C2028"/>
<path d="M42.7009 69.6161L42.5897 68.7902C42.4156 68.8136 42.2533 68.8915 42.1261 69.0127L42.7009 69.6161ZM44 69L44.5748 69.6034C44.908 69.2859 44.9208 68.7585 44.6034 68.4253C44.286 68.092 43.7586 68.0792 43.4253 68.3965L44 69ZM37.2991 75.3839L37.8738 75.9874L37.8739 75.9873L37.2991 75.3839ZM36 76L35.4252 75.3966C35.1637 75.6458 35.0924 76.035 35.2487 76.3606C35.405 76.6862 35.7532 76.8741 36.1112 76.8259L36 76ZM42.812 70.4419C43.4773 70.3524 44.0963 70.0591 44.5747 69.6035L43.4253 68.3965C43.2075 68.6039 42.9155 68.7463 42.5897 68.7902L42.812 70.4419ZM43.4252 68.3966L36.7243 74.7806L37.8739 75.9873L44.5748 69.6034L43.4252 68.3966ZM36.7245 74.7805C36.5067 74.9879 36.2146 75.1303 35.8888 75.1741L36.1112 76.8259C36.7765 76.7363 37.3954 76.443 37.8738 75.9874L36.7245 74.7805ZM36.5748 76.6034L43.2757 70.2194L42.1261 69.0127L35.4252 75.3966L36.5748 76.6034Z" fill="#1C2028" mask="url(#path-80-inside-24_8_17234)"/>
<mask id="path-82-inside-25_8_17234" fill="white">
<path d="M50 77C49.9343 77.2319 49.8198 77.4493 49.6633 77.6393L44 83C44.1565 82.81 44.271 82.5926 44.3367 82.3607L50 77Z"/>
</mask>
<path d="M50 77C49.9343 77.2319 49.8198 77.4493 49.6633 77.6393L44 83C44.1565 82.81 44.271 82.5926 44.3367 82.3607L50 77Z" fill="#1C2028"/>
<path d="M49.6633 77.6393L50.2361 78.2445C50.2611 78.2209 50.2846 78.1957 50.3065 78.1691L49.6633 77.6393ZM50 77L50.8018 77.2272C50.904 76.8663 50.7526 76.4815 50.4317 76.2872C50.1108 76.0929 49.6996 76.1369 49.4271 76.3948L50 77ZM44.3367 82.3607L43.7639 81.7555C43.6549 81.8586 43.5759 81.9892 43.535 82.1335L44.3367 82.3607ZM44 83L43.3568 82.4702C43.0769 82.81 43.1096 83.3088 43.4314 83.6092C43.7532 83.9096 44.2532 83.9078 44.5729 83.6052L44 83ZM50.3065 78.1691C50.5346 77.8922 50.704 77.5723 50.8018 77.2272L49.1982 76.7728C49.1646 76.8916 49.105 77.0063 49.0201 77.1095L50.3065 78.1691ZM49.4271 76.3948L43.7639 81.7555L44.9096 82.9659L50.5729 77.6052L49.4271 76.3948ZM43.535 82.1335C43.5013 82.2523 43.4417 82.367 43.3568 82.4702L44.6432 83.5298C44.8713 83.2529 45.0407 82.933 45.1385 82.5879L43.535 82.1335ZM44.5729 83.6052L50.2361 78.2445L49.0904 77.0341L43.4271 82.3948L44.5729 83.6052Z" fill="#1C2028" mask="url(#path-82-inside-25_8_17234)"/>
<mask id="path-84-inside-26_8_17234" fill="white">
<path d="M50 77C49.9494 77.0754 49.8949 77.1469 49.8369 77.2142L44.0048 83.9944C44.0611 83.9287 44.114 83.8591 44.1631 83.7858L50 77Z"/>
</mask>
<path d="M50 77C49.9494 77.0754 49.8949 77.1469 49.8369 77.2142L44.0048 83.9944C44.0611 83.9287 44.114 83.8591 44.1631 83.7858L50 77Z" fill="#1C2028"/>
<path d="M43.6885 83.7232C43.6872 83.7247 43.6859 83.7262 43.6846 83.7277L44.3154 84.2723C44.3174 84.27 44.3193 84.2678 44.3212 84.2655L43.6885 83.7232ZM49.8369 77.2142L49.206 76.6697L49.2051 76.6708L49.8369 77.2142ZM50 77L50.6921 77.4642C50.9377 77.098 50.8555 76.6039 50.5047 76.3369C50.1539 76.0699 49.6557 76.1223 49.3682 76.4566L50 77ZM44.1631 83.7858L43.5314 83.2424C43.5097 83.2676 43.4896 83.294 43.4711 83.3216L44.1631 83.7858ZM44.0048 83.9944L43.3721 83.452C43.0728 83.8013 43.113 84.327 43.462 84.6266C43.8109 84.9263 44.3367 84.8865 44.6366 84.5378L44.0048 83.9944ZM50.4677 77.7587C50.5481 77.6655 50.623 77.5671 50.6921 77.4642L49.3079 76.5358C49.2758 76.5836 49.2417 76.6283 49.206 76.6697L50.4677 77.7587ZM49.3682 76.4566L43.5314 83.2424L44.7949 84.3292L50.6318 77.5434L49.3682 76.4566ZM43.4711 83.3216C43.4399 83.3681 43.4068 83.4116 43.3721 83.452L44.6375 84.5367C44.7154 84.4458 44.7881 84.3501 44.8552 84.25L43.4711 83.3216ZM44.6366 84.5378L50.4686 77.7576L49.2051 76.6708L43.3731 83.4509L44.6366 84.5378Z" fill="#1C2028" mask="url(#path-84-inside-26_8_17234)"/>
<mask id="path-86-inside-27_8_17234" fill="white">
<path d="M32.7454 60.1891C32.8245 60.121 32.9095 60.0578 33 60L26.2546 65.8109C26.1641 65.8687 26.0791 65.9319 26 66L32.7454 60.1891Z"/>
</mask>
<path d="M32.7454 60.1891C32.8245 60.121 32.9095 60.0578 33 60L26.2546 65.8109C26.1641 65.8687 26.0791 65.9319 26 66L32.7454 60.1891Z" fill="#1C2028"/>
<path d="M33 60L33.5439 60.6314C33.8751 60.346 33.9295 59.8532 33.6685 59.5025C33.4075 59.1517 32.9197 59.0624 32.5513 59.2978L33 60ZM32.7454 60.1891L32.2017 59.5576L32.2015 59.5577L32.7454 60.1891ZM26 66L25.4561 65.3686C25.1074 65.669 25.0683 66.1951 25.3686 66.5438C25.6689 66.8925 26.195 66.9318 26.5437 66.6315L26 66ZM26.2546 65.8109L26.7032 66.5131C26.7366 66.4918 26.7684 66.4681 26.7985 66.4423L26.2546 65.8109ZM32.5513 59.2978C32.4282 59.3764 32.3113 59.4632 32.2017 59.5576L33.2892 60.8206C33.3377 60.7788 33.3909 60.7392 33.4487 60.7022L32.5513 59.2978ZM32.2015 59.5577L25.4561 65.3686L26.5439 66.6314L33.2893 60.8205L32.2015 59.5577ZM26.5437 66.6315C26.5922 66.5897 26.6454 66.5501 26.7032 66.5131L25.8059 65.1087C25.6828 65.1873 25.5659 65.2741 25.4563 65.3685L26.5437 66.6315ZM26.7985 66.4423L33.5439 60.6314L32.4561 59.3686L25.7107 65.1795L26.7985 66.4423Z" fill="#1C2028" mask="url(#path-86-inside-27_8_17234)"/>
<path d="M35.6937 75.5147L40.6504 70.5294C40.7858 70.6004 40.9276 70.6576 41.0734 70.7005L36.2207 75.5812C36.0414 75.5907 35.863 75.5678 35.6937 75.5147Z" fill="#1C2028" stroke="#1C2028" stroke-width="0.833333" stroke-linejoin="round"/>
<mask id="path-89-inside-28_8_17234" fill="white">
<path d="M50 78C49.8579 78.1235 49.6966 78.2299 49.5204 78.3162L43 84C43.1762 83.9137 43.3375 83.8073 43.4796 83.6838L50 78Z"/>
</mask>
<path d="M50 78C49.8579 78.1235 49.6966 78.2299 49.5204 78.3162L43 84C43.1762 83.9137 43.3375 83.8073 43.4796 83.6838L50 78Z" fill="#1C2028"/>
<path d="M49.5204 78.3162L49.154 77.5677C49.0886 77.5997 49.0277 77.6401 48.9728 77.688L49.5204 78.3162ZM50 78L50.5476 78.6282C50.8943 78.3259 50.9306 77.7999 50.6286 77.453C50.3267 77.106 49.8007 77.0692 49.4535 77.3709L50 78ZM43.4796 83.6838L44.0261 84.3129L44.0272 84.312L43.4796 83.6838ZM43 84L42.4524 83.3718C42.1372 83.6466 42.0744 84.1125 42.3057 84.4609C42.537 84.8093 42.9907 84.9323 43.3664 84.7485L43 84ZM49.8867 79.0646C50.1256 78.9477 50.3479 78.8017 50.5465 78.6291L49.4535 77.3709C49.3679 77.4453 49.2676 77.5121 49.154 77.5677L49.8867 79.0646ZM49.4524 77.3718L42.9321 83.0557L44.0272 84.312L50.5476 78.6282L49.4524 77.3718ZM42.9331 83.0547C42.8475 83.1291 42.7472 83.1959 42.6336 83.2515L43.3664 84.7485C43.6052 84.6316 43.8275 84.4855 44.0261 84.3129L42.9331 83.0547ZM43.5476 84.6282L50.0679 78.9443L48.9728 77.688L42.4524 83.3718L43.5476 84.6282Z" fill="#1C2028" mask="url(#path-89-inside-28_8_17234)"/>
<mask id="path-91-inside-29_8_17234" fill="white">
<path d="M31.647 60.5557C31.738 60.3504 31.8571 60.1632 31.9993 60.0008L26.353 66.4443C26.2104 66.6068 26.0912 66.7943 26 67L31.647 60.5557Z"/>
</mask>
<path d="M31.647 60.5557C31.738 60.3504 31.8571 60.1632 31.9993 60.0008L26.353 66.4443C26.2104 66.6068 26.0912 66.7943 26 67L31.647 60.5557Z" fill="#1C2028"/>
<path d="M31.6867 59.7254C31.6864 59.7257 31.6861 59.726 31.6858 59.7263L32.3127 60.2754C32.3129 60.2751 32.3131 60.2749 32.3133 60.2746L31.6867 59.7254ZM31.9993 60.0008L32.6262 60.5499C32.9294 60.2037 32.8945 59.6773 32.5484 59.374C32.2022 59.0708 31.6758 59.1055 31.3725 59.4516L31.9993 60.0008ZM31.647 60.5557L32.2738 61.1049C32.3293 61.0416 32.3748 60.9703 32.4089 60.8933L31.647 60.5557ZM26 67L25.2381 66.6624C25.0713 67.0389 25.2045 67.4807 25.5515 67.7023C25.8985 67.924 26.3554 67.8589 26.6267 67.5492L26 67ZM26.353 66.4443L26.9796 66.9936L26.9797 66.9935L26.353 66.4443ZM31.3724 59.4518C31.173 59.6794 31.0091 59.9384 30.8851 60.2182L32.4089 60.8933C32.467 60.7624 32.5411 60.647 32.6262 60.5499L31.3724 59.4518ZM31.0203 60.0065L25.3733 66.4508L26.6267 67.5492L32.2738 61.1049L31.0203 60.0065ZM26.7619 67.3376C26.82 67.2064 26.8943 67.0908 26.9796 66.9936L25.7264 65.8949C25.5265 66.1228 25.3623 66.3821 25.2381 66.6624L26.7619 67.3376ZM26.9797 66.9935L32.626 60.5501L31.3725 59.4516L25.7262 65.8951L26.9797 66.9935Z" fill="#1C2028" mask="url(#path-91-inside-29_8_17234)"/>
<mask id="path-93-inside-30_8_17234" fill="white">
<path d="M49 78C48.7906 78.1273 48.5596 78.2087 48.3204 78.2392L43 84C43.2391 83.9694 43.4702 83.8881 43.6796 83.7608L49 78Z"/>
</mask>
<path d="M49 78C48.7906 78.1273 48.5596 78.2087 48.3204 78.2392L43 84C43.2391 83.9694 43.4702 83.8881 43.6796 83.7608L49 78Z" fill="#1C2028"/>
<path d="M48.3204 78.2392L48.2147 77.4126C48.0204 77.4375 47.8411 77.53 47.7082 77.6738L48.3204 78.2392ZM49 78L49.6122 78.5654C49.8941 78.2602 49.9081 77.7939 49.645 77.4723C49.3819 77.1507 48.9221 77.0721 48.5671 77.2879L49 78ZM43.6796 83.7608L44.1125 84.4728C44.1788 84.4325 44.2391 84.3831 44.2918 84.3262L43.6796 83.7608ZM43 84L42.3878 83.4346C42.1501 83.692 42.0988 84.0706 42.2594 84.382C42.42 84.6934 42.7582 84.871 43.1057 84.8266L43 84ZM48.4261 79.0658C48.7831 79.0202 49.1254 78.899 49.4329 78.7121L48.5671 77.2879C48.4558 77.3556 48.336 77.3971 48.2147 77.4126L48.4261 79.0658ZM48.3878 77.4346L43.0674 83.1954L44.2918 84.3262L49.6122 78.5654L48.3878 77.4346ZM43.2467 83.0487C43.1354 83.1164 43.0155 83.1579 42.8943 83.1734L43.1057 84.8266C43.4627 84.7809 43.805 84.6598 44.1125 84.4728L43.2467 83.0487ZM43.6122 84.5654L48.9326 78.8046L47.7082 77.6738L42.3878 83.4346L43.6122 84.5654Z" fill="#1C2028" mask="url(#path-93-inside-30_8_17234)"/>
<mask id="path-95-inside-31_8_17234" fill="white">
<path d="M31.7918 61.9161C31.7918 61.5981 31.8631 61.2844 32 61L26.2082 67.0839C26.0713 67.3684 26 67.682 26 68L31.7918 61.9161Z"/>
</mask>
<path d="M31.7918 61.9161C31.7918 61.5981 31.8631 61.2844 32 61L26.2082 67.0839C26.0713 67.3684 26 67.682 26 68L31.7918 61.9161Z" fill="#1C2028"/>
<path d="M32 61L32.7509 61.3614C32.9288 60.9918 32.8112 60.5477 32.4738 60.3144C32.1363 60.0812 31.6793 60.1283 31.3964 60.4254L32 61ZM31.7918 61.9161L32.3954 62.4906C32.5429 62.3357 32.6252 62.13 32.6252 61.9161H31.7918ZM26 68H25.1667C25.1667 68.3408 25.3742 68.6472 25.6906 68.7738C26.007 68.9003 26.3686 68.8214 26.6036 68.5746L26 68ZM26.2082 67.0839L25.6046 66.5094C25.5447 66.5723 25.495 66.6442 25.4573 66.7225L26.2082 67.0839ZM31.2491 60.6386C31.0575 61.0366 30.9585 61.4739 30.9585 61.9161H32.6252C32.6252 61.7222 32.6687 61.5322 32.7509 61.3614L31.2491 60.6386ZM31.1883 61.3415L25.3964 67.4254L26.6036 68.5746L32.3954 62.4906L31.1883 61.3415ZM26.8333 68C26.8333 67.8062 26.8768 67.6162 26.9591 67.4454L25.4573 66.7225C25.2657 67.1206 25.1667 67.5578 25.1667 68H26.8333ZM26.8117 67.6585L32.6036 61.5746L31.3964 60.4254L25.6046 66.5094L26.8117 67.6585Z" fill="#1C2028" mask="url(#path-95-inside-31_8_17234)"/>
<mask id="path-97-inside-32_8_17234" fill="white">
<path d="M45.9213 75.8179C45.8947 75.5426 45.9214 75.2645 46 75L40.0887 81.1821C40.0101 81.4466 39.9834 81.7247 40.01 82L45.9213 75.8179Z"/>
</mask>
<path d="M45.9213 75.8179C45.8947 75.5426 45.9214 75.2645 46 75L40.0887 81.1821C40.0101 81.4466 39.9834 81.7247 40.01 82L45.9213 75.8179Z" fill="#1C2028"/>
<path d="M46 75L46.7989 75.2372C46.9084 74.8683 46.7511 74.4724 46.4183 74.2792C46.0855 74.0861 45.6637 74.146 45.3977 74.4241L46 75ZM45.9213 75.8179L46.5236 76.3939C46.6911 76.2186 46.7741 75.9791 46.7508 75.7378L45.9213 75.8179ZM40.01 82L39.1805 82.0801C39.2118 82.4045 39.4293 82.6808 39.7373 82.7875C40.0452 82.8941 40.3871 82.8114 40.6123 82.5759L40.01 82ZM40.0887 81.1821L39.4864 80.6061C39.3949 80.7018 39.3275 80.8179 39.2898 80.9448L40.0887 81.1821ZM45.2011 74.7628C45.092 75.1304 45.0549 75.5162 45.0918 75.8981L46.7508 75.7378C46.7344 75.569 46.7509 75.3987 46.7989 75.2372L45.2011 74.7628ZM45.319 75.242L39.4077 81.4241L40.6123 82.5759L46.5236 76.3939L45.319 75.242ZM40.8394 81.9199C40.8231 81.751 40.8396 81.5807 40.8875 81.4193L39.2898 80.9448C39.1807 81.3124 39.1436 81.6983 39.1805 82.0801L40.8394 81.9199ZM40.691 81.758L46.6023 75.5759L45.3977 74.4241L39.4864 80.6061L40.691 81.758Z" fill="#1C2028" mask="url(#path-97-inside-32_8_17234)"/>
<path d="M27.6066 69.4223L32.97 63.5704L40.3934 69.5777L35.03 75.4296L27.6066 69.4223Z" fill="#1C2028" stroke="#1C2028" stroke-width="0.833333" stroke-linejoin="round"/>
<mask id="path-100-inside-33_8_17234" fill="white">
<path d="M49 78.0628C48.7226 78.0943 48.4413 78.0729 48.1727 78L42 83.9231C42.2686 83.996 42.5499 84.0174 42.8273 83.9859L49 78.0628Z"/>
</mask>
<path d="M49 78.0628C48.7226 78.0943 48.4413 78.0729 48.1727 78L42 83.9231C42.2686 83.996 42.5499 84.0174 42.8273 83.9859L49 78.0628Z" fill="#1C2028"/>
<path d="M48.1727 78L48.391 77.1958C48.1087 77.1191 47.8068 77.1962 47.5957 77.3987L48.1727 78ZM49 78.0628L49.577 78.6641C49.8349 78.4167 49.9062 78.0323 49.7544 77.7088C49.6025 77.3852 49.2613 77.1946 48.9061 77.2348L49 78.0628ZM42.8273 83.9859L42.9212 84.814C43.1027 84.7934 43.2725 84.7137 43.4043 84.5872L42.8273 83.9859ZM42 83.9231L41.423 83.3218C41.2063 83.5297 41.1183 83.8381 41.1925 84.1291C41.2668 84.4201 41.4919 84.6486 41.7817 84.7273L42 83.9231ZM47.9544 78.8042C48.3249 78.9048 48.7121 78.9341 49.0939 78.8909L48.9061 77.2348C48.733 77.2544 48.5577 77.241 48.391 77.1958L47.9544 78.8042ZM48.423 77.4616L42.2503 83.3846L43.4043 84.5872L49.577 78.6641L48.423 77.4616ZM42.7335 83.1579C42.5603 83.1775 42.385 83.1641 42.2183 83.1189L41.7817 84.7273C42.1522 84.8279 42.5394 84.8572 42.9212 84.814L42.7335 83.1579ZM42.577 84.5244L48.7497 78.6013L47.5957 77.3987L41.423 83.3218L42.577 84.5244Z" fill="#1C2028" mask="url(#path-100-inside-33_8_17234)"/>
<mask id="path-102-inside-34_8_17234" fill="white">
<path d="M47 76.7893C46.8546 76.545 46.7642 76.2766 46.7339 76L40 82.2107C40.0303 82.4873 40.1208 82.7556 40.2661 83L47 76.7893Z"/>
</mask>
<path d="M47 76.7893C46.8546 76.545 46.7642 76.2766 46.7339 76L40 82.2107C40.0303 82.4873 40.1208 82.7556 40.2661 83L47 76.7893Z" fill="#1C2028"/>
<path d="M46.7339 76L47.5623 75.9093C47.528 75.5966 47.3207 75.3299 47.0262 75.2196C46.7316 75.1093 46.4001 75.1742 46.1689 75.3874L46.7339 76ZM47 76.7893L47.565 77.4019C47.8545 77.1349 47.9175 76.7017 47.7162 76.3633L47 76.7893ZM40.2661 83L39.5499 83.426C39.6784 83.642 39.8974 83.7884 40.1461 83.8246C40.3947 83.8608 40.6464 83.7829 40.8311 83.6126L40.2661 83ZM40 82.2107L39.435 81.5981C39.2406 81.7774 39.1428 82.0385 39.1716 82.3014L40 82.2107ZM45.9055 76.0907C45.9491 76.4885 46.0789 76.8708 46.2838 77.2153L47.7162 76.3633C47.6304 76.2191 47.5793 76.0648 47.5623 75.9093L45.9055 76.0907ZM46.435 76.1767L39.7011 82.3874L40.8311 83.6126L47.565 77.4019L46.435 76.1767ZM40.9823 82.574C40.8966 82.4298 40.8454 82.2755 40.8284 82.12L39.1716 82.3014C39.2152 82.6992 39.345 83.0815 39.5499 83.426L40.9823 82.574ZM40.565 82.8233L47.2989 76.6126L46.1689 75.3874L39.435 81.5981L40.565 82.8233Z" fill="#1C2028" mask="url(#path-102-inside-34_8_17234)"/>
<mask id="path-104-inside-35_8_17234" fill="white">
<path d="M32 62.9161C31.8631 62.6316 31.7918 62.318 31.7918 62L26 68.0839C26 68.4019 26.0713 68.7156 26.2082 69L32 62.9161Z"/>
</mask>
<path d="M32 62.9161C31.8631 62.6316 31.7918 62.318 31.7918 62L26 68.0839C26 68.4019 26.0713 68.7156 26.2082 69L32 62.9161Z" fill="#1C2028"/>
<path d="M31.7918 62H32.6252C32.6252 61.6592 32.4177 61.3528 32.1012 61.2262C31.7848 61.0997 31.4232 61.1786 31.1883 61.4254L31.7918 62ZM32 62.9161L32.6036 63.4907C32.8425 63.2396 32.9012 62.8669 32.7509 62.5546L32 62.9161ZM26.2082 69L25.4573 69.3614C25.576 69.608 25.8082 69.7806 26.0786 69.8232C26.349 69.8658 26.623 69.7728 26.8117 69.5746L26.2082 69ZM26 68.0839L25.3964 67.5093C25.2489 67.6643 25.1667 67.87 25.1667 68.0839H26ZM30.9585 62C30.9585 62.4422 31.0575 62.8794 31.2491 63.2775L32.7509 62.5546C32.6687 62.3838 32.6252 62.1938 32.6252 62H30.9585ZM31.3964 62.3415L25.6046 68.4254L26.8117 69.5746L32.6036 63.4907L31.3964 62.3415ZM26.9591 68.6386C26.8768 68.4678 26.8333 68.2778 26.8333 68.0839H25.1667C25.1667 68.5261 25.2657 68.9634 25.4573 69.3614L26.9591 68.6386ZM26.6036 68.6585L32.3954 62.5746L31.1883 61.4254L25.3964 67.5093L26.6036 68.6585Z" fill="#1C2028" mask="url(#path-104-inside-35_8_17234)"/>
<mask id="path-106-inside-36_8_17234" fill="white">
<path d="M48 78.3455C47.7279 78.2758 47.474 78.1584 47.2532 78L41 83.6545C41.2208 83.8129 41.4746 83.9304 41.7468 84L48 78.3455Z"/>
</mask>
<path d="M48 78.3455C47.7279 78.2758 47.474 78.1584 47.2532 78L41 83.6545C41.2208 83.8129 41.4746 83.9304 41.7468 84L48 78.3455Z" fill="#1C2028"/>
<path d="M47.2532 78L47.739 77.3229C47.4203 77.0942 46.9853 77.1188 46.6943 77.3819L47.2532 78ZM48 78.3455L48.5589 78.9636C48.7866 78.7577 48.8826 78.4434 48.809 78.1455C48.7353 77.8475 48.5039 77.6142 48.2065 77.5381L48 78.3455ZM41.7468 84L41.5402 84.8073C41.811 84.8766 42.0984 84.8055 42.3057 84.6181L41.7468 84ZM41 83.6545L40.4411 83.0364C40.2542 83.2055 40.1538 83.4499 40.168 83.7015C40.1822 83.9531 40.3095 84.1847 40.5142 84.3316L41 83.6545ZM46.7674 78.6771C47.0752 78.8979 47.4244 79.0584 47.7935 79.1528L48.2065 77.5381C48.0313 77.4933 47.8728 77.4189 47.739 77.3229L46.7674 78.6771ZM47.4411 77.7274L41.1878 83.3819L42.3057 84.6181L48.5589 78.9636L47.4411 77.7274ZM41.9533 83.1927C41.7781 83.1478 41.6195 83.0734 41.4858 82.9775L40.5142 84.3316C40.822 84.5525 41.1712 84.7129 41.5402 84.8073L41.9533 83.1927ZM41.5589 84.2726L47.8122 78.6181L46.6943 77.3819L40.4411 83.0364L41.5589 84.2726Z" fill="#1C2028" mask="url(#path-106-inside-36_8_17234)"/>
<path d="M40.539 83.4056L46.3884 77.6403C46.3924 77.6449 46.3964 77.6495 46.4005 77.6541L40.5507 83.4197C40.5468 83.415 40.5429 83.4103 40.539 83.4056Z" fill="#1C2028" stroke="#1C2028" stroke-width="0.833333" stroke-linejoin="round"/>
<path d="M26.5747 68.4235L32.2981 63.599C32.313 63.6147 32.3281 63.6302 32.3434 63.6455L26.6221 68.4683C26.6059 68.4536 26.5901 68.4386 26.5747 68.4235Z" fill="#1C2028" stroke="#1C2028" stroke-width="0.833333" stroke-linejoin="round"/>
<path d="M19.0143 91.5833L24.2421 86.4167H78.9857L73.7579 91.5833H19.0143Z" fill="#1C2028" stroke="#1C2028" stroke-width="0.833333" stroke-linejoin="round"/>
<path d="M18.4167 90.981V43.2806L23.5833 38.019V85.7194L18.4167 90.981Z" fill="#1C2028" stroke="#1C2028" stroke-width="0.833333" stroke-linejoin="round"/>
<path d="M33.415 38.0949H33.915V37.5949V27.5304C33.915 17.58 42.1132 9.5 52.2431 9.5C62.3729 9.5 70.5712 17.58 70.5712 27.5304V28.9186H62.1585V27.5304C62.1585 22.129 57.7117 17.7639 52.2431 17.7639C46.7745 17.7639 42.3277 22.129 42.3277 27.5304V37.5949V38.0949H42.8277H79.5V85.5H24.5V38.0949H33.415ZM59.0956 48.4406L59.0956 48.4407L59.0982 48.4314C59.2718 47.7872 59.1815 47.1018 58.8478 46.5233C58.5142 45.9451 57.9649 45.521 57.3198 45.3394C56.6748 45.1578 55.9831 45.2322 55.3926 45.5476C54.8018 45.863 54.358 46.3953 54.1593 47.032L54.1592 47.032L54.1565 47.0416L45.8811 75.5479C45.8806 75.5496 45.88 75.5512 45.8795 75.5529C45.7799 75.8746 45.746 76.2128 45.78 76.5477C45.8142 76.8844 45.9162 77.2107 46.0798 77.5075L46.5177 77.2661L46.0798 77.5075C46.2434 77.8042 46.4651 78.0654 46.7317 78.2759C46.9983 78.4864 47.3044 78.6421 47.632 78.7344C47.9596 78.8266 48.3024 78.8536 48.6406 78.8138C48.9787 78.7741 49.3058 78.6684 49.6026 78.5025C49.8993 78.3366 50.1601 78.1139 50.3693 77.8469L49.9757 77.5385L50.3693 77.8469C50.5774 77.5812 50.7303 77.2771 50.8186 76.952C50.819 76.9504 50.8195 76.9488 50.8199 76.9472L59.0956 48.4406ZM43.6777 66.0778L43.6777 66.0778L38.1512 61.999L43.6777 57.9203L43.6777 57.9202C44.2231 57.5177 44.5856 56.9168 44.6826 56.2484C44.7797 55.5798 44.6026 54.9017 44.1924 54.3633C43.7824 53.8253 43.1737 53.4715 42.5013 53.377L42.4317 53.8721L42.5013 53.377C41.8291 53.2825 41.1454 53.4544 40.6004 53.8567L32.3221 59.9673L32.6191 60.3695L32.3221 59.9673C32.0029 60.2029 31.7431 60.5089 31.5639 60.8617C31.3847 61.2144 31.2912 61.6038 31.2912 61.999C31.2912 62.3942 31.3847 62.7836 31.5639 63.1364L32.0097 62.9099L31.5639 63.1364C31.7431 63.4891 32.0029 63.7952 32.3221 64.0308L40.6004 70.1413C41.1454 70.5437 41.8291 70.7156 42.5013 70.6211L42.4317 70.1259L42.5013 70.6211C43.1737 70.5266 43.7824 70.1728 44.1924 69.6347C44.6026 69.0964 44.7797 68.4182 44.6826 67.7497C44.5856 67.0813 44.2231 66.4803 43.6777 66.0778ZM61.296 57.9202L61.2961 57.9203L66.8226 61.999L61.2961 66.0778L61.296 66.0778C60.7507 66.4803 60.3881 67.0813 60.2911 67.7497C60.1941 68.4182 60.3711 69.0964 60.7814 69.6347C61.1914 70.1728 61.8001 70.5266 62.4724 70.6211C63.1446 70.7156 63.8283 70.5437 64.3734 70.1413L72.6516 64.0308C72.9708 63.7952 73.2306 63.4891 73.4098 63.1364C73.589 62.7836 73.6825 62.3942 73.6825 61.999C73.6825 61.6038 73.589 61.2144 73.4098 60.8617C73.2306 60.5089 72.9708 60.2029 72.6516 59.9673L64.3734 53.8567C64.1034 53.6574 63.7966 53.5127 63.4706 53.4305C63.1446 53.3483 62.8054 53.3302 62.4724 53.377L62.542 53.8721L62.4724 53.377C62.1394 53.4238 61.8186 53.5348 61.5285 53.7038C61.2384 53.8729 60.9844 54.0969 60.7814 54.3633C60.5783 54.6298 60.4303 54.9334 60.346 55.257C60.2618 55.5806 60.2431 55.9175 60.2911 56.2484C60.3391 56.5792 60.4529 56.8971 60.6255 57.184C60.798 57.4709 61.026 57.7209 61.296 57.9202Z" fill="white" stroke="#1C2028"/>
</svg>
