<svg width="100" height="100" viewBox="0 0 100 100" fill="none" xmlns="http://www.w3.org/2000/svg">
<path d="M31.6252 46.3963C31.5415 46.2942 31.4709 46.1832 31.4141 46.0658C31.414 46.0657 31.414 46.0656 31.4139 46.0655L31.789 45.8841C31.7564 45.8168 31.7302 45.7473 31.7103 45.6765L31.6252 46.3963ZM31.6252 46.3963L46.3327 65.115C46.4629 65.2807 46.6215 65.418 46.7987 65.5221M31.6252 46.3963L46.7987 65.5221M47.8069 24.9341C47.7528 24.9288 47.6982 24.9261 47.6432 24.9261C47.1985 24.9261 46.7751 25.1037 46.4645 25.4145C46.4179 25.4611 46.3739 25.5106 46.3327 25.5631L31.6232 44.2842L48.9758 25.5911L48.9791 25.5952M47.8069 24.9341L47.766 25.3488L47.8062 24.9341C47.8064 24.9341 47.8067 24.9341 47.8069 24.9341ZM47.8069 24.9341C48.287 24.9809 48.7065 25.2309 48.9791 25.5952M48.9791 25.5952L63.6664 44.2882C63.7101 44.3421 63.7508 44.3992 63.788 44.4592C63.7882 44.4594 63.7883 44.4596 63.7884 44.4598L63.4342 44.6793C63.4976 44.7812 63.545 44.89 63.5763 45.0023L48.9791 25.5952ZM46.7987 65.5221C46.7989 65.5222 46.7991 65.5223 46.7992 65.5225L47.0102 65.1632C47.196 65.2726 47.4126 65.3354 47.6439 65.3354C47.9892 65.3354 48.3018 65.1954 48.528 64.9691C48.5728 64.9243 48.6142 64.876 48.6518 64.8249L46.7987 65.5221ZM17.6683 69.8717C18.8429 71.2699 20.6252 73.3853 22.184 75.222C23.7425 77.0583 25.1011 78.6442 25.3852 78.9283C25.4634 79.0065 25.5752 79.1828 25.7054 79.4681C25.8302 79.7414 25.9547 80.0758 26.0724 80.4328C26.3024 81.131 26.4968 81.8875 26.6077 82.3817L27.2497 92.9757H17.2962L16.3605 88.6095L16.3278 88.4571L16.2031 88.3635C14.4119 87.0201 10.5049 84.073 9.16946 83.0047C7.95489 82.033 7.64872 80.5611 7.64872 79.9754V79.9615L7.6478 79.9476L6.3061 59.8227L6.30522 59.8094L6.30364 59.7974L6.3036 59.797L6.30355 59.7967L6.30354 59.7966L6.30353 59.7965L6.30349 59.7962L6.30273 59.7894C6.30194 59.7823 6.30072 59.7704 6.29934 59.7543C6.29657 59.722 6.29316 59.6731 6.29123 59.611C6.28736 59.4862 6.28958 59.3122 6.31372 59.1173C6.36322 58.7174 6.49791 58.2832 6.80203 57.9792C6.98555 57.7957 7.24715 57.6423 7.63576 57.5775C8.4472 57.4422 9.0708 57.8374 9.52529 58.3298C9.75097 58.5743 9.92254 58.8311 10.038 59.0283C10.0954 59.1263 10.138 59.208 10.1657 59.2641C10.1785 59.2901 10.1881 59.3104 10.1945 59.3241L13.5407 70.7482L13.945 72.1285L14.3411 70.7459C14.425 70.453 14.5896 70.1574 14.8899 69.8867C15.6005 69.246 16.2802 69.2544 16.7968 69.4095C17.064 69.4898 17.2905 69.6116 17.4513 69.7151C17.531 69.7664 17.5928 69.812 17.6333 69.8437C17.6478 69.855 17.6595 69.8644 17.6683 69.8717ZM79.0823 88.3635L78.9576 88.4571L78.9249 88.6095L77.9892 92.9757H68.0357L68.6777 82.3817C68.7886 81.8875 68.983 81.131 69.213 80.4328C69.3306 80.0758 69.4552 79.7414 69.58 79.4681C69.7102 79.1828 69.822 79.0065 69.9001 78.9283C70.0788 78.7497 70.6583 78.0836 71.4243 77.19C73.1733 75.1494 75.9835 71.8163 77.6171 69.8717C77.6259 69.8644 77.6376 69.855 77.6521 69.8437C77.6926 69.812 77.7544 69.7664 77.8341 69.7151C77.9949 69.6116 78.2214 69.4898 78.4886 69.4095C79.0052 69.2544 79.6849 69.246 80.3955 69.8867C80.6957 70.1574 80.8604 70.453 80.9443 70.7459L81.3404 72.1285L81.7447 70.7482L85.0908 59.3243C85.0908 59.3243 85.0909 59.3242 85.0909 59.3242C85.0981 59.3085 85.1097 59.2841 85.1254 59.2526C85.1571 59.1892 85.2057 59.0973 85.271 58.9885C85.4026 58.7692 85.5972 58.489 85.8521 58.2339C86.2984 57.7874 86.8908 57.451 87.6496 57.5775C88.0587 57.6457 88.3279 57.8122 88.5136 58.0104C88.7043 58.214 88.8255 58.4715 88.8989 58.7418C88.9723 59.012 88.9936 59.2788 88.9955 59.4815C88.9965 59.5818 88.9926 59.6639 88.9887 59.7195C88.9878 59.7334 88.9868 59.7456 88.9859 59.756C88.985 59.7663 88.9842 59.7748 88.9835 59.7814L88.982 59.7951L88.9819 59.7962L88.9818 59.7966L88.9818 59.7968L88.9818 59.7972L88.9818 59.7973L88.9802 59.8094L88.9793 59.8227L87.6376 79.9476L87.6367 79.9615V79.9754C87.6367 80.5611 87.3305 82.033 86.1159 83.0047C84.7805 84.073 80.8735 87.0201 79.0823 88.3635ZM45.9772 49.4462L35.5357 44.7L45.9772 31.4108V49.4462ZM49.3106 49.4455V31.4124L59.7508 44.7L49.3106 49.4455ZM49.3106 59.2656V53.1071L56.8377 49.6856L49.3106 59.2656ZM38.4489 49.6857L45.9772 53.1077V59.2672L38.4489 49.6857ZM68.3867 66.2417C63.0706 71.5598 55.7392 74.8463 47.6427 74.8463C31.4125 74.8463 18.2526 61.6369 18.2526 45.339C18.2526 37.1711 21.5575 29.7793 26.8986 24.4363C32.2147 19.1182 39.5462 15.8317 47.6427 15.8317C63.8728 15.8317 77.0327 29.041 77.0327 45.339C77.0327 53.5068 73.7278 60.8987 68.3867 66.2417ZM31.3369 44.7997C31.2241 45.1285 31.2204 45.4729 31.3091 45.7888L31.8229 44.7291C31.7858 44.7952 31.7553 44.864 31.7312 44.9345L31.3371 44.7991C31.3371 44.7993 31.337 44.7995 31.3369 44.7997Z" fill="#1C2028" stroke="#1C2028" stroke-width="0.833333"/>
<path d="M48.633 15.0145L52.5292 11.1183C68.6231 11.211 81.6547 24.2918 81.7466 40.453L77.8506 44.349C77.3406 28.382 64.5406 15.5284 48.633 15.0145Z" fill="#1C2028" stroke="#1C2028" stroke-width="0.833333" stroke-linejoin="round"/>
<path d="M88.4962 56.9787L92.5666 52.9084C92.865 52.9913 93.0751 53.1333 93.2282 53.2967C93.4189 53.5003 93.5401 53.7578 93.6136 54.0282C93.687 54.2983 93.7083 54.5651 93.7102 54.7678C93.7108 54.8388 93.7091 54.9007 93.7067 54.9505L89.7797 58.8775C89.7612 58.7634 89.7365 58.6445 89.7037 58.5237C89.6061 58.1645 89.4321 57.7717 89.1223 57.441C88.951 57.2582 88.7437 57.1003 88.4962 56.9787Z" fill="#1C2028" stroke="#1C2028" stroke-width="0.833333" stroke-linejoin="round"/>
<path d="M87.5685 56.7278C87.5012 56.7218 87.4348 56.7184 87.3696 56.7174L90.5668 53.5202L90.5668 53.5201C90.7771 53.3097 91.0199 53.1238 91.2971 52.9992L87.5685 56.7278Z" fill="#1C2028" stroke="#1C2028" stroke-width="0.833333" stroke-linejoin="round"/>
<mask id="path-5-inside-1_8_17444" fill="white">
<path d="M90.2719 53.2256C89.6997 53.7981 89.4136 54.4657 89.4136 54.4657L84.6995 59.1798C84.6995 59.1798 84.9857 58.5121 85.5579 57.9396L90.2719 53.2256Z"/>
</mask>
<path d="M90.2719 53.2256C89.6997 53.7981 89.4136 54.4657 89.4136 54.4657L84.6995 59.1798C84.6995 59.1798 84.9857 58.5121 85.5579 57.9396L90.2719 53.2256Z" fill="#1C2028"/>
<path d="M89.4136 54.4657L90.0028 55.055C90.0778 54.98 90.1378 54.8914 90.1795 54.794L89.4136 54.4657ZM90.2719 53.2256L90.8613 53.8147C91.1866 53.4892 91.1866 52.9616 90.8611 52.6363C90.5357 52.3109 90.0081 52.3109 89.6827 52.6363L90.2719 53.2256ZM85.5579 57.9396L84.9686 57.3504L84.9685 57.3505L85.5579 57.9396ZM84.6995 59.1798L83.9336 58.8515C83.7762 59.2187 83.9015 59.6459 84.2323 59.8698C84.5631 60.0938 85.0063 60.0515 85.2888 59.769L84.6995 59.1798ZM89.4136 54.4657C90.1795 54.794 90.1795 54.7942 90.1794 54.7943C90.1794 54.7944 90.1793 54.7945 90.1793 54.7946C90.1792 54.7948 90.1791 54.795 90.179 54.7951C90.1789 54.7955 90.1788 54.7958 90.1787 54.796C90.1784 54.7965 90.1783 54.7969 90.1782 54.7971C90.178 54.7975 90.1781 54.7973 90.1784 54.7965C90.1791 54.795 90.1808 54.7911 90.1836 54.7851C90.1892 54.7731 90.1988 54.7526 90.2126 54.7251C90.2402 54.6699 90.2837 54.5875 90.3428 54.489C90.4629 54.2889 90.6375 54.0386 90.8613 53.8147L89.6825 52.6365C89.3341 52.985 89.0796 53.3549 88.9136 53.6316C88.8296 53.7716 88.7658 53.892 88.7219 53.9798C88.6998 54.0238 88.6827 54.06 88.6703 54.0867C88.6642 54.1001 88.6592 54.1111 88.6554 54.1197C88.6535 54.1239 88.6519 54.1275 88.6506 54.1305C88.65 54.132 88.6494 54.1333 88.6489 54.1345C88.6486 54.1351 88.6484 54.1356 88.6482 54.1361C88.6481 54.1364 88.648 54.1366 88.6479 54.1368C88.6478 54.1369 88.6478 54.1371 88.6478 54.1372C88.6477 54.1373 88.6476 54.1375 89.4136 54.4657ZM89.6827 52.6363L84.9686 57.3504L86.1471 58.5289L90.8612 53.8148L89.6827 52.6363ZM84.9685 57.3505C84.6201 57.6991 84.3656 58.0689 84.1995 58.3457C84.1155 58.4857 84.0517 58.606 84.0078 58.6939C83.9858 58.7379 83.9686 58.774 83.9563 58.8008C83.9501 58.8141 83.9452 58.8252 83.9414 58.8337C83.9395 58.838 83.9379 58.8416 83.9366 58.8446C83.9359 58.846 83.9354 58.8474 83.9349 58.8485C83.9346 58.8491 83.9344 58.8497 83.9342 58.8501C83.934 58.8504 83.9339 58.8506 83.9338 58.8509C83.9338 58.851 83.9337 58.8511 83.9337 58.8512C83.9336 58.8514 83.9336 58.8515 84.6995 59.1798C85.4655 59.508 85.4654 59.5082 85.4653 59.5083C85.4653 59.5084 85.4653 59.5085 85.4652 59.5086C85.4651 59.5088 85.4651 59.509 85.465 59.5092C85.4649 59.5095 85.4647 59.5098 85.4646 59.5101C85.4644 59.5106 85.4642 59.5109 85.4641 59.5111C85.464 59.5115 85.464 59.5114 85.4644 59.5106C85.4651 59.509 85.4668 59.5052 85.4696 59.4992C85.4751 59.4872 85.4848 59.4667 85.4985 59.4392C85.5262 59.3839 85.5696 59.3016 85.6287 59.2031C85.7488 59.0029 85.9234 58.7527 86.1473 58.5287L84.9685 57.3505ZM85.2888 59.769L90.0028 55.055L88.8243 53.8765L84.1103 58.5905L85.2888 59.769Z" fill="#1C2028" mask="url(#path-5-inside-1_8_17444)"/>
<path d="M48.5256 25.1784L52.6173 21.0866C52.6668 21.1028 52.7142 21.1235 52.7591 21.1482L48.6461 25.2612C48.6072 25.2319 48.567 25.2043 48.5256 25.1784Z" fill="#1C2028" stroke="#1C2028" stroke-width="0.833333" stroke-linejoin="round"/>
<mask id="path-8-inside-2_8_17444" fill="white">
<path d="M52.4807 20.6347C52.4401 20.6307 52.3991 20.6287 52.3579 20.6287L47.6439 25.3427C47.6851 25.3427 47.726 25.3447 47.7666 25.3487L52.4807 20.6347Z"/>
</mask>
<path d="M52.4807 20.6347C52.4401 20.6307 52.3991 20.6287 52.3579 20.6287L47.6439 25.3427C47.6851 25.3427 47.726 25.3447 47.7666 25.3487L52.4807 20.6347Z" fill="#1C2028"/>
<path d="M52.3579 20.6287V19.7953C52.1369 19.7953 51.9249 19.8831 51.7686 20.0394L52.3579 20.6287ZM52.4807 20.6347L53.0699 21.224C53.2978 20.9961 53.3738 20.6574 53.2653 20.354C53.1568 20.0506 52.8831 19.837 52.5624 19.8054L52.4807 20.6347ZM47.7666 25.3487L47.6849 26.1781C47.9332 26.2025 48.1794 26.1145 48.3559 25.938L47.7666 25.3487ZM47.6439 25.3427L47.0546 24.7535C46.8163 24.9918 46.745 25.3502 46.874 25.6616C47.0029 25.973 47.3068 26.176 47.6439 26.176V25.3427ZM52.3579 21.462C52.3717 21.462 52.3853 21.4627 52.3989 21.464L52.5624 19.8054C52.4948 19.7987 52.4266 19.7953 52.3579 19.7953V21.462ZM51.8914 20.0454L47.1774 24.7595L48.3559 25.938L53.0699 21.224L51.8914 20.0454ZM47.8484 24.5194C47.7808 24.5128 47.7125 24.5094 47.6439 24.5094V26.176C47.6576 26.176 47.6713 26.1767 47.6849 26.1781L47.8484 24.5194ZM48.2331 25.932L52.9472 21.2179L51.7686 20.0394L47.0546 24.7535L48.2331 25.932Z" fill="#1C2028" mask="url(#path-8-inside-2_8_17444)"/>
<mask id="path-10-inside-3_8_17444" fill="white">
<path d="M52.3574 20.6287C52.0238 20.6287 51.7063 20.7618 51.4733 20.9949L46.7597 25.7086C46.9926 25.4757 47.31 25.3427 47.6433 25.3427L52.3574 20.6287Z"/>
</mask>
<path d="M52.3574 20.6287C52.0238 20.6287 51.7063 20.7618 51.4733 20.9949L46.7597 25.7086C46.9926 25.4757 47.31 25.3427 47.6433 25.3427L52.3574 20.6287Z" fill="#1C2028"/>
<path d="M46.465 25.4139C46.4649 25.4141 46.4647 25.4143 46.4646 25.4144L47.054 26.0035C47.0541 26.0034 47.0542 26.0033 47.0543 26.0032L46.465 25.4139ZM51.4733 20.9949L52.0626 21.5842L52.0627 21.584L51.4733 20.9949ZM52.3574 20.6287L52.9466 21.2179C53.185 20.9796 53.2562 20.6212 53.1273 20.3098C52.9983 19.9984 52.6944 19.7953 52.3574 19.7953V20.6287ZM47.6433 25.3427V26.176C47.8643 26.176 48.0763 26.0882 48.2326 25.932L47.6433 25.3427ZM46.7597 25.7086L46.1704 25.1193C45.845 25.4447 45.845 25.9723 46.1704 26.2977C46.4957 26.6232 47.0233 26.6233 47.3488 26.298L46.7597 25.7086ZM52.0627 21.584C52.1403 21.5064 52.2462 21.462 52.3574 21.462V19.7953C51.8014 19.7953 51.2722 20.0173 50.8839 20.4058L52.0627 21.584ZM51.7681 20.0394L47.0541 24.7535L48.2326 25.932L52.9466 21.2179L51.7681 20.0394ZM47.6433 24.5094C47.0877 24.5094 46.5588 24.7311 46.1706 25.1192L47.3488 26.298C47.4264 26.2204 47.5322 26.176 47.6433 26.176V24.5094ZM47.3489 26.2978L52.0626 21.5842L50.8841 20.4057L46.1704 25.1193L47.3489 26.2978Z" fill="#1C2028" mask="url(#path-10-inside-3_8_17444)"/>
<mask id="path-12-inside-4_8_17444" fill="white">
<path d="M51.4737 20.9949C51.4388 21.0298 51.4058 21.067 51.3749 21.1063L46.6608 25.8204C46.6917 25.7811 46.7248 25.7439 46.7597 25.7089L51.4737 20.9949Z"/>
</mask>
<path d="M51.4737 20.9949C51.4388 21.0298 51.4058 21.067 51.3749 21.1063L46.6608 25.8204C46.6917 25.7811 46.7248 25.7439 46.7597 25.7089L51.4737 20.9949Z" fill="#1C2028"/>
<path d="M51.3749 21.1063L51.9641 21.6956C51.9876 21.6721 52.0096 21.6473 52.0301 21.6212L51.3749 21.1063ZM51.4737 20.9949L52.0631 21.584C52.3885 21.2585 52.3884 20.7309 52.0629 20.4056C51.7375 20.0802 51.2099 20.0802 50.8845 20.4056L51.4737 20.9949ZM46.7597 25.7089L46.1704 25.1197L46.1703 25.1198L46.7597 25.7089ZM46.6608 25.8204L46.0056 25.3055C45.7332 25.6522 45.778 26.1511 46.1078 26.4438C46.4376 26.7364 46.9383 26.7214 47.2501 26.4096L46.6608 25.8204ZM52.0301 21.6212C52.0405 21.608 52.0515 21.5956 52.0631 21.584L50.8843 20.4058C50.8261 20.464 50.7711 20.526 50.7196 20.5915L52.0301 21.6212ZM50.8845 20.4056L46.1704 25.1197L47.3489 26.2982L52.063 21.5841L50.8845 20.4056ZM46.1703 25.1198C46.1121 25.1781 46.057 25.24 46.0056 25.3055L47.3161 26.3352C47.3264 26.3221 47.3375 26.3097 47.3491 26.298L46.1703 25.1198ZM47.2501 26.4096L51.9641 21.6956L50.7856 20.5171L46.0716 25.2311L47.2501 26.4096Z" fill="#1C2028" mask="url(#path-12-inside-4_8_17444)"/>
<path d="M63.3784 43.9217L49.2041 25.8818L53.3247 21.7612L67.4989 39.8012L63.3784 43.9217Z" fill="#1C2028" stroke="#1C2028" stroke-width="0.833333" stroke-linejoin="round"/>
<path d="M88.5435 78.8967L89.801 60.0344L93.6202 56.2152L92.3627 75.0775L88.5435 78.8967Z" fill="#1C2028" stroke="#1C2028" stroke-width="0.833333" stroke-linejoin="round"/>
<mask id="path-16-inside-5_8_17444" fill="white">
<path d="M68.1487 39.9654C68.1201 39.9193 68.0889 39.8756 68.0554 39.8345L63.3413 44.5485C63.3749 44.5897 63.4061 44.6334 63.4346 44.6794L68.1487 39.9654Z"/>
</mask>
<path d="M68.1487 39.9654C68.1201 39.9193 68.0889 39.8756 68.0554 39.8345L63.3413 44.5485C63.3749 44.5897 63.4061 44.6334 63.4346 44.6794L68.1487 39.9654Z" fill="#1C2028"/>
<path d="M68.0554 39.8345L68.7012 39.3079C68.5523 39.1252 68.333 39.0142 68.0976 39.0022C67.8622 38.9903 67.6328 39.0786 67.4661 39.2452L68.0554 39.8345ZM68.1487 39.9654L68.7379 40.5546C69.0114 40.2811 69.0608 39.8553 68.857 39.5265L68.1487 39.9654ZM63.4346 44.6794L62.7262 45.1183C62.8603 45.3347 63.0859 45.4779 63.3387 45.5072C63.5915 45.5365 63.8439 45.4486 64.0239 45.2687L63.4346 44.6794ZM63.3413 44.5485L62.7521 43.9593C62.4497 44.2616 62.4252 44.7437 62.6954 45.0751L63.3413 44.5485ZM67.4095 40.3611C67.4205 40.3746 67.4308 40.389 67.4403 40.4043L68.857 39.5265C68.8095 39.4497 68.7573 39.3767 68.7012 39.3079L67.4095 40.3611ZM67.5594 39.3761L62.8454 44.0902L64.0239 45.2687L68.7379 40.5546L67.5594 39.3761ZM64.143 44.2405C64.0954 44.1637 64.0433 44.0908 63.9872 44.0219L62.6954 45.0751C62.7064 45.0886 62.7167 45.103 62.7262 45.1183L64.143 44.2405ZM63.9306 45.1378L68.6446 40.4237L67.4661 39.2452L62.7521 43.9593L63.9306 45.1378Z" fill="#1C2028" mask="url(#path-16-inside-5_8_17444)"/>
<mask id="path-18-inside-6_8_17444" fill="white">
<path d="M68.291 40.2885C68.2597 40.1763 68.2123 40.0674 68.1489 39.9656L63.4349 44.6796C63.4982 44.7815 63.5456 44.8903 63.577 45.0026L68.291 40.2885Z"/>
</mask>
<path d="M68.291 40.2885C68.2597 40.1763 68.2123 40.0674 68.1489 39.9656L63.4349 44.6796C63.4982 44.7815 63.5456 44.8903 63.577 45.0026L68.291 40.2885Z" fill="#1C2028"/>
<path d="M68.1489 39.9656L68.8565 39.5254C68.7222 39.3095 68.4967 39.1667 68.2441 39.1377C67.9915 39.1087 67.7395 39.1965 67.5597 39.3763L68.1489 39.9656ZM68.291 40.2885L68.8803 40.8778C69.093 40.665 69.1746 40.3541 69.0936 40.0643L68.291 40.2885ZM63.577 45.0026L62.7744 45.2268C62.8541 45.512 63.0791 45.7335 63.3656 45.8087C63.652 45.8838 63.9568 45.8012 64.1662 45.5918L63.577 45.0026ZM63.4349 44.6796L62.8456 44.0904C62.5717 44.3643 62.5227 44.7909 62.7273 45.1198L63.4349 44.6796ZM67.4413 40.4058C67.4624 40.4396 67.478 40.4756 67.4884 40.5128L69.0936 40.0643C69.0413 39.877 68.9622 39.6953 68.8565 39.5254L67.4413 40.4058ZM67.7018 39.6993L62.9877 44.4133L64.1662 45.5918L68.8803 40.8778L67.7018 39.6993ZM64.3796 44.7783C64.3272 44.591 64.2482 44.4093 64.1425 44.2394L62.7273 45.1198C62.7483 45.1536 62.764 45.1896 62.7744 45.2268L64.3796 44.7783ZM64.0241 45.2689L68.7382 40.5548L67.5597 39.3763L62.8456 44.0904L64.0241 45.2689Z" fill="#1C2028" mask="url(#path-18-inside-6_8_17444)"/>
<mask id="path-20-inside-7_8_17444" fill="white">
<path d="M68.3149 40.8579C68.3501 40.6726 68.3438 40.4781 68.2905 40.2886L63.5765 45.0026C63.6297 45.1921 63.6361 45.3867 63.6008 45.5719L68.3149 40.8579Z"/>
</mask>
<path d="M68.3149 40.8579C68.3501 40.6726 68.3438 40.4781 68.2905 40.2886L63.5765 45.0026C63.6297 45.1921 63.6361 45.3867 63.6008 45.5719L68.3149 40.8579Z" fill="#1C2028"/>
<path d="M68.2905 40.2886L69.0928 40.0631C69.0127 39.7782 68.7876 39.5572 68.5013 39.4823C68.215 39.4075 67.9105 39.4901 67.7013 39.6993L68.2905 40.2886ZM68.3149 40.8579L68.9041 41.4471C69.0224 41.3289 69.1023 41.1778 69.1335 41.0136L68.3149 40.8579ZM63.6008 45.5719L62.7822 45.4163C62.7138 45.7756 62.8878 46.1375 63.2111 46.3085C63.5344 46.4796 63.9314 46.4198 64.1901 46.1612L63.6008 45.5719ZM63.5765 45.0026L62.9872 44.4134C62.7741 44.6265 62.6927 44.938 62.7742 45.2281L63.5765 45.0026ZM67.4883 40.5141C67.5058 40.5763 67.508 40.6403 67.4962 40.7022L69.1335 41.0136C69.1922 40.705 69.1818 40.3798 69.0928 40.0631L67.4883 40.5141ZM67.7256 40.2686L63.0116 44.9827L64.1901 46.1612L68.9041 41.4471L67.7256 40.2686ZM64.4195 45.7276C64.4782 45.419 64.4678 45.0939 64.3787 44.7771L62.7742 45.2281C62.7917 45.2903 62.7939 45.3543 62.7822 45.4163L64.4195 45.7276ZM64.1657 45.5919L68.8798 40.8778L67.7013 39.6993L62.9872 44.4134L64.1657 45.5919Z" fill="#1C2028" mask="url(#path-20-inside-7_8_17444)"/>
<path d="M85.0692 59.3992L88.5552 55.9132L85.6891 65.6981L82.2031 69.1841L85.0692 59.3992Z" fill="#1C2028" stroke="#1C2028" stroke-width="0.833333" stroke-linejoin="round"/>
<mask id="path-23-inside-8_8_17444" fill="white">
<path d="M68.1725 41.2451C68.2423 41.1232 68.2898 40.9922 68.3152 40.8579L63.6011 45.572C63.5757 45.7062 63.5282 45.8372 63.4585 45.9592L68.1725 41.2451Z"/>
</mask>
<path d="M68.1725 41.2451C68.2423 41.1232 68.2898 40.9922 68.3152 40.8579L63.6011 45.572C63.5757 45.7062 63.5282 45.8372 63.4585 45.9592L68.1725 41.2451Z" fill="#1C2028"/>
<path d="M68.3152 40.8579L69.134 41.0126C69.2019 40.6534 69.0277 40.2919 68.7044 40.1211C68.3812 39.9503 67.9844 40.0102 67.7259 40.2687L68.3152 40.8579ZM68.1725 41.2451L68.7618 41.8344C68.8141 41.782 68.8593 41.7229 68.896 41.6587L68.1725 41.2451ZM63.4585 45.9592L62.735 45.5456C62.5278 45.9081 62.6208 46.368 62.9526 46.6214C63.2844 46.8749 63.7525 46.8437 64.0478 46.5484L63.4585 45.9592ZM63.6011 45.572L63.0119 44.9827C62.8934 45.1012 62.8134 45.2526 62.7823 45.4173L63.6011 45.572ZM67.4963 40.7032C67.4878 40.748 67.4721 40.7913 67.4491 40.8316L68.896 41.6587C69.0124 41.455 69.0917 41.2364 69.134 41.0126L67.4963 40.7032ZM67.5833 40.6559L62.8692 45.3699L64.0478 46.5484L68.7618 41.8344L67.5833 40.6559ZM64.182 46.3727C64.2984 46.1691 64.3777 45.9504 64.42 45.7266L62.7823 45.4173C62.7738 45.462 62.758 45.5053 62.735 45.5456L64.182 46.3727ZM64.1904 46.1612L68.9044 41.4472L67.7259 40.2687L63.0119 44.9827L64.1904 46.1612Z" fill="#1C2028" mask="url(#path-23-inside-8_8_17444)"/>
<mask id="path-25-inside-9_8_17444" fill="white">
<path d="M68.0537 41.4182C68.0984 41.3637 68.1382 41.3056 68.1728 41.2449L63.4588 45.9589C63.4241 46.0197 63.3843 46.0777 63.3397 46.1323L68.0537 41.4182Z"/>
</mask>
<path d="M68.0537 41.4182C68.0984 41.3637 68.1382 41.3056 68.1728 41.2449L63.4588 45.9589C63.4241 46.0197 63.3843 46.0777 63.3397 46.1323L68.0537 41.4182Z" fill="#1C2028"/>
<path d="M68.1728 41.2449L68.8969 41.6574C69.1034 41.2948 69.01 40.8354 68.6782 40.5823C68.3464 40.3292 67.8786 40.3606 67.5836 40.6556L68.1728 41.2449ZM68.0537 41.4182L68.643 42.0075C68.6624 41.988 68.6809 41.9676 68.6984 41.9463L68.0537 41.4182ZM63.3397 46.1323L62.695 45.6042C62.4135 45.9478 62.451 46.4518 62.7803 46.75C63.1096 47.0481 63.6148 47.0356 63.9289 46.7215L63.3397 46.1323ZM63.4588 45.9589L62.8695 45.3697C62.8169 45.4223 62.7715 45.4817 62.7347 45.5464L63.4588 45.9589ZM67.4487 40.8324C67.4371 40.8527 67.4239 40.8721 67.4091 40.8901L68.6984 41.9463C68.7729 41.8553 68.8392 41.7585 68.8969 41.6574L67.4487 40.8324ZM67.4644 40.829L62.7504 45.543L63.9289 46.7215L68.643 42.0075L67.4644 40.829ZM63.9843 46.6603C64.0589 46.5693 64.1252 46.4726 64.1828 46.3714L62.7347 45.5464C62.7231 45.5668 62.7098 45.5861 62.695 45.6042L63.9843 46.6603ZM64.048 46.5482L68.7621 41.8341L67.5836 40.6556L62.8695 45.3697L64.048 46.5482Z" fill="#1C2028" mask="url(#path-25-inside-9_8_17444)"/>
<path d="M47.4695 14.999C41.7724 15.0311 36.4485 16.6458 31.9122 19.4269C36.9744 14.5046 43.7931 11.3944 51.3331 11.1354L47.4695 14.999Z" fill="#1C2028" stroke="#1C2028" stroke-width="0.833333" stroke-linejoin="round"/>
<path d="M81.7294 41.6483C81.4711 49.2601 78.3416 56.1396 73.3936 61.2307C76.2017 56.6547 77.8335 51.2733 77.8656 45.5121L81.7294 41.6483Z" fill="#1C2028" stroke="#1C2028" stroke-width="0.833333" stroke-linejoin="round"/>
<path d="M49.4499 30.2414L53.5704 26.1209L64.5642 40.1129L60.4436 44.2335L49.4499 30.2414Z" fill="#1C2028" stroke="#1C2028" stroke-width="0.833333" stroke-linejoin="round"/>
<path d="M81.2563 69.5848L85.3768 65.4643C85.4611 65.5773 85.527 65.6928 85.5779 65.8089L81.4814 69.9054C81.4164 69.7964 81.3417 69.6892 81.2563 69.5848Z" fill="#1C2028" stroke="#1C2028" stroke-width="0.833333" stroke-linejoin="round"/>
<path d="M80.6448 69.0184C80.0767 68.6115 79.5083 68.4778 78.9974 68.4901L82.3191 65.1684L82.3226 65.1654C82.3316 65.1578 82.3464 65.1456 82.3666 65.1298C82.4072 65.0981 82.4689 65.0525 82.5487 65.0012C82.7095 64.8978 82.9359 64.7759 83.2032 64.6957C83.6338 64.5663 84.1778 64.539 84.7586 64.9046L80.6448 69.0184Z" fill="#1C2028" stroke="#1C2028" stroke-width="0.833333" stroke-linejoin="round"/>
<path d="M85.3862 67.9667L81.8469 71.5061C81.8615 71.2699 81.8521 71.0186 81.804 70.762L85.7205 66.8455C85.7011 67.0351 85.6621 67.2164 85.6146 67.3809C85.5589 67.5741 85.4939 67.7355 85.4433 67.8476C85.4203 67.8985 85.4005 67.9388 85.3862 67.9667Z" fill="#1C2028" stroke="#1C2028" stroke-width="0.833333" stroke-linejoin="round"/>
<path d="M49.3105 49.0872V30.3808L53.1912 26.5001V45.2064L49.3105 49.0872Z" fill="#1C2028" stroke="#1C2028" stroke-width="0.833333" stroke-linejoin="round"/>
<path d="M51.6826 48.9925L53.8901 45.7091L64.4934 40.8894L63.8298 43.3824L51.6826 48.9925Z" fill="#1C2028" stroke="#1C2028" stroke-width="0.833333" stroke-linejoin="round"/>
<path d="M46.8105 30.3786L50.6912 26.4979V45.2065L46.8105 49.0872V30.3786Z" fill="#1C2028" stroke="#1C2028" stroke-width="0.833333" stroke-linejoin="round"/>
<path d="M92.0845 76.5339C91.8613 77.1226 91.473 77.7766 90.8305 78.2906C90.8185 78.3002 90.8071 78.3104 90.7962 78.3213L88.3852 80.7323C88.4292 80.5164 88.4542 80.3203 88.4646 80.1538L92.0845 76.5339Z" fill="#1C2028" stroke="#1C2028" stroke-width="0.833333" stroke-linejoin="round"/>
<mask id="path-37-inside-10_8_17444" fill="white">
<path d="M51.375 21.1064L36.663 39.8309L31.9489 44.5449L46.661 25.8205L51.375 21.1064Z"/>
</mask>
<path d="M51.375 21.1064L36.663 39.8309L31.9489 44.5449L46.661 25.8205L51.375 21.1064Z" fill="#1C2028"/>
<path d="M36.663 39.8309L37.2522 40.4201C37.2757 40.3967 37.2977 40.3718 37.3182 40.3457L36.663 39.8309ZM51.375 21.1064L52.0303 21.6213C52.3027 21.2746 52.2579 20.7757 51.9281 20.4831C51.5982 20.1905 51.0975 20.2054 50.7858 20.5172L51.375 21.1064ZM46.661 25.8205L46.0717 25.2312C46.0483 25.2547 46.0262 25.2795 46.0057 25.3056L46.661 25.8205ZM31.9489 44.5449L31.2936 44.0301C31.0212 44.3768 31.066 44.8757 31.3959 45.1683C31.7257 45.4609 32.2264 45.446 32.5382 45.1342L31.9489 44.5449ZM37.3182 40.3457L52.0303 21.6213L50.7198 20.5916L36.0077 39.316L37.3182 40.3457ZM50.7858 20.5172L46.0717 25.2312L47.2502 26.4097L51.9643 21.6957L50.7858 20.5172ZM46.0057 25.3056L31.2936 44.0301L32.6042 45.0598L47.3162 26.3353L46.0057 25.3056ZM32.5382 45.1342L37.2522 40.4201L36.0737 39.2416L31.3597 43.9557L32.5382 45.1342Z" fill="#1C2028" mask="url(#path-37-inside-10_8_17444)"/>
<mask id="path-39-inside-11_8_17444" fill="white">
<path d="M39.5942 40.1456L51.1079 25.4919L46.3938 30.206L34.8802 44.8597L39.5942 40.1456Z"/>
</mask>
<path d="M39.5942 40.1456L51.1079 25.4919L46.3938 30.206L34.8802 44.8597L39.5942 40.1456Z" fill="#1C2028"/>
<path d="M51.1079 25.4919L51.7631 26.0068C52.0355 25.6601 51.9907 25.1612 51.6609 24.8686C51.3311 24.576 50.8304 24.5909 50.5186 24.9027L51.1079 25.4919ZM39.5942 40.1456L40.1835 40.7349C40.207 40.7114 40.229 40.6866 40.2495 40.6605L39.5942 40.1456ZM34.8802 44.8597L34.2249 44.3448C33.9525 44.6915 33.9973 45.1904 34.3271 45.4831C34.657 45.7757 35.1577 45.7607 35.4694 45.4489L34.8802 44.8597ZM46.3938 30.206L45.8046 29.6167C45.7811 29.6402 45.759 29.665 45.7385 29.6911L46.3938 30.206ZM50.4526 24.9771L38.939 39.6308L40.2495 40.6605L51.7631 26.0068L50.4526 24.9771ZM39.005 39.5564L34.2909 44.2704L35.4694 45.4489L40.1835 40.7349L39.005 39.5564ZM35.5355 45.3745L47.0491 30.7208L45.7385 29.6911L34.2249 44.3448L35.5355 45.3745ZM46.9831 30.7952L51.6971 26.0812L50.5186 24.9027L45.8046 29.6167L46.9831 30.7952Z" fill="#1C2028" mask="url(#path-39-inside-11_8_17444)"/>
<path d="M50.8133 51.5089L53.8491 48.4731L61.016 45.2154L57.9801 48.2512L50.8133 51.5089Z" fill="#1C2028" stroke="#1C2028" stroke-width="0.833333" stroke-linejoin="round"/>
<path d="M80.0432 74.9866L79.7292 75.3005L81.3248 73.2064L81.6387 72.8925L80.0432 74.9866Z" fill="#1C2028" stroke="#1C2028" stroke-width="0.833333" stroke-linejoin="round"/>
<mask id="path-43-inside-12_8_17444" fill="white">
<path d="M82.0346 64.8633C80.4045 66.804 77.5778 70.1567 75.8223 72.2049L71.1082 76.9189C72.8638 74.8707 75.6904 71.518 77.3206 69.5773L82.0346 64.8633Z"/>
</mask>
<path d="M82.0346 64.8633C80.4045 66.804 77.5778 70.1567 75.8223 72.2049L71.1082 76.9189C72.8638 74.8707 75.6904 71.518 77.3206 69.5773L82.0346 64.8633Z" fill="#1C2028"/>
<path d="M75.8223 72.2049L76.4115 72.7941C76.4266 72.7791 76.4411 72.7634 76.455 72.7472L75.8223 72.2049ZM82.0346 64.8633L82.6727 65.3993C82.9597 65.0576 82.9267 64.5506 82.5978 64.249C82.2689 63.9475 81.7609 63.9585 81.4454 64.274L82.0346 64.8633ZM77.3206 69.5773L76.7313 68.9881C76.7143 69.0051 76.698 69.0229 76.6825 69.0413L77.3206 69.5773ZM71.1082 76.9189L70.4755 76.3766C70.1841 76.7166 70.2135 77.2261 70.542 77.5304C70.8706 77.8346 71.3808 77.8248 71.6975 77.5082L71.1082 76.9189ZM76.455 72.7472C78.2134 70.6956 81.0424 67.3401 82.6727 65.3993L81.3965 64.3273C79.7665 66.2678 76.9422 69.6178 75.1895 71.6626L76.455 72.7472ZM81.4454 64.274L76.7313 68.9881L77.9098 70.1666L82.6239 65.4525L81.4454 64.274ZM76.6825 69.0413C75.0525 70.9819 72.2281 74.3318 70.4755 76.3766L71.7409 77.4612C73.4994 75.4097 76.3284 72.0542 77.9587 70.1133L76.6825 69.0413ZM71.6975 77.5082L76.4115 72.7941L75.233 71.6156L70.519 76.3297L71.6975 77.5082Z" fill="#1C2028" mask="url(#path-43-inside-12_8_17444)"/>
<mask id="path-45-inside-13_8_17444" fill="white">
<path d="M53.3662 60.1109L68.0534 41.4182L63.3393 46.1323L48.6522 64.825L53.3662 60.1109Z"/>
</mask>
<path d="M53.3662 60.1109L68.0534 41.4182L63.3393 46.1323L48.6522 64.825L53.3662 60.1109Z" fill="#1C2028"/>
<path d="M68.0534 41.4182L68.7086 41.9331C68.981 41.5864 68.9362 41.0875 68.6064 40.7948C68.2766 40.5022 67.7759 40.5172 67.4641 40.829L68.0534 41.4182ZM53.3662 60.1109L53.9555 60.7002C53.9789 60.6767 54.001 60.6519 54.0215 60.6258L53.3662 60.1109ZM48.6522 64.825L47.9969 64.3101C47.7245 64.6568 47.7693 65.1557 48.0991 65.4484C48.429 65.741 48.9296 65.726 49.2414 65.4142L48.6522 64.825ZM63.3393 46.1323L62.75 45.543C62.7266 45.5665 62.7045 45.5913 62.684 45.6174L63.3393 46.1323ZM67.3981 40.9034L52.7109 59.5961L54.0215 60.6258L68.7086 41.9331L67.3981 40.9034ZM52.777 59.5217L48.0629 64.2357L49.2414 65.4142L53.9555 60.7002L52.777 59.5217ZM49.3074 65.3398L63.9946 46.6471L62.684 45.6174L47.9969 64.3101L49.3074 65.3398ZM63.9286 46.7215L68.6426 42.0075L67.4641 40.829L62.75 45.543L63.9286 46.7215Z" fill="#1C2028" mask="url(#path-45-inside-13_8_17444)"/>
<mask id="path-47-inside-14_8_17444" fill="white">
<path d="M62.9354 43.8853L53.6079 55.7566L48.8939 60.4706L58.2213 48.5993L62.9354 43.8853Z"/>
</mask>
<path d="M62.9354 43.8853L53.6079 55.7566L48.8939 60.4706L58.2213 48.5993L62.9354 43.8853Z" fill="#1C2028"/>
<path d="M53.6079 55.7566L54.1972 56.3458C54.2206 56.3224 54.2427 56.2975 54.2632 56.2714L53.6079 55.7566ZM62.9354 43.8853L63.5906 44.4001C63.863 44.0534 63.8182 43.5545 63.4884 43.2619C63.1586 42.9693 62.6579 42.9842 62.3461 43.296L62.9354 43.8853ZM58.2213 48.5993L57.6321 48.01C57.6086 48.0335 57.5866 48.0584 57.5661 48.0844L58.2213 48.5993ZM48.8939 60.4706L48.2386 59.9558C47.9662 60.3025 48.011 60.8014 48.3408 61.094C48.6707 61.3866 49.1713 61.3717 49.4831 61.0599L48.8939 60.4706ZM54.2632 56.2714L63.5906 44.4001L62.2801 43.3704L52.9526 55.2417L54.2632 56.2714ZM62.3461 43.296L57.6321 48.01L58.8106 49.1886L63.5246 44.4745L62.3461 43.296ZM57.5661 48.0844L48.2386 59.9558L49.5491 60.9855L58.8766 49.1142L57.5661 48.0844ZM49.4831 61.0599L54.1972 56.3458L53.0186 55.1673L48.3046 59.8814L49.4831 61.0599Z" fill="#1C2028" mask="url(#path-47-inside-14_8_17444)"/>
<path d="M83.8902 84.7286L84.3203 84.2986C84.85 83.9012 85.5615 83.3661 86.3361 82.7814L86.0982 83.0193C85.6148 83.4054 84.8084 84.0275 83.8902 84.7286Z" fill="#1C2028" stroke="#1C2028" stroke-width="0.833333" stroke-linejoin="round"/>
<path d="M39.6847 40.6446L50.3881 45.5097L46.3034 49.5945L35.6 44.7293L39.6847 40.6446Z" fill="#1C2028" stroke="#1C2028" stroke-width="0.833333" stroke-linejoin="round"/>
<mask id="path-51-inside-15_8_17444" fill="white">
<path d="M75.8224 72.2051C75.0494 73.1069 74.4841 73.7559 74.32 73.9199L69.606 78.634C69.77 78.4699 70.3354 77.821 71.1084 76.9191L75.8224 72.2051Z"/>
</mask>
<path d="M75.8224 72.2051C75.0494 73.1069 74.4841 73.7559 74.32 73.9199L69.606 78.634C69.77 78.4699 70.3354 77.821 71.1084 76.9191L75.8224 72.2051Z" fill="#1C2028"/>
<path d="M74.32 73.9199L74.9093 74.5092L74.9093 74.5092L74.32 73.9199ZM75.8224 72.2051L76.4551 72.7474C76.7465 72.4074 76.7172 71.8979 76.3886 71.5936C76.06 71.2894 75.5498 71.2992 75.2331 71.6158L75.8224 72.2051ZM71.1084 76.9191L70.5191 76.3299C70.504 76.345 70.4895 76.3606 70.4756 76.3768L71.1084 76.9191ZM69.0167 78.0447C68.6913 78.3702 68.6913 78.8978 69.0167 79.2232C69.3421 79.5487 69.8698 79.5487 70.1952 79.2232L69.0167 78.0447ZM74.9093 74.5092C75.1025 74.316 75.6963 73.6327 76.4551 72.7474L75.1897 71.6628C74.4025 72.5811 73.8657 73.1957 73.7307 73.3307L74.9093 74.5092ZM75.2331 71.6158L70.5191 76.3299L71.6976 77.5084L76.4117 72.7943L75.2331 71.6158ZM70.4756 76.3768C69.6885 77.2952 69.1516 77.9098 69.0167 78.0447L70.1952 79.2232C70.3884 79.03 70.9822 78.3468 71.7411 77.4614L70.4756 76.3768ZM70.1952 79.2232L74.9093 74.5092L73.7307 73.3307L69.0167 78.0447L70.1952 79.2232Z" fill="#1C2028" mask="url(#path-51-inside-15_8_17444)"/>
<path d="M49.3105 59.4642V52.9334L51.4561 48.4654L53.1912 47.899V55.5835L49.3105 59.4642Z" fill="#1C2028" stroke="#1C2028" stroke-width="0.833333" stroke-linejoin="round"/>
<path d="M37.785 48.4688L41.8697 44.3841L50.3882 48.2561L46.3035 52.3408L37.785 48.4688Z" fill="#1C2028" stroke="#1C2028" stroke-width="0.833333" stroke-linejoin="round"/>
<path d="M46.8105 53.0121L50.6912 49.1314V55.5855L46.8105 59.4662V53.0121Z" fill="#1C2028" stroke="#1C2028" stroke-width="0.833333" stroke-linejoin="round"/>
<path d="M72.5982 77.3999L69.0533 80.9448C69.104 80.7738 69.1576 80.6016 69.2132 80.4329C69.3308 80.0759 69.4554 79.7415 69.5801 79.4681C69.7103 79.1828 69.8221 79.0065 69.9003 78.9284L73.0262 75.8025C72.8468 76.3859 72.6965 76.9716 72.5982 77.3999Z" fill="#1C2028" stroke="#1C2028" stroke-width="0.833333" stroke-linejoin="round"/>
<path d="M82.6591 88.4708L79.0297 92.1001L79.7146 88.9046L83.3439 85.2753L82.6591 88.4708Z" fill="#1C2028" stroke="#1C2028" stroke-width="0.833333" stroke-linejoin="round"/>
<path d="M22.1338 40.4522L18.2699 44.316C18.5283 36.7042 21.6578 29.8247 26.6058 24.7336C23.7977 29.3096 22.1659 34.691 22.1338 40.4522Z" fill="#1C2028" stroke="#1C2028" stroke-width="0.833333" stroke-linejoin="round"/>
<path d="M68.0875 66.5372C63.0253 71.4596 56.2065 74.5697 48.6665 74.8288L52.5302 70.9651C58.2272 70.9331 63.5512 69.3184 68.0875 66.5372Z" fill="#1C2028" stroke="#1C2028" stroke-width="0.833333" stroke-linejoin="round"/>
<mask id="path-60-inside-16_8_17444" fill="white">
<path d="M36.663 39.8313C36.6164 39.888 36.5744 39.9495 36.5376 40.0154L31.8235 44.7295C31.8603 44.6635 31.9024 44.602 31.949 44.5453L36.663 39.8313Z"/>
</mask>
<path d="M36.663 39.8313C36.6164 39.888 36.5744 39.9495 36.5376 40.0154L31.8235 44.7295C31.8603 44.6635 31.9024 44.602 31.949 44.5453L36.663 39.8313Z" fill="#1C2028"/>
<path d="M36.5376 40.0154L37.1268 40.6047C37.1813 40.5502 37.2279 40.4885 37.2654 40.4213L36.5376 40.0154ZM36.663 39.8313L37.307 40.3602C37.589 40.0168 37.552 39.5124 37.2228 39.2139C36.8935 38.9154 36.388 38.9278 36.0737 39.242L36.663 39.8313ZM31.949 44.5453L31.3597 43.9561C31.3405 43.9753 31.3222 43.9954 31.305 44.0164L31.949 44.5453ZM31.8235 44.7295L31.0957 44.3236C30.8932 44.6868 30.9894 45.1437 31.3212 45.3944C31.653 45.645 32.1188 45.6128 32.4128 45.3187L31.8235 44.7295ZM37.2654 40.4213C37.2778 40.3991 37.2917 40.3788 37.307 40.3602L36.019 39.3024C35.9411 39.3972 35.871 39.4998 35.8098 39.6096L37.2654 40.4213ZM36.0737 39.242L31.3597 43.9561L32.5382 45.1346L37.2523 40.4206L36.0737 39.242ZM31.305 44.0164C31.2271 44.1113 31.1569 44.2139 31.0957 44.3236L32.5514 45.1353C32.5637 45.1131 32.5777 45.0928 32.5929 45.0742L31.305 44.0164ZM32.4128 45.3187L37.1268 40.6047L35.9483 39.4262L31.2343 44.1402L32.4128 45.3187Z" fill="#1C2028" mask="url(#path-60-inside-16_8_17444)"/>
<path d="M46.4314 59.8454L37.6213 48.6325L41.7418 44.512L50.552 55.7249L46.4314 59.8454Z" fill="#1C2028" stroke="#1C2028" stroke-width="0.833333" stroke-linejoin="round"/>
<mask id="path-63-inside-17_8_17444" fill="white">
<path d="M36.5374 40.0151C36.5003 40.0813 36.4698 40.1501 36.4457 40.2205L31.7316 44.9346C31.7557 44.8641 31.7863 44.7954 31.8233 44.7292L36.5374 40.0151Z"/>
</mask>
<path d="M36.5374 40.0151C36.5003 40.0813 36.4698 40.1501 36.4457 40.2205L31.7316 44.9346C31.7557 44.8641 31.7863 44.7954 31.8233 44.7292L36.5374 40.0151Z" fill="#1C2028"/>
<path d="M36.4457 40.2205L37.0349 40.8098C37.1249 40.7198 37.1931 40.6105 37.2342 40.4901L36.4457 40.2205ZM36.5374 40.0151L37.2646 40.4221C37.4677 40.059 37.372 39.6017 37.0402 39.3506C36.7084 39.0996 36.2423 39.1317 35.9481 39.4259L36.5374 40.0151ZM31.8233 44.7292L31.2341 44.1399C31.1799 44.1941 31.1335 44.2554 31.0961 44.3222L31.8233 44.7292ZM31.7316 44.9346L30.9431 44.6651C30.8177 45.0319 30.9618 45.4367 31.2908 45.6418C31.6198 45.8469 32.0468 45.798 32.3209 45.5238L31.7316 44.9346ZM37.2342 40.4901C37.2422 40.4668 37.2523 40.444 37.2646 40.4221L35.8102 39.6082C35.7483 39.7186 35.6973 39.8334 35.6571 39.951L37.2342 40.4901ZM35.9481 39.4259L31.2341 44.1399L32.4126 45.3184L37.1266 40.6044L35.9481 39.4259ZM31.0961 44.3222C31.0343 44.4326 30.9833 44.5475 30.9431 44.6651L32.5202 45.2041C32.5281 45.1808 32.5382 45.1581 32.5505 45.1362L31.0961 44.3222ZM32.3209 45.5238L37.0349 40.8098L35.8564 39.6313L31.1424 44.3453L32.3209 45.5238Z" fill="#1C2028" mask="url(#path-63-inside-17_8_17444)"/>
<mask id="path-65-inside-18_8_17444" fill="white">
<path d="M36.4456 40.2207C36.361 40.4671 36.3581 40.7253 36.4248 40.9627L31.7107 45.6767C31.6441 45.4393 31.6469 45.1812 31.7316 44.9347L36.4456 40.2207Z"/>
</mask>
<path d="M36.4456 40.2207C36.361 40.4671 36.3581 40.7253 36.4248 40.9627L31.7107 45.6767C31.6441 45.4393 31.6469 45.1812 31.7316 44.9347L36.4456 40.2207Z" fill="#1C2028"/>
<path d="M36.4248 40.9627L37.014 41.552C37.2271 41.3389 37.3085 41.0275 37.2271 40.7374L36.4248 40.9627ZM36.4456 40.2207L37.2338 40.4914C37.3598 40.1245 37.216 39.7192 36.8869 39.5138C36.5579 39.3084 36.1306 39.3572 35.8564 39.6314L36.4456 40.2207ZM31.7316 44.9347L31.1423 44.3455C31.0526 44.4352 30.9846 44.5441 30.9434 44.6641L31.7316 44.9347ZM31.7107 45.6767L30.9084 45.9021C30.9884 46.187 31.2136 46.4081 31.4999 46.483C31.7862 46.5578 32.0907 46.4753 32.3 46.266L31.7107 45.6767ZM37.2271 40.7374C37.2046 40.6575 37.2059 40.5725 37.2338 40.4914L35.6575 39.95C35.5161 40.3617 35.5116 40.7931 35.6225 41.188L37.2271 40.7374ZM35.8564 39.6314L31.1423 44.3455L32.3208 45.524L37.0349 40.81L35.8564 39.6314ZM30.9434 44.6641C30.802 45.0758 30.7975 45.5071 30.9084 45.9021L32.513 45.4514C32.4906 45.3716 32.4919 45.2866 32.5197 45.2054L30.9434 44.6641ZM32.3 46.266L37.014 41.552L35.8355 40.3734L31.1215 45.0875L32.3 46.266Z" fill="#1C2028" mask="url(#path-65-inside-18_8_17444)"/>
<mask id="path-67-inside-19_8_17444" fill="white">
<path d="M36.4245 40.9624C36.4443 41.0333 36.4706 41.1028 36.5032 41.17L31.7891 45.8841C31.7565 45.8168 31.7303 45.7473 31.7104 45.6764L36.4245 40.9624Z"/>
</mask>
<path d="M36.4245 40.9624C36.4443 41.0333 36.4706 41.1028 36.5032 41.17L31.7891 45.8841C31.7565 45.8168 31.7303 45.7473 31.7104 45.6764L36.4245 40.9624Z" fill="#1C2028"/>
<path d="M36.5032 41.17L37.0924 41.7593C37.3434 41.5083 37.4079 41.1259 37.253 40.8065L36.5032 41.17ZM36.4245 40.9624L37.227 40.7377C37.1472 40.4526 36.9221 40.2313 36.6357 40.1563C36.3493 40.0812 36.0446 40.1638 35.8352 40.3731L36.4245 40.9624ZM31.7104 45.6764L31.1212 45.0872C30.9083 45.3001 30.8268 45.6112 30.908 45.9011L31.7104 45.6764ZM31.7891 45.8841L31.0393 46.2476C31.1569 46.4903 31.3847 46.661 31.6506 46.7058C31.9165 46.7506 32.1877 46.664 32.3784 46.4733L31.7891 45.8841ZM37.253 40.8065C37.2422 40.7842 37.2336 40.7613 37.227 40.7377L35.622 41.1871C35.6551 41.3053 35.6989 41.4213 35.7533 41.5336L37.253 40.8065ZM35.8352 40.3731L31.1212 45.0872L32.2997 46.2657L37.0138 41.5517L35.8352 40.3731ZM30.908 45.9011C30.9411 46.0194 30.9848 46.1354 31.0393 46.2476L32.539 45.5205C32.5282 45.4983 32.5195 45.4753 32.5129 45.4518L30.908 45.9011ZM32.3784 46.4733L37.0924 41.7593L35.9139 40.5808L31.1999 45.2948L32.3784 46.4733Z" fill="#1C2028" mask="url(#path-67-inside-19_8_17444)"/>
<mask id="path-69-inside-20_8_17444" fill="white">
<path d="M36.5034 41.1704C36.5467 41.2598 36.6006 41.3442 36.6644 41.4216L31.9503 46.1357C31.8865 46.0583 31.8326 45.9738 31.7894 45.8845L36.5034 41.1704Z"/>
</mask>
<path d="M36.5034 41.1704C36.5467 41.2598 36.6006 41.3442 36.6644 41.4216L31.9503 46.1357C31.8865 46.0583 31.8326 45.9738 31.7894 45.8845L36.5034 41.1704Z" fill="#1C2028"/>
<path d="M36.6644 41.4216L37.2536 42.0109C37.5573 41.7073 37.5805 41.2227 37.3073 40.8914L36.6644 41.4216ZM36.5034 41.1704L37.2536 40.8075C37.1361 40.5646 36.9083 40.3937 36.6423 40.3487C36.3763 40.3038 36.1049 40.3904 35.9142 40.5812L36.5034 41.1704ZM31.7894 45.8845L31.2001 45.2952C30.9493 45.546 30.8847 45.9281 31.0392 46.2474L31.7894 45.8845ZM31.9503 46.1357L31.3074 46.6659C31.4569 46.8471 31.6758 46.9568 31.9104 46.968C32.1451 46.9793 32.3735 46.891 32.5396 46.7249L31.9503 46.1357ZM37.3073 40.8914C37.2862 40.8658 37.2682 40.8376 37.2536 40.8075L35.7532 41.5333C35.8251 41.6819 35.9149 41.8226 36.0215 41.9518L37.3073 40.8914ZM35.9142 40.5812L31.2001 45.2952L32.3786 46.4737L37.0927 41.7597L35.9142 40.5812ZM31.0392 46.2474C31.1111 46.396 31.2009 46.5367 31.3074 46.6659L32.5933 45.6055C32.5722 45.5799 32.5541 45.5517 32.5395 45.5216L31.0392 46.2474ZM32.5396 46.7249L37.2536 42.0109L36.0751 40.8324L31.3611 45.5464L32.5396 46.7249Z" fill="#1C2028" mask="url(#path-69-inside-20_8_17444)"/>
<path d="M32.5065 46.1687L36.6271 42.0481L50.8189 60.1104L46.6983 64.231L32.5065 46.1687Z" fill="#1C2028" stroke="#1C2028" stroke-width="0.833333" stroke-linejoin="round"/>
<mask id="path-72-inside-21_8_17444" fill="white">
<path d="M53.2425 60.2553C53.2873 60.2105 53.3288 60.1623 53.3664 60.1111L48.6523 64.8251C48.6147 64.8763 48.5733 64.9245 48.5285 64.9693L53.2425 60.2553Z"/>
</mask>
<path d="M53.2425 60.2553C53.2873 60.2105 53.3288 60.1623 53.3664 60.1111L48.6523 64.8251C48.6147 64.8763 48.5733 64.9245 48.5285 64.9693L53.2425 60.2553Z" fill="#1C2028"/>
<path d="M53.3664 60.1111L54.0379 60.6045C54.2959 60.2534 54.2399 59.7628 53.9093 59.4789C53.5787 59.195 53.0852 59.2137 52.7771 59.5218L53.3664 60.1111ZM53.2425 60.2553L53.8318 60.8446L53.832 60.8444L53.2425 60.2553ZM48.5285 64.9693L47.9391 64.3802C47.6138 64.7057 47.6139 65.2333 47.9393 65.5587C48.2648 65.884 48.7924 65.884 49.1178 65.5586L48.5285 64.9693ZM48.6523 64.8251L48.0631 64.2359C48.0333 64.2657 48.0058 64.2977 47.9808 64.3317L48.6523 64.8251ZM52.6948 59.6176C52.6822 59.6348 52.6683 59.6511 52.6531 59.6662L53.832 60.8444C53.9064 60.7699 53.9753 60.6897 54.0379 60.6045L52.6948 59.6176ZM52.6533 59.666L47.9392 64.3801L49.1178 65.5586L53.8318 60.8446L52.6533 59.666ZM49.1179 65.5584C49.1924 65.4839 49.2613 65.4038 49.3238 65.3186L47.9808 64.3317C47.9682 64.3489 47.9542 64.3651 47.9391 64.3802L49.1179 65.5584ZM49.2416 65.4144L53.9556 60.7003L52.7771 59.5218L48.0631 64.2359L49.2416 65.4144Z" fill="#1C2028" mask="url(#path-72-inside-21_8_17444)"/>
<mask id="path-74-inside-22_8_17444" fill="white">
<path d="M52.3579 60.6215C52.703 60.6215 53.0154 60.4817 53.2416 60.2556L48.528 64.9692C48.3018 65.1955 47.9892 65.3355 47.6439 65.3355L52.3579 60.6215Z"/>
</mask>
<path d="M52.3579 60.6215C52.703 60.6215 53.0154 60.4817 53.2416 60.2556L48.528 64.9692C48.3018 65.1955 47.9892 65.3355 47.6439 65.3355L52.3579 60.6215Z" fill="#1C2028"/>
<path d="M52.9472 59.9607L52.9468 59.9611L53.5363 60.5501L53.5368 60.5496L52.9472 59.9607ZM53.2416 60.2556L53.8308 60.8449C54.1562 60.5195 54.1562 59.9919 53.8309 59.6664C53.5055 59.341 52.9779 59.3409 52.6525 59.6662L53.2416 60.2556ZM52.3579 60.6215V59.7881C52.1369 59.7881 51.9249 59.8759 51.7686 60.0322L52.3579 60.6215ZM47.6439 65.3355L47.0546 64.7463C46.8163 64.9846 46.745 65.343 46.874 65.6544C47.0029 65.9658 47.3068 66.1689 47.6439 66.1689V65.3355ZM48.528 64.9692L47.9387 64.3799L47.9386 64.3801L48.528 64.9692ZM52.6525 59.6662C52.5761 59.7425 52.4732 59.7881 52.3579 59.7881V61.4548C52.9328 61.4548 53.4546 61.2209 53.8306 60.845L52.6525 59.6662ZM51.7686 60.0322L47.0546 64.7463L48.2331 65.9248L52.9472 61.2107L51.7686 60.0322ZM47.6439 66.1689C48.2191 66.1689 48.7413 65.9346 49.1174 65.5583L47.9386 64.3801C47.8622 64.4564 47.7592 64.5022 47.6439 64.5022V66.1689ZM49.1172 65.5584L53.8308 60.8449L52.6523 59.6663L47.9387 64.3799L49.1172 65.5584Z" fill="#1C2028" mask="url(#path-74-inside-22_8_17444)"/>
<mask id="path-76-inside-23_8_17444" fill="white">
<path d="M51.7248 60.4492C51.9106 60.5587 52.1272 60.6215 52.3584 60.6215L47.6444 65.3355C47.4131 65.3355 47.1965 65.2727 47.0107 65.1633L51.7248 60.4492Z"/>
</mask>
<path d="M51.7248 60.4492C51.9106 60.5587 52.1272 60.6215 52.3584 60.6215L47.6444 65.3355C47.4131 65.3355 47.1965 65.2727 47.0107 65.1633L51.7248 60.4492Z" fill="#1C2028"/>
<path d="M52.3584 60.6215L52.9477 61.2108C53.186 60.9724 53.2573 60.614 53.1283 60.3026C52.9994 59.9912 52.6955 59.7882 52.3584 59.7882V60.6215ZM51.7248 60.4492L52.1478 59.7313C51.8205 59.5384 51.4042 59.5913 51.1355 59.86L51.7248 60.4492ZM47.0107 65.1633L46.4215 64.574C46.2392 64.7563 46.1516 65.0127 46.1841 65.2684C46.2166 65.5241 46.3656 65.7504 46.5877 65.8812L47.0107 65.1633ZM47.6444 65.3355V66.1689C47.8654 66.1689 48.0774 66.0811 48.2337 65.9248L47.6444 65.3355ZM52.3584 59.7882C52.28 59.7882 52.209 59.7673 52.1478 59.7313L51.3017 61.1672C51.6122 61.3501 51.9744 61.4548 52.3584 61.4548V59.7882ZM51.1355 59.86L46.4215 64.574L47.6 65.7525L52.314 61.0385L51.1355 59.86ZM46.5877 65.8812C46.8982 66.0642 47.2603 66.1689 47.6444 66.1689V64.5022C47.5659 64.5022 47.4949 64.4813 47.4338 64.4453L46.5877 65.8812ZM48.2337 65.9248L52.9477 61.2108L51.7692 60.0322L47.0551 64.7463L48.2337 65.9248Z" fill="#1C2028" mask="url(#path-76-inside-23_8_17444)"/>
<mask id="path-78-inside-24_8_17444" fill="white">
<path d="M51.3749 60.1438C51.4726 60.2682 51.5917 60.3712 51.7248 60.4494L47.0107 65.1634C46.8776 65.0853 46.7586 64.9822 46.6608 64.8578L51.3749 60.1438Z"/>
</mask>
<path d="M51.3749 60.1438C51.4726 60.2682 51.5917 60.3712 51.7248 60.4494L47.0107 65.1634C46.8776 65.0853 46.7586 64.9822 46.6608 64.8578L51.3749 60.1438Z" fill="#1C2028"/>
<path d="M51.7248 60.4494L52.314 61.0386C52.4964 60.8562 52.5841 60.5996 52.5514 60.3437C52.5186 60.0877 52.3692 59.8614 52.1467 59.7308L51.7248 60.4494ZM51.3749 60.1438L52.0301 59.6289C51.8829 59.4416 51.6625 59.3262 51.4246 59.312C51.1867 59.2977 50.9541 59.386 50.7856 59.5545L51.3749 60.1438ZM46.6608 64.8578L46.0716 64.2686C45.7733 64.5669 45.7449 65.041 46.0056 65.3727L46.6608 64.8578ZM47.0107 65.1634L46.5887 65.882C46.916 66.0742 47.3317 66.021 47.6 65.7527L47.0107 65.1634ZM52.1467 59.7308C52.1024 59.7047 52.0628 59.6705 52.0301 59.6289L50.7196 60.6587C50.8825 60.8659 51.081 61.0377 51.3028 61.168L52.1467 59.7308ZM50.7856 59.5545L46.0716 64.2686L47.2501 65.4471L51.9641 60.7331L50.7856 59.5545ZM46.0056 65.3727C46.1684 65.58 46.3669 65.7518 46.5887 65.882L47.4327 64.4448C47.3883 64.4188 47.3487 64.3845 47.3161 64.343L46.0056 65.3727ZM47.6 65.7527L52.314 61.0386L51.1355 59.8601L46.4215 64.5742L47.6 65.7527Z" fill="#1C2028" mask="url(#path-78-inside-24_8_17444)"/>
<path d="M68.6706 82.5066L72.496 78.6813L71.9011 88.4957L68.0758 92.321L68.6706 82.5066Z" fill="#1C2028" stroke="#1C2028" stroke-width="0.833333" stroke-linejoin="round"/>
<path d="M68.5994 92.9758L72.4801 89.0951H82.0346L78.1539 92.9758H68.5994Z" fill="#1C2028" stroke="#1C2028" stroke-width="0.833333" stroke-linejoin="round"/>
<path d="M18.2531 45.5111L22.1491 41.6151C22.6591 57.5822 35.4591 70.4358 51.3667 70.9496L47.4705 74.8458C31.3767 74.7532 18.345 61.6723 18.2531 45.5111Z" fill="#1C2028" stroke="#1C2028" stroke-width="0.833333" stroke-linejoin="round"/>
<path d="M14.7522 54.3145C14.7665 54.3389 14.7799 54.3623 14.7923 54.3846L10.6866 58.4904C10.5535 58.2761 10.3709 58.0174 10.1378 57.7648C9.75998 57.3555 9.22562 56.9399 8.54078 56.7826L12.4767 52.8467C13.2267 52.7704 13.8089 53.1495 14.2395 53.616C14.4652 53.8605 14.6367 54.1172 14.7522 54.3145Z" fill="#1C2028" stroke="#1C2028" stroke-width="0.833333" stroke-linejoin="round"/>
<mask id="path-84-inside-25_8_17444" fill="white">
<path d="M11.2219 52.9709C11.4693 52.7234 11.8111 52.5313 12.2817 52.4529L7.56761 57.1669C7.09701 57.2454 6.7553 57.4375 6.50781 57.6849L11.2219 52.9709Z"/>
</mask>
<path d="M11.2219 52.9709C11.4693 52.7234 11.8111 52.5313 12.2817 52.4529L7.56761 57.1669C7.09701 57.2454 6.7553 57.4375 6.50781 57.6849L11.2219 52.9709Z" fill="#1C2028"/>
<path d="M12.2817 52.4529L12.8709 53.0421C13.1271 52.786 13.1884 52.3937 13.0226 52.0715C12.8568 51.7494 12.5019 51.5713 12.1446 51.6309L12.2817 52.4529ZM11.2219 52.9709L10.6327 52.3815L10.6326 52.3816L11.2219 52.9709ZM6.50781 57.6849L5.91856 57.0956C5.59313 57.4211 5.59312 57.9487 5.91852 58.2741C6.24392 58.5996 6.77153 58.5996 7.09699 58.2742L6.50781 57.6849ZM7.56761 57.1669L7.70466 57.9889C7.87596 57.9604 8.03406 57.879 8.15686 57.7562L7.56761 57.1669ZM12.1446 51.6309C11.5101 51.7367 11.0081 52.0062 10.6327 52.3815L11.811 53.5602C11.9306 53.4407 12.1121 53.326 12.4187 53.2749L12.1446 51.6309ZM10.6326 52.3816L5.91856 57.0956L7.09707 58.2742L11.8111 53.5601L10.6326 52.3816ZM7.09699 58.2742C7.21655 58.1547 7.39801 58.04 7.70466 57.9889L7.43055 56.3449C6.79601 56.4507 6.29406 56.7202 5.91863 57.0956L7.09699 58.2742ZM8.15686 57.7562L12.8709 53.0421L11.6924 51.8636L6.97835 56.5777L8.15686 57.7562Z" fill="#1C2028" mask="url(#path-84-inside-25_8_17444)"/>
<path d="M18.5301 69.6018L22.6527 65.4792C23.8195 66.8672 25.4547 68.8071 26.8983 70.5081C28.1529 71.9863 29.2779 73.3022 29.8172 73.9074L25.6932 78.0315C25.171 77.4431 24.0754 76.1625 22.8196 74.6829C21.3579 72.9606 19.6991 70.9926 18.5301 69.6018Z" fill="#1C2028" stroke="#1C2028" stroke-width="0.833333" stroke-linejoin="round"/>
<path d="M10.1744 54.9771L6.37808 58.7734C6.45298 58.4822 6.58394 58.1972 6.80203 57.9792L6.80207 57.9791L10.1749 54.6063C10.1693 54.7273 10.1696 54.8348 10.1723 54.9229C10.1729 54.9418 10.1736 54.9599 10.1744 54.9771Z" fill="#1C2028" stroke="#1C2028" stroke-width="0.833333" stroke-linejoin="round"/>
<path d="M11.0559 59.2998L15.0983 55.2574L18.1856 65.7975L14.1432 69.8399L11.0559 59.2998Z" fill="#1C2028" stroke="#1C2028" stroke-width="0.833333" stroke-linejoin="round"/>
<path d="M22.0324 64.9209L17.9244 69.0289C17.9171 69.0241 17.9097 69.0193 17.9022 69.0145C17.696 68.8818 17.3982 68.7202 17.0364 68.6116C16.8082 68.5431 16.5558 68.4964 16.2875 68.49L19.6116 65.1659C20.3194 64.5322 20.9961 64.5411 21.5108 64.6957C21.711 64.7558 21.8884 64.8393 22.0324 64.9209Z" fill="#1C2028" stroke="#1C2028" stroke-width="0.833333" stroke-linejoin="round"/>
<path d="M26.2296 78.6736L30.3316 74.5716C30.3598 74.6265 30.3893 74.6873 30.4198 74.7541C30.5445 75.0274 30.6691 75.3618 30.7867 75.7188C30.989 76.3326 31.1637 76.9916 31.2783 77.4777L27.2522 81.5038C27.1449 81.0896 27.012 80.6206 26.8642 80.1721C26.7414 79.7995 26.606 79.4337 26.4638 79.1221C26.3927 78.9664 26.3148 78.8123 26.2296 78.6736Z" fill="#1C2028" stroke="#1C2028" stroke-width="0.833333" stroke-linejoin="round"/>
<mask id="path-91-inside-26_8_17444" fill="white">
<path d="M19.138 65.0508C19.1952 64.987 19.2576 64.9245 19.3255 64.8633L19.138 65.0508C18.8914 65.3252 18.7401 65.6208 18.6551 65.9172L13.9411 70.6312C14.0457 70.266 14.2512 69.9021 14.6114 69.5773L19.138 65.0508Z"/>
</mask>
<path d="M19.138 65.0508C19.1952 64.987 19.2576 64.9245 19.3255 64.8633L19.138 65.0508C18.8914 65.3252 18.7401 65.6208 18.6551 65.9172L13.9411 70.6312C14.0457 70.266 14.2512 69.9021 14.6114 69.5773L19.138 65.0508Z" fill="#1C2028"/>
<path d="M19.3255 64.8633L19.9147 65.4525C20.2342 65.133 20.2409 64.6171 19.9298 64.2895C19.6186 63.9618 19.103 63.9418 18.7675 64.2444L19.3255 64.8633ZM18.6551 65.9172L19.2444 66.5064C19.3444 66.4064 19.4173 66.2826 19.4563 66.1467L18.6551 65.9172ZM13.9411 70.6312L13.14 70.4017C13.0354 70.7669 13.1909 71.1566 13.5182 71.3493C13.8455 71.542 14.2618 71.4891 14.5304 71.2205L13.9411 70.6312ZM14.6114 69.5773L15.1694 70.1962C15.1801 70.1866 15.1905 70.1767 15.2007 70.1666L14.6114 69.5773ZM18.7675 64.2444C18.6783 64.3248 18.5952 64.408 18.5181 64.4938L19.7579 65.6077C19.7953 65.5661 19.8369 65.5242 19.8835 65.4822L18.7675 64.2444ZM18.5181 64.4938C18.1827 64.8672 17.9719 65.2763 17.854 65.6877L19.4563 66.1467C19.5082 65.9653 19.6002 65.7832 19.7579 65.6077L18.5181 64.4938ZM18.0659 65.3279L13.3518 70.042L14.5304 71.2205L19.2444 66.5064L18.0659 65.3279ZM14.7422 70.8607C14.8054 70.6403 14.9292 70.4129 15.1694 70.1962L14.0534 68.9584C13.5733 69.3912 13.2861 69.8918 13.14 70.4017L14.7422 70.8607ZM15.2007 70.1666L19.7273 65.64L18.5487 64.4615L14.0222 68.9881L15.2007 70.1666ZM19.7273 65.64L19.9147 65.4525L18.7362 64.274L18.5487 64.4615L19.7273 65.64Z" fill="#1C2028" mask="url(#path-91-inside-26_8_17444)"/>
<path d="M18.486 68.1323L14.418 72.2002C14.4071 72.1663 14.3963 72.1312 14.3858 72.095C14.2805 71.7301 14.217 71.2823 14.316 70.8455L18.1716 66.9899C18.199 67.2189 18.2466 67.4297 18.2992 67.612C18.3591 67.8196 18.4275 67.9972 18.486 68.1323Z" fill="#1C2028" stroke="#1C2028" stroke-width="0.833333" stroke-linejoin="round"/>
<path d="M19.6849 79.3437L14.8277 72.9687L18.9471 68.8493L23.8043 75.2243L19.6849 79.3437Z" fill="#1C2028" stroke="#1C2028" stroke-width="0.833333" stroke-linejoin="round"/>
<path d="M27.4494 82.4857L31.3763 78.5588L31.9798 88.5166L28.0529 92.4435L27.4494 82.4857Z" fill="#1C2028" stroke="#1C2028" stroke-width="0.833333" stroke-linejoin="round"/>
<path d="M7.58729 79.0316L6.31925 60.0115L10.2503 56.0804L11.5184 75.1005L7.58729 79.0316Z" fill="#1C2028" stroke="#1C2028" stroke-width="0.833333" stroke-linejoin="round"/>
<path d="M17.9654 92.9758L21.8461 89.0951H31.4007L27.5199 92.9758H17.9654Z" fill="#1C2028" stroke="#1C2028" stroke-width="0.833333" stroke-linejoin="round"/>
<path d="M7.65564 80.141L11.6444 76.1523C11.8183 76.9005 12.2167 77.8523 13.0159 78.6341L8.89125 82.7587C7.9973 81.8875 7.70217 80.7461 7.65564 80.141Z" fill="#1C2028" stroke="#1C2028" stroke-width="0.833333" stroke-linejoin="round"/>
<path d="M9.53498 83.2939L13.6555 79.1733C15.0983 80.3084 18.2522 82.6902 20.0331 84.0279L15.9142 88.1468C14.1801 86.8447 11.0263 84.4637 9.53498 83.2939Z" fill="#1C2028" stroke="#1C2028" stroke-width="0.833333" stroke-linejoin="round"/>
<path d="M21.219 88.5441L17.2068 92.5563L16.4085 88.8313L20.4207 84.8191L21.219 88.5441Z" fill="#1C2028" stroke="#1C2028" stroke-width="0.833333" stroke-linejoin="round"/>
<path d="M36.2745 41.7346C36.1869 41.6276 36.1129 41.5112 36.0534 41.3883C36.0534 41.3882 36.0533 41.3881 36.0533 41.3879L36.5034 41.1702C36.4708 41.103 36.4445 41.0335 36.4247 40.9626L36.2745 41.7346ZM36.2745 41.7346L50.9815 60.4526C51.1183 60.6266 51.2849 60.7709 51.4711 60.8803M36.2745 41.7346L51.4711 60.8803M35.9725 40.0585C35.854 40.4039 35.8501 40.7657 35.9432 41.0974L68.1486 39.9654M35.9725 40.0585C36.0063 39.9599 36.0491 39.8636 36.1009 39.771L36.5372 40.0152M35.9725 40.0585C35.9726 40.0584 35.9726 40.0583 35.9727 40.0582L36.4455 40.2206M35.9725 40.0585C35.9725 40.0587 35.9725 40.0588 35.9724 40.0589L36.4455 40.2206M36.5372 40.0152L36.1005 39.7717C36.151 39.6812 36.2087 39.5966 36.2725 39.5182L50.9815 20.7977C51.3133 20.3754 51.8206 20.1289 52.3576 20.1289C52.415 20.1289 52.4721 20.1317 52.5286 20.1373C53.0328 20.1862 53.4733 20.4485 53.7596 20.8307L68.4459 39.5223C68.4918 39.579 68.5345 39.639 68.5736 39.7021M36.5372 40.0152C36.574 39.9492 36.6161 39.8878 36.6626 39.8311L36.4455 40.2206M36.5372 40.0152C36.5002 40.0814 36.4696 40.1501 36.4455 40.2206M68.5736 39.7021L68.1486 39.9654M68.5736 39.7021C68.5735 39.7018 68.5733 39.7016 68.5731 39.7013L68.1486 39.9654M68.5736 39.7021C68.6622 39.8445 68.7284 39.9968 68.7723 40.1539M68.1486 39.9654C68.212 40.0673 68.2593 40.1761 68.2907 40.2884M68.7723 40.1539C68.7722 40.1536 68.7721 40.1533 68.772 40.1531L68.2907 40.2884M68.7723 40.1539C68.8467 40.4193 68.8555 40.6917 68.8064 40.9505M68.7723 40.1539L68.2907 40.2884M68.2907 40.2884L68.8064 40.9505M68.8064 40.9505L68.315 40.8577L68.8062 40.9511C68.8063 40.9509 68.8063 40.9507 68.8064 40.9505ZM51.4711 60.8803C51.7316 61.0337 52.0354 61.1216 52.3582 61.1216C52.9346 61.1216 53.4459 60.8424 53.7639 60.4141L68.4436 41.7308C68.5047 41.6558 68.5591 41.5763 68.6065 41.493C68.6066 41.4928 68.6068 41.4926 68.6069 41.4924L68.1724 41.2449L51.4711 60.8803ZM22.3238 65.2173C23.4985 66.6157 25.2781 68.7278 26.8349 70.5621C28.3914 72.3961 29.7534 73.9861 30.0407 74.2734C30.1077 74.3404 30.2144 74.5049 30.344 74.7888C30.467 75.0583 30.5905 75.3896 30.7076 75.745C30.9356 76.437 31.1286 77.1873 31.2393 77.6796L31.8755 88.1785H22.0779L21.1563 83.8782L21.1171 83.6953L20.9674 83.583C19.1758 82.2393 15.27 79.2931 13.9359 78.2258C12.7467 77.2744 12.4464 75.8302 12.4464 75.2615V75.2449L12.4453 75.2282L11.1036 55.1032L11.1025 55.0874L11.1007 55.0732L11.1006 55.0728L11.1006 55.0723L11.1005 55.0719L11.1005 55.0716L11.0991 55.0591C11.0979 55.0467 11.096 55.0266 11.0941 54.9998C11.0904 54.9461 11.0866 54.8662 11.0875 54.7684C11.0894 54.5703 11.1102 54.311 11.1812 54.0498C11.2523 53.7884 11.3682 53.5444 11.547 53.3535C11.7197 53.1691 11.9722 53.0112 12.3638 52.9459C13.1363 52.8171 13.7337 53.1906 14.1784 53.6725C14.3989 53.9114 14.567 54.1628 14.6804 54.3565C14.7367 54.4526 14.7784 54.5326 14.8053 54.5872C14.8162 54.6091 14.8246 54.6268 14.8306 54.6397L18.1751 66.0578L18.6602 67.7142L19.1356 66.0549C19.2153 65.7766 19.3718 65.4946 19.66 65.2347C20.3451 64.617 20.9931 64.6271 21.4871 64.7755C21.745 64.8529 21.9643 64.9707 22.1205 65.0713C22.1979 65.121 22.2576 65.1652 22.2964 65.1955C22.3073 65.2039 22.3164 65.2113 22.3238 65.2173ZM83.7467 83.583L83.597 83.6953L83.5578 83.8782L82.6362 88.1785H72.8385L73.4748 77.6796C73.5855 77.1873 73.7785 76.437 74.0065 75.745C74.1236 75.3896 74.2471 75.0583 74.3701 74.7888C74.4997 74.5049 74.6064 74.3404 74.6734 74.2734C74.9607 73.9861 76.3227 72.3961 77.8792 70.5621C79.436 68.7278 81.2155 66.6157 82.3903 65.2173C82.3977 65.2113 82.4068 65.2039 82.4177 65.1955C82.4565 65.1652 82.5162 65.121 82.5936 65.0713C82.7498 64.9707 82.9691 64.8529 83.227 64.7755C83.721 64.6271 84.369 64.617 85.0541 65.2347C85.3423 65.4946 85.4988 65.7766 85.5785 66.0549L86.0539 67.7142L86.539 66.0578L89.8835 54.6397C89.8895 54.6268 89.8979 54.6091 89.9088 54.5872C89.9357 54.5326 89.9774 54.4526 90.0337 54.3565C90.147 54.1628 90.3152 53.9114 90.5357 53.6725C90.9804 53.1906 91.5778 52.8171 92.3503 52.9459C92.7419 53.0112 92.9944 53.1691 93.1671 53.3535C93.3459 53.5444 93.4618 53.7884 93.5329 54.0498C93.6038 54.311 93.6247 54.5703 93.6266 54.7684C93.6275 54.8662 93.6237 54.9461 93.62 54.9998C93.619 55.014 93.618 55.0263 93.6171 55.0366C93.6163 55.0457 93.6156 55.0533 93.615 55.0591L93.6136 55.0716L93.6136 55.0719L93.6135 55.0723L93.6135 55.0728L93.6134 55.0732L93.6115 55.0874L93.6105 55.1032L92.2688 75.2282L92.2677 75.2449V75.2615C92.2677 75.8302 91.9674 77.2744 90.7782 78.2258C89.4441 79.2931 85.5383 82.2393 83.7467 83.583ZM50.6082 44.6029L40.3811 39.9542L50.6082 26.9379V44.6029ZM54.1082 44.6022V26.9395L64.334 39.9542L54.1082 44.6022ZM54.1082 54.3108V48.4468L61.2753 45.1891L54.1082 54.3108ZM43.44 45.1892L50.6082 48.4475V54.3124L43.44 45.1892ZM81.6637 40.6251C81.6637 56.8774 68.5408 70.0491 52.357 70.0491C36.1732 70.0491 23.0503 56.8774 23.0503 40.6251C23.0503 24.3729 36.1732 11.2012 52.357 11.2012C68.5408 11.2012 81.6637 24.3729 81.6637 40.6251Z" fill="white" stroke="#1C2028"/>
</svg>
